<svg width="87" height="28" fill="none" xmlns="http://www.w3.org/2000/svg"><path d="M86.704 27.567h-6.53c-.243-1.142-.502-2.268-.7-3.41-.091-.472-.228-.654-.761-.64-2.618.031-5.236.031-7.855 0-.395 0-.548.123-.67.488-.365 1.08-.76 2.146-1.156 3.212-.061.137-.244.35-.366.35-2.359.015-4.718.015-7.139.015.442-1.066.868-2.085 1.294-3.09 3.045-7.26 6.089-14.522 9.133-21.767.655-1.568 1.644-2.238 3.35-2.238h5.723c.182.883.38 1.75.563 2.633 1.492 7.17 2.983 14.34 4.49 21.524.198.914.426 1.827.624 2.74v.183zm-8.54-9.636c-.7-3.333-1.384-6.621-2.07-9.91-.03 0-.06-.014-.09-.014-1.203 3.303-2.39 6.59-3.608 9.924h5.769z" fill="url(#paint0_linear)"/><path d="M58.27 0c.867.167 1.734.29 2.587.487.776.183 1.537.426 2.374.67-.41 1.948-.822 3.851-1.217 5.708-1.096-.32-2.131-.685-3.212-.928-1.461-.32-2.968-.442-4.43-.046a4.664 4.664 0 00-1.674.883c-.807.685-.822 1.69-.046 2.405.533.502 1.157.913 1.781 1.294 1.431.852 2.923 1.598 4.323 2.526 1.629 1.081 2.832 2.573 3.075 4.567.441 3.547-.867 6.348-3.851 8.326-1.872 1.249-4.003 1.797-6.21 2.01-3.09.289-6.12-.061-9.073-1.035-.198-.061-.396-.153-.578-.229-.061-.03-.107-.06-.198-.122.41-1.948.837-3.911 1.263-5.92.503.212.974.44 1.462.639 2.298.928 4.688 1.354 7.154.898.64-.122 1.294-.411 1.842-.761 1.187-.792 1.294-2.284.213-3.212-.7-.61-1.553-1.066-2.36-1.553-1.263-.761-2.587-1.416-3.79-2.283-1.522-1.096-2.633-2.573-2.846-4.506-.32-2.922.776-5.282 3.014-7.124C49.82 1.096 52.135.381 54.6.091c.137-.015.274-.06.41-.091h3.258z" fill="url(#paint1_linear)"/><path d="M32.88.503c-.366.882-.716 1.72-1.066 2.557a6663.483 6663.483 0 00-10.062 24.05c-.152.381-.35.488-.746.472-2.116-.015-4.247-.03-6.363 0-.456 0-.593-.152-.7-.548C12.147 20.032 10.32 13.03 8.54 6.028c-.32-1.278-.974-2.161-2.207-2.71-1.948-.852-3.988-1.46-6.058-1.963C.183 1.34.091 1.309 0 1.295.015.486.015.486.776.486h11.127c1.766 0 3.03 1.02 3.364 2.77.944 4.933 1.858 9.864 2.801 14.796.046.213.092.427.153.731.09-.183.167-.29.213-.396L25.329.898c.122-.32.274-.426.624-.426 2.147.015 4.308.015 6.454.015.137 0 .29 0 .472.016z" fill="url(#paint2_linear)"/><path d="M30.078 27.582c1.933-9.057 3.866-18.053 5.8-27.064h7.032c-.29 1.37-.578 2.724-.867 4.064a5832.663 5832.663 0 00-4.765 22.345c-.106.518-.29.686-.837.67-1.933-.03-3.851-.015-5.784-.015h-.579z" fill="url(#paint3_linear)"/><defs><linearGradient id="paint0_linear" x1="4.854" y1="14.522" x2="86.249" y2="13.987" gradientUnits="userSpaceOnUse"><stop stop-color="#262860"/><stop offset="1" stop-color="#3D429B"/></linearGradient><linearGradient id="paint1_linear" x1="4.852" y1="14.318" x2="86.246" y2="13.782" gradientUnits="userSpaceOnUse"><stop stop-color="#262860"/><stop offset="1" stop-color="#3D429B"/></linearGradient><linearGradient id="paint2_linear" x1="4.851" y1="14.073" x2="86.245" y2="13.538" gradientUnits="userSpaceOnUse"><stop stop-color="#262860"/><stop offset="1" stop-color="#3D429B"/></linearGradient><linearGradient id="paint3_linear" x1="4.851" y1="14.257" x2="86.246" y2="13.722" gradientUnits="userSpaceOnUse"><stop stop-color="#262860"/><stop offset="1" stop-color="#3D429B"/></linearGradient></defs></svg>