<svg width="56" height="36" fill="none" xmlns="http://www.w3.org/2000/svg"><path fill-rule="evenodd" clip-rule="evenodd" d="M0 0h56v36H0V0z" fill="#016FD0"/><path fill-rule="evenodd" clip-rule="evenodd" d="M10.843 28.96v-8.793h9.29l.993 1.305 1.026-1.305h33.74v8.171s-.87.59-1.895.59H35.325l-1.119-1.398v1.398H30.51v-2.36s-.497.341-1.585.341h-1.242v2.02H22.09l-.995-1.336-1.025 1.335-9.227.032zM0 13.58l2.082-4.908h3.635l1.18 2.734V8.672h4.505l.715 1.989.683-1.989h20.226v.994s1.056-.994 2.796-.994l6.555.031 1.18 2.703V8.672h3.791l1.025 1.553V8.672h3.822v8.792h-3.822l-.994-1.553v1.553h-5.53l-.56-1.398H39.8l-.56 1.398H35.48c-1.491 0-2.454-.963-2.454-.963v.963H27.37l-1.118-1.398v1.398H5.188l-.559-1.398H3.138l-.56 1.398H0v-3.883z" fill="#fff"/><path fill-rule="evenodd" clip-rule="evenodd" d="M2.827 9.76L0 16.346h1.833l.528-1.305h3.045l.528 1.305h1.895L5.002 9.76H2.827zm1.057 1.522l.932 2.299H2.95l.933-2.3zM7.984 16.346V9.76h2.641l1.523 4.256 1.46-4.256h2.61v6.586H14.57v-4.847l-1.74 4.847h-1.43l-1.77-4.847v4.847H7.984zM17.336 16.346V9.76h5.375v1.46h-3.697v1.15h3.604v1.366h-3.604v1.18h3.697v1.43h-5.375zM23.643 9.76v6.586h1.646v-2.33h.684l1.957 2.33h2.02l-2.175-2.423c.9-.063 1.802-.84 1.802-2.02 0-1.398-1.088-2.143-2.3-2.143h-3.634zm1.646 1.46h1.864c.466 0 .777.341.777.683 0 .435-.435.684-.746.684H25.29V11.22zM31.969 16.346H30.29V9.76h1.678v6.586zM35.946 16.346h-.373c-1.74 0-2.827-1.367-2.827-3.262 0-1.926 1.056-3.324 3.262-3.324h1.802v1.553h-1.895c-.9 0-1.522.714-1.522 1.77 0 1.275.714 1.803 1.77 1.803h.436l-.653 1.46zM39.519 9.76l-2.828 6.586h1.833l.529-1.305h3.044l.528 1.305h1.896L41.693 9.76H39.52zm1.056 1.522l.932 2.299h-1.864l.932-2.3zM44.676 16.346V9.76h2.081l2.672 4.132V9.76h1.647v6.586h-2.02l-2.734-4.256v4.256h-1.646zM11.992 27.841v-6.586h5.344v1.49h-3.697v1.12h3.604v1.366h-3.604v1.181h3.697v1.43h-5.344zM38.245 27.841v-6.586h5.375v1.49h-3.697v1.12h3.604v1.366h-3.604v1.181h3.697v1.43h-5.375zM17.553 27.841l2.61-3.262-2.672-3.324h2.05l1.616 2.081 1.585-2.081h1.988l-2.64 3.293 2.609 3.293h-2.05l-1.554-2.02-1.491 2.02h-2.05zM24.917 21.255v6.586h1.678V25.76h1.74c1.46 0 2.578-.776 2.578-2.299 0-1.242-.87-2.205-2.361-2.205h-3.635zm1.678 1.49h1.833c.466 0 .807.28.807.747 0 .434-.341.745-.807.745h-1.802v-1.491h-.031zM31.628 21.255v6.586h1.647v-2.33h.683l1.957 2.33h2.02l-2.175-2.423c.901-.062 1.802-.84 1.802-2.02 0-1.398-1.087-2.143-2.3-2.143h-3.634zm1.615 1.49h1.865c.466 0 .776.343.776.684 0 .435-.435.684-.745.684h-1.896v-1.367zM44.365 27.841v-1.429h3.293c.497 0 .684-.249.684-.56 0-.279-.218-.558-.684-.558h-1.491c-1.305 0-2.02-.777-2.02-1.958 0-1.056.653-2.081 2.58-2.081h3.2l-.684 1.49h-2.765c-.529 0-.684.28-.684.53 0 .279.187.558.59.558h1.554c1.429 0 2.05.808 2.05 1.896 0 1.149-.683 2.081-2.143 2.081l-3.48.031zM50.423 27.841v-1.429h3.138c.498 0 .684-.249.684-.56 0-.279-.217-.558-.684-.558h-1.336c-1.304 0-2.019-.777-2.019-1.958 0-1.056.652-2.081 2.579-2.081h3.138l-.684 1.49h-2.703c-.528 0-.683.28-.683.53 0 .279.186.558.59.558h1.43c1.428 0 2.05.808 2.05 1.896 0 1.149-.684 2.081-2.144 2.081l-3.356.031z" fill="#016FD0"/></svg>