<svg width="58" height="39" fill="none" xmlns="http://www.w3.org/2000/svg"><path fill-rule="evenodd" clip-rule="evenodd" d="M.021.55h57.236l.066 17.833C50.417 15.744 28.43 9.456.042 17.305V.551H.021z" fill="#2C328C"/><path fill-rule="evenodd" clip-rule="evenodd" d="M.021 38.37h57.236V24.1C46.944 20.648 28.584 15.48.02 22.802V38.37z" fill="#FFF200"/><path fill-rule="evenodd" clip-rule="evenodd" d="M57.235 24.122C46.923 20.67 28.563 15.502 0 22.825v-5.52c28.409-7.827 50.375-1.539 57.279 1.078l-.044 5.739z" fill="#ED1C24"/><path fill-rule="evenodd" clip-rule="evenodd" d="M18.25 13.941c1.407-3.914 4.662-7.3 10.29-7.256 5.63.044 9.39 3.254 10.4 7.454-7.277-.747-12.093-.88-20.69-.198z" fill="#FFF200"/><path d="M12.797 31.158l3.826-5.717h1.429l4.09 5.717h-1.495l-1.166-1.737h-4.178l-1.099 1.737h-1.407zm2.88-2.353h3.387l-1.034-1.583a14.62 14.62 0 01-.704-1.187 5.133 5.133 0 01-.55 1.1l-1.099 1.67zm13.171 2.353v-.616c-.572.462-1.32.704-2.287.704-.417 0-.835-.044-1.187-.132-.374-.088-.638-.22-.813-.352a1.019 1.019 0 01-.374-.527c-.044-.132-.066-.352-.066-.66v-2.573h1.231v2.287c0 .374.022.616.066.748.088.176.242.33.484.44.242.11.55.153.923.153.374 0 .704-.044 1.034-.154.33-.11.55-.263.681-.44.132-.175.198-.461.198-.813v-2.22h1.232v4.133h-1.122v.022zm4.068 0v-4.134h1.1v.616c.285-.286.55-.484.791-.572.242-.088.506-.132.791-.132.418 0 .836.066 1.254.22l-.418.66a2.591 2.591 0 00-.901-.154c-.264 0-.506.044-.726.132a.896.896 0 00-.462.374 1.712 1.712 0 00-.198.813v2.155h-1.231v.022zm10.422-.506a5.93 5.93 0 01-1.319.462c-.418.088-.88.132-1.341.132-.792 0-1.407-.11-1.825-.33-.418-.22-.638-.506-.638-.857 0-.198.088-.396.242-.55.154-.176.374-.308.638-.396.264-.11.55-.176.88-.22.241-.044.593-.066 1.077-.11.989-.066 1.715-.154 2.176-.242v-.175c0-.286-.11-.484-.351-.594-.308-.154-.77-.242-1.386-.242-.571 0-1.011.066-1.275.176-.264.11-.484.33-.616.616l-1.187-.088c.11-.286.286-.528.528-.704.242-.176.615-.33 1.077-.418a8.765 8.765 0 011.65-.154c.615 0 1.12.044 1.494.132.396.088.66.198.858.308.176.132.308.286.374.484.044.11.066.33.066.637v.946c0 .66.022 1.055.088 1.231.044.176.154.33.307.506H43.58a2.338 2.338 0 01-.242-.55zm-.088-1.583c-.44.11-1.121.198-2 .264-.506.044-.858.088-1.078.132-.22.044-.374.132-.484.22-.11.11-.176.22-.176.33 0 .198.132.351.374.461.242.132.616.176 1.078.176.461 0 .901-.066 1.253-.176.374-.11.638-.285.814-.483.131-.154.197-.396.197-.704v-.22h.022z" fill="#2C328C" stroke="#2C328C" stroke-width=".216" stroke-miterlimit="22.926"/></svg>