<svg width="54" height="39" fill="none" xmlns="http://www.w3.org/2000/svg"><path d="M19.27 38.899H29.469l.067-.017c.017 0 .034 0 .067-.017.017 0 .034 0 .068-.017.017 0 .034 0 .067-.017l.068-.017.067-.016c.017 0 .034 0 .068-.017.016 0 .033-.017.067-.017l.067-.017.068-.017c.017 0 .034-.017.067-.017.017 0 .034-.016.068-.016.017 0 .033-.017.067-.017.017 0 .034-.017.067-.017l.068-.017.067-.017c.017 0 .034-.017.068-.017.017 0 .034-.017.067-.017.017 0 .034-.016.068-.016l.067-.017.068-.017c.016 0 .033-.017.067-.017.017 0 .034-.017.067-.017.017 0 .034-.017.068-.017.017 0 .033-.017.067-.017l.068-.016.067-.034.067-.034c.017-.017.034-.017.068-.034.017-.016.034-.016.067-.033.017-.017.034-.017.068-.034.017-.017.033-.017.067-.034.017-.017.034-.017.067-.033.017-.017.034-.017.068-.034l.067-.034.068-.033.067-.034c.017-.017.034-.017.068-.034.016-.017.033-.017.067-.034.017-.017.034-.017.067-.033.017-.017.034-.034.068-.034.017-.017.034-.017.067-.034.017-.017.034-.033.068-.033.017-.017.033-.034.067-.034.017-.017.034-.034.068-.034.016-.017.033-.034.067-.05.017-.017.034-.034.067-.051a.232.232 0 01.068-.05.232.232 0 01.067-.051.232.232 0 01.068-.05.233.233 0 01.067-.051c.017-.017.034-.034.067-.05a.234.234 0 01.068-.051.232.232 0 01.067-.051c.017-.017.034-.034.068-.05a.233.233 0 01.067-.051c.017-.017.034-.034.067-.05.017-.017.034-.034.068-.051l.067-.068.068-.067.067-.067c.017-.017.034-.051.068-.068.016-.017.033-.05.067-.067.017-.017.034-.05.067-.068.017-.017.034-.05.068-.067.017-.017.034-.05.067-.068.017-.016.034-.05.068-.067.017-.034.033-.05.067-.084.017-.034.034-.05.068-.084.016-.034.033-.051.067-.085.017-.033.034-.05.067-.084a.297.297 0 01.068-.084c.017-.034.033-.068.067-.085.017-.033.034-.067.068-.1a.351.351 0 01.067-.102.351.351 0 01.068-.101.351.351 0 01.067-.101c.017-.034.034-.068.067-.118.017-.034.034-.084.068-.118.017-.034.034-.084.067-.118a.503.503 0 01.068-.135.339.339 0 01.067-.135c.017-.05.034-.1.067-.151.017-.051.034-.118.068-.169a.82.82 0 01.067-.185.947.947 0 01.068-.203c.017-.084.033-.151.067-.236.017-.1.05-.185.068-.286.016-.118.05-.253.067-.388.034-.219.05-.438.05-.674V.942H26.94h.034H24.681c-.017 0-.034 0-.068.017-.016 0-.033 0-.067.017-.017 0-.034 0-.067.017l-.068.017-.067.016c-.017 0-.034 0-.068.017-.016 0-.033 0-.067.017-.017 0-.034.017-.067.017l-.068.017c-.017 0-.034.017-.067.017-.017 0-.034.017-.068.017-.017 0-.033.016-.067.016-.017 0-.034.017-.067.017l-.068.017c-.017 0-.034.017-.067.017-.017 0-.034.017-.068.017-.017 0-.033.017-.067.017-.017 0-.034.017-.068.017l-.067.016c-.017 0-.034.017-.067.017-.017 0-.034.017-.068.017-.017 0-.034.017-.067.017-.017 0-.034.017-.068.017-.017 0-.033.017-.067.017-.017 0-.034.016-.067.016l-.068.017c-.017 0-.034.017-.067.034-.017.017-.034.017-.068.034-.017.017-.034.017-.067.033-.017.017-.034.017-.068.034-.017.017-.033.017-.067.034-.017.017-.034.017-.067.034l-.068.033-.067.034c-.017.017-.034.017-.068.034-.017.017-.033.017-.067.033-.017.017-.034.017-.068.034-.016.017-.033.017-.067.034-.017.017-.034.017-.067.034-.017.016-.034.016-.068.033-.017.017-.034.017-.067.034-.017.017-.034.017-.068.034-.017.017-.033.033-.067.033-.017.017-.034.034-.067.034-.017.017-.034.034-.068.034a.232.232 0 01-.067.05c-.017.017-.034.034-.068.051-.017.017-.033.034-.067.05-.017.017-.034.034-.068.051a.232.232 0 01-.067.05.232.232 0 01-.067.051.232.232 0 01-.068.05c-.017.018-.034.034-.067.051-.017.017-.034.034-.068.05a.232.232 0 01-.067.051.232.232 0 01-.067.051.232.232 0 01-.068.05c-.017.017-.034.034-.067.051l-.068.068-.067.067-.068.067c-.016.017-.033.051-.067.068-.017.017-.034.05-.067.067-.017.017-.034.05-.068.068-.017.017-.034.05-.067.067-.017.017-.034.05-.068.068-.017.016-.033.05-.067.067-.017.017-.034.05-.068.067a.297.297 0 01-.067.085.297.297 0 01-.067.084c-.017.034-.034.05-.068.084-.017.034-.034.05-.067.084-.017.034-.034.068-.068.085-.017.033-.033.067-.067.1-.017.035-.034.068-.067.102-.017.034-.034.067-.068.101a.352.352 0 01-.067.101.96.96 0 01-.068.118c-.017.034-.033.084-.067.118-.017.034-.034.084-.067.118a.504.504 0 01-.068.135.503.503 0 01-.067.135.597.597 0 01-.068.152c-.017.05-.034.1-.067.168-.017.05-.034.118-.068.185-.017.068-.033.135-.067.203-.017.067-.034.151-.067.219-.017.084-.051.168-.068.27a6.476 6.476 0 00-.135 1.28v8.293c.05-.034.085-.067.135-.101.017-.017.034-.034.067-.05.017-.018.034-.034.068-.051.017-.017.034-.034.067-.05a.23.23 0 01.068-.051.232.232 0 01.067-.051c.017-.017.034-.034.068-.05l.067-.034c.017-.017.034-.034.068-.034l.067-.034c.017-.017.034-.033.067-.033.017-.017.034-.017.068-.034.017-.017.033-.017.067-.034.017-.017.034-.017.068-.034.016-.016.033-.016.067-.033.017-.017.034-.017.067-.034l.068-.034.067-.033c.017-.017.034-.017.068-.034.017-.017.033-.017.067-.034l.067-.034.068-.033.067-.034c.017-.017.034-.017.068-.034l.067-.033.068-.034.067-.034.067-.033.068-.034.067-.034.068-.017.067-.017.067-.016c.017 0 .034-.017.068-.017l.067-.017c.017 0 .034-.017.068-.017.017 0 .034-.017.067-.017l.068-.017.067-.016c.017 0 .034-.017.067-.017l.068-.017c.017 0 .034-.017.067-.017l.068-.017.067-.017.068-.017.067-.016.067-.017.068-.017.067-.017.068-.017.067-.017.067-.017.068-.017.067-.016.068-.017.067-.017.068-.017.067-.017.067-.017.068-.017.067-.016.068-.017.067-.017.067-.017.068-.017.067-.017.068-.017.067-.016.068-.017.067-.017.067-.017.068-.017.067-.017.068-.017.067-.016.068-.017.067-.017.067-.017H30.614l.067.017.068.017.067.017.068.016.067.017.067.017.068.017.067.017.068.017.067.017.067.016.068.017.067.017.068.017.067.017.067.017.068.017.067.017.068.016.067.017.068.017.067.017.067.017.068.017.067.017.068.016.067.017.068.017.067.017.067.017.068.017.067.017.068.016.067.017.067.017.068.017.067.017.068.017.067.017.067.016.068.017.067.017.068.017.067.017.068.017.067.016.067.017.068.017.067.017v2.68l-.067-.034-.068-.034-.067-.033-.067-.034-.068-.034-.067-.033-.068-.034-.067-.034-.068-.034-.067-.033-.067-.034-.068-.034-.067-.033-.068-.034-.067-.034-.067-.034-.068-.033-.067-.034-.068-.017-.067-.017-.068-.016-.067-.017-.067-.017-.068-.017-.067-.017-.068-.017-.067-.017-.067-.016-.068-.017-.067-.017-.068-.017-.067-.017-.068-.017-.067-.017-.067-.016-.068-.017-.067-.017-.068-.017-.067-.017-.067-.017-.068-.017-.067-.016-.068-.017-.067-.017-.067-.017-.068-.017-.067-.017-.068-.017-.067-.016-.068-.017-.067-.017-.067-.017-.068-.017-.067-.017-.068-.017-.067-.016-.068-.017-.067-.017-.067-.017-.068-.017-.067-.017-.068-.016-.067-.017-.068-.017-.067-.017-.067-.017-.068-.017H26.788l-.068.017-.067.017c-.017 0-.034 0-.067.017-.017 0-.034 0-.068.017-.017 0-.034 0-.067.017-.017 0-.034 0-.068.016-.017 0-.033.017-.067.017-.017 0-.034 0-.068.017-.016 0-.033.017-.067.017l-.067.017c-.017 0-.034.017-.068.017-.017 0-.034.016-.067.016-.017 0-.034.017-.068.017l-.067.017c-.017 0-.034.017-.068.017-.016 0-.033.017-.067.017-.017 0-.034.017-.067.017-.017 0-.034.017-.068.017-.017 0-.034.016-.067.016-.017 0-.034.017-.068.017-.016 0-.033.017-.067.017-.017 0-.034.017-.067.017-.017.017-.034.017-.068.034-.017.017-.034.017-.067.034-.017.016-.034.016-.068.033-.017.017-.033.017-.067.034-.017.017-.034.017-.067.034-.017.016-.034.016-.068.033-.017.017-.034.017-.067.034-.017.017-.034.017-.068.034-.017.017-.034.017-.067.033-.017.017-.034.017-.068.034-.017.017-.033.034-.067.034-.017.017-.034.034-.067.034-.017.016-.034.033-.068.033-.017.017-.034.034-.067.05a.232.232 0 01-.068.051c-.017.017-.033.034-.067.051-.017.017-.034.034-.067.05-.017.017-.034.034-.068.051-.017.017-.034.034-.067.05-.017.017-.034.034-.068.051a.232.232 0 01-.067.05l-.068.068c-.017.017-.033.05-.067.068-.017.017-.034.05-.068.067-.016.017-.033.05-.067.068-.017.016-.034.05-.067.067-.017.034-.034.05-.068.084a.297.297 0 01-.067.084c-.017.034-.034.051-.068.085a.351.351 0 01-.067.1.353.353 0 01-.067.102c-.017.034-.034.067-.068.118-.017.034-.034.084-.067.118a.504.504 0 01-.068.135.599.599 0 01-.067.151c-.017.051-.034.102-.067.169a.82.82 0 01-.068.185c-.017.068-.05.152-.067.22-.017.1-.05.185-.068.286a3.68 3.68 0 00-.067.455c-.017.186-.017.354-.017.54 0 .185 0 .37.017.539.017.152.034.303.067.455.017.101.034.202.068.286.017.068.033.152.067.22a.82.82 0 00.068.185c.016.05.033.118.067.168.017.051.034.102.067.152.017.05.034.084.068.135.017.034.034.084.067.118a.964.964 0 00.068.118c.017.034.033.067.067.101.017.034.034.068.067.101.017.034.034.068.068.084.017.034.034.051.067.085.017.034.034.05.068.084.017.017.033.05.067.067.017.017.034.051.067.068.017.017.034.05.068.067.017.017.034.05.067.068l.068.067a.232.232 0 00.067.05.233.233 0 00.068.051c.017.017.033.034.067.05a.234.234 0 00.067.051.234.234 0 00.068.051.232.232 0 00.067.05.233.233 0 00.068.051c.017.017.033.034.067.05.017.017.034.034.068.034.016.017.033.034.067.034.017.017.034.034.067.034.017.017.034.017.068.034.017.016.034.016.067.033.017.017.034.017.068.034.017.017.033.017.067.034.017.017.034.017.068.033.016.017.033.017.067.034.017.017.034.017.067.034.017.017.034.017.068.033.017.017.033.017.067.034.017.017.034.017.068.034.016 0 .033.017.067.017.017 0 .034.017.067.017.017 0 .034.016.068.016.017 0 .034.017.067.017.017 0 .034.017.068.017.017 0 .033.017.067.017.017 0 .034.017.067.017.017 0 .034.017.068.017.017 0 .034.017.067.017.017 0 .034.016.068.016.017 0 .034.017.067.017.017 0 .034.017.068.017l.067.017c.017 0 .034.017.067.017.017 0 .034.017.068.017.017 0 .034.017.067.017.017 0 .034 0 .068.016.017 0 .033 0 .067.017.017 0 .034 0 .067.017.017 0 .034 0 .068.017.017 0 .034 0 .067.017l.068.017H29.4l.068-.017.067-.017.067-.017.068-.017.067-.017.068-.016.067-.017.068-.017.067-.017.067-.017.068-.017.067-.017.068-.016.067-.017.067-.017.068-.017.067-.017.068-.017.067-.017.068-.016.067-.017.068-.017.067-.017.067-.017.068-.017.067-.017.068-.016.067-.017.067-.017.068-.017.067-.017.068-.017.067-.017.067-.016.068-.017.067-.017.068-.017.067-.017.068-.017.067-.017.067-.016.068-.017.067-.017.068-.017.067-.017.068-.017.067-.017.067-.016.068-.017.067-.034.068-.034.067-.033.067-.034.068-.034.067-.034.068-.033.067-.034.067-.034.068-.033.067-.034.068-.034.067-.033.068-.034.067-.034.067-.034.068-.033.067-.034v2.579l-.067.017-.068.017-.067.016-.067.017-.068.017-.067.017-.068.017-.067.017-.068.016-.067.017-.067.017-.068.017-.067.017-.068.017-.067.017-.067.017-.068.016-.067.017-.068.017-.067.017-.068.017-.067.017-.067.016-.068.017-.067.017-.068.017-.067.017-.067.017-.068.017-.067.016-.068.017-.067.017-.068.017-.067.017-.067.017-.068.017-.067.016-.068.017-.067.017-.067.017-.068.017-.067.017-.068.017-.067.016-.067.017-.068.017-.067.017-.068.017-.067.017h-6.675l-.067-.017-.067-.017-.068-.017-.067-.017-.068-.017-.067-.017-.068-.016-.067-.017-.067-.017-.068-.017.169-.152-.068-.016-.067-.017-.067-.017-.068-.017-.067-.017-.068-.017-.067-.017-.068-.016-.067-.017-.068-.017-.067-.017-.067-.017-.068-.017-.067-.017-.068-.016-.067-.017-.067-.017-.068-.017-.067-.017-.068-.017-.067-.017-.067-.016-.068-.017-.067-.017-.068-.017c-.017 0-.034-.017-.067-.017-.017 0-.034-.017-.068-.017l-.067-.017-.067-.016c-.017 0-.034-.017-.068-.017-.017 0-.034-.017-.067-.017l-.068-.017c-.017 0-.033-.017-.067-.017l-.067-.017-.068-.016-.067-.017-.068-.017-.067-.034-.068-.034-.067-.033-.067-.034-.068-.034-.067-.034c-.017-.016-.034-.016-.068-.033l-.067-.034-.067-.034-.068-.033c-.017-.017-.034-.017-.067-.034-.017-.017-.034-.017-.068-.034l-.067-.033-.068-.034-.067-.034c-.017-.017-.034-.017-.068-.034-.016-.016-.033-.016-.067-.033l-.067-.034c-.017-.017-.034-.017-.068-.034-.017-.017-.033-.033-.067-.033l-.068-.034c-.016-.017-.033-.034-.067-.034l-.067-.034c-.017-.016-.034-.033-.068-.05-.017-.017-.034-.034-.067-.05-.017-.018-.034-.034-.068-.051a.232.232 0 00-.067-.05c-.017-.018-.034-.035-.067-.051-.017-.017-.034-.034-.068-.05-.05-.035-.084-.068-.135-.102l.422 14.63z" fill="url(#paint0_linear)"/><path d="M39.884 20.696H44.3c.017 0 .05 0 .067.017H44.418c.017 0 .033.017.067.017.017 0 .034.016.068.016.016 0 .033.017.067.017.017 0 .034.017.067.017.017 0 .034.017.068.034.017.017.033.017.067.034.017.016.034.016.068.033.017.017.033.017.067.034.017.017.034.034.068.034.016.016.033.033.067.05.017.017.034.034.067.05a.234.234 0 00.068.051l.067.068c.017.017.034.05.068.067.017.017.033.05.067.068.017.033.034.05.067.084.017.034.034.067.068.101a.956.956 0 00.067.118c.017.05.05.101.068.152.017.067.05.134.067.202.034.118.05.253.05.387 0 .135-.016.27-.05.388a.95.95 0 01-.067.203c-.017.05-.034.1-.068.151-.017.034-.033.084-.067.118-.017.034-.034.068-.068.101-.016.034-.033.05-.067.084-.017.017-.034.051-.067.068-.017.017-.034.05-.068.067-.017.017-.033.034-.067.05-.017.018-.034.035-.068.051a.232.232 0 01-.067.051c-.017.017-.034.034-.067.05-.017.018-.034.034-.068.034-.017.017-.034.017-.067.034-.017.017-.034.017-.068.034-.017.017-.034.017-.067.034-.017.016-.034.016-.068.033-.016 0-.033.017-.067.017-.017 0-.034.017-.067.017-.017 0-.034.017-.068.017-.017 0-.034.017-.067.017H44.367c-.017 0-.033 0-.067.016H39.816v-3.286h.068zm-3.101 18.203h10.146c.017 0 .034 0 .067-.017l.068-.017.067-.017.068-.017c.017 0 .034 0 .067-.017.017 0 .034 0 .068-.016l.067-.017.067-.017c.017 0 .034-.017.068-.017.017 0 .034-.017.067-.017l.068-.017.067-.016.068-.017c.016 0 .033-.017.067-.017.017 0 .034-.017.067-.017.017 0 .034-.017.068-.017l.067-.017c.017 0 .034-.017.068-.017l.067-.016c.017 0 .034-.017.068-.017.016 0 .033-.017.067-.017.017 0 .034-.017.067-.017l.068-.017c.017 0 .033-.017.067-.017.017 0 .034-.017.068-.017.016 0 .033-.016.067-.016.017 0 .034-.017.067-.017.017-.017.034-.017.068-.034.017-.017.033-.017.067-.034l.068-.033.067-.034c.017-.017.034-.017.068-.034.016-.017.033-.017.067-.033.017-.017.034-.017.067-.034.017-.017.034-.017.068-.034.017-.017.033-.017.067-.034.017-.017.034-.017.068-.033.016-.017.033-.017.067-.034.017-.017.034-.017.067-.034l.068-.034c.017-.016.034-.016.067-.033.017-.017.034-.034.068-.034.017-.017.033-.034.067-.034.017-.017.034-.033.067-.033.017-.017.034-.034.068-.034a.233.233 0 01.067-.05c.017-.017.034-.034.068-.051.017-.017.034-.034.067-.05a.232.232 0 01.068-.051c.016-.017.033-.034.067-.05.017-.018.034-.035.067-.051.017-.017.034-.034.068-.051.017-.017.034-.034.067-.05a.23.23 0 01.068-.051.232.232 0 01.067-.05c.017-.017.034-.034.068-.051a.233.233 0 01.067-.05c.017-.018.034-.035.067-.051.017-.017.034-.034.068-.05l.067-.068.068-.068.067-.067c.017-.017.034-.05.067-.068.017-.017.034-.05.068-.067.017-.017.034-.05.067-.067.017-.017.034-.051.068-.068.017-.017.033-.05.067-.067.017-.017.034-.05.068-.085.016-.033.033-.05.067-.084.017-.033.034-.05.067-.084a.295.295 0 01.068-.084c.017-.034.033-.05.067-.085.017-.033.034-.067.068-.084.017-.034.033-.067.067-.101a.35.35 0 01.068-.101.351.351 0 01.067-.101c.017-.034.034-.068.067-.101.017-.034.034-.068.068-.118.017-.034.033-.085.067-.118.017-.034.034-.085.068-.118a.504.504 0 01.067-.135.502.502 0 01.067-.135c.017-.05.034-.101.068-.152.017-.05.034-.1.067-.151.017-.051.034-.118.068-.169a.603.603 0 01.067-.185c.017-.068.034-.152.068-.22.016-.084.05-.168.067-.252.017-.101.05-.22.067-.32.034-.152.05-.32.068-.49.017-.151.017-.303.017-.471V.942H42.176c-.017 0-.034 0-.067.017-.017 0-.034 0-.068.017-.017 0-.033 0-.067.017l-.068.017c-.017 0-.033 0-.067.016-.017 0-.034 0-.067.017-.017 0-.034 0-.068.017l-.067.017-.068.017c-.017 0-.033.017-.067.017-.017 0-.034.017-.068.017-.016 0-.033.016-.067.016l-.067.017c-.017 0-.034.017-.068.017-.017 0-.033.017-.067.017-.017 0-.034.017-.068.017-.017 0-.033.017-.067.017-.017 0-.034.017-.068.017l-.067.016c-.017 0-.034.017-.067.017-.017 0-.034.017-.068.017-.017 0-.033.017-.067.017-.017 0-.034.017-.068.017l-.067.017-.067.016c-.017 0-.034.017-.068.017-.017 0-.034.017-.067.017-.017.017-.034.017-.068.034-.016.017-.033.017-.067.034-.017.016-.034.016-.067.033-.017.017-.034.017-.068.034l-.067.034c-.017.017-.034.017-.068.033-.017.017-.034.017-.067.034-.017.017-.034.017-.068.034-.016.017-.033.017-.067.034-.017.016-.034.016-.067.033-.017.017-.034.017-.068.034-.017.017-.033.017-.067.034-.017.017-.034.017-.068.033-.017.017-.033.017-.067.034l-.068.034c-.016.017-.033.034-.067.034l-.067.033-.068.034a.232.232 0 01-.067.05l-.068.051c-.017.017-.033.034-.067.05-.017.018-.034.034-.067.051l-.068.05-.067.051a.232.232 0 01-.068.05c-.017.018-.033.035-.067.051-.017.017-.034.034-.068.051-.016.017-.033.034-.067.05a.232.232 0 01-.067.051.232.232 0 01-.068.05.232.232 0 01-.067.051l-.068.068-.067.067-.068.068c-.016.016-.033.05-.067.067-.017.017-.034.05-.067.067-.017.017-.034.051-.068.068-.017.017-.033.05-.067.067-.017.017-.034.05-.068.068-.016.017-.033.05-.067.067-.017.017-.034.05-.067.068-.017.033-.034.05-.068.084a.297.297 0 01-.067.084.296.296 0 01-.068.084c-.017.034-.033.05-.067.085-.017.033-.034.067-.068.084a.352.352 0 01-.067.101c-.017.034-.034.067-.067.101-.017.034-.034.068-.068.101-.017.034-.033.068-.067.101a.96.96 0 01-.068.118c-.016.034-.033.085-.067.118-.017.034-.034.085-.067.118a.506.506 0 01-.068.135c-.017.05-.034.101-.067.135a.597.597 0 01-.068.152c-.017.05-.033.1-.067.168-.017.05-.034.118-.067.186-.017.067-.034.134-.068.202-.017.067-.034.152-.067.219-.017.084-.05.169-.068.27a5.986 5.986 0 00-.135 1.23v6.624H47.216l.067.017.067.017c.017 0 .034 0 .068.017l.067.016c.017 0 .034 0 .068.017.017 0 .033 0 .067.017l.068.017c.016 0 .033.017.067.017.017 0 .034.017.067.017l.068.017c.017 0 .033.016.067.016.017 0 .034.017.068.017.017 0 .033.017.067.017.017 0 .034.017.068.017.016 0 .033.017.067.017.017 0 .034.017.067.017.017 0 .034.017.068.017.017 0 .033.016.067.016.017 0 .034.017.068.017.016 0 .033.017.067.034.017.017.034.017.067.034.017.017.034.017.068.033.017.017.034.017.067.034.017.017.034.017.068.034.016.017.033.017.067.033.017.017.034.017.067.034.017.017.034.017.068.034.017.017.034.017.067.034.017.016.034.033.068.033.017.017.034.034.067.034.017.017.034.034.068.05.016.017.033.034.067.051a.233.233 0 00.067.05c.017.017.034.034.068.051a.232.232 0 00.067.05.232.232 0 00.068.051l.067.068c.017.017.034.05.068.067.016.017.033.05.067.068.017.017.034.05.067.067.017.034.034.05.068.084.017.034.034.05.067.085a.351.351 0 00.068.1c.017.034.033.068.067.102.017.034.034.084.067.118.017.05.034.084.068.135.017.05.05.118.067.168.017.068.05.135.068.22.033.117.05.235.067.37.017.101.017.202.017.303 0 .102 0 .203-.017.287a2.61 2.61 0 01-.067.354c-.017.067-.034.152-.068.22-.017.05-.033.117-.067.168-.017.05-.034.1-.068.134-.016.034-.033.085-.067.119a.351.351 0 01-.067.1.351.351 0 01-.068.102c-.017.033-.033.067-.067.084a.297.297 0 01-.068.084.132.132 0 01-.067.068c-.017.017-.034.05-.067.067-.017.017-.034.05-.068.068l-.067.067c-.017.017-.034.034-.068.05-.017.017-.033.034-.067.051-.017.017-.034.034-.068.05a.232.232 0 01-.067.051.232.232 0 01-.067.05c-.017.018-.034.035-.068.051-.017.017-.033.034-.067.05-.017.018-.034.035-.068.035-.017.017-.033.033-.067.033-.017.017-.034.017-.068.034-.016.017-.033.017-.067.034-.017.017-.034.017-.067.033-.017.017-.034.017-.068.034-.017.017-.033.017-.067.034-.017.017-.034.017-.068.034-.017.016-.033.016-.067.033-.017.017-.034.017-.067.034-.017 0-.034.017-.068.017-.017 0-.034.017-.067.017-.017 0-.034.017-.068.017-.016 0-.033.016-.067.016-.017 0-.034.017-.067.017-.017 0-.034.017-.068.017-.017 0-.034.017-.067.017-.017 0-.034.017-.068.017-.017 0-.034.017-.067.017-.017 0-.034.017-.068.017-.017 0-.033.016-.067.016l-.068.017c-.016 0-.033.017-.067.017l-.067.017c-.017 0-.034 0-.068.017l-.067.017-.05.017v.067h.454c.017 0 .034 0 .068.017l.067.017c.017 0 .034 0 .068.016l.067.017.068.017c.016 0 .033 0 .067.017.017 0 .034.017.067.017.017 0 .034.017.068.017.017 0 .033.017.067.017.017 0 .034.017.068.017.016 0 .033.016.067.016.017 0 .034.017.067.017l.068.017c.017 0 .034.017.067.017.017 0 .034.017.068.017.016 0 .033.017.067.017.017 0 .034.017.067.017.017 0 .034.016.068.016.017 0 .034.017.067.017.017 0 .034.017.068.017.017 0 .034.017.067.034.017.017.034.017.068.033.016.017.033.017.067.034.017.017.034.017.067.034.017.017.034.017.068.034.017.016.034.016.067.033.017.017.034.017.068.034.017.017.033.017.067.034.017.017.034.017.068.033.016.017.033.017.067.034.017.017.034.034.067.034.017.017.034.034.068.034a.232.232 0 00.067.05.232.232 0 00.068.05c.017.017.033.034.067.051.017.017.034.034.067.05.017.018.034.035.068.051.017.017.034.034.067.05a.232.232 0 00.068.052l.067.067c.017.017.034.05.068.067.016.017.033.05.067.068.017.017.034.05.067.067.017.034.034.05.068.084.017.034.033.051.067.085.017.033.034.067.068.1.017.035.033.068.067.102.017.034.034.084.068.118.016.05.033.084.067.135.017.05.05.1.067.151.017.068.05.135.068.203.033.1.05.202.067.303.017.135.034.253.034.388s-.017.27-.034.404c-.017.101-.034.22-.067.32a.948.948 0 01-.068.203c-.017.05-.033.118-.067.168-.017.05-.034.101-.067.135-.017.034-.034.084-.068.118-.017.034-.034.068-.067.101a.351.351 0 01-.068.101c-.017.034-.034.068-.067.085-.017.033-.034.05-.068.084-.016.034-.033.05-.067.084-.017.017-.034.05-.068.068-.016.017-.033.05-.067.067-.017.017-.034.05-.067.067l-.068.068c-.017.017-.033.034-.067.05-.017.017-.034.034-.068.051a.234.234 0 01-.067.05c-.017.017-.034.034-.067.051a.23.23 0 01-.068.05c-.017.018-.033.034-.067.051-.017.017-.034.034-.068.05-.017.018-.033.035-.067.035-.017.016-.034.033-.067.033-.017.017-.034.017-.068.034-.017.017-.034.017-.067.034-.017.017-.034.017-.068.033-.017.017-.033.017-.067.034-.017.017-.034.017-.068.034-.016.017-.033.017-.067.034-.017.016-.034.016-.067.033-.017.017-.034.017-.068.034-.017.017-.033.017-.067.034-.017.017-.034.017-.068.017-.017 0-.033.016-.067.016-.017 0-.034.017-.068.017-.016 0-.033.017-.067.017-.017 0-.034.017-.067.017-.017 0-.034.017-.068.017l-.067.017c-.017 0-.034.016-.068.016-.017 0-.033.017-.067.017-.017 0-.034.017-.067.017-.017 0-.034.017-.068.017-.017 0-.034.017-.067.017-.017 0-.034.017-.068.017l-.067.017c-.017 0-.034.017-.067.017-.017 0-.034 0-.068.016l-.067.017-.068.017c-.017 0-.034 0-.067.017-.017 0-.034 0-.068.017H36.783v12.978zm8.005-21.995c.017.117.034.236.034.353 0 .118-.017.236-.034.354a.947.947 0 01-.067.203.338.338 0 01-.067.134c-.017.034-.034.068-.068.119-.017.033-.033.067-.067.084a.297.297 0 01-.067.084c-.017.017-.034.05-.068.067l-.067.068a.23.23 0 01-.068.05.233.233 0 01-.067.051c-.017.017-.034.034-.068.05-.017.017-.033.034-.067.034-.017.017-.034.017-.067.034-.017.017-.034.017-.068.034-.017.017-.034.017-.067.033-.017.017-.034.017-.068.034-.017 0-.033.017-.067.017-.017 0-.034.017-.068.017-.016 0-.033.017-.067.017-.017 0-.034.017-.067.017-.017 0-.034 0-.068.016h-1.146.186H39.816V15.69H43.895c.017 0 .034 0 .068.017.017 0 .033.017.067.017.017 0 .034.017.067.017.017 0 .034.016.068.016.017 0 .034.017.067.017.017 0 .034.017.068.034.017.017.034.017.067.034.017.016.034.016.068.033.017.017.033.017.067.034.017.017.034.034.067.034.017.017.034.034.068.05a.232.232 0 00.067.05.232.232 0 00.068.052l.067.067c.017.017.034.05.068.067.016.034.033.05.067.085.017.033.034.067.067.084.017.034.05.067.068.118.017.05.05.084.067.135-.421.118-.404.185-.388.253z" fill="url(#paint1_linear)"/><path d="M1.893 22.954a.503.503 0 01-.135-.067V7.263c0-.439.051-.877.135-1.281.017-.085.034-.186.068-.27.017-.067.033-.152.067-.22.017-.067.034-.134.068-.201a.822.822 0 01.067-.186c.017-.05.034-.1.067-.168a.599.599 0 01.068-.152.339.339 0 01.067-.135.504.504 0 01.068-.135c.017-.033.033-.084.067-.118.017-.033.034-.084.067-.118.017-.033.034-.067.068-.118.017-.033.034-.067.067-.1.017-.034.034-.068.068-.102a.352.352 0 01.067-.101.352.352 0 01.068-.101c.016-.034.033-.068.067-.084.017-.034.034-.051.067-.085.017-.033.034-.05.068-.084a.296.296 0 01.067-.084.296.296 0 01.068-.084.132.132 0 01.067-.068c.017-.017.034-.05.068-.067.016-.017.033-.05.067-.068.017-.017.034-.05.067-.067.017-.017.034-.05.068-.068.017-.016.033-.05.067-.067.017-.017.034-.05.068-.067l.067-.068.067-.067.068-.068a.232.232 0 01.067-.05.232.232 0 01.068-.05c.017-.018.033-.035.067-.051.017-.017.034-.034.068-.05.016-.018.033-.035.067-.051a.232.232 0 01.067-.051.232.232 0 01.068-.05.233.233 0 01.067-.051c.017-.017.034-.034.068-.05.016-.018.033-.034.067-.051l.067-.05a.233.233 0 01.068-.051.233.233 0 01.067-.051c.017-.017.034-.034.068-.034.017-.017.033-.033.067-.033.017-.017.034-.034.068-.034.016-.017.033-.034.067-.034.017-.017.034-.034.067-.034.017-.016.034-.016.068-.033.017-.017.034-.017.067-.034.017-.017.034-.017.068-.034.016-.017.033-.017.067-.033.017-.017.034-.017.067-.034.017-.017.034-.017.068-.034.017-.017.034-.017.067-.034l.068-.033c.017-.017.033-.017.067-.034.017-.017.034-.017.068-.034.016-.016.033-.016.067-.033.017-.017.034-.017.067-.034.017-.017.034-.017.068-.034.017-.017.034-.017.067-.033l.068-.017.067-.017.068-.017c.016 0 .033-.017.067-.017.017 0 .034-.017.067-.017.017 0 .034-.017.068-.017l.067-.016.068-.017c.016 0 .033-.017.067-.017.017 0 .034-.017.067-.017.017 0 .034-.017.068-.017.017 0 .034-.017.067-.017l.068-.017c.017 0 .033-.016.067-.016.017 0 .034-.017.068-.017.016 0 .033-.017.067-.017.017 0 .034-.017.067-.017l.068-.017c.017 0 .034-.017.067-.017.017 0 .034 0 .068-.017.016 0 .033 0 .067-.016.017 0 .034 0 .067-.017l.068-.017c.017 0 .034 0 .067-.017.017 0 .034 0 .068-.017.017 0 .033 0 .067-.017H19v31.637c0 .27-.016.539-.05.809a3.125 3.125 0 01-.067.387 1.769 1.769 0 01-.068.287 1.239 1.239 0 01-.067.236.947.947 0 01-.068.202.82.82 0 01-.067.185c-.017.05-.034.118-.067.169-.017.05-.034.101-.068.152-.017.05-.033.1-.067.134a.506.506 0 01-.068.135.271.271 0 01-.067.118c-.017.034-.034.085-.067.118-.017.034-.034.068-.068.118-.017.034-.033.068-.067.101-.017.034-.034.068-.068.101a.353.353 0 01-.067.102.351.351 0 01-.067.1c-.017.034-.034.068-.068.085-.017.034-.034.05-.067.084a.297.297 0 01-.068.084c-.017.034-.034.051-.067.085-.017.034-.034.05-.068.084-.016.034-.033.05-.067.084-.017.017-.034.05-.067.068-.017.017-.034.05-.068.067-.017.017-.034.05-.067.068-.017.016-.034.05-.068.067-.017.017-.033.05-.067.067-.017.017-.034.051-.067.068l-.068.067-.067.068-.068.067c-.017.017-.034.034-.067.05a.232.232 0 01-.068.051.233.233 0 01-.067.05c-.017.018-.034.035-.067.051a.234.234 0 01-.068.05.232.232 0 01-.067.051.232.232 0 01-.068.051c-.017.017-.033.034-.067.05-.017.017-.034.034-.068.051-.016.017-.033.034-.067.05a.232.232 0 01-.067.051.232.232 0 01-.068.05c-.017.018-.034.035-.067.051-.017.017-.034.034-.068.034-.017.017-.033.034-.067.034-.017.017-.034.034-.068.034-.016.016-.033.033-.067.033-.017.017-.034.034-.067.034-.017.017-.034.017-.068.034-.017.017-.033.017-.067.033-.017.017-.034.017-.068.034-.016.017-.033.017-.067.034-.017.017-.034.017-.067.033l-.068.034c-.017.017-.034.017-.067.034-.017.017-.034.017-.068.034-.016.017-.033.017-.067.033-.017.017-.034.017-.067.034-.017.017-.034.017-.068.034-.017.017-.034.017-.067.033l-.068.034-.067.034c-.017.017-.034.017-.068.017-.016 0-.033.017-.067.017-.017 0-.034.017-.067.017-.017 0-.034.016-.068.016-.017 0-.034.017-.067.017l-.068.017-.067.017c-.017 0-.034.017-.067.017-.017 0-.034.017-.068.017-.017 0-.034.016-.067.016l-.068.017-.067.017c-.017 0-.034.017-.068.017-.017 0-.033.017-.067.017-.017 0-.034.017-.067.017-.017 0-.034.017-.068.017l-.067.016-.068.017c-.017 0-.033.017-.067.017-.017 0-.034 0-.068.017-.016 0-.033 0-.067.017l-.067.017c-.017 0-.034 0-.068.017-.017 0-.034 0-.067.016-.017 0-.034 0-.068.017l-.067.017H7.725h.034H4.86h.033H1.994h.034-.27V25.567s.051.017.135.034l.068.016.067.017.068.017.067.017.067.017.068.017.067.016.068.017.067.017.067.017.068.017.067.017.068.017.067.017.068.016.067.017.067.017.068.017.067.017.068.017.067.017.068.016.067.017.067.017.068.017.067.017.068.017.067.016.067.017.068.017.067.017.068.017.067.017.068.017.067.016.067.017.068.017.067.017.068.017.067.017.067.017.068.016H11.72c.016 0 .033 0 .067-.017l.067-.016.068-.017.067-.017c.017 0 .034 0 .068-.017l.067-.017c.017 0 .034 0 .067-.017.017 0 .034 0 .068-.016l.067-.017.068-.017.067-.017c.017 0 .034 0 .068-.017l.067-.017.067-.017c.017 0 .034-.016.068-.016l.067-.017c.017 0 .034-.017.068-.017.017 0 .033-.017.067-.017l.068-.017c.016 0 .033-.017.067-.017.017 0 .034-.017.067-.017l.068-.016c.017 0 .034-.017.067-.017.017 0 .034-.017.068-.017l.067-.017c.017 0 .034-.017.067-.017l.068-.017.067-.017c.017 0 .034-.016.068-.016l.067-.017.067-.017c.017 0 .034-.017.068-.017.017 0 .034-.017.067-.017l.068-.017c.017 0 .034-.017.067-.017.017 0 .034-.016.068-.016.017 0 .033-.017.067-.017l.067-.017.068-.034c.017-.017.034-.017.067-.034.017-.016.034-.016.068-.033l.067-.034.068-.034c.016-.016.033-.016.067-.033.017-.017.034-.017.067-.034.017-.017.034-.017.068-.034.017-.017.034-.017.067-.034.017-.016.034-.016.068-.033.017-.017.033-.017.067-.034.017-.017.034-.017.068-.034.016-.016.033-.016.067-.033.017-.017.034-.017.067-.034.017-.017.034-.034.068-.034.017-.017.034-.033.067-.033.017-.017.034-.034.068-.034.016-.017.033-.034.067-.034.017-.017.034-.034.067-.05.017-.017.034-.034.068-.051.017-.017.034-.034.067-.05a.232.232 0 01.068-.051.232.232 0 01.067-.05c.017-.018.034-.034.067-.051.017-.017.034-.034.068-.05.017-.018.034-.034.067-.051.017-.017.034-.034.068-.05l.067-.068.068-.068c.017-.017.033-.05.067-.067.017-.017.034-.05.067-.068.017-.016.034-.05.068-.067.017-.017.034-.05.067-.067.017-.034.034-.051.068-.085a.297.297 0 01.067-.084c.017-.034.034-.05.068-.084.016-.034.033-.068.067-.085a.353.353 0 01.067-.1.351.351 0 01.068-.102.964.964 0 01.067-.118c.017-.034.034-.084.068-.118a.507.507 0 01.067-.135c.017-.05.034-.1.067-.151.017-.05.034-.101.068-.169a.82.82 0 01.067-.185c.017-.068.05-.152.068-.22.017-.1.05-.185.067-.286.034-.152.05-.286.068-.438a7.75 7.75 0 00.033-.624V13.87h-6.977v7.315c0 .118 0 .236-.017.337-.017.135-.034.286-.068.421-.017.084-.034.169-.067.236a.825.825 0 01-.068.185.597.597 0 01-.067.152.502.502 0 01-.068.135c-.016.034-.033.084-.067.118-.017.034-.034.067-.067.101-.017.034-.034.067-.068.101-.017.034-.033.068-.067.084-.017.034-.034.051-.068.085a.131.131 0 01-.067.067c-.017.017-.034.05-.067.068-.017.016-.034.05-.068.067l-.067.067a.233.233 0 01-.068.051c-.017.017-.033.034-.067.05a.233.233 0 01-.068.051c-.016.017-.033.034-.067.05-.017.017-.034.034-.067.051a.233.233 0 01-.068.05c-.017.018-.033.035-.067.035-.017.016-.034.033-.068.033-.016.017-.033.017-.067.034-.017.017-.034.017-.067.034-.017.017-.034.017-.068.033-.017.017-.034.017-.067.034-.017.017-.034.017-.068.034-.017.017-.033.017-.067.034-.017.016-.034.016-.068.033-.016.017-.033.017-.067.017-.017 0-.034.017-.067.017-.017 0-.034.017-.068.017-.017 0-.034.017-.067.017-.017 0-.034.016-.068.016-.016 0-.033.017-.067.017-.017 0-.034.017-.067.017-.017 0-.034.017-.068.017-.017 0-.034.017-.067.017-.017 0-.034.017-.068.017-.017 0-.033.017-.067.017-.017 0-.034 0-.068.016-.016 0-.033 0-.067.017-.017 0-.034 0-.067.017l-.068.017H5.382l-.067-.017-.068-.017-.067-.017-.067-.016-.068-.017-.067-.017-.068-.017-.067-.017-.068-.017-.067-.017-.067-.016-.068-.017-.067-.017-.068-.017-.067-.017L4.304 24l-.068-.016-.067-.017-.068-.017-.067-.017-.068-.017-.067-.017-.067-.017-.068-.017-.067-.016-.068-.017-.067-.017-.068-.017-.067-.017-.067-.017-.068-.017-.067-.016-.068-.017-.067-.017-.067-.017-.068-.017-.067-.017-.068-.017-.067-.016-.068-.017-.067-.017-.067-.017-.068-.017-.067-.017-.068-.017-.067-.016-.067-.017-.068-.017-.067-.017-.068-.017-.067-.017-.068-.017-.067-.016-.067-.034-.068-.034-.067-.033-.068-.034-.067-.034-.067-.034-.068-.033-.067-.034-.068-.034-.067-.033-.068-.034L1 22.97l.893-.017z" stroke="#1B1918" stroke-width=".216"/><path d="M1.775 38.899h10.197l.068-.017c.016 0 .033 0 .067-.017.017 0 .034 0 .067-.017.017 0 .034 0 .068-.017l.067-.017c.017 0 .034 0 .068-.016.016 0 .033 0 .067-.017.017 0 .034-.017.067-.017l.068-.017.067-.017c.017 0 .034-.017.068-.017.016 0 .033-.016.067-.016.017 0 .034-.017.067-.017.017 0 .034-.017.068-.017l.067-.017.068-.017c.017 0 .034-.017.067-.017.017 0 .034-.017.068-.017.017 0 .033-.016.067-.016l.067-.017.068-.017c.017 0 .034-.017.067-.017.017 0 .034-.017.068-.017.017 0 .033-.017.067-.017.017 0 .034-.017.068-.017.016 0 .033-.016.067-.016l.067-.034.068-.034c.017-.017.034-.017.067-.034.017-.016.034-.016.068-.033.017-.017.033-.017.067-.034.017-.017.034-.017.068-.034.016-.017.033-.017.067-.033.017-.017.034-.017.067-.034l.068-.034c.017-.017.033-.017.067-.033.017-.017.034-.017.068-.034.016-.017.033-.017.067-.034.017-.017.034-.017.067-.034.017-.017.034-.017.068-.033.017-.017.034-.034.067-.034.017-.017.034-.017.068-.034.016-.017.033-.033.067-.033.017-.017.034-.034.067-.034.017-.017.034-.034.068-.034.017-.017.034-.034.067-.05a.232.232 0 01.068-.051.232.232 0 01.067-.05c.017-.017.034-.034.068-.051a.233.233 0 01.067-.05c.017-.018.034-.034.067-.051.017-.017.034-.034.068-.05a.232.232 0 01.067-.051.232.232 0 01.068-.051c.017-.017.033-.034.067-.05.017-.017.034-.034.068-.051.016-.017.033-.034.067-.05.017-.017.034-.034.067-.051l.068-.068.067-.067.068-.067c.017-.017.033-.051.067-.068.017-.017.034-.05.067-.067.017-.017.034-.05.068-.068.017-.017.034-.05.067-.067.017-.017.034-.05.068-.068.017-.016.033-.05.067-.067a.297.297 0 01.068-.084c.016-.034.033-.05.067-.084.017-.034.034-.051.067-.085.017-.033.034-.05.068-.084a.297.297 0 01.067-.084c.017-.034.034-.068.068-.085a.356.356 0 01.067-.1.351.351 0 01.068-.102.351.351 0 01.067-.101c.017-.034.034-.067.067-.101.017-.034.034-.068.068-.118.017-.034.034-.084.067-.118.017-.034.034-.084.068-.118a.503.503 0 01.067-.135c.017-.05.034-.101.067-.135.017-.05.034-.1.068-.151.017-.051.034-.118.067-.169a.82.82 0 01.068-.185.947.947 0 01.067-.203c.017-.084.034-.151.067-.236.017-.1.051-.185.068-.286.017-.118.05-.253.067-.388.034-.219.05-.455.05-.69V.941H7.153c-.017 0-.034 0-.068.017-.017 0-.033 0-.067.017-.017 0-.034 0-.068.017l-.067.017c-.017 0-.034 0-.067.016-.017 0-.034 0-.068.017-.017 0-.034 0-.067.017-.017 0-.034.017-.068.017l-.067.017c-.017 0-.034.017-.068.017-.016 0-.033.017-.067.017-.017 0-.034.016-.067.016-.017 0-.034.017-.068.017l-.067.017c-.017 0-.034.017-.068.017-.016 0-.033.017-.067.017-.017 0-.034.017-.067.017-.017 0-.034.017-.068.017l-.067.016-.068.017c-.017 0-.033.017-.067.017-.017 0-.034.017-.068.017-.016 0-.033.017-.067.017l-.067.017-.068.016-.067.017c-.017 0-.034.017-.068.034-.017.017-.033.017-.067.034-.017.017-.034.017-.067.033-.017.017-.034.017-.068.034-.017.017-.034.017-.067.034-.017.017-.034.017-.068.034l-.067.033c-.017.017-.034.017-.068.034-.016.017-.033.017-.067.034-.017.017-.034.017-.067.033-.017.017-.034.017-.068.034-.017.017-.034.017-.067.034-.017.017-.034.017-.068.034-.017.016-.033.016-.067.033-.017.017-.034.017-.067.034-.017.017-.034.017-.068.034-.017.017-.034.033-.067.033-.017.017-.034.034-.068.034-.017.017-.033.034-.067.034a.233.233 0 01-.068.05.232.232 0 01-.067.051l-.067.05c-.017.017-.034.034-.068.051a.233.233 0 01-.067.05c-.017.018-.034.034-.068.051a.232.232 0 01-.067.05.232.232 0 01-.068.051.233.233 0 01-.067.05.233.233 0 01-.067.051c-.017.017-.034.034-.068.051a.233.233 0 01-.067.05.232.232 0 01-.068.051l-.067.068-.067.067-.068.067c-.017.017-.034.051-.067.068-.017.017-.034.05-.068.067-.017.017-.033.05-.067.068-.017.017-.034.05-.068.067-.016.017-.033.05-.067.068-.017.016-.034.05-.067.067-.017.017-.034.05-.068.067a.296.296 0 01-.067.085c-.017.033-.034.05-.068.084a.296.296 0 01-.067.084.296.296 0 01-.067.084c-.017.034-.034.068-.068.085a.352.352 0 01-.067.1.352.352 0 01-.068.102c-.017.034-.033.067-.067.101-.017.034-.034.068-.068.101-.016.034-.033.068-.067.118-.017.034-.034.084-.067.118-.017.034-.034.084-.068.118a.504.504 0 01-.067.135.505.505 0 01-.068.135.6.6 0 01-.067.152c-.017.05-.034.1-.068.168-.016.05-.033.118-.067.185-.017.068-.034.135-.067.203-.017.067-.034.151-.068.219-.017.084-.05.168-.067.27a6.479 6.479 0 00-.135 1.28v15.625c.05.017.084.034.135.067l.067.034.068.034.067.033.067.034.068.034.067.033.068.034.067.034.068.034.067.033.067.034.068.034.067.033.068.017.067.017.068.017.067.017.067.017.068.017.067.016.068.017.067.017.067.017.068.017.067.017.068.017.067.016.068.017.067.017.067.017.068.017.067.017.068.017.067.016.067.017.068.017.067.017.068.017.067.017.068.017.067.016.067.017.068.017.067.017.068.017.067.017.067.016.068.017.067.017.068.017.067.017.068.017.067.017.067.016.068.017.067.017.068.017.067.017.068.017.067.017.067.016.068.017.067.017.068.017.067.017.067.017h2.208l.068-.017c.017 0 .034 0 .067-.017.017 0 .034 0 .068-.017.017 0 .033 0 .067-.017.017 0 .034-.017.067-.017.017 0 .034-.016.068-.016.017 0 .034-.017.067-.017.017 0 .034-.017.068-.017.017 0 .033-.017.067-.017.017 0 .034-.017.068-.017.016 0 .033-.017.067-.017.017 0 .034-.017.067-.017.017 0 .034-.016.068-.016.017 0 .034-.017.067-.017.017 0 .034-.017.068-.017.017-.017.033-.017.067-.034.017-.017.034-.017.068-.034.016-.016.033-.016.067-.033.017-.017.034-.017.067-.034.017-.017.034-.017.068-.034.017-.017.033-.017.067-.033.017-.017.034-.017.068-.034.016-.017.033-.034.067-.034.017-.017.034-.034.067-.034a.233.233 0 01.068-.05c.017-.017.034-.034.067-.05.017-.018.034-.034.068-.051a.233.233 0 01.067-.05c.017-.018.034-.035.068-.051a.233.233 0 01.067-.05l.067-.068c.017-.017.034-.05.068-.068.017-.017.034-.05.067-.067.017-.017.034-.05.068-.068.016-.033.033-.05.067-.084.017-.034.034-.05.067-.084a.351.351 0 01.068-.101c.017-.034.034-.068.067-.101.017-.034.034-.085.068-.118a.505.505 0 01.067-.135.597.597 0 01.068-.152c.016-.067.05-.118.067-.185.017-.085.05-.169.067-.236.034-.135.051-.27.068-.422.017-.118.017-.219.017-.337V13.87H16.877v7.315c0 .219-.017.42-.034.623a3.949 3.949 0 01-.067.438 1.759 1.759 0 01-.068.287.834.834 0 01-.067.22.603.603 0 01-.068.184c-.016.051-.033.118-.067.169-.017.05-.034.101-.067.152a.505.505 0 01-.068.134c-.017.034-.034.085-.067.119a.964.964 0 01-.068.117.351.351 0 01-.067.102c-.017.033-.034.067-.067.1-.017.035-.034.068-.068.085a.296.296 0 01-.067.084c-.017.034-.034.05-.068.085-.017.033-.033.05-.067.084-.017.017-.034.05-.068.067-.016.017-.033.05-.067.068-.017.017-.034.05-.067.067-.017.017-.034.05-.068.067l-.067.068-.068.067c-.017.017-.033.034-.067.05-.017.018-.034.035-.067.052-.017.016-.034.033-.068.05-.017.017-.034.034-.067.05a.232.232 0 01-.068.051c-.017.017-.034.034-.067.05-.017.018-.034.035-.068.051-.017.017-.033.034-.067.05a.232.232 0 01-.068.051c-.016.017-.033.034-.067.034-.017.017-.034.034-.067.034-.017.017-.034.034-.068.034-.017.016-.033.033-.067.033-.017.017-.034.017-.068.034-.016.017-.033.017-.067.034-.017.017-.034.017-.067.033-.017.017-.034.017-.068.034-.017.017-.034.017-.067.034-.017.017-.034.017-.068.034-.017.016-.033.016-.067.033-.017.017-.034.017-.068.034-.016.017-.033.017-.067.034l-.067.033-.068.034c-.017.017-.034.017-.067.034-.017.017-.034.017-.068.034l-.067.033-.067.017c-.017 0-.034.017-.068.017-.017 0-.034.017-.067.017-.017 0-.034.017-.068.017l-.067.016c-.017 0-.034.017-.067.017-.017 0-.034.017-.068.017l-.067.017-.068.017c-.017 0-.034.017-.067.017l-.068.017-.067.017c-.017 0-.034.016-.068.016l-.067.017c-.017 0-.034.017-.067.017-.017 0-.034.017-.068.017l-.067.017c-.017 0-.034.017-.068.017-.016 0-.033.016-.067.016l-.067.017c-.017 0-.034.017-.068.017-.017 0-.034.017-.067.017l-.068.017c-.016 0-.033.017-.067.017l-.068.017-.067.016c-.017 0-.034.017-.067.017l-.068.017-.067.017-.068.017c-.016 0-.033 0-.067.017-.017 0-.034 0-.067.017l-.068.016c-.017 0-.034 0-.067.017l-.068.017-.067.017-.067.017c-.017 0-.034 0-.068.017H4.05l-.067-.017-.067-.017-.068-.017-.067-.017-.068-.017-.067-.016-.068-.017-.067-.017-.067-.017-.068-.017-.067-.017-.068-.017-.067-.016-.067-.017-.068-.017-.067-.017-.068-.017-.067-.017-.068-.017-.067-.016-.067-.017-.068-.017-.067-.017-.068-.017-.067-.017-.067-.017-.068-.016-.067-.017-.068-.017-.067-.017-.068-.017-.067-.017-.067-.017-.068-.016-.067-.017-.068-.017-.067-.017-.068-.017-.067-.017-.067-.017-.068-.016-.067-.017c-.084-.017-.135-.034-.135-.034L1.775 38.9z" fill="url(#paint2_linear)"/><defs><linearGradient id="paint0_linear" x1="19.276" y1="19.912" x2="34.883" y2="19.912" gradientUnits="userSpaceOnUse"><stop stop-color="#672F2D"/><stop offset="1" stop-color="#D40F38"/></linearGradient><linearGradient id="paint1_linear" x1="36.779" y1="19.918" x2="52.387" y2="19.918" gradientUnits="userSpaceOnUse"><stop stop-color="#177233"/><stop offset="1" stop-color="#5FA82A"/></linearGradient><linearGradient id="paint2_linear" x1="1.771" y1="19.92" x2="17.378" y2="19.92" gradientUnits="userSpaceOnUse"><stop stop-color="#182D5D"/><stop offset="1" stop-color="#006CAB"/></linearGradient></defs></svg>