<svg width="54" height="39" viewBox="0 0 54 39" fill="none" xmlns="http://www.w3.org/2000/svg">
<path d="M19.2706 38.8988H28.7261C28.7429 38.8988 28.7598 38.8988 28.7935 38.8988C28.8103 38.8988 28.8272 38.8988 28.8609 38.8988H28.9283H28.9957C29.0126 38.8988 29.0295 38.8988 29.0632 38.8988C29.08 38.8988 29.0969 38.8988 29.1306 38.8988H29.198C29.2149 38.8988 29.2317 38.8988 29.2654 38.8988C29.2823 38.8988 29.2991 38.8988 29.3328 38.8988C29.3497 38.8988 29.3665 38.8988 29.4003 38.8988C29.4171 38.8988 29.434 38.8988 29.4677 38.8988L29.5351 38.882C29.552 38.882 29.5688 38.882 29.6025 38.8651C29.6194 38.8651 29.6362 38.8651 29.6699 38.8482C29.6868 38.8482 29.7036 38.8483 29.7374 38.8314L29.8048 38.8145L29.8722 38.7977C29.889 38.7977 29.9059 38.7977 29.9396 38.7808C29.9565 38.7808 29.9733 38.764 30.007 38.764L30.0744 38.7471L30.1419 38.7303C30.1587 38.7303 30.1756 38.7134 30.2093 38.7134C30.2261 38.7134 30.243 38.6966 30.2767 38.6966C30.2936 38.6966 30.3104 38.6797 30.3441 38.6797C30.361 38.6797 30.3778 38.6628 30.4115 38.6628L30.479 38.646L30.5464 38.6291C30.5632 38.6291 30.5801 38.6123 30.6138 38.6123C30.6306 38.6123 30.6475 38.5954 30.6812 38.5954C30.6981 38.5954 30.7149 38.5786 30.7486 38.5786L30.816 38.5617L30.8835 38.5449C30.9003 38.5449 30.9172 38.528 30.9509 38.528C30.9677 38.528 30.9846 38.5112 31.0183 38.5112C31.0352 38.5112 31.052 38.4943 31.0857 38.4943C31.1026 38.4943 31.1194 38.4774 31.1531 38.4774L31.2206 38.4606L31.288 38.4269L31.3554 38.3932C31.3723 38.3763 31.3891 38.3763 31.4228 38.3595C31.4397 38.3426 31.4565 38.3426 31.4902 38.3258C31.5071 38.3089 31.5239 38.3089 31.5577 38.292C31.5745 38.2752 31.5914 38.2752 31.6251 38.2583C31.6419 38.2415 31.6588 38.2415 31.6925 38.2246C31.7093 38.2078 31.7262 38.2078 31.7599 38.1909L31.8273 38.1572L31.8947 38.1235L31.9622 38.0898C31.979 38.0729 31.9959 38.0729 32.0296 38.0561C32.0464 38.0392 32.0633 38.0392 32.097 38.0224C32.1139 38.0055 32.1307 38.0055 32.1644 37.9887C32.1813 37.9718 32.1981 37.955 32.2318 37.955C32.2487 37.9381 32.2656 37.9381 32.2993 37.9212C32.3161 37.9044 32.333 37.8875 32.3667 37.8875C32.3835 37.8707 32.4004 37.8538 32.4341 37.8538C32.4509 37.837 32.4678 37.8201 32.5015 37.8201C32.5184 37.8033 32.5352 37.7864 32.5689 37.7696C32.5858 37.7527 32.6026 37.7358 32.6364 37.719C32.6532 37.7021 32.6701 37.6853 32.7038 37.6684C32.7206 37.6516 32.7375 37.6347 32.7712 37.6179C32.788 37.601 32.8049 37.5842 32.8386 37.5673C32.8555 37.5504 32.8723 37.5336 32.906 37.5167C32.9229 37.4999 32.9397 37.483 32.9734 37.4662C32.9903 37.4493 33.0072 37.4325 33.0409 37.4156C33.0577 37.3987 33.0746 37.3819 33.1083 37.365C33.1251 37.3482 33.142 37.3313 33.1757 37.3145C33.1926 37.2976 33.2094 37.2808 33.2431 37.2639C33.26 37.2471 33.2768 37.2302 33.3105 37.2133C33.3274 37.1965 33.3442 37.1796 33.378 37.1628C33.3948 37.1459 33.4117 37.1291 33.4454 37.0954C33.4622 37.0785 33.4791 37.0617 33.5128 37.0279C33.5296 37.0111 33.5465 36.9942 33.5802 36.9605C33.5971 36.9437 33.6139 36.91 33.6476 36.8931C33.6645 36.8763 33.6813 36.8425 33.715 36.8257C33.7319 36.8088 33.7488 36.7751 33.7825 36.7583C33.7993 36.7414 33.8162 36.7077 33.8499 36.6909C33.8667 36.674 33.8836 36.6403 33.9173 36.6234C33.9342 36.6066 33.951 36.5729 33.9847 36.556C34.0016 36.5223 34.0184 36.5055 34.0521 36.4717C34.069 36.438 34.0859 36.4212 34.1196 36.3875C34.1364 36.3538 34.1533 36.3369 34.187 36.3032C34.2038 36.2695 34.2207 36.2526 34.2544 36.2189C34.2713 36.1852 34.2881 36.1684 34.3218 36.1347C34.3387 36.1009 34.3555 36.0672 34.3892 36.0504C34.4061 36.0167 34.4229 35.983 34.4567 35.9492C34.4735 35.9155 34.4904 35.8818 34.5241 35.8481C34.5409 35.8144 34.5578 35.7807 34.5915 35.747C34.6083 35.7133 34.6252 35.6796 34.6589 35.6459C34.6758 35.6122 34.6926 35.5784 34.7263 35.5279C34.7432 35.4942 34.76 35.4436 34.7937 35.4099C34.8106 35.3762 34.8275 35.3256 34.8612 35.2919C34.878 35.2414 34.8949 35.2076 34.9286 35.1571C34.9454 35.1065 34.9623 35.056 34.996 35.0222C35.0129 34.9717 35.0297 34.9211 35.0634 34.8706C35.0803 34.82 35.0971 34.7526 35.1308 34.702C35.1477 34.6346 35.1645 34.584 35.1983 34.5166C35.2151 34.4492 35.232 34.3818 35.2657 34.3144C35.2825 34.2301 35.2994 34.1627 35.3331 34.0784C35.35 33.9773 35.3837 33.893 35.4005 33.7919C35.4174 33.6739 35.4511 33.539 35.4679 33.4042C35.5016 33.1851 35.5185 32.966 35.5185 32.73V0.942139H35.4679H35.4005H35.3331H35.2657H35.1983H35.1308H35.0634H34.996H34.9286H34.8612H34.2207H34.1533H34.0859H34.0184H33.951H33.8836H33.8162H33.7488H33.6813H33.6139H33.5465H33.4791H33.4117H33.378H33.3105H33.2431H33.1757H33.1083H33.0409H32.9734H32.906H32.8386H32.7712H32.7038H32.6364H32.5689H32.5015H32.4341H32.3667H32.2993H32.2318H32.1644H32.097H32.0296H31.9622H31.8947H31.8273H31.7599H31.6925H31.6251H31.5577H31.4902H31.4228H31.3554H31.288H31.2206H31.1531H31.0857H31.0183H30.9509H30.8835H30.816H30.7486H30.6812H30.6138H30.5464H30.5127H30.4452H30.3778H30.3104H30.243H30.1756H30.1082H30.0407H29.9733H29.9059H29.8385H29.7711H29.7036H29.6362H29.5688H29.5014H29.434H29.3666H29.2991H29.2317H29.1643H29.0969H29.0295H28.962H28.8946H28.8272H28.7598H28.6924H28.6249H28.5575H28.4901H28.4227H28.3553H28.2879H28.2204H28.153H28.0856H28.0182H27.9508H27.8833H27.8159H27.7485H27.6811H27.6137H27.5462H27.4788H27.4114H27.344H27.2766H27.2092H27.1417H27.0743H27.0069H26.9395H26.9732H26.9058H26.8384H26.7709H26.7035H26.6361H26.5687H26.5013H26.4338H26.3664H26.299H26.2316H26.1642H26.0967H26.0293H25.9619H25.8945H25.8271H25.7597H25.6922H25.6248H25.5911H25.5574C25.5405 0.942139 25.5237 0.942139 25.49 0.942139C25.4731 0.942139 25.4563 0.942139 25.4226 0.942139C25.4057 0.942139 25.3889 0.942139 25.3551 0.942139H25.2877C25.2709 0.942139 25.254 0.942139 25.2203 0.942139C25.2035 0.942139 25.1866 0.942139 25.1529 0.942139C25.136 0.942139 25.1192 0.942139 25.0855 0.942139C25.0686 0.942139 25.0518 0.942139 25.018 0.942139H24.9506C24.9338 0.942139 24.9169 0.942139 24.8832 0.942139C24.8664 0.942139 24.8495 0.942139 24.8158 0.942139H24.7484H24.681C24.6641 0.942139 24.6472 0.94214 24.6135 0.958994C24.5967 0.958994 24.5798 0.958995 24.5461 0.97585C24.5293 0.97585 24.5124 0.975851 24.4787 0.992706L24.4113 1.00956L24.3439 1.02641C24.327 1.02641 24.3102 1.02641 24.2764 1.04327C24.2596 1.04327 24.2427 1.04327 24.209 1.06012C24.1922 1.06012 24.1753 1.07698 24.1416 1.07698L24.0742 1.09383C24.0573 1.09383 24.0405 1.11069 24.0068 1.11069C23.9899 1.11069 23.9731 1.12754 23.9394 1.12754C23.9225 1.12754 23.9056 1.1444 23.8719 1.1444C23.8551 1.1444 23.8382 1.16125 23.8045 1.16125L23.7371 1.1781C23.7202 1.1781 23.7034 1.19496 23.6697 1.19496C23.6528 1.19496 23.636 1.21181 23.6023 1.21181C23.5854 1.21181 23.5686 1.22867 23.5348 1.22867C23.518 1.22867 23.5011 1.24553 23.4674 1.24553L23.4 1.26238C23.3831 1.26238 23.3663 1.27923 23.3326 1.27923C23.3157 1.27923 23.2989 1.29609 23.2652 1.29609C23.2483 1.29609 23.2315 1.31294 23.1977 1.31294C23.1809 1.31294 23.164 1.3298 23.1303 1.3298C23.1135 1.3298 23.0966 1.34665 23.0629 1.34665C23.0461 1.34665 23.0292 1.3635 22.9955 1.3635L22.9281 1.38036C22.9112 1.38036 22.8944 1.39722 22.8607 1.41407C22.8438 1.43093 22.8269 1.43092 22.7932 1.44778C22.7764 1.46463 22.7595 1.46463 22.7258 1.48149C22.709 1.49834 22.6921 1.49834 22.6584 1.5152C22.6415 1.53205 22.6247 1.53205 22.591 1.54891C22.5741 1.56576 22.5573 1.56576 22.5236 1.58262L22.4561 1.61632L22.3887 1.65004C22.3719 1.66689 22.355 1.66689 22.3213 1.68374C22.3044 1.7006 22.2876 1.7006 22.2539 1.71745C22.237 1.73431 22.2202 1.73431 22.1865 1.75117C22.1696 1.76802 22.1528 1.76802 22.1191 1.78487C22.1022 1.80173 22.0853 1.80173 22.0516 1.81858C22.0348 1.83544 22.0179 1.83543 21.9842 1.85229C21.9674 1.86914 21.9505 1.86915 21.9168 1.886C21.8999 1.90285 21.8831 1.90286 21.8494 1.91971C21.8325 1.93657 21.8157 1.95342 21.782 1.95342C21.7651 1.97027 21.7482 1.98713 21.7145 1.98713C21.6977 2.00398 21.6808 2.02084 21.6471 2.02084C21.6303 2.03769 21.6134 2.05455 21.5797 2.0714C21.5628 2.08826 21.546 2.10511 21.5123 2.12196C21.4954 2.13882 21.4786 2.15568 21.4449 2.17253C21.428 2.18939 21.4112 2.20624 21.3774 2.22309C21.3606 2.23995 21.3437 2.2568 21.31 2.27366C21.2932 2.29051 21.2763 2.30737 21.2426 2.32422C21.2258 2.34108 21.2089 2.35793 21.1752 2.37478C21.1583 2.39164 21.1415 2.4085 21.1078 2.42535C21.0909 2.44221 21.0741 2.45906 21.0403 2.47591C21.0235 2.49277 21.0066 2.50962 20.9729 2.52647C20.9561 2.54333 20.9392 2.56019 20.9055 2.57704C20.8887 2.5939 20.8718 2.61075 20.8381 2.6276C20.8212 2.64446 20.8044 2.66132 20.7707 2.67817C20.7538 2.69503 20.737 2.71188 20.7033 2.74559C20.6864 2.76244 20.6695 2.7793 20.6358 2.81301C20.619 2.82986 20.6021 2.84671 20.5684 2.88042C20.5516 2.89728 20.5347 2.93099 20.501 2.94784C20.4841 2.9647 20.4673 2.99841 20.4336 3.01526C20.4167 3.03212 20.3999 3.06583 20.3662 3.08268C20.3493 3.09954 20.3325 3.13324 20.2987 3.1501C20.2819 3.16695 20.265 3.20066 20.2313 3.21752C20.2145 3.23437 20.1976 3.26808 20.1639 3.28493C20.1471 3.30179 20.1302 3.3355 20.0965 3.35236C20.0796 3.38607 20.0628 3.40292 20.0291 3.43663C20.0122 3.47034 19.9954 3.48719 19.9617 3.5209C19.9448 3.55461 19.9279 3.57147 19.8942 3.60518C19.8774 3.63889 19.8605 3.65574 19.8268 3.68945C19.81 3.72316 19.7931 3.75687 19.7594 3.77372C19.7425 3.80743 19.7257 3.84114 19.692 3.87485C19.6751 3.90856 19.6583 3.94227 19.6246 3.97598C19.6077 4.00969 19.5909 4.0434 19.5571 4.0771C19.5403 4.11081 19.5234 4.14452 19.4897 4.17823C19.4729 4.21194 19.456 4.24565 19.4223 4.29621C19.4055 4.32992 19.3886 4.38049 19.3549 4.4142C19.338 4.44791 19.3212 4.49847 19.2875 4.53218C19.2706 4.58275 19.2538 4.61645 19.22 4.66702C19.2032 4.71758 19.1863 4.75129 19.1526 4.80185C19.1358 4.85242 19.1189 4.90298 19.0852 4.95355C19.0684 5.00411 19.0515 5.05468 19.0178 5.1221C19.0009 5.17266 18.9841 5.24007 18.9504 5.30749C18.9335 5.37491 18.9167 5.44233 18.883 5.50975C18.8661 5.57717 18.8492 5.66144 18.8155 5.72886C18.7987 5.81313 18.765 5.89741 18.7481 5.99853C18.6638 6.4199 18.6133 6.84127 18.6133 7.27949V15.572C18.6638 15.5383 18.6976 15.5046 18.7481 15.4708C18.765 15.454 18.7818 15.4371 18.8155 15.4203C18.8324 15.4034 18.8492 15.3866 18.883 15.3697C18.8998 15.3529 18.9167 15.336 18.9504 15.3192C18.9672 15.3023 18.9841 15.2854 19.0178 15.2686C19.0346 15.2517 19.0515 15.2349 19.0852 15.218C19.1021 15.2012 19.1189 15.1843 19.1526 15.1675L19.22 15.1338C19.2369 15.1169 19.2538 15.1 19.2875 15.1L19.3549 15.0663C19.3717 15.0495 19.3886 15.0326 19.4223 15.0326C19.4392 15.0158 19.456 15.0158 19.4897 14.9989C19.5066 14.9821 19.5234 14.9821 19.5571 14.9652C19.574 14.9484 19.5909 14.9484 19.6246 14.9315C19.6414 14.9146 19.6583 14.9146 19.692 14.8978C19.7088 14.8809 19.7257 14.8809 19.7594 14.8641L19.8268 14.8304L19.8942 14.7967C19.9111 14.7798 19.9279 14.7798 19.9617 14.763C19.9785 14.7461 19.9954 14.7461 20.0291 14.7292L20.0965 14.6955L20.1639 14.6618L20.2313 14.6281C20.2482 14.6113 20.265 14.6113 20.2987 14.5944L20.3662 14.5607L20.4336 14.527L20.501 14.4933L20.5684 14.4596L20.6358 14.4259L20.7033 14.3922L20.7707 14.3753L20.8381 14.3584L20.9055 14.3416C20.9224 14.3416 20.9392 14.3247 20.9729 14.3247L21.0403 14.3079C21.0572 14.3079 21.0741 14.291 21.1078 14.291C21.1246 14.291 21.1415 14.2742 21.1752 14.2742L21.2426 14.2573L21.31 14.2405C21.3269 14.2405 21.3437 14.2236 21.3774 14.2236L21.4449 14.2068C21.4617 14.2068 21.4786 14.1899 21.5123 14.1899L21.5797 14.173L21.6471 14.1562L21.7145 14.1393L21.782 14.1225L21.8494 14.1056L21.9168 14.0888L21.9842 14.0719L22.0516 14.0551L22.1191 14.0382L22.1865 14.0213L22.2539 14.0045L22.3213 13.9876L22.3887 13.9708L22.4561 13.9539L22.5236 13.9371L22.591 13.9202L22.6584 13.9034L22.7258 13.8865L22.7932 13.8697L22.8607 13.8528L22.9281 13.8359L22.9955 13.8191L23.0629 13.8022L23.1303 13.7854L23.1977 13.7685L23.2652 13.7517L23.3326 13.7348L23.4 13.718L23.4674 13.7011L23.5348 13.6843L23.6023 13.6674L23.6697 13.6505L23.7371 13.6337L23.8045 13.6168L23.8719 13.6L23.9394 13.5831H24.0068H24.0742H24.1416H24.209H24.2764H24.3439H24.4113H24.4787H24.5461H24.6135H24.681H24.7484H24.8158H24.8832H24.9506H25.018H25.0855H25.1529H25.2203H25.2877H25.3551H25.4226H25.49H25.5574H25.6248H25.6922H25.7597H25.8271H25.8945H25.9619H26.0293H26.0967H26.1642H26.2316H26.299H26.3664H26.4338H26.5013H26.5687H26.6361H26.7035H26.7709H26.8384H26.9058H26.9732H27.0406H27.108H27.1754H27.2429H27.3103H27.3777H27.4451H27.5125H27.58H27.6474H27.7148H27.7822H27.8496H27.9171H27.9845H28.0519H28.1193H28.1867H28.2541H28.3216H28.389H28.4227H28.4564H28.5238H28.5912H28.6587H28.7261H28.7935H28.8609H28.9283H28.9957H29.0632H29.1306H29.198H29.2654H29.3328H29.4003H29.4677H29.5351H29.6025H29.6699H29.7374H29.8048H29.8722H29.9396H30.007H30.0744H30.1419H30.2093H30.2767H30.3441H30.4115H30.479H30.5464H30.6138L30.6812 13.6L30.7486 13.6168L30.816 13.6337L30.8835 13.6505L30.9509 13.6674L31.0183 13.6843L31.0857 13.7011L31.1531 13.718L31.2206 13.7348L31.288 13.7517L31.3554 13.7685L31.4228 13.7854L31.4902 13.8022L31.5577 13.8191L31.6251 13.8359L31.6925 13.8528L31.7599 13.8697L31.8273 13.8865L31.8947 13.9034L31.9622 13.9202L32.0296 13.9371L32.097 13.9539L32.1644 13.9708L32.2318 13.9876L32.2993 14.0045L32.3667 14.0213L32.4341 14.0382L32.5015 14.0551L32.5689 14.0719L32.6364 14.0888L32.7038 14.1056L32.7712 14.1225L32.8386 14.1393L32.906 14.1562L32.9734 14.173L33.0409 14.1899L33.1083 14.2068L33.1757 14.2236L33.2431 14.2405L33.3105 14.2573L33.378 14.2742L33.4454 14.291L33.5128 14.3079L33.5802 14.3247L33.6476 14.3416L33.715 14.3584L33.7825 14.3753L33.8499 14.3922L33.9173 14.409V17.0889L33.8499 17.0552L33.7825 17.0215L33.715 16.9878L33.6476 16.9541L33.5802 16.9204L33.5128 16.8866L33.4454 16.8529L33.378 16.8192L33.3105 16.7855L33.2431 16.7518L33.1757 16.7181L33.1083 16.6844L33.0409 16.6507L32.9734 16.617L32.906 16.5833L32.8386 16.5495L32.7712 16.5158L32.7038 16.4821L32.6364 16.4653L32.5689 16.4484L32.5015 16.4316L32.4341 16.4147L32.3667 16.3979L32.2993 16.381L32.2318 16.3641L32.1644 16.3473L32.097 16.3304L32.0296 16.3136L31.9622 16.2967L31.8947 16.2799L31.8273 16.263L31.7599 16.2462L31.6925 16.2293L31.6251 16.2125L31.5577 16.1956L31.4902 16.1787L31.4228 16.1619L31.3554 16.145L31.288 16.1282L31.2206 16.1113L31.1531 16.0945L31.0857 16.0776L31.0183 16.0608L30.9509 16.0439L30.8835 16.0271L30.816 16.0102L30.7486 15.9933L30.6812 15.9765L30.6138 15.9596L30.5464 15.9428L30.479 15.9259L30.4115 15.9091L30.3441 15.8922L30.2767 15.8754L30.2093 15.8585L30.1419 15.8416L30.0744 15.8248L30.007 15.8079L29.9396 15.7911L29.8722 15.7742L29.8048 15.7574L29.7374 15.7405L29.6699 15.7237L29.6025 15.7068L29.5351 15.69L29.4677 15.6731L29.4003 15.6563H29.3328H29.2654H29.198H29.1306H29.0632H28.9957H28.9283H28.8609H28.7935H28.7261H28.6587H28.6249H28.6081H28.5407H28.4733H28.4058H28.3384H28.271H28.2036H28.1362H28.0687H28.0013H27.9339C27.9171 15.6563 27.9002 15.6563 27.8665 15.6563H27.7991H27.7316H27.6642H27.5968C27.58 15.6563 27.5631 15.6563 27.5294 15.6563C27.5125 15.6563 27.4957 15.6563 27.462 15.6563H27.3946H27.3271H27.2597H27.1923C27.1754 15.6563 27.1586 15.6563 27.1249 15.6563C27.108 15.6563 27.0912 15.6563 27.0575 15.6563H26.99H26.9226H26.8552H26.7878L26.7204 15.6731L26.653 15.69C26.6361 15.69 26.6192 15.69 26.5855 15.7068C26.5687 15.7068 26.5518 15.7068 26.5181 15.7237C26.5013 15.7237 26.4844 15.7237 26.4507 15.7405C26.4338 15.7405 26.417 15.7405 26.3833 15.7574C26.3664 15.7574 26.3496 15.7742 26.3159 15.7742C26.299 15.7742 26.2822 15.7742 26.2484 15.7911C26.2316 15.7911 26.2147 15.8079 26.181 15.8079L26.1136 15.8248C26.0967 15.8248 26.0799 15.8416 26.0462 15.8416C26.0293 15.8416 26.0125 15.8585 25.9788 15.8585C25.9619 15.8585 25.9451 15.8754 25.9113 15.8754L25.8439 15.8922C25.8271 15.8922 25.8102 15.9091 25.7765 15.9091C25.7597 15.9091 25.7428 15.9259 25.7091 15.9259C25.6922 15.9259 25.6754 15.9428 25.6417 15.9428C25.6248 15.9428 25.608 15.9596 25.5743 15.9596C25.5574 15.9596 25.5405 15.9765 25.5068 15.9765C25.49 15.9765 25.4731 15.9933 25.4394 15.9933C25.4226 15.9933 25.4057 16.0102 25.372 16.0102C25.3551 16.0102 25.3383 16.0271 25.3046 16.0271C25.2877 16.0439 25.2709 16.0439 25.2372 16.0608C25.2203 16.0776 25.2034 16.0776 25.1697 16.0945C25.1529 16.1113 25.136 16.1113 25.1023 16.1282C25.0855 16.145 25.0686 16.145 25.0349 16.1619C25.018 16.1787 25.0012 16.1787 24.9675 16.1956C24.9506 16.2125 24.9338 16.2125 24.9001 16.2293C24.8832 16.2462 24.8664 16.2462 24.8326 16.263C24.8158 16.2799 24.7989 16.2799 24.7652 16.2967C24.7484 16.3136 24.7315 16.3136 24.6978 16.3304C24.681 16.3473 24.6641 16.3473 24.6304 16.3641C24.6135 16.381 24.5967 16.3979 24.563 16.3979C24.5461 16.4147 24.5293 16.4316 24.4956 16.4316C24.4787 16.4484 24.4618 16.4653 24.4281 16.4653C24.4113 16.4821 24.3944 16.499 24.3607 16.5158C24.3439 16.5327 24.327 16.5495 24.2933 16.5664C24.2764 16.5833 24.2596 16.6001 24.2259 16.617C24.209 16.6338 24.1922 16.6507 24.1585 16.6675C24.1416 16.6844 24.1248 16.7012 24.091 16.7181C24.0742 16.7349 24.0573 16.7518 24.0236 16.7687C24.0068 16.7855 23.9899 16.8024 23.9562 16.8192C23.9394 16.8361 23.9225 16.8529 23.8888 16.8698C23.8719 16.8866 23.8551 16.9035 23.8214 16.9372C23.8045 16.9541 23.7877 16.9878 23.754 17.0046C23.7371 17.0215 23.7202 17.0552 23.6865 17.072C23.6697 17.0889 23.6528 17.1226 23.6191 17.1395C23.6023 17.1563 23.5854 17.19 23.5517 17.2069C23.5348 17.2406 23.518 17.2574 23.4843 17.2912C23.4674 17.3249 23.4506 17.3417 23.4169 17.3754C23.4 17.4091 23.3831 17.426 23.3494 17.4597C23.3326 17.4934 23.3157 17.5271 23.282 17.5608C23.2652 17.5945 23.2483 17.6282 23.2146 17.662C23.1977 17.6957 23.1809 17.7294 23.1472 17.7799C23.1303 17.8136 23.1135 17.8642 23.0798 17.8979C23.0629 17.9485 23.0461 17.9822 23.0123 18.0328C22.9955 18.0833 22.9786 18.1339 22.9449 18.1845C22.9281 18.235 22.9112 18.2856 22.8775 18.353C22.8607 18.4204 22.8438 18.471 22.8101 18.5384C22.7932 18.6058 22.7595 18.6901 22.7427 18.7575C22.7258 18.8586 22.6921 18.9429 22.6753 19.044C22.6415 19.1957 22.6247 19.3306 22.6078 19.4991C22.591 19.6845 22.591 19.8531 22.591 20.0385C22.591 20.2239 22.591 20.4093 22.6078 20.5778C22.6247 20.7295 22.6415 20.8812 22.6753 21.0329C22.6921 21.134 22.709 21.2351 22.7427 21.3194C22.7595 21.3868 22.7764 21.4711 22.8101 21.5385C22.8269 21.6059 22.8438 21.6565 22.8775 21.7239C22.8944 21.7745 22.9112 21.8419 22.9449 21.8925C22.9618 21.943 22.9786 21.9936 23.0123 22.0442C23.0292 22.0947 23.0461 22.1284 23.0798 22.179C23.0966 22.2127 23.1135 22.2633 23.1472 22.297C23.164 22.3307 23.1809 22.3644 23.2146 22.415C23.2315 22.4487 23.2483 22.4824 23.282 22.5161C23.2989 22.5498 23.3157 22.5835 23.3494 22.6172C23.3663 22.6509 23.3831 22.6846 23.4169 22.7015C23.4337 22.7352 23.4506 22.7521 23.4843 22.7858C23.5011 22.8195 23.518 22.8363 23.5517 22.87C23.5686 22.8869 23.5854 22.9206 23.6191 22.9375C23.636 22.9543 23.6528 22.988 23.6865 23.0049C23.7034 23.0217 23.7202 23.0554 23.754 23.0723C23.7708 23.0892 23.7877 23.1229 23.8214 23.1397C23.8382 23.1566 23.8551 23.1734 23.8888 23.2071C23.9056 23.224 23.9225 23.2408 23.9562 23.2577C23.9731 23.2746 23.9899 23.2914 24.0236 23.3083C24.0405 23.3251 24.0573 23.342 24.091 23.3588C24.1079 23.3757 24.1248 23.3925 24.1585 23.4094C24.1753 23.4262 24.1922 23.4431 24.2259 23.46C24.2427 23.4768 24.2596 23.4937 24.2933 23.5105C24.3102 23.5274 24.327 23.5442 24.3607 23.5611C24.3776 23.5779 24.3944 23.5948 24.4281 23.6116C24.445 23.6285 24.4618 23.6454 24.4956 23.6454C24.5124 23.6622 24.5293 23.6791 24.563 23.6791C24.5798 23.6959 24.5967 23.7128 24.6304 23.7128C24.6472 23.7296 24.6641 23.7296 24.6978 23.7465C24.7147 23.7633 24.7315 23.7633 24.7652 23.7802C24.7821 23.797 24.7989 23.797 24.8326 23.8139C24.8495 23.8308 24.8664 23.8308 24.9001 23.8476C24.9169 23.8645 24.9338 23.8645 24.9675 23.8813C24.9843 23.8982 25.0012 23.8982 25.0349 23.915C25.0518 23.9319 25.0686 23.9319 25.1023 23.9487C25.1192 23.9656 25.136 23.9656 25.1697 23.9824C25.1866 23.9993 25.2035 23.9993 25.2372 24.0162C25.254 24.033 25.2709 24.033 25.3046 24.0499C25.3214 24.0499 25.3383 24.0667 25.372 24.0667C25.3889 24.0667 25.4057 24.0836 25.4394 24.0836C25.4563 24.0836 25.4731 24.1004 25.5068 24.1004C25.5237 24.1004 25.5405 24.1173 25.5743 24.1173C25.5911 24.1173 25.608 24.1341 25.6417 24.1341C25.6585 24.1341 25.6754 24.151 25.7091 24.151C25.7259 24.151 25.7428 24.1679 25.7765 24.1679C25.7934 24.1679 25.8102 24.1847 25.8439 24.1847C25.8608 24.1847 25.8776 24.2016 25.9113 24.2016C25.9282 24.2016 25.9451 24.2184 25.9788 24.2184C25.9956 24.2184 26.0125 24.2353 26.0462 24.2353C26.063 24.2353 26.0799 24.2521 26.1136 24.2521L26.181 24.269C26.1979 24.269 26.2147 24.2858 26.2484 24.2858C26.2653 24.2858 26.2821 24.3027 26.3159 24.3027C26.3327 24.3027 26.3496 24.3195 26.3833 24.3195C26.4001 24.3195 26.417 24.3195 26.4507 24.3364C26.4675 24.3364 26.4844 24.3364 26.5181 24.3532C26.535 24.3532 26.5518 24.3532 26.5855 24.3701C26.6024 24.3701 26.6192 24.3701 26.653 24.387C26.6698 24.387 26.6867 24.387 26.7204 24.4038L26.7878 24.4207H26.8552H26.9226H26.99H27.0575C27.0743 24.4207 27.0912 24.4207 27.1249 24.4207C27.1417 24.4207 27.1586 24.4207 27.1923 24.4207H27.2597H27.3271H27.3946H27.462C27.4788 24.4207 27.4957 24.4207 27.5294 24.4207C27.5462 24.4207 27.5631 24.4207 27.5968 24.4207H27.6642H27.7316H27.7991H27.8665C27.8833 24.4207 27.9002 24.4207 27.9339 24.4207H28.0013H28.0687H28.1362H28.2036H28.271H28.3384H28.4058H28.4733H28.5407H28.6081H28.6249H28.6587H28.7261H28.7935H28.8609H28.9283H28.9957H29.0632H29.1306H29.198H29.2654H29.3328H29.4003L29.4677 24.4038L29.5351 24.387L29.6025 24.3701L29.6699 24.3532L29.7374 24.3364L29.8048 24.3195L29.8722 24.3027L29.9396 24.2858L30.007 24.269L30.0744 24.2521L30.1419 24.2353L30.2093 24.2184L30.2767 24.2016L30.3441 24.1847L30.4115 24.1679L30.479 24.151L30.5464 24.1341L30.6138 24.1173L30.6812 24.1004L30.7486 24.0836L30.816 24.0667L30.8835 24.0499L30.9509 24.033L31.0183 24.0162L31.0857 23.9993L31.1531 23.9824L31.2206 23.9656L31.288 23.9487L31.3554 23.9319L31.4228 23.915L31.4902 23.8982L31.5577 23.8813L31.6251 23.8645L31.6925 23.8476L31.7599 23.8308L31.8273 23.8139L31.8947 23.797L31.9622 23.7802L32.0296 23.7633L32.097 23.7465L32.1644 23.7296L32.2318 23.7128L32.2993 23.6959L32.3667 23.6791L32.4341 23.6622L32.5015 23.6454L32.5689 23.6285L32.6364 23.6116L32.7038 23.5948L32.7712 23.5611L32.8386 23.5274L32.906 23.4937L32.9734 23.46L33.0409 23.4262L33.1083 23.3925L33.1757 23.3588L33.2431 23.3251L33.3105 23.2914L33.378 23.2577L33.4454 23.224L33.5128 23.1903L33.5802 23.1566L33.6476 23.1229L33.715 23.0891L33.7825 23.0554L33.8499 23.0217L33.9173 22.988V25.5668L33.8499 25.5836L33.7825 25.6005L33.715 25.6173L33.6476 25.6342L33.5802 25.6511L33.5128 25.6679L33.4454 25.6848L33.378 25.7016L33.3105 25.7185L33.2431 25.7353L33.1757 25.7522L33.1083 25.769L33.0409 25.7859L32.9734 25.8027L32.906 25.8196L32.8386 25.8365L32.7712 25.8533L32.7038 25.8702L32.6364 25.887L32.5689 25.9039L32.5015 25.9207L32.4341 25.9376L32.3667 25.9544L32.2993 25.9713L32.2318 25.9882L32.1644 26.005L32.097 26.0219L32.0296 26.0387L31.9622 26.0556L31.8947 26.0724L31.8273 26.0893L31.7599 26.1061L31.6925 26.123L31.6251 26.1398L31.5577 26.1567L31.4902 26.1736L31.4228 26.1904L31.3554 26.2073L31.288 26.2241L31.2206 26.241L31.1531 26.2578L31.0857 26.2747L31.0183 26.2915L30.9509 26.3084L30.8835 26.3252L30.816 26.3421L30.7486 26.359L30.6812 26.3758L30.6138 26.3927H30.5464H30.479H30.4115H30.3441H30.2767H30.2093H30.1419H30.0744H30.007H29.9396H29.8722H29.8048H29.7374H29.6699H29.6025H29.5351H29.4677H29.4003H29.3328H29.2654H29.198H29.1306H29.0632H28.9957H28.9283H28.8609H28.7935H28.7261H28.6587H28.5912H28.5238H28.4564H28.4227H28.389H28.3216H28.2541H28.1867H28.1193H28.0519H27.9845H27.9171H27.8496H27.7822H27.7148H27.6474H27.58H27.5125H27.4451H27.3777H27.3103H27.2429H27.1754H27.108H27.0406H26.9732H26.9058H26.8384H26.7709H26.7035H26.6361H26.5687H26.5013H26.4338H26.3664H26.299H26.2316H26.1642H26.0967H26.0293H25.9619H25.8945H25.8271H25.7597H25.6922H25.6248H25.5574H25.49H25.4226H25.3551H25.2877H25.2203H25.1529H25.0855H25.018H24.9506H24.8832H24.8158H24.7484H24.681H24.6135H24.5461H24.4787H24.4113H24.3439H24.2764H24.209H24.1416H24.0742H24.0068H23.9394L23.8719 26.3758L23.8045 26.359L23.7371 26.3421L23.6697 26.3252L23.6023 26.3084L23.5348 26.2915L23.4674 26.2747L23.4 26.2578L23.3326 26.241L23.2652 26.2241L23.4337 26.0724L23.3663 26.0556L23.2989 26.0387L23.2315 26.0219L23.164 26.005L23.0966 25.9882L23.0292 25.9713L22.9618 25.9544L22.8944 25.9376L22.8269 25.9207L22.7595 25.9039L22.6921 25.887L22.6247 25.8702L22.5573 25.8533L22.4899 25.8365L22.4224 25.8196L22.355 25.8027L22.2876 25.7859L22.2202 25.769L22.1528 25.7522L22.0853 25.7353L22.0179 25.7185L21.9505 25.7016L21.8831 25.6848L21.8157 25.6679L21.7482 25.6511C21.7314 25.6511 21.7145 25.6342 21.6808 25.6342C21.664 25.6342 21.6471 25.6173 21.6134 25.6173L21.546 25.6005L21.4786 25.5836C21.4617 25.5836 21.4449 25.5668 21.4112 25.5668C21.3943 25.5668 21.3774 25.5499 21.3437 25.5499L21.2763 25.5331C21.2595 25.5331 21.2426 25.5162 21.2089 25.5162L21.1415 25.4994L21.0741 25.4825L21.0066 25.4657L20.9392 25.4488L20.8718 25.4151L20.8044 25.3814L20.737 25.3477L20.6696 25.314L20.6021 25.2803L20.5347 25.2465C20.5179 25.2297 20.501 25.2297 20.4673 25.2128L20.3999 25.1791L20.3325 25.1454L20.265 25.1117C20.2482 25.0949 20.2313 25.0949 20.1976 25.078C20.1808 25.0611 20.1639 25.0611 20.1302 25.0443L20.0628 25.0106L19.9954 24.9769L19.9279 24.9432C19.9111 24.9263 19.8942 24.9263 19.8605 24.9095C19.8437 24.8926 19.8268 24.8926 19.7931 24.8757L19.7257 24.842C19.7088 24.8252 19.692 24.8252 19.6583 24.8083C19.6414 24.7915 19.6246 24.7746 19.5909 24.7746L19.5234 24.7409C19.5066 24.7241 19.4897 24.7072 19.456 24.7072L19.3886 24.6735C19.3717 24.6566 19.3549 24.6398 19.3212 24.6229C19.3043 24.6061 19.2875 24.5892 19.2538 24.5724C19.2369 24.5555 19.2201 24.5386 19.1863 24.5218C19.1695 24.5049 19.1526 24.4881 19.1189 24.4712C19.1021 24.4544 19.0852 24.4375 19.0515 24.4207C19.0346 24.4038 19.0178 24.387 18.9841 24.3701C18.9335 24.3364 18.8998 24.3027 18.8492 24.269L19.2706 38.8988Z" fill="url(#paint0_linear)"/>
<path d="M39.8838 20.6958H39.9175H39.985H40.0524H40.1198H40.1872H40.2546H40.3221H40.3895H40.4569H40.5243H40.5917H40.6592H40.7266H40.794H40.8614H40.9288H40.9962H41.0637H41.1311H41.1985H41.2659H41.3333H41.4008H41.4682H41.5356H41.603H41.6704H41.7379H41.8053H41.8727H41.9401H42.0075H42.0749H42.1424H42.2098H42.2772H42.3446H42.412H42.4795H42.5469H42.6143H42.6817H42.7491H42.8165H42.884H42.9514H43.0188H43.0862H43.1536H43.2211H43.2885H43.3559H43.4233H43.4907H43.5582H43.6256H43.693H43.7604H43.8278H43.8952H43.9458H43.9627C43.9795 20.6958 43.9964 20.6958 44.0301 20.6958C44.0469 20.6958 44.0638 20.6958 44.0975 20.6958C44.1144 20.6958 44.1312 20.6958 44.1649 20.6958C44.1818 20.6958 44.1986 20.6958 44.2323 20.6958C44.2492 20.6958 44.266 20.6958 44.2998 20.6958C44.3166 20.6958 44.3503 20.6958 44.3672 20.7126C44.384 20.7126 44.4009 20.7126 44.4009 20.7126H44.4177C44.4346 20.7126 44.4514 20.7295 44.4852 20.7295C44.502 20.7295 44.5189 20.7464 44.5526 20.7464C44.5694 20.7464 44.5863 20.7632 44.62 20.7632C44.6369 20.7632 44.6537 20.7801 44.6874 20.7801C44.7043 20.7801 44.7211 20.7969 44.7548 20.8138C44.7717 20.8306 44.7885 20.8306 44.8223 20.8475C44.8391 20.8643 44.856 20.8643 44.8897 20.8812C44.9065 20.898 44.9234 20.898 44.9571 20.9149C44.9739 20.9318 44.9908 20.9486 45.0245 20.9486C45.0414 20.9655 45.0582 20.9823 45.0919 20.9992C45.1088 21.016 45.1256 21.0329 45.1593 21.0497C45.1762 21.0666 45.1931 21.0834 45.2268 21.1003C45.2436 21.1172 45.2605 21.134 45.2942 21.1677C45.311 21.1846 45.3279 21.2183 45.3616 21.2351C45.3785 21.252 45.3953 21.2857 45.429 21.3026C45.4459 21.3363 45.4627 21.3531 45.4964 21.3868C45.5133 21.4205 45.5301 21.4542 45.5639 21.488C45.5807 21.5217 45.5976 21.5554 45.6313 21.6059C45.6481 21.6565 45.6818 21.7071 45.6987 21.7576C45.7155 21.8251 45.7493 21.8925 45.7661 21.9599C45.7998 22.0779 45.8167 22.2127 45.8167 22.3475C45.8167 22.4824 45.7998 22.6172 45.7661 22.7352C45.7493 22.8026 45.7324 22.87 45.6987 22.9375C45.6818 22.988 45.665 23.0386 45.6313 23.0891C45.6144 23.1229 45.5976 23.1734 45.5639 23.2071C45.547 23.2408 45.5301 23.2746 45.4964 23.3083C45.4796 23.342 45.4627 23.3588 45.429 23.3925C45.4122 23.4094 45.3953 23.4431 45.3616 23.46C45.3447 23.4768 45.3279 23.5105 45.2942 23.5274C45.2773 23.5442 45.2605 23.5611 45.2268 23.5779C45.2099 23.5948 45.1931 23.6116 45.1593 23.6285C45.1425 23.6454 45.1256 23.6622 45.0919 23.6791C45.0751 23.6959 45.0582 23.7128 45.0245 23.7296C45.0077 23.7465 44.9908 23.7633 44.9571 23.7633C44.9402 23.7802 44.9234 23.7802 44.8897 23.797C44.8728 23.8139 44.856 23.8139 44.8223 23.8308C44.8054 23.8476 44.7885 23.8476 44.7548 23.8645C44.738 23.8813 44.7211 23.8813 44.6874 23.8982C44.6706 23.8982 44.6537 23.915 44.62 23.915C44.6031 23.915 44.5863 23.9319 44.5526 23.9319C44.5357 23.9319 44.5189 23.9487 44.4852 23.9487C44.4683 23.9487 44.4514 23.9656 44.4177 23.9656H44.4009C44.384 23.9656 44.384 23.9656 44.3672 23.9656C44.3503 23.9656 44.3335 23.9656 44.2998 23.9824C44.2829 23.9824 44.266 23.9824 44.2323 23.9824C44.2155 23.9824 44.1986 23.9824 44.1649 23.9824C44.1481 23.9824 44.1312 23.9824 44.0975 23.9824C44.0806 23.9824 44.0638 23.9824 44.0301 23.9824C44.0132 23.9824 43.9795 23.9824 43.9627 23.9824H43.929H43.8952H43.8278H43.7604H43.3222H43.2548H43.1874H43.1199H43.0525H42.9851H42.9177H42.8503H42.7828H42.7154H42.648H42.5806H42.5132H42.4795H42.412H42.3446H42.2772H42.2098H42.1424H42.0749H42.0075H41.9401H41.8727H41.8053H41.7379H41.6704H41.603H41.5356H41.4682H41.4008H41.3333H41.2659H41.1985H41.1311H41.0637H40.9962H40.9288H40.8614H40.794H40.7266H40.6592H40.5917H40.5243H40.4569H40.3895H40.3221H40.2546H40.1872H40.1198H40.0524H39.985H39.9175H39.8501H39.8164V20.6958H39.8838ZM36.7826 38.8988H46.2212H46.2549H46.3223C46.3392 38.8988 46.356 38.8988 46.3897 38.8988C46.4066 38.8988 46.4234 38.8988 46.4572 38.8988H46.5246C46.5414 38.8988 46.5583 38.8988 46.592 38.8988C46.6088 38.8988 46.6257 38.8988 46.6594 38.8988C46.6763 38.8988 46.6931 38.8988 46.7268 38.8988C46.7437 38.8988 46.7605 38.8988 46.7942 38.8988C46.8111 38.8988 46.828 38.8988 46.8617 38.8988C46.8785 38.8988 46.8954 38.8988 46.9291 38.8988C46.9459 38.8988 46.9628 38.8988 46.9965 38.882L47.0639 38.8651L47.1313 38.8482L47.1988 38.8314C47.2156 38.8314 47.2325 38.8314 47.2662 38.8145C47.283 38.8145 47.2999 38.8145 47.3336 38.7977L47.401 38.7808L47.4684 38.764C47.4853 38.764 47.5021 38.7471 47.5359 38.7471C47.5527 38.7471 47.5696 38.7303 47.6033 38.7303L47.6707 38.7134L47.7381 38.6966L47.8055 38.6797C47.8224 38.6797 47.8392 38.6628 47.8729 38.6628C47.8898 38.6628 47.9067 38.646 47.9404 38.646C47.9572 38.646 47.9741 38.6291 48.0078 38.6291L48.0752 38.6123C48.0921 38.6123 48.1089 38.5954 48.1426 38.5954L48.21 38.5786C48.2269 38.5786 48.2437 38.5617 48.2775 38.5617C48.2943 38.5617 48.3112 38.5449 48.3449 38.5449C48.3617 38.5449 48.3786 38.528 48.4123 38.528L48.4797 38.5112C48.4966 38.5112 48.5134 38.4943 48.5471 38.4943C48.564 38.4943 48.5808 38.4774 48.6145 38.4774C48.6314 38.4774 48.6483 38.4606 48.682 38.4606C48.6988 38.4606 48.7157 38.4437 48.7494 38.4437C48.7662 38.4269 48.7831 38.4269 48.8168 38.41C48.8337 38.3932 48.8505 38.3932 48.8842 38.3763L48.9516 38.3426L49.0191 38.3089C49.0359 38.292 49.0528 38.292 49.0865 38.2752C49.1033 38.2583 49.1202 38.2583 49.1539 38.2415C49.1708 38.2246 49.1876 38.2246 49.2213 38.2078C49.2382 38.1909 49.255 38.1909 49.2887 38.1741C49.3056 38.1572 49.3224 38.1572 49.3562 38.1404C49.373 38.1235 49.3899 38.1235 49.4236 38.1067C49.4404 38.0898 49.4573 38.0898 49.491 38.0729C49.5078 38.0561 49.5247 38.0561 49.5584 38.0392L49.6258 38.0055C49.6427 37.9887 49.6595 37.9887 49.6932 37.9718C49.7101 37.9549 49.727 37.9381 49.7607 37.9381C49.7775 37.9212 49.7944 37.9044 49.8281 37.9044C49.8449 37.8875 49.8618 37.8707 49.8955 37.8707C49.9124 37.8538 49.9292 37.837 49.9629 37.837C49.9798 37.8201 49.9966 37.8033 50.0303 37.7864C50.0472 37.7696 50.0641 37.7527 50.0978 37.7358C50.1146 37.719 50.1315 37.7021 50.1652 37.6853C50.182 37.6684 50.1989 37.6516 50.2326 37.6347C50.2494 37.6179 50.2663 37.601 50.3 37.5841C50.3169 37.5673 50.3337 37.5504 50.3674 37.5336C50.3843 37.5167 50.4011 37.4999 50.4349 37.483C50.4517 37.4662 50.4686 37.4493 50.5023 37.4325C50.5191 37.4156 50.536 37.3987 50.5697 37.3819C50.5865 37.365 50.6034 37.3482 50.6371 37.3313C50.654 37.3145 50.6708 37.2976 50.7045 37.2808C50.7214 37.2639 50.7382 37.2471 50.7719 37.2302C50.7888 37.2134 50.8057 37.1965 50.8394 37.1796C50.8562 37.1628 50.8731 37.1459 50.9068 37.1291C50.9236 37.1122 50.9405 37.0954 50.9742 37.0617C50.9911 37.0448 51.0079 37.0279 51.0416 36.9942C51.0585 36.9774 51.0753 36.9605 51.109 36.9268C51.1259 36.91 51.1427 36.8763 51.1765 36.8594C51.1933 36.8425 51.2102 36.8088 51.2439 36.792C51.2607 36.7751 51.2776 36.7414 51.3113 36.7246C51.3281 36.7077 51.345 36.674 51.3787 36.6571C51.3956 36.6403 51.4124 36.6066 51.4461 36.5897C51.463 36.5729 51.4798 36.5392 51.5135 36.5055C51.5304 36.4717 51.5473 36.4549 51.581 36.4212C51.5978 36.3875 51.6147 36.3706 51.6484 36.3369C51.6652 36.3032 51.6821 36.2863 51.7158 36.2526C51.7327 36.2189 51.7495 36.2021 51.7832 36.1684C51.8001 36.1347 51.8169 36.1009 51.8506 36.0841C51.8675 36.0504 51.8844 36.0167 51.9181 35.983C51.9349 35.9492 51.9518 35.9155 51.9855 35.8818C52.0023 35.8481 52.0192 35.8144 52.0529 35.7807C52.0698 35.747 52.0866 35.7133 52.1203 35.6796C52.1372 35.6459 52.154 35.6122 52.1877 35.5616C52.2046 35.5279 52.2214 35.4773 52.2552 35.4436C52.272 35.4099 52.2889 35.3593 52.3226 35.3256C52.3394 35.2751 52.3563 35.2414 52.39 35.1908C52.4068 35.1402 52.4237 35.1065 52.4574 35.056C52.4743 35.0054 52.4911 34.9548 52.5248 34.9043C52.5417 34.8537 52.5585 34.8031 52.5922 34.7526C52.6091 34.702 52.626 34.6346 52.6597 34.584C52.6765 34.5166 52.6934 34.4492 52.7271 34.3986C52.7439 34.3312 52.7608 34.2469 52.7945 34.1795C52.8114 34.0952 52.8451 34.011 52.8619 33.9267C52.8788 33.8256 52.9125 33.7076 52.9293 33.6065C52.963 33.4548 52.9799 33.2862 52.9968 33.1177C53.0136 32.966 53.0136 32.8143 53.0136 32.6457V0.942139H52.9968H52.9293H52.8619H52.7945H52.7271H52.6597H52.5922H52.5248H52.4574H52.39H51.7495H51.6821H51.6147H51.581H51.5135H51.4461H51.3787H51.3113H51.2439H51.1765H51.109H51.0416H50.9742H50.9068H50.8394H50.7719H50.7045H50.6371H50.5697H50.5023H50.4349H50.3674H50.3H50.2326H50.1652H50.0978H50.0303H49.9629H49.8955H49.8281H49.7607H49.6932H49.6258H49.5584H49.491H49.4236H49.3562H49.2887H49.2213H49.1539H49.0865H49.0191H48.9516H48.8842H48.8168H48.7494H48.682H48.6145H48.5471H48.4797H48.4123H48.3449H48.2775H48.21H48.1426H48.0752H48.0078H47.9404H47.8729H47.8055H47.7381H47.6707H47.6033H47.5359H47.4684H47.401H47.3336H47.2662H47.1988H47.1313H47.0639H46.9965H46.9291H46.8617H46.7942H46.7268H46.6931H46.6257H46.5583H46.4909H46.4234H46.356H46.2886H46.2212H46.1538H46.0863H46.0189H45.9515H45.8841H45.8167H45.7493H45.6818H45.6144H45.547H45.4796H45.4122H45.3447H45.2773H45.2099H45.1425H45.0751H45.0077H44.9402H44.8728H44.8054H44.738H44.6706H44.6031H44.5357H44.4683H44.4009H44.3335H44.266H44.1986H44.1312H44.0638H43.9964H43.929H43.8615H43.7941H43.7267H43.6593H43.5919H43.5244H43.457H43.3896H43.3222H43.2548H43.1874H43.1199H43.0694H43.0525C43.0357 0.942139 43.0188 0.942139 42.9851 0.942139C42.9682 0.942139 42.9514 0.942139 42.9177 0.942139C42.9008 0.942139 42.884 0.942139 42.8503 0.942139H42.7828C42.766 0.942139 42.7491 0.942139 42.7154 0.942139C42.6986 0.942139 42.6817 0.942139 42.648 0.942139C42.6311 0.942139 42.6143 0.942139 42.5806 0.942139H42.5132H42.4457C42.4289 0.942139 42.412 0.942139 42.3783 0.942139C42.3615 0.942139 42.3446 0.942139 42.3109 0.942139H42.2435C42.2266 0.942139 42.2098 0.942139 42.1761 0.942139C42.1592 0.942139 42.1424 0.94214 42.1087 0.958994C42.0918 0.958994 42.0749 0.958995 42.0412 0.97585C42.0244 0.97585 42.0075 0.975851 41.9738 0.992706L41.9064 1.00956C41.8895 1.00956 41.8727 1.00956 41.839 1.02641C41.8221 1.02641 41.8053 1.02641 41.7716 1.04327C41.7547 1.04327 41.7378 1.04327 41.7041 1.06012L41.6367 1.07698L41.5693 1.09383C41.5525 1.09383 41.5356 1.11069 41.5019 1.11069C41.485 1.11069 41.4682 1.12754 41.4345 1.12754C41.4176 1.12754 41.4008 1.1444 41.367 1.1444L41.2996 1.16125C41.2828 1.16125 41.2659 1.1781 41.2322 1.1781C41.2154 1.1781 41.1985 1.19496 41.1648 1.19496C41.1479 1.19496 41.1311 1.21181 41.0974 1.21181C41.0805 1.21181 41.0637 1.22867 41.03 1.22867C41.0131 1.22867 40.9962 1.24553 40.9625 1.24553L40.8951 1.26238C40.8783 1.26238 40.8614 1.27923 40.8277 1.27923C40.8108 1.27923 40.794 1.29609 40.7603 1.29609C40.7434 1.29609 40.7266 1.31294 40.6929 1.31294C40.676 1.31294 40.6592 1.3298 40.6254 1.3298L40.558 1.34665L40.4906 1.3635C40.4738 1.3635 40.4569 1.38036 40.4232 1.38036C40.4063 1.38036 40.3895 1.39722 40.3558 1.39722C40.3389 1.41407 40.3221 1.41407 40.2884 1.43092C40.2715 1.44778 40.2546 1.44778 40.2209 1.46463C40.2041 1.48149 40.1872 1.48149 40.1535 1.49835C40.1367 1.5152 40.1198 1.5152 40.0861 1.53205L40.0187 1.56576C40.0018 1.58262 39.985 1.58261 39.9513 1.59947C39.9344 1.61632 39.9175 1.61633 39.8838 1.63318C39.867 1.65004 39.8501 1.65004 39.8164 1.66689C39.7996 1.68375 39.7827 1.68374 39.749 1.7006C39.7321 1.71745 39.7153 1.71745 39.6816 1.73431C39.6647 1.75116 39.6479 1.75116 39.6142 1.76802C39.5973 1.78487 39.5805 1.78487 39.5467 1.80173C39.5299 1.81858 39.513 1.81858 39.4793 1.83544C39.4625 1.85229 39.4456 1.85229 39.4119 1.86914L39.3445 1.90286C39.3276 1.91971 39.3108 1.93656 39.2771 1.93656L39.2097 1.97027L39.1422 2.00398C39.1254 2.02084 39.1085 2.03769 39.0748 2.05455L39.0074 2.10511C38.9905 2.12196 38.9737 2.13882 38.94 2.15568C38.9231 2.17253 38.9063 2.18938 38.8726 2.20624L38.8051 2.2568L38.7377 2.30737C38.7209 2.32422 38.704 2.34107 38.6703 2.35793C38.6534 2.37478 38.6366 2.39164 38.6029 2.4085C38.586 2.42535 38.5692 2.4422 38.5355 2.45906C38.5186 2.47591 38.5018 2.49277 38.468 2.50962C38.4512 2.52648 38.4343 2.54333 38.4006 2.56019C38.3838 2.57704 38.3669 2.59389 38.3332 2.61075C38.3164 2.6276 38.2995 2.64446 38.2658 2.66132C38.2489 2.67817 38.2321 2.69502 38.1984 2.72873C38.1815 2.74559 38.1647 2.76244 38.131 2.79615C38.1141 2.813 38.0972 2.82986 38.0635 2.86357C38.0467 2.88042 38.0298 2.91414 37.9961 2.93099C37.9793 2.94785 37.9624 2.98155 37.9287 2.99841C37.9118 3.01526 37.895 3.04897 37.8613 3.06583C37.8444 3.08268 37.8276 3.11639 37.7939 3.13324C37.777 3.1501 37.7602 3.18381 37.7264 3.20066C37.7096 3.21752 37.6927 3.25123 37.659 3.26808C37.6422 3.28494 37.6253 3.31865 37.5916 3.3355C37.5748 3.36921 37.5579 3.38607 37.5242 3.41977C37.5073 3.45348 37.4905 3.47034 37.4568 3.50405C37.4399 3.53776 37.4231 3.55461 37.3893 3.58832C37.3725 3.62203 37.3556 3.63889 37.3219 3.67259C37.3051 3.7063 37.2882 3.74001 37.2545 3.75687C37.2377 3.79058 37.2208 3.82429 37.1871 3.858C37.1702 3.89171 37.1534 3.92541 37.1197 3.95912C37.1028 3.99283 37.086 4.02654 37.0523 4.06025C37.0354 4.09396 37.0185 4.12767 36.9848 4.16138C36.968 4.19509 36.9511 4.2288 36.9174 4.27936C36.9006 4.31307 36.8837 4.36363 36.85 4.39734C36.8331 4.43105 36.8163 4.48162 36.7826 4.51533C36.7657 4.56589 36.7489 4.5996 36.7152 4.65016C36.6983 4.70073 36.6815 4.75129 36.6477 4.785C36.6309 4.83557 36.614 4.88613 36.5803 4.93669C36.5635 4.98726 36.5466 5.03782 36.5129 5.10524C36.4961 5.1558 36.4792 5.22322 36.4455 5.29064C36.4286 5.35806 36.4118 5.42548 36.3781 5.49289C36.3612 5.56031 36.3444 5.64459 36.3107 5.71201C36.2938 5.79628 36.2601 5.88055 36.2432 5.98168C36.159 6.38619 36.1084 6.7907 36.1084 7.21207V13.8359H36.2432H36.3107H36.3781H36.4455H36.5129H36.5803H36.6477H36.7152H36.7826H36.85H36.9174H36.9848H37.0523H37.1197H37.1871H37.2545H37.3219H37.3893H37.4568H37.5242H37.5916H37.659H37.7264H37.7939H37.8613H37.9287H37.9961H38.0635H38.131H38.1984H38.2658H38.3332H38.4006H38.468H38.5355H38.6029H38.6703H38.7377H38.8051H38.8726H38.94H39.0074H39.0748H39.1422H39.2097H39.2771H39.3445H39.4119H39.4793H39.5467H39.6142H39.6816H39.749H39.8164H39.8838H39.9513H40.0187H40.0861H40.1535H40.2209H40.2884H40.3558H40.4232H40.4906H40.558H40.6254H40.6929H40.7603H40.8277H40.8951H40.9625H41.03H41.0974H41.1648H41.2322H41.2996H41.367H41.4345H41.5019H41.5693H41.6367H41.7041H41.7716H41.839H41.9064H41.9738H42.0412H42.1087H42.1761H42.2435H42.3109H42.3783H42.4457H42.5132H42.5806H42.648H42.7154H42.7828H42.8503H42.9177H42.9851H43.0525H43.1199H43.1874H43.2548H43.3222H43.3896H43.457H43.5244H43.5919H43.6593H43.7267H43.7941H43.8615H43.929H43.9964H44.0638H44.1312H44.1986H44.266H44.3335H44.4009H44.4683H44.5357H44.6031H44.6706H44.738H44.8054H44.8728H44.9402H45.0077H45.0751H45.1425H45.2099H45.2773H45.3447H45.4122H45.4796H45.547H45.6144H45.6818H45.7493H45.8167H45.8841H45.9515H45.9852H46.0189H46.0863H46.1538H46.2212H46.2886H46.356H46.4234H46.4909H46.5583H46.6257H46.6594H46.6763H46.7437H46.8111H46.8785H46.9459H47.0134H47.0808H47.1482H47.2156L47.283 13.8528L47.3504 13.8697C47.3673 13.8697 47.3842 13.8697 47.4179 13.8865L47.4853 13.9034C47.5021 13.9034 47.519 13.9034 47.5527 13.9202C47.5696 13.9202 47.5864 13.9202 47.6201 13.9371L47.6875 13.9539C47.7044 13.9539 47.7213 13.9708 47.755 13.9708C47.7718 13.9708 47.7887 13.9876 47.8224 13.9876L47.8898 14.0045C47.9067 14.0045 47.9235 14.0213 47.9572 14.0213C47.9741 14.0213 47.9909 14.0382 48.0246 14.0382C48.0415 14.0382 48.0583 14.0551 48.0921 14.0551C48.1089 14.0551 48.1258 14.0719 48.1595 14.0719C48.1763 14.0719 48.1932 14.0888 48.2269 14.0888C48.2437 14.0888 48.2606 14.1056 48.2943 14.1056C48.3112 14.1056 48.328 14.1225 48.3617 14.1225C48.3786 14.1225 48.3954 14.1393 48.4291 14.1393C48.446 14.1393 48.4629 14.1562 48.4966 14.1562C48.5134 14.1562 48.5303 14.173 48.564 14.1899C48.5808 14.2067 48.5977 14.2068 48.6314 14.2236C48.6483 14.2405 48.6651 14.2405 48.6988 14.2573C48.7157 14.2742 48.7325 14.2742 48.7662 14.291C48.7831 14.3079 48.8 14.3079 48.8337 14.3247C48.8505 14.3416 48.8674 14.3416 48.9011 14.3584C48.9179 14.3753 48.9348 14.3753 48.9685 14.3922C48.9854 14.409 49.0022 14.409 49.0359 14.4259C49.0528 14.4427 49.0696 14.4427 49.1033 14.4596C49.1202 14.4764 49.137 14.4933 49.1708 14.4933C49.1876 14.5101 49.2045 14.527 49.2382 14.527C49.255 14.5438 49.2719 14.5607 49.3056 14.5776C49.3224 14.5944 49.3393 14.6113 49.373 14.6281C49.3899 14.645 49.4067 14.6618 49.4404 14.6787C49.4573 14.6955 49.4741 14.7124 49.5078 14.7292C49.5247 14.7461 49.5416 14.763 49.5753 14.7798C49.5921 14.7967 49.609 14.8135 49.6427 14.8304C49.6595 14.8472 49.6764 14.8641 49.7101 14.8978C49.727 14.9146 49.7438 14.9484 49.7775 14.9652C49.7944 14.9821 49.8112 15.0158 49.8449 15.0326C49.8618 15.0495 49.8786 15.0832 49.9124 15.1C49.9292 15.1338 49.9461 15.1506 49.9798 15.1843C49.9966 15.218 50.0135 15.2349 50.0472 15.2686C50.064 15.3023 50.0809 15.336 50.1146 15.3697C50.1315 15.4034 50.1483 15.4371 50.182 15.4708C50.1989 15.5046 50.2157 15.5551 50.2495 15.5888C50.2663 15.6394 50.2832 15.6731 50.3169 15.7237C50.3337 15.7742 50.3674 15.8417 50.3843 15.8922C50.4011 15.9596 50.4348 16.0271 50.4517 16.1113C50.4854 16.2293 50.5023 16.3473 50.5191 16.4821C50.536 16.5833 50.536 16.6844 50.536 16.7855C50.536 16.8866 50.536 16.9878 50.5191 17.072C50.5023 17.19 50.4854 17.308 50.4517 17.426C50.4348 17.4934 50.418 17.5777 50.3843 17.6451C50.3674 17.6957 50.3506 17.7631 50.3169 17.8136C50.3 17.8642 50.2832 17.9148 50.2495 17.9485C50.2326 17.9822 50.2157 18.0328 50.182 18.0665C50.1652 18.1002 50.1483 18.1339 50.1146 18.1676C50.0978 18.2013 50.0809 18.235 50.0472 18.2687C50.0303 18.3024 50.0135 18.3361 49.9798 18.353C49.9629 18.3867 49.9461 18.4036 49.9124 18.4373C49.8955 18.471 49.8786 18.4878 49.8449 18.5047C49.8281 18.5215 49.8112 18.5553 49.7775 18.5721C49.7607 18.589 49.7438 18.6227 49.7101 18.6395C49.6932 18.6564 49.6764 18.6732 49.6427 18.7069C49.6258 18.7238 49.609 18.7407 49.5753 18.7575C49.5584 18.7744 49.5416 18.7912 49.5078 18.8081C49.491 18.8249 49.4741 18.8418 49.4404 18.8586C49.4236 18.8755 49.4067 18.8923 49.373 18.9092C49.3562 18.9261 49.3393 18.9429 49.3056 18.9598C49.2887 18.9766 49.2719 18.9935 49.2382 19.0103C49.2213 19.0272 49.2045 19.044 49.1708 19.0609C49.1539 19.0777 49.137 19.0946 49.1033 19.0946C49.0865 19.1115 49.0696 19.1283 49.0359 19.1283C49.0191 19.1452 49.0022 19.1452 48.9685 19.162C48.9516 19.1789 48.9348 19.1789 48.9011 19.1957C48.8842 19.2126 48.8674 19.2126 48.8337 19.2294C48.8168 19.2463 48.7999 19.2463 48.7662 19.2631C48.7494 19.28 48.7325 19.28 48.6988 19.2969C48.682 19.3137 48.6651 19.3137 48.6314 19.3306C48.6145 19.3474 48.5977 19.3474 48.564 19.3643C48.5471 19.3811 48.5303 19.3811 48.4966 19.398C48.4797 19.398 48.4629 19.4148 48.4291 19.4148C48.4123 19.4148 48.3954 19.4317 48.3617 19.4317C48.3449 19.4317 48.328 19.4485 48.2943 19.4485C48.2775 19.4485 48.2606 19.4654 48.2269 19.4654C48.21 19.4654 48.1932 19.4823 48.1595 19.4823C48.1426 19.4823 48.1258 19.4991 48.0921 19.4991C48.0752 19.4991 48.0583 19.516 48.0246 19.516C48.0078 19.516 47.9909 19.5328 47.9572 19.5328C47.9404 19.5328 47.9235 19.5497 47.8898 19.5497C47.8729 19.5497 47.8561 19.5665 47.8224 19.5665C47.8055 19.5665 47.7887 19.5834 47.755 19.5834L47.6875 19.6002C47.6707 19.6002 47.6538 19.6171 47.6201 19.6171L47.5527 19.6339C47.5359 19.6339 47.519 19.6339 47.4853 19.6508L47.4179 19.6677L47.3673 19.6845V19.7519H47.4179H47.4853H47.5527H47.6201H47.6875H47.755H47.8224C47.8392 19.7519 47.8561 19.7519 47.8898 19.7688L47.9572 19.7856C47.9741 19.7856 47.9909 19.7856 48.0246 19.8025L48.0921 19.8193L48.1595 19.8362C48.1763 19.8362 48.1932 19.8362 48.2269 19.8531C48.2437 19.8531 48.2606 19.8699 48.2943 19.8699C48.3112 19.8699 48.328 19.8868 48.3617 19.8868C48.3786 19.8868 48.3954 19.9036 48.4291 19.9036C48.446 19.9036 48.4629 19.9205 48.4966 19.9205C48.5134 19.9205 48.5303 19.9373 48.564 19.9373C48.5808 19.9373 48.5977 19.9542 48.6314 19.9542L48.6988 19.971C48.7157 19.971 48.7325 19.9879 48.7662 19.9879C48.7831 19.9879 48.8 20.0048 48.8337 20.0048C48.8505 20.0048 48.8674 20.0216 48.9011 20.0216C48.9179 20.0216 48.9348 20.0385 48.9685 20.0385C48.9854 20.0385 49.0022 20.0553 49.0359 20.0553C49.0528 20.0553 49.0696 20.0722 49.1033 20.0722C49.1202 20.0722 49.137 20.089 49.1708 20.089C49.1876 20.089 49.2045 20.1059 49.2382 20.1227C49.255 20.1396 49.2719 20.1396 49.3056 20.1564C49.3224 20.1733 49.3393 20.1733 49.373 20.1902C49.3899 20.207 49.4067 20.207 49.4404 20.2239C49.4573 20.2407 49.4741 20.2407 49.5078 20.2576C49.5247 20.2744 49.5416 20.2744 49.5753 20.2913C49.5921 20.3081 49.609 20.3081 49.6427 20.325C49.6595 20.3418 49.6764 20.3418 49.7101 20.3587C49.727 20.3756 49.7438 20.3756 49.7775 20.3924C49.7944 20.4093 49.8112 20.4093 49.8449 20.4261C49.8618 20.443 49.8786 20.4598 49.9124 20.4598C49.9292 20.4767 49.9461 20.4935 49.9798 20.4935C49.9966 20.5104 50.0135 20.5272 50.0472 20.5441C50.064 20.561 50.0809 20.5778 50.1146 20.5947C50.1315 20.6115 50.1483 20.6284 50.182 20.6452C50.1989 20.6621 50.2157 20.6789 50.2495 20.6958C50.2663 20.7126 50.2832 20.7295 50.3169 20.7464C50.3337 20.7632 50.3506 20.7801 50.3843 20.7969C50.4011 20.8138 50.418 20.8306 50.4517 20.8475C50.4686 20.8643 50.4854 20.8812 50.5191 20.9149C50.536 20.9318 50.5528 20.9655 50.5865 20.9823C50.6034 20.9992 50.6203 21.0329 50.654 21.0497C50.6708 21.0666 50.6877 21.1003 50.7214 21.1172C50.7382 21.1509 50.7551 21.1677 50.7888 21.2014C50.8057 21.2351 50.8225 21.252 50.8562 21.2857C50.8731 21.3194 50.8899 21.3531 50.9236 21.3868C50.9405 21.4205 50.9573 21.4542 50.9911 21.488C51.0079 21.5217 51.0248 21.5722 51.0585 21.6059C51.0753 21.6565 51.0922 21.6902 51.1259 21.7408C51.1427 21.7913 51.1765 21.8419 51.1933 21.8925C51.2102 21.9599 51.2439 22.0273 51.2607 22.0947C51.2944 22.1959 51.3113 22.297 51.3281 22.3981C51.345 22.5329 51.3619 22.6509 51.3619 22.7858C51.3619 22.9206 51.345 23.0554 51.3281 23.1903C51.3113 23.2914 51.2944 23.4094 51.2607 23.5105C51.2439 23.5779 51.227 23.6454 51.1933 23.7128C51.1765 23.7633 51.1596 23.8308 51.1259 23.8813C51.109 23.9319 51.0922 23.9824 51.0585 24.0162C51.0416 24.0499 51.0248 24.1004 50.9911 24.1341C50.9742 24.1678 50.9573 24.2016 50.9236 24.2353C50.9068 24.269 50.8899 24.3027 50.8562 24.3364C50.8394 24.3701 50.8225 24.4038 50.7888 24.4207C50.7719 24.4544 50.7551 24.4712 50.7214 24.5049C50.7045 24.5387 50.6877 24.5555 50.654 24.5892C50.6371 24.6061 50.6203 24.6398 50.5865 24.6566C50.5697 24.6735 50.5528 24.7072 50.5191 24.7241C50.5023 24.7409 50.4854 24.7746 50.4517 24.7915C50.4348 24.8083 50.418 24.8252 50.3843 24.8589C50.3674 24.8757 50.3506 24.8926 50.3169 24.9095C50.3 24.9263 50.2832 24.9432 50.2495 24.96C50.2326 24.9769 50.2157 24.9937 50.182 25.0106C50.1652 25.0274 50.1483 25.0443 50.1146 25.0611C50.0978 25.078 50.0809 25.0949 50.0472 25.1117C50.0303 25.1286 50.0135 25.1454 49.9798 25.1623C49.9629 25.1791 49.9461 25.196 49.9124 25.2128C49.8955 25.2297 49.8786 25.2465 49.8449 25.2465C49.8281 25.2634 49.8112 25.2803 49.7775 25.2803C49.7607 25.2971 49.7438 25.2971 49.7101 25.314C49.6932 25.3308 49.6764 25.3308 49.6427 25.3477C49.6258 25.3645 49.609 25.3645 49.5753 25.3814C49.5584 25.3982 49.5416 25.3982 49.5078 25.4151C49.491 25.4319 49.4741 25.4319 49.4404 25.4488C49.4236 25.4657 49.4067 25.4657 49.373 25.4825C49.3562 25.4994 49.3393 25.4994 49.3056 25.5162C49.2887 25.5331 49.2719 25.5331 49.2382 25.5499C49.2213 25.5668 49.2045 25.5668 49.1708 25.5836C49.1539 25.6005 49.137 25.6005 49.1033 25.6005C49.0865 25.6005 49.0696 25.6173 49.0359 25.6173C49.0191 25.6173 49.0022 25.6342 48.9685 25.6342C48.9516 25.6342 48.9348 25.6511 48.9011 25.6511C48.8842 25.6511 48.8674 25.6679 48.8337 25.6679C48.8168 25.6679 48.7999 25.6848 48.7662 25.6848L48.6988 25.7016C48.682 25.7016 48.6651 25.7185 48.6314 25.7185C48.6145 25.7185 48.5977 25.7353 48.564 25.7353C48.5471 25.7353 48.5303 25.7522 48.4966 25.7522C48.4797 25.7522 48.4629 25.769 48.4291 25.769C48.4123 25.769 48.3954 25.7859 48.3617 25.7859C48.3449 25.7859 48.328 25.8027 48.2943 25.8027L48.2269 25.8196C48.21 25.8196 48.1932 25.8365 48.1595 25.8365C48.1426 25.8365 48.1258 25.8365 48.0921 25.8533L48.0246 25.8702L47.9572 25.887C47.9404 25.887 47.9235 25.887 47.8898 25.9039C47.8729 25.9039 47.8561 25.9039 47.8224 25.9207C47.8055 25.9207 47.7887 25.9207 47.755 25.9207H47.6875C47.6707 25.9207 47.6538 25.9207 47.6201 25.9207C47.6033 25.9207 47.5864 25.9207 47.5527 25.9207H47.4853H47.4179H47.3504H47.283H47.2156C47.1988 25.9207 47.1819 25.9207 47.1482 25.9207C47.1313 25.9207 47.1145 25.9207 47.0808 25.9207H47.0134H46.9459H46.9122H46.8785H46.8111H46.7437H46.6763H46.6088H46.5414H46.474H46.4066H46.3392H46.0189H45.9515H45.8841H45.8167H45.7493H45.6818H45.6144H45.547H45.4796H45.4122H45.3447H45.2773H45.2099H45.1425H45.0751H45.0077H44.9402H44.8728H44.8054H44.738H44.6706H44.6031H44.5357H44.4683H44.4009H44.3335H44.266H44.1986H44.1312H44.0638H43.9964H43.929H43.8615H43.7941H43.7267H43.6593H43.5919H43.5244H43.457H43.3896H43.3222H43.2548H43.1874H43.1199H43.0525H42.9851H42.9177H42.8503H42.7828H42.7154H42.648H42.5806H42.5132H42.4795H42.412H42.3446H42.2772H42.2098H42.1424H42.0749H42.0075H41.9401H41.8727H41.8053H41.7379H41.6704H41.603H41.5356H41.4682H41.4008H41.3333H41.2659H41.1985H41.1311H41.0637H40.9962H40.9288H40.8614H40.794H40.7266H40.6592H40.5917H40.5243H40.4569H40.3895H40.3221H40.2546H40.1872H40.1198H40.0524H39.985H39.9175H39.8501H39.7827H39.7153H39.6479H39.5805H39.513H39.4456H39.3782H39.3108H39.2434H39.1759H39.1085H39.0411H38.9737H38.9063H38.8388H38.7714H38.704H38.6366H38.5692H38.5018H38.4343H38.3669H38.2995H38.2658H38.1984H38.131H38.0635H37.9961H37.9287H37.8613H37.7939H37.7264H37.659H37.5916H37.5242H37.4568H37.3893H37.3219H37.2545H37.1871H37.1197H37.0523H36.9848H36.9174H36.7826V38.8988ZM44.7885 16.9035C44.8054 17.0215 44.8223 17.1395 44.8223 17.2574C44.8223 17.3754 44.8054 17.4934 44.7885 17.6114C44.7717 17.6788 44.7548 17.7462 44.7211 17.8136C44.7043 17.8642 44.6874 17.9148 44.6537 17.9485C44.6368 17.9822 44.62 18.0159 44.5863 18.0665C44.5694 18.1002 44.5526 18.1339 44.5189 18.1507C44.502 18.1844 44.4852 18.2013 44.4515 18.235C44.4346 18.2519 44.4177 18.2856 44.384 18.3024C44.3672 18.3193 44.3503 18.3361 44.3166 18.3698C44.2998 18.3867 44.2829 18.4036 44.2492 18.4204C44.2323 18.4373 44.2155 18.4541 44.1818 18.471C44.1649 18.4878 44.1481 18.5047 44.1144 18.5215C44.0975 18.5384 44.0806 18.5553 44.0469 18.5553C44.0301 18.5721 44.0132 18.5721 43.9795 18.589C43.9627 18.6058 43.9458 18.6058 43.9121 18.6227C43.8952 18.6395 43.8784 18.6395 43.8447 18.6564C43.8278 18.6732 43.811 18.6732 43.7773 18.6901C43.7604 18.6901 43.7436 18.7069 43.7098 18.7069C43.693 18.7069 43.6761 18.7238 43.6424 18.7238C43.6256 18.7238 43.6087 18.7407 43.575 18.7407C43.5582 18.7407 43.5413 18.7575 43.5076 18.7575C43.4907 18.7575 43.4739 18.7575 43.4402 18.7744H43.4233C43.4065 18.7744 43.3896 18.7744 43.3727 18.7744C43.3559 18.7744 43.339 18.7744 43.3053 18.7744C43.2885 18.7744 43.2716 18.7744 43.2379 18.7744C43.2211 18.7744 43.2042 18.7744 43.1705 18.7744C43.1536 18.7744 43.1368 18.7744 43.1031 18.7744C43.0862 18.7744 43.0694 18.7744 43.0357 18.7744H43.0188H42.9682H42.9008H42.8334H42.766H42.6986H42.6311H42.5637H42.4963H42.4289H42.3615H42.2941H42.4795H42.412H42.3446H42.2772H42.2098H42.1424H42.0749H42.0075H41.9401H41.8727H41.8053H41.7379H41.6704H41.603H41.5356H41.4682H41.4008H41.3333H41.2659H41.1985H41.1311H41.0637H40.9962H40.9288H40.8614H40.794H40.7266H40.6592H40.5917H40.5243H40.4569H40.3895H40.3221H40.2546H40.1872H40.1198H40.0524H39.985H39.9175H39.8501H39.8164V15.69H39.8501H39.9175H39.985H40.0524H40.1198H40.1872H40.2546H40.3221H40.3895H40.4569H40.5243H40.5917H40.6592H40.7266H40.794H40.8614H40.9288H40.9962H41.0637H41.1311H41.1985H41.2659H41.3333H41.4008H41.4682H41.5356H41.603H41.6704H41.7379H41.8053H41.8727H41.9401H42.0075H42.0749H42.1424H42.2098H42.2772H42.3446H42.412H42.4795H42.5469H42.6143H42.6817H42.7491H42.8165H42.884H42.9514H43.0188H43.0862H43.1536H43.2211H43.2885H43.3559H43.4233H43.4907H43.5244H43.5582C43.575 15.69 43.5919 15.69 43.6256 15.69C43.6424 15.69 43.6593 15.69 43.693 15.69C43.7098 15.69 43.7267 15.69 43.7604 15.69C43.7773 15.69 43.811 15.69 43.8278 15.69C43.8447 15.69 43.8615 15.69 43.8784 15.69H43.8952C43.9121 15.69 43.929 15.69 43.9627 15.7068C43.9795 15.7068 43.9964 15.7237 44.0301 15.7237C44.0469 15.7237 44.0638 15.7405 44.0975 15.7405C44.1144 15.7405 44.1312 15.7574 44.1649 15.7574C44.1818 15.7574 44.1986 15.7742 44.2323 15.7742C44.2492 15.7742 44.266 15.7911 44.2998 15.8079C44.3166 15.8248 44.3335 15.8248 44.3672 15.8416C44.384 15.8585 44.4009 15.8585 44.4346 15.8754C44.4515 15.8922 44.4683 15.8922 44.502 15.9091C44.5189 15.9259 44.5357 15.9428 44.5694 15.9428C44.5863 15.9596 44.6031 15.9765 44.6368 15.9933C44.6537 16.0102 44.6706 16.0271 44.7043 16.0439C44.7211 16.0608 44.738 16.0776 44.7717 16.0945C44.7885 16.1113 44.8054 16.1282 44.8391 16.1619C44.856 16.1787 44.8728 16.2125 44.9065 16.2293C44.9234 16.263 44.9402 16.2799 44.9739 16.3136C44.9908 16.3473 45.0077 16.381 45.0414 16.3979C45.0582 16.4316 45.0919 16.4653 45.1088 16.5158C45.1256 16.5664 45.1593 16.6001 45.1762 16.6507C44.7548 16.7687 44.7717 16.8361 44.7885 16.9035Z" fill="url(#paint1_linear)"/>
<path d="M1.8933 22.9543C1.84273 22.9375 1.80902 22.9206 1.75846 22.8869V7.26264C1.75846 6.82442 1.80902 6.3862 1.8933 5.98169C1.91015 5.89742 1.92701 5.79629 1.96072 5.71202C1.97757 5.6446 1.99443 5.56032 2.02813 5.4929C2.04499 5.42549 2.06184 5.35807 2.09555 5.29065C2.11241 5.22323 2.12926 5.17267 2.16297 5.10525C2.17983 5.05469 2.19668 5.00412 2.23039 4.9367C2.24724 4.88614 2.2641 4.83558 2.29781 4.78501C2.31466 4.73445 2.33152 4.68388 2.36523 4.65017C2.38208 4.59961 2.39894 4.5659 2.43265 4.51534C2.4495 4.48163 2.46636 4.43106 2.50007 4.39735C2.51692 4.36364 2.53377 4.31308 2.56748 4.27937C2.58434 4.24566 2.60119 4.21195 2.6349 4.16139C2.65176 4.12768 2.66861 4.09397 2.70232 4.06026C2.71918 4.02655 2.73603 3.99284 2.76974 3.95913C2.78659 3.92542 2.80345 3.89172 2.83716 3.85801C2.85401 3.8243 2.87087 3.79059 2.90458 3.75688C2.92143 3.72317 2.93829 3.68946 2.972 3.6726C2.98885 3.63889 3.0057 3.62204 3.03941 3.58833C3.05627 3.55462 3.07312 3.53777 3.10683 3.50406C3.12369 3.47035 3.14054 3.45349 3.17425 3.41978C3.19111 3.38608 3.20796 3.36922 3.24167 3.33551C3.25852 3.3018 3.27538 3.28495 3.30909 3.26809C3.32594 3.25124 3.3428 3.21753 3.37651 3.20067C3.39336 3.18382 3.41022 3.15011 3.44392 3.13325C3.46078 3.1164 3.47764 3.08269 3.51134 3.06584C3.5282 3.04898 3.54505 3.01527 3.57876 2.99842C3.59562 2.98156 3.61247 2.94786 3.64618 2.931C3.66304 2.91415 3.67989 2.88043 3.7136 2.86358C3.73045 2.84672 3.74731 2.82987 3.78102 2.79616C3.79787 2.77931 3.81473 2.76245 3.84844 2.72874C3.86529 2.71189 3.88215 2.69503 3.91586 2.66133C3.93271 2.64447 3.94957 2.62761 3.98328 2.61076C4.00013 2.5939 4.01698 2.57705 4.05069 2.5602C4.06755 2.54334 4.0844 2.52649 4.11811 2.50963C4.13497 2.49278 4.15182 2.47592 4.18553 2.45907C4.20239 2.44221 4.21924 2.42536 4.25295 2.40851C4.2698 2.39165 4.28666 2.37479 4.32037 2.35794C4.33722 2.34108 4.35408 2.32423 4.38779 2.30738C4.40464 2.29052 4.42149 2.27367 4.4552 2.25681C4.47206 2.23996 4.48891 2.2231 4.52262 2.20625C4.53948 2.18939 4.55633 2.17254 4.59004 2.15569L4.65746 2.10512C4.67432 2.08826 4.69117 2.07141 4.72488 2.05456C4.74173 2.0377 4.75859 2.02085 4.7923 2.00399C4.80915 1.98714 4.82601 1.97028 4.85972 1.97028C4.87657 1.95343 4.89342 1.93657 4.92713 1.93657C4.94399 1.91972 4.96085 1.90287 4.99455 1.90287C5.01141 1.88601 5.02826 1.86915 5.06197 1.86915C5.07883 1.8523 5.09568 1.83545 5.12939 1.83545C5.14624 1.81859 5.1631 1.81859 5.19681 1.80174C5.21366 1.78488 5.23052 1.78488 5.26423 1.76803C5.28108 1.75117 5.29794 1.75117 5.33165 1.73432C5.3485 1.71746 5.36536 1.71746 5.39907 1.70061C5.41592 1.68375 5.43277 1.68376 5.46648 1.6669C5.48334 1.65005 5.50019 1.65005 5.5339 1.63319C5.55076 1.61634 5.56761 1.61633 5.60132 1.59948L5.66874 1.56577C5.68559 1.54892 5.70245 1.54892 5.73616 1.53206C5.75301 1.51521 5.76987 1.51521 5.80358 1.49836C5.82043 1.4815 5.83729 1.4815 5.871 1.46464C5.88785 1.44779 5.9047 1.44779 5.93841 1.43093C5.95527 1.41408 5.97212 1.41408 6.00583 1.39723C6.02269 1.38037 6.03954 1.38037 6.07325 1.36351L6.14067 1.34666L6.20809 1.32981L6.27551 1.31295C6.29236 1.31295 6.30922 1.2961 6.34293 1.2961C6.35978 1.2961 6.37663 1.27924 6.41034 1.27924C6.4272 1.27924 6.44405 1.26239 6.47776 1.26239L6.54518 1.24554L6.6126 1.22868C6.62945 1.22868 6.64631 1.21182 6.68002 1.21182C6.69687 1.21182 6.71373 1.19497 6.74744 1.19497C6.76429 1.19497 6.78115 1.17811 6.81485 1.17811C6.83171 1.17811 6.84857 1.16126 6.88227 1.16126L6.94969 1.14441C6.96655 1.14441 6.9834 1.12755 7.01711 1.12755C7.03397 1.12755 7.05082 1.1107 7.08453 1.1107C7.10139 1.1107 7.11824 1.09384 7.15195 1.09384C7.1688 1.09384 7.18566 1.07699 7.21937 1.07699L7.28679 1.06013C7.30364 1.06013 7.3205 1.04328 7.35421 1.04328C7.37106 1.04328 7.38791 1.04328 7.42162 1.02642C7.43848 1.02642 7.45533 1.02642 7.48904 1.00957C7.5059 1.00957 7.52275 1.00957 7.55646 0.992716L7.62388 0.97586C7.64073 0.97586 7.65759 0.975859 7.6913 0.959004C7.70815 0.959004 7.72501 0.959003 7.75872 0.942149C7.77557 0.942149 7.79242 0.942148 7.82613 0.925293H7.89355H7.96097C7.97783 0.925293 7.99468 0.925293 8.02839 0.925293C8.04525 0.925293 8.0621 0.925293 8.09581 0.925293H8.16323C8.18008 0.925293 8.19694 0.925293 8.23065 0.925293C8.2475 0.925293 8.26436 0.925293 8.29806 0.925293C8.31492 0.925293 8.33178 0.925293 8.36548 0.925293C8.38234 0.925293 8.39919 0.925293 8.4329 0.925293H8.50032C8.51717 0.925293 8.53403 0.925293 8.56774 0.925293C8.58459 0.925293 8.60145 0.925293 8.63516 0.925293C8.65201 0.925293 8.66887 0.925293 8.70258 0.925293H8.73629H8.77H8.83741H8.90483H8.97225H9.03967H9.10709H9.17451H9.24193H9.30934H9.37676H9.44418H9.5116H9.57902H9.64644H9.71386H9.78127H9.84869H9.91611H9.98353H10.051H10.1184H10.1858H10.2532H10.3206H10.388H10.4555H10.5229H10.5903H10.6577H10.7251H10.7926H10.86H10.9274H10.9948H11.0622H11.1296H11.1971H11.2645H11.3319H11.3993H11.4667H11.5342H11.6016H11.669H11.7364H11.8038H11.8713H11.9387H12.0061H12.0735H12.1409H12.2083H12.2758H12.3432H12.4106H12.478H12.5454H12.6129H12.6803H12.7477H12.8151H12.8825H12.9499H13.0174H13.0848H13.1522H13.2196H13.287H13.3545H13.4219H13.4893H13.5567H13.6241H13.6916H13.759H13.8264H13.8938H13.9612H14.0286H14.0961H14.1635H14.2309H14.2983H14.3657H14.4332H14.5006H14.568H14.6354H14.7028H14.7703H14.8377H14.9051H14.9725H15.0399H15.1073H15.1748H15.2422H15.3096H15.377H15.4444H15.5119H15.5793H15.6467H15.7141H15.7815H15.8489H15.9164H15.9838H16.0512H16.1186H16.186H16.2535H16.3209H16.3883H16.4557H16.5231H16.5906H16.658H16.7254H16.7928H16.8602H16.9276H16.9951H17.0625H17.1299H17.1973H17.2647H17.3322H17.3996H17.467H17.5344H17.6018H17.6693H17.7367H17.8041H17.8715H17.9389H18.0063H18.0738H18.1412H18.2086H18.276H18.3434H18.4109H18.4783H18.5457H18.6131H18.6805H18.7479H18.8154H18.8828H18.9502H19.0008V32.5615C19.0008 32.8312 18.9839 33.1008 18.9502 33.3705C18.9333 33.5053 18.9165 33.6233 18.8828 33.7582C18.8659 33.8593 18.8491 33.9436 18.8154 34.0447C18.7985 34.129 18.7817 34.1964 18.7479 34.2807C18.7311 34.3481 18.7142 34.4155 18.6805 34.4829C18.6637 34.5503 18.6468 34.6009 18.6131 34.6683C18.5963 34.7189 18.5794 34.7863 18.5457 34.8369C18.5288 34.8874 18.512 34.938 18.4783 34.9886C18.4614 35.0391 18.4446 35.0897 18.4109 35.1234C18.394 35.1739 18.3771 35.2077 18.3434 35.2582C18.3266 35.3088 18.3097 35.3425 18.276 35.3762C18.2592 35.4099 18.2423 35.4605 18.2086 35.4942C18.1917 35.5279 18.1749 35.5616 18.1412 35.6122C18.1243 35.6459 18.1075 35.6796 18.0738 35.7133C18.0569 35.747 18.0401 35.7807 18.0063 35.8144C17.9895 35.8481 17.9726 35.8818 17.9389 35.9156C17.9221 35.9493 17.9052 35.983 17.8715 36.0167C17.8547 36.0504 17.8378 36.0841 17.8041 36.101C17.7872 36.1347 17.7704 36.1515 17.7367 36.1852C17.7198 36.2189 17.703 36.2358 17.6693 36.2695C17.6524 36.3032 17.6355 36.3201 17.6018 36.3538C17.585 36.3875 17.5681 36.4043 17.5344 36.438C17.5176 36.4718 17.5007 36.4886 17.467 36.5223C17.4501 36.5392 17.4333 36.5729 17.3996 36.5897C17.3827 36.6066 17.3659 36.6403 17.3322 36.6572C17.3153 36.674 17.2984 36.7077 17.2647 36.7246C17.2479 36.7414 17.231 36.7751 17.1973 36.792C17.1805 36.8088 17.1636 36.8426 17.1299 36.8594C17.113 36.8763 17.0962 36.91 17.0625 36.9268C17.0456 36.9437 17.0288 36.9605 16.9951 36.9942C16.9782 37.0111 16.9614 37.028 16.9276 37.0617C16.9108 37.0785 16.8939 37.0954 16.8602 37.1291C16.8434 37.1459 16.8265 37.1628 16.7928 37.1797C16.776 37.1965 16.7591 37.2134 16.7254 37.2302C16.7085 37.2471 16.6917 37.2639 16.658 37.2808C16.6411 37.2976 16.6243 37.3145 16.5906 37.3313C16.5737 37.3482 16.5568 37.365 16.5231 37.3819C16.5063 37.3988 16.4894 37.4156 16.4557 37.4325C16.4389 37.4493 16.422 37.4662 16.3883 37.483C16.3714 37.4999 16.3546 37.5167 16.3209 37.5336C16.304 37.5505 16.2872 37.5673 16.2535 37.5842C16.2366 37.601 16.2198 37.6179 16.186 37.6347C16.1692 37.6516 16.1523 37.6684 16.1186 37.6853C16.1018 37.7022 16.0849 37.719 16.0512 37.7359C16.0343 37.7527 16.0175 37.7696 15.9838 37.7864C15.9669 37.8033 15.9501 37.8201 15.9164 37.8201C15.8995 37.837 15.8827 37.8538 15.8489 37.8538C15.8321 37.8707 15.8152 37.8875 15.7815 37.8875C15.7647 37.9044 15.7478 37.9213 15.7141 37.9213C15.6973 37.9381 15.6804 37.955 15.6467 37.955C15.6298 37.9718 15.613 37.9718 15.5793 37.9887C15.5624 38.0055 15.5456 38.0055 15.5119 38.0224C15.495 38.0392 15.4781 38.0392 15.4444 38.0561C15.4276 38.0729 15.4107 38.0729 15.377 38.0898C15.3602 38.1067 15.3433 38.1067 15.3096 38.1235L15.2422 38.1572C15.2253 38.1741 15.2085 38.1741 15.1748 38.1909C15.1579 38.2078 15.1411 38.2078 15.1073 38.2246C15.0905 38.2415 15.0736 38.2415 15.0399 38.2583C15.0231 38.2752 15.0062 38.2752 14.9725 38.2921C14.9557 38.3089 14.9388 38.3089 14.9051 38.3258C14.8882 38.3426 14.8714 38.3426 14.8377 38.3595L14.7703 38.3932L14.7028 38.4269C14.686 38.4437 14.6691 38.4438 14.6354 38.4438C14.6186 38.4438 14.6017 38.4606 14.568 38.4606C14.5511 38.4606 14.5343 38.4775 14.5006 38.4775C14.4837 38.4775 14.4669 38.4943 14.4332 38.4943C14.4163 38.4943 14.3994 38.5112 14.3657 38.5112L14.2983 38.528L14.2309 38.5449C14.214 38.5449 14.1972 38.5617 14.1635 38.5617C14.1466 38.5617 14.1298 38.5786 14.0961 38.5786C14.0792 38.5786 14.0624 38.5954 14.0286 38.5954L13.9612 38.6123L13.8938 38.6292C13.877 38.6292 13.8601 38.646 13.8264 38.646C13.8095 38.646 13.7927 38.6629 13.759 38.6629C13.7421 38.6629 13.7253 38.6797 13.6916 38.6797C13.6747 38.6797 13.6578 38.6966 13.6241 38.6966L13.5567 38.7134L13.4893 38.7303C13.4724 38.7303 13.4556 38.7471 13.4219 38.7471C13.405 38.7471 13.3882 38.7471 13.3545 38.764C13.3376 38.764 13.3208 38.764 13.287 38.7808L13.2196 38.7977C13.2028 38.7977 13.1859 38.7977 13.1522 38.8145C13.1354 38.8145 13.1185 38.8146 13.0848 38.8314C13.0679 38.8314 13.0511 38.8314 13.0174 38.8483L12.9499 38.8651C12.9331 38.8651 12.9162 38.8651 12.8825 38.8651C12.8657 38.8651 12.8488 38.8651 12.8151 38.8651C12.7983 38.8651 12.7814 38.8651 12.7477 38.8651C12.7308 38.8651 12.714 38.8651 12.6803 38.8651H12.6129C12.596 38.8651 12.5791 38.8651 12.5454 38.8651C12.5286 38.8651 12.5117 38.8651 12.478 38.8651H12.4106H12.3432C12.3263 38.8651 12.3095 38.8651 12.2758 38.8651C12.2589 38.8651 12.2421 38.8651 12.2083 38.8651C12.1915 38.8651 12.1746 38.8651 12.1409 38.8651H12.0735C12.0567 38.8651 12.0398 38.8651 12.0229 38.8651H11.9555H11.8881H11.8207H11.7533H11.6859H11.6184H10.624H10.5566H10.4892H10.4218H10.3543H10.2869H10.2195H10.1521H10.0847H10.0172H9.94982H9.8824H9.81498H9.74757H9.68015H9.61273H9.54531H9.47789H9.41047H9.34305H9.27563H9.20822H9.1408H9.07338H9.00596H8.93854H8.87112H8.8037H8.73629H8.66887H8.60145H8.53403H8.46661H8.39919H8.33177H8.26436H8.19694H8.12952H8.0621H7.99468H7.92726H7.85985H7.79242H7.72501H7.75872H7.6913H7.62388H7.55646H7.48904H7.42162H7.35421H7.28679H7.21937H7.15195H7.08453H7.01711H6.94969H6.88227H6.81485H6.74744H6.68002H6.6126H6.54518H6.47776H6.41034H6.34293H6.27551H6.20809H6.14067H6.07325H6.00583H5.93841H5.871H5.80358H5.73616H5.66874H5.60132H5.5339H5.46648H5.39907H5.33165H5.26423H5.19681H5.12939H5.06197H4.99455H4.92713H4.85972H4.89343H4.82601H4.75859H4.69117H4.62375H4.55633H4.48892H4.42149H4.35408H4.28666H4.21924H4.15182H4.0844H4.01698H3.94956H3.88215H3.81473H3.74731H3.67989H3.61247H3.54505H3.47764H3.41022H3.3428H3.27538H3.20796H3.14054H3.07312H3.00571H2.93828H2.87087H2.80345H2.73603H2.66861H2.60119H2.53377H2.46636H2.39894H2.33152H2.2641H2.19668H2.12926H2.06184H1.99443H2.02813H1.96072H1.8933H1.75846V25.5668C1.75846 25.5668 1.80902 25.5837 1.8933 25.6005L1.96072 25.6174L2.02813 25.6342L2.09555 25.6511L2.16297 25.6679L2.23039 25.6848L2.29781 25.7016L2.36523 25.7185L2.43265 25.7353L2.50007 25.7522L2.56748 25.7691L2.6349 25.7859L2.70232 25.8028L2.76974 25.8196L2.83716 25.8365L2.90458 25.8533L2.972 25.8702L3.03941 25.887L3.10683 25.9039L3.17425 25.9207L3.24167 25.9376L3.30909 25.9545L3.37651 25.9713L3.44392 25.9882L3.51134 26.005L3.57876 26.0219L3.64618 26.0387L3.7136 26.0556L3.78102 26.0724L3.84844 26.0893L3.91586 26.1061L3.98328 26.123L4.05069 26.1399L4.11811 26.1567L4.18553 26.1736L4.25295 26.1904L4.32037 26.2073L4.38779 26.2241L4.4552 26.241L4.52262 26.2578L4.59004 26.2747L4.65746 26.2915L4.72488 26.3084H4.7923H4.85972H4.92713H4.99455H5.06197H5.12939H5.19681H5.26423H5.33165H5.39907H5.46648H5.5339H5.60132H5.66874H5.73616H5.80358H5.871H5.93841H6.00583H6.07325H6.14067H6.20809H6.27551H6.34293H6.41034H6.47776H6.54518H6.6126H6.68002H6.74744H6.81485H6.88227H6.94969H7.01711H7.08453H7.15195H7.21937H7.28679H7.35421H7.42162H7.48904H7.55646H7.62388H7.6913H7.75872H7.82613H7.89355H7.96097H8.02839H8.09581H8.16323H8.23065H8.29806H8.36548H8.4329H8.50032H8.56774H8.63516H8.70258H8.77H8.83741H8.90483H8.92169H8.9554H9.02282H9.09023H9.15765H9.22507H9.29249H9.35991H9.42733H9.49475H9.56216H9.62958H9.697H9.76442H9.83184H9.89926H9.96668H10.0341H10.1015H10.1689H10.2363H10.3038H10.3712H10.4386H10.506H10.5734H10.6409H10.7083H10.7757H10.8431H10.9105H10.978H11.0454H11.1128H11.1802H11.2476H11.315H11.3825H11.4499H11.5173H11.5847H11.6521H11.7196C11.7364 26.3084 11.7533 26.3084 11.787 26.2915L11.8544 26.2747L11.9218 26.2578L11.9892 26.241C12.0061 26.241 12.0229 26.241 12.0567 26.2241L12.1241 26.2073C12.1409 26.2073 12.1578 26.2073 12.1915 26.1904C12.2083 26.1904 12.2252 26.1904 12.2589 26.1736L12.3263 26.1567L12.3937 26.1399L12.4612 26.123C12.478 26.123 12.4949 26.123 12.5286 26.1061L12.596 26.0893L12.6634 26.0724C12.6803 26.0724 12.6971 26.0556 12.7308 26.0556L12.7983 26.0387C12.8151 26.0387 12.832 26.0219 12.8657 26.0219C12.8825 26.0219 12.8994 26.005 12.9331 26.005L13.0005 25.9882C13.0174 25.9882 13.0342 25.9713 13.0679 25.9713C13.0848 25.9713 13.1016 25.9545 13.1353 25.9545L13.2028 25.9376C13.2196 25.9376 13.2365 25.9207 13.2702 25.9207C13.287 25.9207 13.3039 25.9039 13.3376 25.9039L13.405 25.887C13.4219 25.887 13.4387 25.8702 13.4724 25.8702L13.5399 25.8533L13.6073 25.8365C13.6241 25.8365 13.641 25.8196 13.6747 25.8196L13.7421 25.8028L13.8095 25.7859C13.8264 25.7859 13.8432 25.7691 13.877 25.7691C13.8938 25.7691 13.9107 25.7522 13.9444 25.7522L14.0118 25.7353C14.0286 25.7353 14.0455 25.7185 14.0792 25.7185C14.0961 25.7185 14.1129 25.7016 14.1466 25.7016C14.1635 25.7016 14.1803 25.6848 14.214 25.6848L14.2815 25.6679L14.3489 25.6342C14.3657 25.6174 14.3826 25.6174 14.4163 25.6005C14.4332 25.5837 14.45 25.5836 14.4837 25.5668L14.5511 25.5331L14.6186 25.4994C14.6354 25.4825 14.6523 25.4825 14.686 25.4657C14.7028 25.4488 14.7197 25.4488 14.7534 25.432C14.7703 25.4151 14.7871 25.4151 14.8208 25.3982C14.8377 25.3814 14.8545 25.3814 14.8882 25.3645C14.9051 25.3477 14.9219 25.3477 14.9557 25.3308C14.9725 25.314 14.9894 25.314 15.0231 25.2971C15.0399 25.2803 15.0568 25.2803 15.0905 25.2634C15.1073 25.2466 15.1242 25.2466 15.1579 25.2297C15.1748 25.2128 15.1916 25.2128 15.2253 25.196C15.2422 25.1791 15.259 25.1623 15.2927 25.1623C15.3096 25.1454 15.3265 25.1286 15.3602 25.1286C15.377 25.1117 15.3939 25.0949 15.4276 25.0949C15.4444 25.078 15.4613 25.0612 15.495 25.0612C15.5119 25.0443 15.5287 25.0274 15.5624 25.0106C15.5793 24.9937 15.5961 24.9769 15.6298 24.96C15.6467 24.9432 15.6635 24.9263 15.6973 24.9095C15.7141 24.8926 15.731 24.8758 15.7647 24.8589C15.7815 24.842 15.7984 24.8252 15.8321 24.8083C15.8489 24.7915 15.8658 24.7746 15.8995 24.7578C15.9164 24.7409 15.9332 24.7241 15.9669 24.7072C15.9838 24.6904 16.0006 24.6735 16.0344 24.6566C16.0512 24.6398 16.0681 24.6229 16.1018 24.6061C16.1186 24.5892 16.1355 24.5724 16.1692 24.5387C16.186 24.5218 16.2029 24.505 16.2366 24.4712C16.2535 24.4544 16.2703 24.4207 16.304 24.4038C16.3209 24.387 16.3377 24.3533 16.3714 24.3364C16.3883 24.3196 16.4052 24.2858 16.4389 24.269C16.4557 24.2521 16.4726 24.2184 16.5063 24.2016C16.5231 24.1679 16.54 24.151 16.5737 24.1173C16.5906 24.0836 16.6074 24.0667 16.6411 24.033C16.658 23.9993 16.6748 23.9825 16.7085 23.9487C16.7254 23.915 16.7422 23.8813 16.776 23.8645C16.7928 23.8308 16.8097 23.7971 16.8434 23.7633C16.8602 23.7296 16.8771 23.6959 16.9108 23.6622C16.9276 23.6285 16.9445 23.5948 16.9782 23.5442C16.9951 23.5105 17.0119 23.46 17.0456 23.4263C17.0625 23.3757 17.0793 23.342 17.113 23.2914C17.1299 23.2409 17.1468 23.1903 17.1805 23.1397C17.1973 23.0892 17.2142 23.0386 17.2479 22.9712C17.2647 22.9038 17.2816 22.8532 17.3153 22.7858C17.3322 22.7184 17.3659 22.6341 17.3827 22.5667C17.3996 22.4655 17.4333 22.3813 17.4501 22.2801C17.4839 22.1284 17.5007 21.9936 17.5176 21.8419C17.5344 21.6397 17.5513 21.4206 17.5513 21.2183V13.8697H17.5176H17.4501H17.3827H17.3153H17.2479H17.1805H15.6804H15.613H15.5456H15.4781H15.4107H15.3433H15.2759H15.2085H15.1411H15.0736H15.0062H14.9388H14.8714H14.804H14.7365H14.6691H14.6017H14.5343H14.4669H14.3994H14.332H14.2646H14.1972H14.1635H14.0961H14.0286H13.9612H13.8938H13.8264H13.759H13.6916H13.6241H13.5567H13.4893H13.4219H13.3545H13.287H13.2196H13.1522H13.0848H13.0174H12.9499H12.8825H12.8151H12.7477H12.6803H12.6129H12.5454H12.478H12.4106H12.3432H12.2758H12.2083H12.1409H12.0735H12.0061H11.9387H11.8713H11.8038H11.7364H11.669H11.6016H11.5342H11.4667H11.3993H11.3319H11.2982H11.2308H11.1634H11.0959H11.0285H10.9611H10.8937H10.8263H10.7588H10.6914H10.624H10.5734V21.1846C10.5734 21.3026 10.5734 21.4206 10.5566 21.5217C10.5397 21.6565 10.5229 21.8082 10.4892 21.943C10.4723 22.0273 10.4555 22.1116 10.4218 22.179C10.4049 22.2464 10.388 22.297 10.3543 22.3644C10.3375 22.415 10.3206 22.4655 10.2869 22.5161C10.2701 22.5667 10.2532 22.6004 10.2195 22.6509C10.2026 22.6847 10.1858 22.7352 10.1521 22.7689C10.1352 22.8026 10.1184 22.8363 10.0847 22.8701C10.0678 22.9038 10.0509 22.9375 10.0172 22.9712C10.0004 23.0049 9.98353 23.0386 9.94982 23.0555C9.93297 23.0892 9.91611 23.106 9.8824 23.1397C9.86555 23.1734 9.84869 23.1903 9.81498 23.2071C9.79813 23.224 9.78128 23.2577 9.74757 23.2746C9.73071 23.2914 9.71386 23.3251 9.68015 23.342C9.66329 23.3588 9.64644 23.3757 9.61273 23.4094C9.59587 23.4263 9.57902 23.4431 9.54531 23.46C9.52846 23.4768 9.5116 23.4937 9.47789 23.5105C9.46104 23.5274 9.44418 23.5442 9.41047 23.5611C9.39362 23.5779 9.37676 23.5948 9.34305 23.6117C9.3262 23.6285 9.30934 23.6454 9.27563 23.6622C9.25878 23.6791 9.24193 23.6959 9.20822 23.7128C9.19136 23.7296 9.17451 23.7465 9.1408 23.7465C9.12394 23.7634 9.10709 23.7802 9.07338 23.7802C9.05652 23.7971 9.03967 23.7971 9.00596 23.8139C8.9891 23.8308 8.97225 23.8308 8.93854 23.8476C8.92169 23.8645 8.90483 23.8645 8.87112 23.8813C8.85427 23.8982 8.83741 23.8982 8.8037 23.915C8.78685 23.9319 8.77 23.9319 8.73629 23.9487C8.71943 23.9656 8.70258 23.9656 8.66887 23.9825C8.65201 23.9993 8.63516 23.9993 8.60145 24.0162C8.58459 24.033 8.56774 24.033 8.53403 24.033C8.51718 24.033 8.50032 24.0499 8.46661 24.0499C8.44976 24.0499 8.4329 24.0667 8.39919 24.0667C8.38234 24.0667 8.36548 24.0836 8.33177 24.0836C8.31492 24.0836 8.29807 24.1004 8.26436 24.1004C8.2475 24.1004 8.23065 24.1173 8.19694 24.1173C8.18008 24.1173 8.16323 24.1341 8.12952 24.1341C8.11266 24.1341 8.09581 24.151 8.0621 24.151C8.04525 24.151 8.02839 24.1679 7.99468 24.1679C7.97783 24.1679 7.96097 24.1847 7.92726 24.1847C7.91041 24.1847 7.89355 24.2016 7.85985 24.2016C7.84299 24.2016 7.82613 24.2016 7.79242 24.2184C7.77557 24.2184 7.75872 24.2184 7.72501 24.2353C7.70815 24.2353 7.6913 24.2353 7.65759 24.2521L7.59017 24.269C7.57332 24.269 7.55646 24.269 7.52275 24.269C7.5059 24.269 7.48904 24.269 7.45533 24.269H7.38791C7.37106 24.269 7.3542 24.269 7.32049 24.269C7.30364 24.269 7.28679 24.269 7.25308 24.269C7.23622 24.269 7.21937 24.269 7.18566 24.269C7.1688 24.269 7.15195 24.269 7.11824 24.269C7.10138 24.269 7.08453 24.269 7.05082 24.269C7.03397 24.269 7.01711 24.269 6.9834 24.269H6.91598C6.89913 24.269 6.88228 24.269 6.84857 24.269H6.83171H6.798H6.73058H6.66316H6.59575H6.52833H6.46091H6.39349H6.32607H6.25865H6.19123H6.12382H6.0564H5.98898H5.92156H5.85414H5.78672H5.7193H5.65188H5.58447H5.51705H5.44963H5.38221L5.31479 24.2521L5.24737 24.2353L5.17995 24.2184L5.11254 24.2016L5.04512 24.1847L4.9777 24.1679L4.91028 24.151L4.84286 24.1341L4.77544 24.1173L4.70802 24.1004L4.64061 24.0836L4.57319 24.0667L4.50577 24.0499L4.43835 24.033L4.37093 24.0162L4.30351 23.9993L4.2361 23.9825L4.16868 23.9656L4.10126 23.9487L4.03384 23.9319L3.96642 23.915L3.899 23.8982L3.83158 23.8813L3.76416 23.8645L3.69674 23.8476L3.62933 23.8308L3.56191 23.8139L3.49449 23.7971L3.42707 23.7802L3.35965 23.7633L3.29223 23.7465L3.22482 23.7296L3.1574 23.7128L3.08998 23.6959L3.02256 23.6791L2.95514 23.6622L2.88772 23.6454L2.8203 23.6285L2.75289 23.6117L2.68547 23.5948L2.61805 23.5779L2.55063 23.5611L2.48321 23.5442L2.41579 23.5274L2.34837 23.5105L2.28095 23.4937L2.21354 23.4768L2.14612 23.46L2.0787 23.4431L2.01128 23.4263L1.94386 23.4094L1.87644 23.3925L1.80902 23.3757L1.74161 23.342L1.67419 23.3083L1.60677 23.2746L1.53935 23.2409L1.47193 23.2071L1.40451 23.1734L1.33709 23.1397L1.26968 23.106L1.20226 23.0723L1.13484 23.0386L1.06742 23.0049L1 22.9712L1.8933 22.9543Z" stroke="#1B1918" stroke-width="0.216"/>
<path d="M1.77503 38.8988H11.2305C11.2473 38.8988 11.2642 38.8988 11.2979 38.8988C11.3148 38.8988 11.3316 38.8988 11.3653 38.8988H11.4327H11.5002C11.517 38.8988 11.5339 38.8988 11.5676 38.8988C11.5844 38.8988 11.6013 38.8988 11.635 38.8988H11.7024C11.7193 38.8988 11.7361 38.8988 11.7698 38.8988C11.7867 38.8988 11.8035 38.8988 11.8373 38.8988C11.8541 38.8988 11.871 38.8988 11.9047 38.8988C11.9215 38.8988 11.9384 38.8988 11.9721 38.8988L12.0395 38.882C12.0564 38.882 12.0732 38.882 12.1069 38.8651C12.1238 38.8651 12.1406 38.8651 12.1743 38.8482C12.1912 38.8482 12.2081 38.8483 12.2418 38.8314L12.3092 38.8145C12.326 38.8145 12.3429 38.8145 12.3766 38.7977C12.3935 38.7977 12.4103 38.7977 12.444 38.7808C12.4609 38.7808 12.4777 38.764 12.5114 38.764L12.5789 38.7471L12.6463 38.7303C12.6631 38.7303 12.68 38.7134 12.7137 38.7134C12.7305 38.7134 12.7474 38.6966 12.7811 38.6966C12.798 38.6966 12.8148 38.6797 12.8485 38.6797C12.8654 38.6797 12.8822 38.6628 12.916 38.6628L12.9834 38.646L13.0508 38.6291C13.0676 38.6291 13.0845 38.6123 13.1182 38.6123C13.1351 38.6123 13.1519 38.5954 13.1856 38.5954C13.2025 38.5954 13.2193 38.5786 13.253 38.5786L13.3205 38.5617L13.3879 38.5449C13.4047 38.5449 13.4216 38.528 13.4553 38.528C13.4722 38.528 13.489 38.5112 13.5227 38.5112C13.5396 38.5112 13.5564 38.4943 13.5901 38.4943C13.607 38.4943 13.6238 38.4774 13.6576 38.4774C13.6744 38.4774 13.6913 38.4606 13.725 38.4606L13.7924 38.4269L13.8598 38.3932C13.8767 38.3763 13.8935 38.3763 13.9272 38.3595C13.9441 38.3426 13.9609 38.3426 13.9946 38.3258C14.0115 38.3089 14.0284 38.3089 14.0621 38.292C14.0789 38.2752 14.0958 38.2752 14.1295 38.2583C14.1463 38.2415 14.1632 38.2415 14.1969 38.2246C14.2138 38.2078 14.2306 38.2078 14.2643 38.1909L14.3317 38.1572C14.3486 38.1404 14.3654 38.1404 14.3992 38.1235C14.416 38.1066 14.4329 38.1066 14.4666 38.0898C14.4834 38.0729 14.5003 38.0729 14.534 38.0561C14.5509 38.0392 14.5677 38.0392 14.6014 38.0224C14.6183 38.0055 14.6351 38.0055 14.6688 37.9887C14.6857 37.9718 14.7025 37.955 14.7363 37.955C14.7531 37.9381 14.77 37.9381 14.8037 37.9212C14.8205 37.9044 14.8374 37.8875 14.8711 37.8875C14.8879 37.8707 14.9048 37.8538 14.9385 37.8538C14.9554 37.837 14.9722 37.8201 15.0059 37.8201C15.0228 37.8033 15.0396 37.7864 15.0733 37.7696C15.0902 37.7527 15.1071 37.7358 15.1408 37.719C15.1576 37.7021 15.1745 37.6853 15.2082 37.6684C15.225 37.6516 15.2419 37.6347 15.2756 37.6179C15.2925 37.601 15.3093 37.5842 15.343 37.5673C15.3599 37.5504 15.3767 37.5336 15.4104 37.5167C15.4273 37.4999 15.4441 37.483 15.4779 37.4662C15.4947 37.4493 15.5116 37.4325 15.5453 37.4156C15.5621 37.3987 15.579 37.3819 15.6127 37.365C15.6296 37.3482 15.6464 37.3313 15.6801 37.3145C15.697 37.2976 15.7138 37.2808 15.7475 37.2639C15.7644 37.2471 15.7812 37.2302 15.815 37.2133C15.8318 37.1965 15.8487 37.1796 15.8824 37.1628C15.8992 37.1459 15.9161 37.1291 15.9498 37.0954C15.9666 37.0785 15.9835 37.0617 16.0172 37.0279C16.0341 37.0111 16.0509 36.9942 16.0846 36.9605C16.1015 36.9437 16.1183 36.91 16.152 36.8931C16.1689 36.8763 16.1858 36.8425 16.2195 36.8257C16.2363 36.8088 16.2532 36.7751 16.2869 36.7583C16.3037 36.7414 16.3206 36.7077 16.3543 36.6909C16.3712 36.674 16.388 36.6403 16.4217 36.6234C16.4386 36.6066 16.4554 36.5729 16.4891 36.556C16.506 36.5223 16.5228 36.5055 16.5566 36.4717C16.5734 36.438 16.5903 36.4212 16.624 36.3875C16.6408 36.3538 16.6577 36.3369 16.6914 36.3032C16.7082 36.2695 16.7251 36.2526 16.7588 36.2189C16.7757 36.1852 16.7925 36.1684 16.8262 36.1347C16.8431 36.1009 16.8599 36.0672 16.8936 36.0504C16.9105 36.0167 16.9274 35.983 16.9611 35.9492C16.9779 35.9155 16.9948 35.8818 17.0285 35.8481C17.0453 35.8144 17.0622 35.7807 17.0959 35.747C17.1128 35.7133 17.1296 35.6796 17.1633 35.6459C17.1802 35.6122 17.197 35.5784 17.2307 35.5279C17.2476 35.4942 17.2645 35.4436 17.2982 35.4099C17.315 35.3762 17.3319 35.3256 17.3656 35.2919C17.3824 35.2414 17.3993 35.2076 17.433 35.1571C17.4499 35.1065 17.4667 35.056 17.5004 35.0222C17.5173 34.9717 17.5341 34.9211 17.5678 34.8706C17.5847 34.82 17.6015 34.7526 17.6353 34.702C17.6521 34.6346 17.669 34.584 17.7027 34.5166C17.7195 34.4492 17.7364 34.3818 17.7701 34.3144C17.7869 34.2301 17.8038 34.1627 17.8375 34.0784C17.8544 33.9773 17.8881 33.893 17.9049 33.7919C17.9218 33.6739 17.9555 33.539 17.9723 33.4042C18.0061 33.1851 18.0229 32.9491 18.0229 32.7132V0.942139H17.9723H17.9049H17.197H17.1296H17.0622H17.0285H16.9611H16.8936H16.8262H16.7588H16.6914H16.624H16.5566H16.4891H16.4217H16.3543H16.2869H16.2195H16.152H16.0846H16.0172H15.9498H15.8824H15.815H15.7475H15.6801H15.6127H15.5453H15.4779H15.4104H15.343H15.2756H15.2082H15.1408H15.0733H15.0059H14.9385H14.8711H14.8037H14.7363H14.6688H14.6014H14.534H14.4666H14.3992H14.3317H14.2643H14.1969H14.1632H14.0958H14.0284H13.9609H13.8935H13.8261H13.7587H13.6913H13.6238H13.5564H13.489H13.4216H13.3542H13.2868H13.2193H13.1519H13.0845H13.0171H12.9497H12.8822H12.8148H12.7474H12.68H12.6126H12.5451H12.4777H12.4103H12.3429H12.2755H12.2081H12.1406H12.0732H12.0058H11.9384H11.871H11.8035H11.7361H11.6687H11.6013H11.5339H11.4665H11.399H11.3316H11.2979H11.2305H11.1631H11.0956H11.0282H10.9608H10.8934H10.826H10.7586H10.6911H10.6237H10.5563H10.4889H10.4215H10.354H10.2866H10.2192H10.1518H10.0844H10.0169H9.94953H9.88211H9.81469H9.74728H9.67986H9.61244H9.54502H9.4776H9.41018H9.34276H9.27535H9.20793H9.14051H9.07309H9.00567H8.93825H8.87084H8.80342H8.736H8.66858H8.60116H8.53374H8.46632H8.43261H8.3652H8.29778H8.23036H8.16294H8.09552H8.06181H8.0281C8.01125 0.942139 7.99439 0.942139 7.96068 0.942139C7.94383 0.942139 7.92697 0.942139 7.89327 0.942139C7.87641 0.942139 7.85955 0.942139 7.82584 0.942139H7.75843C7.74157 0.942139 7.72472 0.942139 7.69101 0.942139C7.67416 0.942139 7.6573 0.942139 7.62359 0.942139C7.60673 0.942139 7.58988 0.942139 7.55617 0.942139C7.53932 0.942139 7.52246 0.942139 7.48875 0.942139H7.42133C7.40448 0.942139 7.38763 0.942139 7.35392 0.942139C7.33706 0.942139 7.32021 0.942139 7.2865 0.942139H7.21908H7.15166C7.1348 0.942139 7.11795 0.94214 7.08424 0.958994C7.06739 0.958994 7.05053 0.958995 7.01682 0.97585C6.99997 0.97585 6.98311 0.975851 6.9494 0.992706L6.88199 1.00956C6.86513 1.00956 6.84828 1.00956 6.81457 1.02641C6.79771 1.02641 6.78086 1.02641 6.74715 1.04327C6.73029 1.04327 6.71344 1.04327 6.67973 1.06012C6.66288 1.06012 6.64602 1.07698 6.61231 1.07698L6.54489 1.09383C6.52804 1.09383 6.51118 1.11069 6.47747 1.11069C6.46062 1.11069 6.44376 1.12754 6.41006 1.12754C6.3932 1.12754 6.37635 1.1444 6.34264 1.1444C6.32578 1.1444 6.30893 1.16125 6.27522 1.16125L6.2078 1.1781C6.19095 1.1781 6.17409 1.19496 6.14038 1.19496C6.12353 1.19496 6.10667 1.21181 6.07296 1.21181C6.05611 1.21181 6.03925 1.22867 6.00554 1.22867C5.98869 1.22867 5.97183 1.24553 5.93812 1.24553L5.87071 1.26238L5.80329 1.27923C5.78643 1.27923 5.76958 1.29609 5.73587 1.29609C5.71901 1.29609 5.70216 1.31294 5.66845 1.31294C5.6516 1.31294 5.63474 1.3298 5.60103 1.3298L5.53361 1.34665L5.46619 1.3635L5.39878 1.38036C5.38192 1.38036 5.36507 1.39722 5.33136 1.41407C5.3145 1.43093 5.29765 1.43092 5.26394 1.44778C5.24708 1.46463 5.23023 1.46463 5.19652 1.48149C5.17967 1.49834 5.16281 1.49834 5.1291 1.5152C5.11225 1.53205 5.09539 1.53205 5.06168 1.54891C5.04483 1.56576 5.02797 1.56576 4.99427 1.58262L4.92685 1.61632C4.90999 1.63318 4.89314 1.63318 4.85943 1.65004C4.84257 1.66689 4.82572 1.66689 4.79201 1.68374C4.77515 1.7006 4.7583 1.7006 4.72459 1.71745C4.70774 1.73431 4.69088 1.73431 4.65717 1.75117C4.64032 1.76802 4.62346 1.76802 4.58975 1.78487C4.5729 1.80173 4.55604 1.80173 4.52233 1.81858C4.50548 1.83544 4.48862 1.83543 4.45491 1.85229C4.43806 1.86914 4.42121 1.86915 4.3875 1.886C4.37064 1.90285 4.35379 1.90286 4.32008 1.91971C4.30322 1.93657 4.28637 1.95342 4.25266 1.95342C4.2358 1.97027 4.21895 1.98713 4.18524 1.98713C4.16839 2.00398 4.15153 2.02084 4.11782 2.02084C4.10097 2.03769 4.08411 2.05455 4.0504 2.0714C4.03355 2.08826 4.0167 2.10511 3.98299 2.12196L3.91557 2.17253C3.89871 2.18939 3.88186 2.20624 3.84815 2.22309C3.83129 2.23995 3.81444 2.2568 3.78073 2.27366C3.76387 2.29051 3.74702 2.30737 3.71331 2.32422C3.69646 2.34108 3.6796 2.35793 3.64589 2.37478C3.62904 2.39164 3.61218 2.4085 3.57847 2.42535C3.56162 2.44221 3.54476 2.45906 3.51106 2.47591C3.4942 2.49277 3.47734 2.50962 3.44364 2.52647C3.42678 2.54333 3.40993 2.56019 3.37622 2.57704C3.35936 2.5939 3.34251 2.61075 3.3088 2.6276C3.29195 2.64446 3.27509 2.66132 3.24138 2.67817C3.22453 2.69503 3.20767 2.71188 3.17396 2.74559C3.15711 2.76244 3.14025 2.7793 3.10654 2.81301C3.08969 2.82986 3.07283 2.84671 3.03912 2.88042C3.02227 2.89728 3.00542 2.93099 2.97171 2.94784C2.95485 2.9647 2.938 2.99841 2.90429 3.01526C2.88743 3.03212 2.87058 3.06583 2.83687 3.08268C2.82001 3.09954 2.80316 3.13324 2.76945 3.1501C2.75259 3.16695 2.73574 3.20066 2.70203 3.21752C2.68518 3.23437 2.66832 3.26808 2.63461 3.28493C2.61776 3.30179 2.6009 3.3355 2.56719 3.35236C2.55034 3.38607 2.53349 3.40292 2.49978 3.43663C2.48292 3.47034 2.46607 3.48719 2.43236 3.5209C2.4155 3.55461 2.39865 3.57147 2.36494 3.60518C2.34808 3.63889 2.33123 3.65574 2.29752 3.68945C2.28067 3.72316 2.26381 3.75687 2.2301 3.77372C2.21325 3.80743 2.19639 3.84114 2.16268 3.87485C2.14583 3.90856 2.12897 3.94227 2.09526 3.97598C2.07841 4.00969 2.06156 4.0434 2.02785 4.0771C2.01099 4.11081 1.99414 4.14452 1.96043 4.17823C1.94357 4.21194 1.92672 4.24565 1.89301 4.29621C1.87615 4.32992 1.8593 4.38049 1.82559 4.4142C1.80874 4.44791 1.79188 4.49847 1.75817 4.53218C1.74132 4.58275 1.72446 4.61645 1.69075 4.66702C1.6739 4.71758 1.65704 4.75129 1.62334 4.80185C1.60648 4.85242 1.58962 4.90298 1.55592 4.95355C1.53906 5.00411 1.52221 5.05468 1.4885 5.1221C1.47164 5.17266 1.45479 5.24007 1.42108 5.30749C1.40422 5.37491 1.38737 5.44233 1.35366 5.50975C1.33681 5.57717 1.31995 5.66144 1.28624 5.72886C1.26939 5.81313 1.23568 5.89741 1.21882 5.99853C1.13455 6.4199 1.08398 6.84127 1.08398 7.27949V22.9038C1.13455 22.9206 1.16826 22.9375 1.21882 22.9712L1.28624 23.0049L1.35366 23.0386L1.42108 23.0723L1.4885 23.106L1.55592 23.1397L1.62334 23.1734L1.69075 23.2071L1.75817 23.2408L1.82559 23.2746L1.89301 23.3083L1.96043 23.342L2.02785 23.3757L2.09526 23.4094L2.16268 23.4262L2.2301 23.4431L2.29752 23.46L2.36494 23.4768L2.43236 23.4937L2.49978 23.5105L2.56719 23.5274L2.63461 23.5442L2.70203 23.5611L2.76945 23.5779L2.83687 23.5948L2.90429 23.6116L2.97171 23.6285L3.03912 23.6454L3.10654 23.6622L3.17396 23.6791L3.24138 23.6959L3.3088 23.7128L3.37622 23.7296L3.44364 23.7465L3.51106 23.7633L3.57847 23.7802L3.64589 23.797L3.71331 23.8139L3.78073 23.8308L3.84815 23.8476L3.91557 23.8645L3.98299 23.8813L4.0504 23.8982L4.11782 23.915L4.18524 23.9319L4.25266 23.9487L4.32008 23.9656L4.3875 23.9824L4.45491 23.9993L4.52233 24.0162L4.58975 24.033L4.65717 24.0499L4.72459 24.0667L4.79201 24.0836L4.85943 24.1004L4.92685 24.1173L4.99427 24.1341L5.06168 24.151L5.1291 24.1679L5.19652 24.1847L5.26394 24.2016L5.33136 24.2184L5.39878 24.2353L5.46619 24.2521L5.53361 24.269L5.60103 24.2858L5.66845 24.3027H5.73587H5.80329H5.87071H5.93812H6.00554H6.07296H6.14038H6.2078H6.27522H6.34264H6.41006H6.47747H6.54489H6.61231H6.67973H6.74715H6.81457H6.88199H6.9494H7.01682H7.08424H7.11795H7.13481C7.15166 24.3027 7.16851 24.3027 7.20222 24.3027H7.26964C7.2865 24.3027 7.30335 24.3027 7.33706 24.3027C7.35392 24.3027 7.37077 24.3027 7.40448 24.3027C7.42133 24.3027 7.43819 24.3027 7.4719 24.3027C7.48875 24.3027 7.50561 24.3027 7.53932 24.3027C7.55617 24.3027 7.57303 24.3027 7.60674 24.3027C7.62359 24.3027 7.64044 24.3027 7.67415 24.3027H7.74157C7.75843 24.3027 7.77528 24.3027 7.80899 24.3027C7.82585 24.3027 7.8427 24.3027 7.87641 24.3027L7.94383 24.2858C7.96068 24.2858 7.97754 24.2858 8.01125 24.269C8.0281 24.269 8.04496 24.269 8.07866 24.2521C8.09552 24.2521 8.11238 24.2521 8.14608 24.2353C8.16294 24.2353 8.17979 24.2184 8.2135 24.2184C8.23036 24.2184 8.24721 24.2016 8.28092 24.2016C8.29778 24.2016 8.31463 24.1847 8.34834 24.1847C8.36519 24.1847 8.38205 24.1679 8.41576 24.1679C8.43261 24.1679 8.44947 24.151 8.48318 24.151C8.50003 24.151 8.51689 24.1341 8.5506 24.1341C8.56745 24.1341 8.58431 24.1173 8.61802 24.1173C8.63487 24.1173 8.65172 24.1004 8.68543 24.1004C8.70229 24.1004 8.71914 24.0836 8.75285 24.0836C8.76971 24.0836 8.78656 24.0667 8.82027 24.0667C8.83713 24.0667 8.85398 24.0499 8.88769 24.0499C8.90454 24.033 8.9214 24.033 8.95511 24.0162C8.97196 23.9993 8.98882 23.9993 9.02253 23.9824C9.03938 23.9656 9.05623 23.9656 9.08994 23.9487C9.1068 23.9319 9.12365 23.9319 9.15736 23.915C9.17422 23.8982 9.19107 23.8982 9.22478 23.8813C9.24164 23.8645 9.25849 23.8645 9.2922 23.8476C9.30906 23.8308 9.32591 23.8308 9.35962 23.8139C9.37647 23.797 9.39333 23.7802 9.42704 23.7802C9.44389 23.7633 9.46075 23.7465 9.49446 23.7465C9.51131 23.7296 9.52816 23.7128 9.56187 23.6959C9.57873 23.6791 9.59558 23.6622 9.62929 23.6454C9.64615 23.6285 9.663 23.6116 9.69671 23.5948C9.71357 23.5779 9.73042 23.5611 9.76413 23.5442C9.78098 23.5274 9.79784 23.5105 9.83155 23.4937C9.8484 23.4768 9.86526 23.46 9.89897 23.4431C9.91582 23.4262 9.93268 23.4094 9.96639 23.3757C9.98324 23.3588 10.0001 23.3251 10.0338 23.3083C10.0507 23.2914 10.0675 23.2577 10.1012 23.2408C10.1181 23.224 10.1349 23.1903 10.1686 23.1734C10.1855 23.1397 10.2024 23.1229 10.2361 23.0891C10.2529 23.0554 10.2698 23.0386 10.3035 23.0049C10.3203 22.9712 10.3372 22.9375 10.3709 22.9038C10.3878 22.87 10.4046 22.8363 10.4383 22.8026C10.4552 22.7689 10.472 22.7183 10.5057 22.6846C10.5226 22.6341 10.5394 22.6004 10.5732 22.5498C10.59 22.4992 10.6069 22.4487 10.6406 22.3981C10.6574 22.3307 10.6911 22.2801 10.708 22.2127C10.7248 22.1284 10.7586 22.0442 10.7754 21.9767C10.8091 21.8419 10.826 21.7071 10.8428 21.5554C10.8597 21.4374 10.8597 21.3363 10.8597 21.2183V13.8697H10.9102H10.9777H11.0451H11.1125H11.1799H11.2473H11.3148H11.3822H11.4496H11.517H11.5844H11.6519H11.7193H11.7867H11.8541H11.9215H11.9889H12.0564H12.1238H12.1912H12.2586H12.326H12.3935H12.4609H12.5283H12.5957H12.6631H12.7305H12.798H12.8654H12.9328H13.0002H13.0676H13.1351H13.2025H13.2699H13.3373H13.4047H13.4722H13.5396H13.607H13.6744H13.7418H13.8092H13.8767H13.9441H14.0115H14.0789H14.1463H14.2138H14.2812H14.3486H14.416H14.4834H14.5509H14.6183H14.6857H14.7531H14.8205H14.8879H14.9554H15.0228H15.0902H15.1576H15.225H15.2925H15.3599H15.4273H15.4947H15.5621H15.6295H15.697H15.7644H15.8318H15.8992H15.9666H16.0341H16.1015H16.1689H16.2363H16.3037H16.3712H16.4386H16.506H16.5734H16.6408H16.7082H16.7757H16.8431H16.8768V21.1846C16.8768 21.4037 16.8599 21.6059 16.8431 21.8082C16.8262 21.9599 16.8094 22.0947 16.7757 22.2464C16.7588 22.3475 16.742 22.4318 16.7082 22.5329C16.6914 22.6172 16.6745 22.6846 16.6408 22.7521C16.624 22.8195 16.6071 22.8869 16.5734 22.9375C16.5566 22.988 16.5397 23.0554 16.506 23.106C16.4891 23.1566 16.4723 23.2071 16.4386 23.2577C16.4217 23.3083 16.4049 23.342 16.3712 23.3925C16.3543 23.4262 16.3374 23.4768 16.3037 23.5105C16.2869 23.5442 16.27 23.5779 16.2363 23.6285C16.2195 23.6622 16.2026 23.6959 16.1689 23.7296C16.152 23.7633 16.1352 23.797 16.1015 23.8308C16.0846 23.8645 16.0678 23.8982 16.0341 23.915C16.0172 23.9487 16.0004 23.9656 15.9666 23.9993C15.9498 24.033 15.9329 24.0499 15.8992 24.0836C15.8824 24.1173 15.8655 24.1341 15.8318 24.1679C15.8149 24.1847 15.7981 24.2184 15.7644 24.2353C15.7475 24.2521 15.7307 24.2858 15.697 24.3027C15.6801 24.3195 15.6633 24.3532 15.6295 24.3701C15.6127 24.387 15.5958 24.4207 15.5621 24.4375C15.5453 24.4544 15.5284 24.4712 15.4947 24.5049C15.4779 24.5218 15.461 24.5387 15.4273 24.5724C15.4104 24.5892 15.3936 24.6061 15.3599 24.6229C15.343 24.6398 15.3262 24.6566 15.2925 24.6735C15.2756 24.6903 15.2587 24.7072 15.225 24.7241C15.2082 24.7409 15.1913 24.7578 15.1576 24.7746C15.1408 24.7915 15.1239 24.8083 15.0902 24.8252C15.0733 24.842 15.0565 24.8589 15.0228 24.8757C15.0059 24.8926 14.9891 24.9095 14.9554 24.9263C14.9385 24.9432 14.9217 24.96 14.8879 24.9769C14.8711 24.9937 14.8542 25.0106 14.8205 25.0274C14.8037 25.0443 14.7868 25.0611 14.7531 25.0611C14.7363 25.078 14.7194 25.0949 14.6857 25.0949C14.6688 25.1117 14.652 25.1286 14.6183 25.1286C14.6014 25.1454 14.5846 25.1623 14.5509 25.1623C14.534 25.1791 14.5171 25.1791 14.4834 25.196C14.4666 25.2128 14.4497 25.2128 14.416 25.2297C14.3992 25.2465 14.3823 25.2465 14.3486 25.2634C14.3317 25.2803 14.3149 25.2803 14.2812 25.2971C14.2643 25.314 14.2475 25.314 14.2138 25.3308C14.1969 25.3477 14.18 25.3477 14.1463 25.3645C14.1295 25.3814 14.1126 25.3814 14.0789 25.3982C14.0621 25.4151 14.0452 25.4151 14.0115 25.4319C13.9946 25.4488 13.9778 25.4488 13.9441 25.4657L13.8767 25.4994L13.8092 25.5331C13.7924 25.5499 13.7755 25.5499 13.7418 25.5668C13.725 25.5836 13.7081 25.5836 13.6744 25.6005L13.607 25.6342L13.5396 25.6511C13.5227 25.6511 13.5059 25.6679 13.4722 25.6679C13.4553 25.6679 13.4384 25.6848 13.4047 25.6848C13.3879 25.6848 13.371 25.7016 13.3373 25.7016L13.2699 25.7185C13.253 25.7185 13.2362 25.7353 13.2025 25.7353C13.1856 25.7353 13.1688 25.7522 13.1351 25.7522L13.0676 25.769L13.0002 25.7859C12.9834 25.7859 12.9665 25.8027 12.9328 25.8027L12.8654 25.8196L12.798 25.8365C12.7811 25.8365 12.7643 25.8533 12.7305 25.8533L12.6631 25.8702C12.6463 25.8702 12.6294 25.887 12.5957 25.887C12.5789 25.887 12.562 25.9039 12.5283 25.9039L12.4609 25.9207C12.444 25.9207 12.4272 25.9376 12.3935 25.9376C12.3766 25.9376 12.3597 25.9544 12.326 25.9544L12.2586 25.9713C12.2418 25.9713 12.2249 25.9882 12.1912 25.9882C12.1743 25.9882 12.1575 26.005 12.1238 26.005L12.0564 26.0219C12.0395 26.0219 12.0227 26.0387 11.9889 26.0387L11.9215 26.0556L11.8541 26.0724C11.8373 26.0724 11.8204 26.0893 11.7867 26.0893L11.7193 26.1061L11.6519 26.123L11.5844 26.1398C11.5676 26.1398 11.5507 26.1398 11.517 26.1567C11.5002 26.1567 11.4833 26.1567 11.4496 26.1736L11.3822 26.1904C11.3653 26.1904 11.3485 26.1904 11.3148 26.2073L11.2473 26.2241L11.1799 26.241L11.1125 26.2578C11.0956 26.2578 11.0788 26.2578 11.0451 26.2747H10.9777H10.9102H10.8428H10.7754H10.708H10.6406H10.5732H10.5057H10.4383H10.3709H10.3035H10.2361H10.1686H10.1012H10.0338H9.96639H9.89897H9.83155H9.76413H9.69671H9.62929H9.56187H9.49446H9.42704H9.35962H9.2922H9.22478H9.15736H9.08994H9.02253H8.95511H8.88769H8.82027H8.75285H8.68543H8.61802H8.5506H8.48318H8.41576H8.34834H8.28092H8.24721H8.23036H8.16294H8.09552H8.0281H7.96068H7.89327H7.82584H7.75843H7.69101H7.62359H7.55617H7.48875H7.42133H7.35392H7.2865H7.21908H7.15166H7.08424H7.01682H6.9494H6.88199H6.81457H6.74715H6.67973H6.61231H6.54489H6.47747H6.41006H6.34264H6.27522H6.2078H6.14038H6.07296H6.00554H5.93812H5.87071H5.80329H5.73587H5.66845H5.60103H5.53361H5.46619H5.39878H5.33136H5.26394H5.19652H5.1291H5.06168H4.99427H4.92685H4.85943H4.79201H4.72459H4.65717H4.58975H4.52233H4.45491H4.3875H4.32008H4.25266H4.18524H4.11782H4.0504L3.98299 26.2578L3.91557 26.241L3.84815 26.2241L3.78073 26.2073L3.71331 26.1904L3.64589 26.1736L3.57847 26.1567L3.51106 26.1398L3.44364 26.123L3.37622 26.1061L3.3088 26.0893L3.24138 26.0724L3.17396 26.0556L3.10654 26.0387L3.03912 26.0219L2.97171 26.005L2.90429 25.9882L2.83687 25.9713L2.76945 25.9544L2.70203 25.9376L2.63461 25.9207L2.56719 25.9039L2.49978 25.887L2.43236 25.8702L2.36494 25.8533L2.29752 25.8365L2.2301 25.8196L2.16268 25.8027L2.09526 25.7859L2.02785 25.769L1.96043 25.7522L1.89301 25.7353L1.82559 25.7185L1.75817 25.7016L1.69075 25.6848L1.62334 25.6679L1.55592 25.6511L1.4885 25.6342L1.42108 25.6173L1.35366 25.6005L1.28624 25.5836L1.21882 25.5668C1.13455 25.5499 1.08398 25.5331 1.08398 25.5331L1.77503 38.8988Z" fill="url(#paint2_linear)"/>
<defs>
<linearGradient id="paint0_linear" x1="19.2759" y1="19.9123" x2="34.8826" y2="19.9123" gradientUnits="userSpaceOnUse">
<stop stop-color="#672F2D"/>
<stop offset="1" stop-color="#D40F38"/>
</linearGradient>
<linearGradient id="paint1_linear" x1="36.7792" y1="19.9176" x2="52.3872" y2="19.9176" gradientUnits="userSpaceOnUse">
<stop stop-color="#177233"/>
<stop offset="1" stop-color="#5FA82A"/>
</linearGradient>
<linearGradient id="paint2_linear" x1="1.77133" y1="19.9197" x2="17.3779" y2="19.9197" gradientUnits="userSpaceOnUse">
<stop stop-color="#182D5D"/>
<stop offset="1" stop-color="#006CAB"/>
</linearGradient>
</defs>
</svg>
