<svg width="100" height="23" fill="none" xmlns="http://www.w3.org/2000/svg"><path fill-rule="evenodd" clip-rule="evenodd" d="M0 1.765c0-.256.038-.35.332-.35 1.504.018 3.007-.02 4.51.025 2.212.069 4.217.714 5.852 2.274a7.002 7.002 0 012.111 3.915c.558 3.039-.3 5.62-2.618 7.681-1.266 1.128-2.776 1.692-4.448 1.823-1.842.15-3.69.032-5.539.069-.219.006-.194-.113-.194-.25C.006 15.397.013 4.284 0 1.764zM3.076 14.24c0 .213.044.282.27.282.613-.007 1.234 0 1.841-.07 1.115-.125 2.168-.444 2.982-1.265 1.372-1.378 1.88-3.05 1.498-4.943-.382-1.904-1.485-3.251-3.383-3.84-.928-.288-1.892-.27-2.85-.282-.276-.006-.37.05-.364.35.019 1.617.012 8.133.006 9.768zM93.265 10.586c1.654 2.212 3.277 4.386 4.943 6.616h-.664c-.927 0-1.86-.012-2.788.006-.282.007-.426-.1-.57-.32-1.29-1.929-2.587-3.852-3.884-5.782-.019-.025-.038-.05-.05-.081-.082-.194-.244-.182-.395-.15-.163.03-.088.188-.088.288-.006 1.892-.012 3.777.007 5.67 0 .313-.088.375-.382.37a63.581 63.581 0 00-2.444 0c-.206 0-.288-.038-.288-.27.006-5.087.006-10.168 0-15.255 0-.176.019-.263.232-.263 1.754.037 3.508-.07 5.256.062 1.215.094 2.362.42 3.295 1.253 1.122.996 1.435 2.3 1.36 3.734-.113 2.111-1.266 3.508-3.314 4.028-.07.032-.132.063-.226.094zM89.77 6.314c0 .695.013 1.397-.006 2.092-.006.245.07.295.295.282.457-.019.914-.006 1.372-.056 1.34-.144 2.098-.915 2.199-2.256.081-1.077-.47-1.898-1.498-2.236-.676-.22-1.372-.2-2.067-.213-.226-.006-.307.044-.3.288.012.702.005 1.397.005 2.099zM75.93 1.734c0-.238.05-.313.301-.313 2.713.013 5.432.006 8.145 0 .212 0 .288.044.281.27-.012.733-.012 1.46 0 2.192.007.22-.075.25-.269.25-1.679-.005-3.364.007-5.043-.012-.288 0-.345.082-.338.351.018.952.012 1.898 0 2.85-.007.239.062.295.294.295 1.616-.012 3.239 0 4.855-.012.257 0 .307.075.3.313a58.736 58.736 0 000 2.099c.007.219-.056.275-.275.269-1.61-.013-3.214.006-4.824-.013-.3 0-.357.094-.35.364.012 1.19.012 2.38 0 3.57 0 .239.043.314.3.314 1.68-.013 3.364 0 5.043-.013.251 0 .307.07.301.308-.019.72-.012 1.44 0 2.16 0 .176-.037.233-.225.233-2.757-.007-5.514-.007-8.27 0-.25 0-.232-.12-.232-.288.013-2.544.019-12.674.006-15.187zM20.593 12.641c.413.777.965 1.41 1.767 1.767.864.382 1.76.514 2.656.113.814-.364 1.259-1.015 1.297-1.905.037-.877-.439-1.466-1.197-1.848-.877-.439-1.823-.695-2.719-1.084-.877-.382-1.71-.82-2.312-1.597a3.187 3.187 0 01-.645-1.598c-.32-2.594 1.103-4.442 3.252-5.056 2.249-.639 4.272-.075 6.083 1.347.131.107.181.182.05.339a45.153 45.153 0 00-1.347 1.76c-.132.182-.188.132-.313 0-.495-.526-1.06-.952-1.792-1.059-.927-.131-1.804-.012-2.45.752-.576.69-.45 1.554.282 2.067.652.464 1.41.696 2.15.978.688.27 1.359.564 2.004.927 1.315.745 2.036 1.836 2.13 3.37.156 2.588-1.203 4.768-3.734 5.42-2.7.695-5.344-.076-7.073-2.632-.069-.106-.081-.169.019-.263a84.007 84.007 0 001.892-1.798zM59.403 1.427c1.072 0 2.093.007 3.114-.006.207 0 .282.07.357.25.94 2.381 3.652 9.204 4.072 10.256.188-.213 2.9-7.085 4.179-10.268.05-.125.088-.238.276-.238 1.046.006 2.086.006 3.176.006-.25.596-4.718 11.202-6.704 15.932-.081.188-.169.25-.363.244a18.899 18.899 0 00-1.19 0c-.176.007-.257-.056-.32-.219-1.234-2.97-5.532-13.363-6.453-15.587l-.144-.37zM42.626 5.694c-.583-.558-1.14-1.021-1.804-1.335-2.62-1.209-5.777.088-6.785 2.87-.777 2.142-.52 4.178 1.046 5.914 1.046 1.165 2.424 1.585 3.965 1.572 1.222-.012 2.23-.507 3.127-1.297.131-.119.257-.238.388-.357.113.063.063.157.063.226.006 1.033 0 2.067.006 3.101 0 .157-.025.25-.194.332-3.164 1.522-7.167.92-9.648-1.616-1.535-1.567-2.287-3.465-2.337-5.658-.081-3.708 2.393-6.941 5.826-7.981 2.112-.639 4.173-.514 6.159.482.106.057.188.1.188.251-.006 1.14 0 2.28 0 3.496zM17.466 16.857c0 .257-.037.364-.332.351-.833-.025-1.672-.012-2.506-.006-.2 0-.263-.05-.263-.257.006-5.087.006-10.168 0-15.255 0-.232.075-.276.288-.27.827.013 1.648.02 2.475 0 .276-.006.35.057.345.339-.02 2.525-.02 12.592-.007 15.098z" fill="#231F20"/><path fill-rule="evenodd" clip-rule="evenodd" d="M98.791 1.32a1.215 1.215 0 000 2.432c.67 0 1.209-.545 1.209-1.216 0-.67-.545-1.215-1.209-1.215zm0 2.206c-.526 0-.952-.445-.952-.99 0-.545.426-.99.952-.99s.952.445.952.99c0 .545-.426.99-.952.99z" fill="#252122"/><path fill-rule="evenodd" clip-rule="evenodd" d="M98.897 2.661l.445.596h-.313c-.025 0-.038-.007-.05-.032-.12-.175-.232-.35-.351-.52l-.006-.006c-.007-.019-.025-.019-.038-.013-.012 0-.006.02-.006.025v.514c0 .032-.006.032-.038.032h-.219c-.019 0-.025 0-.025-.026V1.853c0-.019 0-.025.019-.025.156.006.32-.006.476.006a.453.453 0 01.294.113c.1.088.132.207.126.338-.013.188-.113.32-.301.364 0 .006-.006.006-.013.012zm-.32-.388v.188c0 .025.007.025.026.025.044 0 .081 0 .125-.006.12-.013.188-.082.2-.207.007-.1-.043-.17-.137-.2-.063-.02-.126-.02-.188-.02-.019 0-.025.007-.025.026v.194z" fill="#231F20"/><path d="M51.942 17.684c4.605 0 8.339-3.747 8.339-8.37 0-4.622-3.734-8.37-8.339-8.37s-8.339 3.748-8.339 8.37c0 4.623 3.734 8.37 8.34 8.37z" fill="url(#paint0_linear)"/><defs><linearGradient id="paint0_linear" x1="48.409" y1="1.737" x2="55.479" y2="16.898" gradientUnits="userSpaceOnUse"><stop offset=".383" stop-color="#E35E26"/><stop offset="1" stop-color="#F9A121"/></linearGradient></defs></svg>