<svg width="64" height="45" fill="none" xmlns="http://www.w3.org/2000/svg"><path d="M34.575 25.551c6.988.03 13.358-5.69 13.358-12.665C47.933 5.264 41.563 0 34.575 0h-6.016c-7.062 0-12.886 5.264-12.886 12.886 0 6.974 5.824 12.695 12.886 12.665h6.016z" fill="#0069AA"/><path d="M31.242 19.683V5.84a7.4 7.4 0 014.763 6.915c0 3.17-1.976 5.853-4.763 6.93zm-10.07-6.93a7.4 7.4 0 014.763-6.914v13.83a7.442 7.442 0 01-4.763-6.915zm7.416-11.691c-6.457 0-11.692 5.234-11.692 11.692 0 6.457 5.235 11.692 11.692 11.692 6.458 0 11.693-5.235 11.693-11.693 0-6.457-5.235-11.691-11.692-11.691z" fill="#fff"/><path d="M2.61 34.28c0 1.047.737 1.165 1.4 1.165 2.92 0 3.878-2.197 3.878-4.217 0-2.521-1.622-4.35-4.232-4.35-.56 0-.81.045-1.061.06v7.342h.014zm-1.328-6.34c0-1.21-.634-1.135-1.238-1.15v-.354c.53.03 1.062.03 1.592.03.56 0 1.342-.03 2.345-.03 3.494 0 5.396 2.33 5.396 4.733 0 1.342-.782 4.703-5.559 4.703-.693 0-1.327-.03-1.96-.03-.605 0-1.21.016-1.814.03v-.354c.81-.088 1.209-.103 1.238-1.032V27.94zM11.294 27.616c-.353 0-.663-.325-.663-.679 0-.339.324-.648.663-.648.354 0 .664.28.664.648a.673.673 0 01-.664.678zM9.85 35.517h.25c.384 0 .649 0 .649-.442v-3.657c0-.59-.206-.678-.708-.943v-.221c.634-.192 1.386-.443 1.445-.487a.44.44 0 01.25-.074c.075 0 .09.089.09.192v5.19c0 .442.294.442.678.442h.235v.354c-.457 0-.928-.03-1.415-.03-.486 0-.973.016-1.474.03v-.354zM14.021 31.493c0-.5-.147-.634-.781-.884v-.266c.575-.191 1.135-.368 1.784-.648.044 0 .074.03.074.132v.885c.766-.56 1.43-1.017 2.344-1.017 1.15 0 1.548.84 1.548 1.887v3.48c0 .442.295.442.678.442h.251v.354c-.472 0-.944-.03-1.43-.03-.487 0-.973.015-1.46.03v-.354h.236c.383 0 .649 0 .649-.443v-3.494c0-.767-.472-1.15-1.239-1.15-.427 0-1.12.354-1.563.649v3.995c0 .443.295.443.679.443h.235v.354c-.471 0-.943-.03-1.43-.03-.486 0-.973.015-1.46.03v-.354h.251c.384 0 .65 0 .65-.443v-3.568h-.016zM23.34 31.715c.339 0 .383-.177.383-.34 0-.693-.413-1.238-1.18-1.238-.825 0-1.385.604-1.547 1.578h2.344zm-2.389.427c-.03.118-.03.325 0 .781.074 1.283.9 2.33 1.99 2.33.738 0 1.328-.413 1.829-.9l.192.192c-.62.826-1.386 1.534-2.492 1.534-2.153 0-2.58-2.08-2.58-2.95 0-2.653 1.784-3.434 2.727-3.434 1.091 0 2.27.692 2.286 2.123 0 .088 0 .162-.015.25l-.118.074H20.95zM25.183 35.518h.368c.384 0 .65 0 .65-.442v-3.79c0-.412-.502-.5-.709-.604v-.206c.988-.413 1.534-.767 1.652-.767.073 0 .118.044.118.177v1.21h.03c.338-.532.898-1.387 1.724-1.387.34 0 .767.236.767.723 0 .368-.25.693-.634.693-.428 0-.428-.325-.9-.325-.235 0-.987.31-.987 1.12v3.17c0 .443.265.443.648.443h.752v.354c-.737-.015-1.312-.03-1.887-.03-.56 0-1.12.015-1.607.03v-.369h.015zM30.387 34c.177.884.723 1.651 1.696 1.651.796 0 1.091-.487 1.091-.958 0-1.593-2.949-1.077-2.949-3.259 0-.752.605-1.725 2.094-1.725a3.39 3.39 0 011.533.398l.089 1.372h-.31c-.133-.856-.604-1.342-1.474-1.342-.546 0-1.047.31-1.047.884 0 1.578 3.14 1.091 3.14 3.215 0 .884-.722 1.843-2.33 1.843-.545 0-1.179-.192-1.65-.457l-.148-1.548.265-.074zM46.458 28.884h-.339c-.25-1.578-1.386-2.212-2.89-2.212-1.548 0-3.804 1.047-3.804 4.276 0 2.727 1.946 4.688 4.025 4.688 1.342 0 2.448-.914 2.713-2.344l.31.074-.31 1.975c-.56.354-2.093.723-2.993.723-3.155 0-5.16-2.035-5.16-5.087 0-2.772 2.477-4.762 5.116-4.762 1.091 0 2.153.354 3.185.722l.147 1.947zM46.946 35.518h.25c.384 0 .649 0 .649-.442v-7.52c0-.884-.206-.899-.723-1.046v-.221c.546-.177 1.106-.413 1.386-.575.148-.074.251-.148.295-.148.089 0 .104.089.104.192v9.333c0 .442.294.442.678.442h.22v.354c-.456 0-.928-.03-1.415-.03-.486 0-.973.015-1.474.03v-.369h.03zM55.63 35.12c0 .25.147.25.383.25.162 0 .368-.014.545-.014v.28c-.575.06-1.695.34-1.946.413l-.074-.044v-1.091c-.81.663-1.43 1.135-2.388 1.135-.723 0-1.49-.472-1.49-1.607v-3.465c0-.354-.058-.693-.81-.752v-.25c.486-.015 1.563-.089 1.74-.089.147 0 .147.088.147.398v3.48c0 .413 0 1.563 1.18 1.563.456 0 1.06-.354 1.636-.826v-3.642c0-.265-.649-.413-1.135-.545v-.251c1.209-.088 1.975-.192 2.108-.192.103 0 .103.089.103.251v4.998zM58.312 34.339c0 .516.487 1.386 1.386 1.386 1.445 0 2.05-1.416 2.05-2.625 0-1.46-1.106-2.668-2.168-2.668-.501 0-.914.324-1.282.634v3.273h.014zm0-3.671c.546-.457 1.268-.973 2.02-.973 1.563 0 2.507 1.37 2.507 2.83 0 1.77-1.298 3.539-3.23 3.539-1.002 0-1.518-.324-1.872-.472l-.398.31-.28-.148c.118-.796.192-1.577.192-2.403v-5.809c0-.885-.207-.9-.723-1.047v-.221c.546-.177 1.106-.413 1.386-.575.148-.074.25-.148.295-.148.089 0 .103.089.103.192v4.925zM.03 43.73h.103c.265 0 .545-.029.545-.412V39.47c0-.384-.28-.413-.545-.413H.029v-.221c.28 0 .723.03 1.091.03.369 0 .811-.03 1.15-.03v.22h-.103c-.265 0-.545.03-.545.414v3.848c0 .383.28.413.545.413h.103v.22c-.353 0-.796-.029-1.164-.029-.354 0-.797.03-1.077.03v-.221z" fill="#0069AA"/><path d="M2.241 43.922v-.162h-.074c-.265 0-.575-.044-.575-.457v-3.848c0-.413.31-.457.575-.457h.074v-.162c-.339 0-.767.03-1.12.03-.354 0-.767-.03-1.062-.03v.162h.074c.265 0 .575.044.575.457v3.848c0 .413-.31.457-.575.457H.059v.162c.28 0 .693-.03 1.047-.03.368 0 .781.016 1.135.03zm.03.06c-.354 0-.797-.03-1.165-.03-.354 0-.796.03-1.077.03H0V43.7h.133c.265 0 .516-.03.516-.383V39.47c0-.354-.25-.384-.516-.384H0v-.294h.03c.294 0 .722.029 1.09.029.37 0 .811-.03 1.15-.03h.03v.28h-.133c-.265 0-.516.03-.516.384v3.848c0 .354.251.384.516.384H2.3v.279h-.03v.015zM7.328 42.492l.014-.014V39.72c0-.604-.412-.692-.633-.692h-.163v-.222c.34 0 .679.03 1.032.03.295 0 .605-.03.9-.03v.222h-.103c-.31 0-.65.059-.65.928v3.362c0 .25.016.516.045.737h-.28L3.7 39.84v3.022c0 .634.119.855.694.855h.118v.221c-.31 0-.634-.03-.944-.03-.324 0-.663.03-1.003.03v-.22h.104c.5 0 .663-.34.663-.93v-3.096a.66.66 0 00-.663-.663h-.104v-.222c.28 0 .56.03.84.03.222 0 .428-.03.65-.03l3.273 3.686z" fill="#0069AA"/><path d="M7.328 42.492l.03-.014-.03.014zm.133 1.534h.25a5.526 5.526 0 01-.044-.708V39.97c0-.885.369-.958.693-.958h.074v-.163c-.295 0-.575.03-.87.03-.34 0-.664-.03-1.003-.03v.163h.133c.221 0 .678.103.678.722l-.015 2.772-.014.015-.03.03L4.04 38.85c-.221 0-.428.03-.649.03-.265 0-.545-.03-.81-.03v.163h.058c.34 0 .693.265.693.693v3.096c0 .59-.162.958-.693.973h-.073v.162c.324 0 .648-.03.973-.03.31 0 .619.03.914.03v-.177h-.089c-.575 0-.722-.25-.722-.9v-3.11l3.819 4.276zm.28.059l-.31-.015-3.715-4.143v2.949c.014.634.103.825.663.825h.162v.28h-.03c-.324 0-.633-.03-.943-.03-.324 0-.663.03-1.002.03h-.03v-.28h.133c.486 0 .62-.31.634-.9v-3.095a.628.628 0 00-.634-.634h-.133v-.28h.03c.28 0 .575.029.84.029.221 0 .428-.03.678-.015l3.23 3.642V39.75c0-.59-.399-.649-.605-.664h-.192v-.28h.03c.353 0 .678.03 1.032.03.294 0 .604-.03.899-.03h.03v.28h-.133c-.31.015-.62.03-.62.9v3.332c0 .25.015.516.045.737v.044h-.06v-.014zM9.568 39.19c-.545 0-.575.132-.678.663H8.67l.088-.62c.03-.206.045-.412.045-.618h.177c.059.22.235.206.442.206h3.79c.205 0 .383 0 .397-.221l.177.03c-.03.191-.059.397-.074.59-.014.19-.014.397-.014.589l-.221.088c-.015-.265-.06-.707-.546-.707h-1.209v3.907c0 .56.25.634.604.634h.148v.22c-.28 0-.796-.029-1.194-.029-.443 0-.959.03-1.239.03v-.221h.148c.412 0 .604-.03.604-.62V39.19H9.568z" fill="#0069AA"/><path d="M12.473 43.981c-.295 0-.796-.03-1.194-.03-.443 0-.959.03-1.239.03h-.03v-.28h.163c.398-.014.575-.014.575-.59V39.22h-1.18v-.059h1.239v3.952c0 .59-.236.648-.634.648h-.118v.148c.295 0 .781-.03 1.21-.03.382 0 .869.03 1.164.03v-.148h-.103c-.354 0-.634-.088-.634-.663V39.16h1.238c.487 0 .56.428.575.693l.162-.059c0-.192 0-.383.015-.575.015-.192.044-.383.074-.56l-.118-.015c-.03.206-.236.221-.428.221H9.377c-.177 0-.369-.015-.428-.206h-.118c0 .206-.014.398-.044.59-.015.206-.059.398-.088.59h.162c.103-.517.162-.679.708-.664v.059c-.546.015-.531.103-.65.649v.03H8.64v-.045c.03-.207.073-.413.088-.62.03-.206.044-.412.044-.619v-.03h.236v.03c.044.192.192.192.369.192h3.834c.206 0 .353 0 .368-.192v-.03h.03l.206.03v.03c-.03.191-.06.398-.074.59-.015.191-.015.398-.015.59v.029l-.014.015-.266.088v-.044c-.014-.28-.044-.678-.516-.678h-1.18v3.877c0 .56.222.59.576.605h.177v.28h-.03v-.03zM14.022 43.73h.103c.265 0 .545-.029.545-.412V39.47c0-.384-.28-.413-.545-.413h-.103v-.221c.442 0 1.209.03 1.828.03.62 0 1.386-.03 1.887-.03-.015.31 0 .796.015 1.12l-.221.06c-.03-.473-.118-.856-.9-.856h-1.017v1.932h.87c.442 0 .53-.251.575-.65h.221c-.015.28-.015.576-.015.856s0 .56.015.84l-.221.045c-.044-.443-.06-.723-.575-.723h-.885v1.71c0 .472.428.472.9.472.884 0 1.268-.059 1.489-.9l.206.045c-.088.398-.177.782-.25 1.165-.472 0-1.313-.03-1.976-.03-.664 0-1.534.03-1.961.03v-.221h.015z" fill="#0069AA"/><path d="M17.929 43.908c.059-.369.147-.738.236-1.106l-.148-.03c-.22.826-.648.9-1.518.885-.457 0-.93 0-.93-.516v-1.74h.915c.516 0 .56.31.604.723l.163-.03c-.015-.265-.015-.545-.015-.81 0-.28 0-.546.015-.826h-.163c-.044.383-.162.648-.604.648h-.9v-1.99h1.047c.767 0 .885.383.93.855l.162-.044c-.015-.207-.015-.472-.015-.723v-.354c-.502 0-1.239.03-1.843.03-.605 0-1.342-.03-1.799-.03v.163h.074c.265 0 .575.044.575.457v3.848c0 .413-.31.457-.575.457h-.074v.147c.428 0 1.283-.03 1.917-.03.634 0 1.46.016 1.946.016zm.015.073c-.472 0-1.313-.03-1.976-.03s-1.533.03-1.961.03h-.03v-.28h.133c.266 0 .502-.03.516-.383V39.47c0-.354-.25-.384-.516-.384h-.133v-.294h.03c.442 0 1.209.029 1.828.029.62 0 1.386-.03 1.887-.03h.03v.03c0 .118-.015.236-.015.383 0 .251.015.531.03.737v.03h-.03l-.25.074V40c-.045-.472-.104-.826-.87-.826h-.988v1.858h.84c.428 0 .502-.222.546-.62v-.03h.28v.03c-.015.28-.03.575-.03.856 0 .28.015.56.03.84v.03h-.03l-.25.044v-.03c-.044-.442-.06-.693-.546-.708h-.855v1.681c0 .443.383.443.87.443.885 0 1.238-.045 1.46-.87l.014-.03h.03l.236.06v.029c-.103.383-.177.781-.25 1.164v.03h-.03v.03zM20.126 41.298h.353c.738 0 1.136-.28 1.136-1.15 0-.649-.413-1.076-1.077-1.076-.22 0-.31.03-.412.03v2.196zm-.93-1.71c0-.531-.294-.56-.515-.56h-.133v-.222c.236 0 .693.03 1.135.03.443 0 .796-.03 1.18-.03.929 0 1.754.251 1.754 1.298 0 .663-.442 1.061-1.017 1.297l1.253 1.888c.207.31.354.398.708.442v.221c-.236 0-.472-.03-.723-.03-.22 0-.457.03-.693.03-.56-.737-1.046-1.533-1.533-2.389h-.486v1.578c0 .56.265.59.604.59h.133v.221c-.413 0-.84-.03-1.268-.03-.354 0-.693.03-1.062.03v-.221h.133c.265 0 .516-.118.516-.398v-3.745h.015z" fill="#0069AA"/><path d="M20.494 41.269c.723 0 1.091-.266 1.106-1.121 0-.649-.398-1.047-1.047-1.047-.191 0-.295.015-.383.03v2.123h.324v.015zm-.368.059h-.03v-2.256h.03c.103-.015.206-.03.427-.03.664 0 1.106.428 1.106 1.106 0 .885-.427 1.18-1.165 1.18h-.368zm0 .206h.501l.015.015c.471.84.958 1.636 1.504 2.373.22 0 .457-.03.693-.03.236 0 .457.03.693.03v-.162c-.34-.044-.502-.147-.708-.457l-1.283-1.916.03-.015c.575-.221 1.002-.62 1.002-1.268 0-1.018-.796-1.254-1.71-1.268-.383 0-.737.03-1.18.03-.427 0-.87-.03-1.105-.03v.162h.103c.22 0 .56.044.56.59v3.73c0 .295-.28.428-.56.428h-.104v.147c.354 0 .693-.03 1.033-.03.412 0 .825.03 1.238.03v-.148h-.103c-.34 0-.634-.044-.634-.619V41.52h.015v.015zm3.435 2.447c-.25 0-.486-.03-.722-.03-.222 0-.457.03-.723.016-.56-.737-1.047-1.534-1.518-2.374h-.428v1.533c.015.56.236.546.575.56h.162v.28h-.03c-.412 0-.84-.029-1.267-.029-.354 0-.693.03-1.062.03h-.03v-.28h.163c.265 0 .486-.118.486-.37v-3.73c0-.515-.265-.515-.486-.53h-.162v-.265h.029c.236 0 .693.029 1.135.029.443 0 .797-.03 1.18-.03.929 0 1.784.251 1.784 1.328 0 .663-.442 1.076-1.003 1.312l1.239 1.843c.206.31.339.383.693.427h.03v.28h-.045zM28.545 42.492l.014-.014V39.72c0-.604-.412-.692-.634-.692h-.162v-.222c.34 0 .678.03 1.032.03.295 0 .605-.03.9-.03v.222h-.118c-.31 0-.649.059-.649.928v3.362c0 .25 0 .516.044.737h-.28l-3.79-4.216v3.022c0 .634.119.855.694.855h.118v.221c-.31 0-.634-.03-.944-.03-.324 0-.663.03-1.002.03v-.22h.103c.501 0 .663-.34.663-.93v-3.096a.66.66 0 00-.663-.663h-.089v-.222c.28 0 .56.03.84.03.222 0 .428-.03.65-.03l3.273 3.686z" fill="#0069AA"/><path d="M28.545 42.492l.03-.014-.03.014zm.147 1.534h.236a5.524 5.524 0 01-.044-.708V39.97c0-.885.369-.958.693-.958h.073v-.163c-.294 0-.574.03-.87.03-.338 0-.663-.03-1.002-.03v.163h.133c.22 0 .678.103.678.722l-.015 2.772-.015.015-.029.03-3.273-3.702c-.221 0-.428.03-.649.03-.265 0-.545-.03-.81-.03v.163h.058c.34 0 .693.265.693.693v3.096c0 .59-.162.958-.693.973h-.074v.162c.325 0 .65-.03.974-.03.31 0 .619.03.914.03v-.147h-.089c-.575 0-.722-.25-.722-.9v-3.11l3.833 4.246zm.28.059l-.31-.015-3.73-4.143v2.949c.015.634.104.825.664.825h.162v.28h-.03c-.324 0-.633-.03-.943-.03-.324 0-.663.03-1.003.03h-.03v-.28h.134c.486 0 .619-.31.634-.9v-3.095a.628.628 0 00-.634-.634h-.133v-.28h.03c.28 0 .56.029.84.029.221 0 .427-.03.678-.015l3.229 3.642V39.75c0-.59-.398-.664-.605-.664h-.191v-.294h.03c.353 0 .692.029 1.031.029.295 0 .605-.03.9-.03h.03v.28h-.133c-.31.015-.62.03-.62.9v3.347c0 .25 0 .516.045.737v.03h-.045zM31.95 39.632h-.014l-.679 2.079h1.372l-.679-2.079zm-1.076 3.258c-.074.251-.162.443-.162.575 0 .222.31.251.545.251h.089v.221c-.295-.014-.59-.03-.885-.03-.265 0-.53.016-.796.03v-.22h.044c.28 0 .531-.163.634-.473l1.18-3.376c.088-.266.22-.634.265-.914.236-.074.531-.221.664-.31.03-.015.03-.015.059-.015.014 0 .03 0 .059.03a.904.904 0 00.073.177L34 42.684c.088.25.177.53.265.752.089.206.25.295.487.295h.044v.221a22.06 22.06 0 00-1.017-.03c-.354 0-.723.015-1.106.03v-.221h.073c.163 0 .458-.03.458-.207 0-.088-.06-.294-.148-.53l-.28-.855H31.11l-.236.751z" fill="#0069AA"/><path d="M31.921 39.647h.015-.015zm-.634 2.035h1.283l-.634-1.976-.649 1.975zm-.074.073l.708-2.138h.044v.03h-.014.014v-.03h.03l.693 2.138h-1.475zm1.49 2.153c.368-.015.722-.03 1.076-.03.339 0 .663.015.988.03v-.148h-.015c-.25 0-.428-.103-.516-.31a8.917 8.917 0 01-.265-.751l-1.357-3.848a.828.828 0 01-.059-.177H32.526c-.015 0-.03 0-.045.014a3.305 3.305 0 01-.648.295c-.044.28-.177.65-.28.915l-1.18 3.376c-.118.324-.369.501-.663.501h-.015v.148c.25-.015.501-.03.767-.03.28 0 .575.015.855.03v-.148h-.045c-.235 0-.575-.03-.59-.295 0-.147.09-.339.163-.59l.03.015-.03-.014.236-.782h1.71l.295.87c.088.236.147.428.147.546-.014.22-.324.235-.486.25h-.044v.133zm2.093.074c-.324-.015-.663-.03-1.017-.03-.354 0-.723.015-1.106.03h-.03v-.28h.104c.177 0 .427-.045.427-.177 0-.089-.059-.28-.147-.517l-.28-.825h-1.622l-.236.737c-.074.25-.162.442-.162.56 0 .177.28.221.516.221h.118v.28h-.03a17.66 17.66 0 00-.884-.029c-.266 0-.531.015-.796.03h-.03v-.28h.074c.28 0 .501-.163.604-.458l1.18-3.376a6.21 6.21 0 00.295-.929c.236-.074.53-.221.663-.31.015 0 .044-.014.074-.014.015 0 .059 0 .088.044.015.059.045.133.074.192l1.357 3.848c.088.25.176.53.265.752.088.191.221.28.457.28h.074v.28l-.03-.03zM35.12 39.19c-.545 0-.575.132-.678.663h-.221c.03-.206.073-.413.088-.62a4.37 4.37 0 00.044-.618h.177c.06.22.236.206.443.206h3.789c.191 0 .383 0 .398-.221l.177.03c-.03.191-.06.397-.074.59-.015.19-.015.397-.015.589l-.22.088c-.015-.265-.045-.707-.546-.707h-1.21v3.907c0 .56.251.634.605.634h.133v.22c-.28 0-.796-.029-1.194-.029-.443 0-.959.03-1.239.03v-.221h.133c.398 0 .604-.03.604-.62V39.19H35.12z" fill="#0069AA"/><path d="M38.01 43.982c-.295 0-.796-.03-1.194-.03-.442 0-.958.03-1.239.03h-.029v-.28h.162c.398-.015.56-.015.575-.59v-3.893H35.12v-.059h1.239v3.952c0 .59-.236.648-.649.648h-.103v.163c.295 0 .781-.03 1.209-.03.383 0 .87.03 1.165.03v-.163h-.104c-.353 0-.634-.088-.634-.663V39.16h1.239c.487 0 .56.428.575.693l.162-.059c0-.191 0-.383.015-.575.015-.191.044-.383.074-.56l-.118-.015c-.03.207-.236.221-.428.221H34.93c-.177 0-.354-.014-.428-.22h-.118c0 .206-.015.397-.044.604-.015.206-.059.398-.088.59h.162c.103-.517.162-.679.707-.664v.059c-.545.015-.53.103-.648.649v.03H34.177v-.03c.03-.207.074-.413.088-.62.03-.206.044-.412.044-.619v-.03h.236v.03c.045.192.192.192.369.192h3.834c.206 0 .353 0 .368-.192v-.03h.03l.206.03v.03c-.03.191-.06.398-.074.59-.015.191-.015.398-.015.59v.029l-.014.014-.266.089v-.044c-.014-.28-.044-.678-.516-.678h-1.18v3.877c.016.56.222.59.576.605h.177v.28h-.03v-.044zM39.602 43.73h.104c.265 0 .545-.029.545-.412V39.47c0-.384-.28-.413-.545-.413h-.104v-.221c.28 0 .723.03 1.092.03.368 0 .81-.03 1.15-.03v.22h-.104c-.265 0-.545.03-.545.414v3.848c0 .383.28.413.545.413h.104v.22c-.354 0-.797-.029-1.165-.029-.354 0-.796.03-1.077.03v-.221z" fill="#0069AA"/><path d="M41.814 43.908v-.148h-.073c-.266 0-.575-.044-.575-.457v-3.848c0-.413.31-.457.575-.457h.073v-.162c-.339 0-.766.03-1.12.03-.354 0-.767-.03-1.062-.03v.162h.074c.265 0 .575.044.575.457v3.848c0 .413-.31.457-.575.457h-.074v.162c.28 0 .693-.03 1.047-.03s.782.016 1.135.016zm.03.073c-.354 0-.796-.03-1.165-.03-.354 0-.796.03-1.076.03h-.03v-.28h.133c.265 0 .516-.03.516-.383V39.47c0-.354-.25-.384-.516-.384h-.133v-.294h.03c.295 0 .722.029 1.09.029.37 0 .812-.03 1.15-.03h.03v.28h-.132c-.266 0-.516.03-.516.384v3.848c0 .354.25.384.516.384h.132v.279h-.03v.015zM44.882 43.73c1.43 0 1.68-1.252 1.68-2.329 0-1.076-.575-2.373-1.798-2.373-1.283 0-1.666 1.15-1.666 2.137 0 1.313.59 2.566 1.784 2.566zm-.104-5.027c1.563 0 2.816.973 2.816 2.536 0 1.696-1.209 2.816-2.771 2.816-1.563 0-2.743-1.061-2.743-2.639-.014-1.533 1.165-2.713 2.698-2.713z" fill="#0069AA"/><path d="M43.053 41.165c0-.987.383-2.167 1.695-2.167 1.253 0 1.828 1.327 1.828 2.403s-.25 2.36-1.71 2.36v-.06c1.4 0 1.637-1.224 1.637-2.3 0-1.061-.575-2.344-1.77-2.344-1.268 0-1.636 1.12-1.636 2.094 0 1.312.604 2.536 1.769 2.536v.059c-1.209.014-1.799-1.269-1.813-2.58zm-1.018.251c0-1.548 1.194-2.742 2.743-2.742v.059c-1.52 0-2.684 1.164-2.684 2.683 0 1.563 1.18 2.61 2.713 2.61 1.548 0 2.742-1.106 2.742-2.787 0-1.548-1.223-2.506-2.786-2.506v-.06c1.577 0 2.845.988 2.845 2.566 0 1.71-1.223 2.846-2.816 2.846-1.548 0-2.757-1.062-2.757-2.669zM52.548 42.492l.014-.014V39.72c0-.604-.427-.692-.634-.692h-.162v-.222c.34 0 .678.03 1.032.03.31 0 .605-.03.9-.03v.222h-.118c-.31 0-.65.059-.65.928v3.362c0 .25 0 .516.045.737h-.28l-3.79-4.216v3.022c0 .634.119.855.694.855h.118v.221c-.31 0-.634-.03-.944-.03-.324 0-.663.03-1.003.03v-.22h.104c.501 0 .663-.34.663-.93v-3.096a.66.66 0 00-.663-.663h-.104v-.222c.28 0 .56.03.84.03.222 0 .428-.03.65-.03l3.288 3.686z" fill="#0069AA"/><path d="M52.548 42.492l.03-.014-.03.014zm.147 1.534h.236a5.524 5.524 0 01-.044-.708V39.97c0-.885.368-.958.678-.958h.074v-.163c-.295 0-.575.03-.87.03-.34 0-.664-.03-1.003-.03v.163h.133c.221 0 .678.103.678.722l-.014 2.772-.015.015-.03.03-3.243-3.702c-.222 0-.428.03-.65.03-.264 0-.545-.03-.81-.03v.163h.059c.339 0 .693.265.693.693v3.096c0 .59-.162.958-.693.973H47.8v.162c.325 0 .649-.03.973-.03.31 0 .605.03.914.03v-.147H49.6c-.575 0-.722-.25-.722-.9v-3.11l3.818 4.246zm.28.059l-.31-.015-3.73-4.143v2.949c.015.634.104.825.664.825h.162v.28h-.044c-.325 0-.634-.03-.944-.03-.324 0-.663.03-1.002.03h-.03v-.28h.133c.486 0 .62-.31.634-.9v-3.095a.628.628 0 00-.634-.634h-.133v-.28h.03c.28 0 .575.029.84.029.221 0 .428-.03.678-.015l3.23 3.627v-2.698c0-.59-.399-.649-.605-.663h-.192v-.28h.03c.339 0 .678.029 1.032.029.294 0 .604-.03.9-.03h.029v.28h-.148c-.295.015-.62.03-.62.9v3.347c0 .25 0 .516.045.737v.03h-.015zM55.939 39.632h-.015l-.678 2.079h1.37l-.677-2.079zm-1.062 3.258c-.074.251-.162.443-.162.575 0 .222.31.251.545.251h.089v.221c-.295-.014-.59-.03-.885-.03-.265 0-.53.016-.796.03v-.22h.044c.295 0 .531-.163.634-.473l1.18-3.376c.088-.266.22-.634.265-.914.236-.074.53-.221.664-.31.014-.015.03-.015.059-.015.014 0 .03 0 .044.03.03.059.044.118.074.177l1.356 3.848c.088.25.177.53.265.752.089.206.236.295.487.295h.044v.221c-.324-.015-.663-.03-1.017-.03-.354 0-.723.015-1.106.03v-.221h.074c.162 0 .457-.03.457-.207 0-.088-.074-.294-.148-.53l-.28-.855h-1.666l-.221.751z" fill="#0069AA"/><path d="M55.91 39.647h.014-.015zm-.62 2.035h1.283l-.634-1.976-.649 1.975zm-.088.073l.707-2.138h.045v.03h-.015.015v-.03h.03l.692 2.138h-1.474zm1.504 2.153c.368-.015.722-.03 1.076-.03.339 0 .663.015.988.03v-.148h-.015c-.25 0-.428-.103-.516-.31a5.638 5.638 0 01-.265-.751l-1.357-3.848c-.015-.06-.044-.118-.059-.177 0-.015 0-.015-.015-.015h-.014c-.015 0-.03 0-.045.015a3.308 3.308 0 01-.648.295c-.045.28-.177.648-.28.914l-1.18 3.376c-.118.325-.369.501-.663.501h-.015v.148c.25-.015.501-.03.766-.03.28 0 .575.015.856.03v-.148h-.045c-.236 0-.575-.03-.59-.294 0-.148.09-.34.163-.575l.03.014-.03-.014.236-.782h1.71l.295.87c.088.236.147.428.147.546-.014.22-.324.235-.486.25h-.044v.133zm2.078.074c-.324-.015-.663-.03-1.017-.03-.354 0-.722.015-1.106.03h-.03v-.28h.104c.177 0 .428-.045.428-.177 0-.089-.06-.28-.148-.517l-.28-.825h-1.622l-.221.737c-.074.25-.162.442-.162.56 0 .177.28.221.516.221h.118v.28h-.03c-.295-.014-.59-.029-.884-.029-.266 0-.531.015-.797.03h-.029v-.28h.074c.28 0 .501-.163.604-.458l1.18-3.376c.088-.265.22-.634.295-.929.236-.074.53-.221.663-.31.015 0 .044-.014.074-.014.015 0 .059 0 .074.044.014.059.044.118.073.177l1.357 3.848c.088.25.177.53.265.752.089.192.221.265.457.28h.074v.28l-.03-.014zM60.642 43.23c0 .294.207.383.443.412.294.03.634.03.973-.015.31-.029.575-.206.707-.398.118-.162.177-.368.222-.53h.206c-.074.413-.192.825-.265 1.253-.65 0-1.298-.03-1.947-.03-.648 0-1.297.03-1.946.03v-.221h.103c.266 0 .546-.03.546-.487V39.47c0-.384-.28-.413-.546-.413h-.103v-.221c.384 0 .767.03 1.165.03.368 0 .737-.03 1.12-.03v.22h-.191c-.28 0-.502.016-.502.399v3.774h.015z" fill="#0069AA"/><path d="M62.898 43.908l.266-1.18h-.148a1.947 1.947 0 01-.22.516c-.134.192-.414.369-.723.413-.192.015-.384.03-.56.03-.148 0-.28 0-.413-.015-.236-.03-.472-.133-.472-.442v-3.79c0-.413.265-.427.53-.427h.148v-.163c-.369 0-.722.03-1.091.03-.384 0-.752-.03-1.135-.03v.163h.073c.266 0 .59.044.59.457v3.774c0 .472-.324.531-.59.531h-.073v.162c.634 0 1.268-.03 1.916-.03.634-.014 1.268 0 1.902 0zm.03.073c-.649 0-1.298-.03-1.946-.03-.65 0-1.298.03-1.947.03h-.03v-.28h.134c.265 0 .516-.03.516-.457V39.47c0-.354-.251-.384-.516-.384h-.133v-.294h.03c.397 0 .78.029 1.164.029.369 0 .737-.03 1.12-.03h.03v.28h-.221c-.28.015-.457 0-.472.37v3.788c0 .28.177.354.413.384.133.014.265.014.413.014.177 0 .369-.014.56-.029.295-.03.56-.206.678-.383.118-.163.177-.354.222-.516v-.03h.279v.044c-.088.428-.176.826-.28 1.254v.03h-.014v-.016zM62.987 39.381h.088c.103 0 .148-.073.148-.191 0-.118-.074-.163-.148-.163h-.088v.354zm-.266.413v-.044c.089-.015.118-.015.118-.074v-.575c0-.074-.014-.103-.103-.103v-.044h.398c.133 0 .266.059.266.206a.24.24 0 01-.177.236l.132.177c.06.074.133.162.177.177v.03h-.147c-.074 0-.133-.148-.28-.355h-.118v.251c0 .044.014.044.118.06v.043h-.384v.015zm.384.221c.354 0 .619-.295.619-.634a.626.626 0 00-.62-.634.626.626 0 00-.619.634c.015.34.28.634.62.634zm0-1.415c.442 0 .766.339.766.781a.752.752 0 01-.766.767.765.765 0 01-.782-.767c.015-.427.34-.781.782-.781z" fill="#0069AA"/></svg>