<?xml version="1.0" encoding="utf-8"?>
<!-- Generator: Adobe Illustrator 24.2.3, SVG Export Plug-In . SVG Version: 6.00 Build 0)  -->
<svg version="1.1" id="Camada_1" xmlns="http://www.w3.org/2000/svg" xmlns:xlink="http://www.w3.org/1999/xlink" x="0px" y="0px"
	 viewBox="0 0 55 31.3" style="enable-background:new 0 0 55 31.3;" xml:space="preserve">
<style type="text/css">
	.st0{fill:#FFF200;}
	.st1{fill:#00A4E0;}
	.st2{fill:#EF4123;}
	.st3{fill:#FFFFFF;}
</style>
<rect width="55" height="31.3"/>
<path class="st0" d="M11.5,10.4c0.5-0.2,1-0.2,1.6-0.2c2.4,0,4.4,1.7,4.8,3.9l3.4-0.7c-0.8-3.8-4.1-6.7-8.2-6.7
	c-0.9,0-1.8,0.1-2.6,0.4L11.5,10.4z"/>
<path class="st1" d="M7.5,21.3l2.3-2.6c-1-0.9-1.7-2.2-1.7-3.7s0.6-2.8,1.6-3.7L7.5,8.8c-1.7,1.5-2.8,3.8-2.8,6.2
	C4.7,17.6,5.8,19.8,7.5,21.3z"/>
<path class="st2" d="M17.8,16.1C17.4,18.3,15.4,20,13,20c-0.5,0-1.1-0.1-1.6-0.2L10.4,23c0.8,0.3,1.7,0.4,2.6,0.4
	c4,0,7.4-2.9,8.2-6.7L17.8,16.1z"/>
<path class="st3" d="M32.4,18.4c-0.6,0.5-1.3,0.9-2.1,0.9c-0.6,0-1.1-0.2-1.6-0.5l-1.1,1.8c0.8,0.5,1.7,0.8,2.6,0.8
	c1.4,0,2.7-0.5,3.6-1.5L32.4,18.4z"/>
<path class="st3" d="M30.4,11.2c-2.8,0-5.1,2.2-5.2,5c0,1.1,0.3,2,0.8,2.9l9.2-3.9C34.7,12.9,32.8,11.2,30.4,11.2z M27.3,16.6
	c0-0.1,0-0.2,0-0.4c0-1.7,1.4-3,3-3c0.9,0,1.7,0.4,2.2,1.1L27.3,16.6z"/>
<path class="st3" d="M38.1,8.9v9.8l1.7,0.7L39,21.3l-1.7-0.7c-0.4-0.2-0.6-0.4-0.8-0.7c-0.2-0.3-0.3-0.7-0.3-1.2V8.9L38.1,8.9
	L38.1,8.9z"/>
<path class="st3" d="M44.3,13.4c0.3-0.1,0.6-0.1,1-0.1c1.5,0,2.7,1,2.9,2.4l2.1-0.4c-0.5-2.3-2.5-4.1-5-4.1c-0.6,0-1.1,0.1-1.6,0.3
	L44.3,13.4z"/>
<path class="st3" d="M41.9,20.1l1.4-1.6c-0.6-0.5-1-1.4-1-2.2s0.4-1.7,1-2.2l-1.4-1.6c-1.1,0.9-1.7,2.3-1.7,3.8
	C40.2,17.8,40.8,19.1,41.9,20.1z"/>
<path class="st3" d="M48.2,16.8c-0.3,1.4-1.5,2.4-2.9,2.4c-0.3,0-0.7,0-1-0.2l-0.7,2c0.5,0.2,1.1,0.3,1.6,0.3c2.5,0,4.5-1.7,5-4.1
	L48.2,16.8z"/>
</svg>
