<svg width="64" height="45" viewBox="0 0 64 45" fill="none" xmlns="http://www.w3.org/2000/svg">
<path d="M34.5747 25.5514C41.5634 25.5809 47.9328 19.8602 47.9328 12.8863C47.9328 5.26362 41.5634 0 34.5747 0H28.5591C21.4967 0 15.6729 5.26362 15.6729 12.8863C15.6729 19.8602 21.4967 25.5809 28.5591 25.5514H34.5747Z" fill="#0069AA"/>
<path d="M31.2424 19.6832V5.83859C34.029 6.90016 36.0047 9.59832 36.0047 12.7535C36.0047 15.9235 34.029 18.6069 31.2424 19.6832ZM21.1723 12.7535C21.1723 9.59832 23.148 6.90016 25.9346 5.83859V19.6685C23.1627 18.6069 21.187 15.9088 21.1723 12.7535ZM28.5885 1.06152C22.1306 1.06152 16.8965 6.29565 16.8965 12.7535C16.8965 19.2114 22.1306 24.4456 28.5885 24.4456C35.0464 24.4456 40.2805 19.2114 40.2805 12.7535C40.2805 6.29565 35.0464 1.06152 28.5885 1.06152Z" fill="white"/>
<path d="M2.60941 34.2799C2.60941 35.3267 3.34661 35.4446 4.01009 35.4446C6.92941 35.4446 7.88777 33.2478 7.88777 31.2278C7.88777 28.7066 6.26593 26.8784 3.65623 26.8784C3.09596 26.8784 2.84531 26.9226 2.59466 26.9373V34.2799H2.60941ZM1.28244 27.9399C1.28244 26.7309 0.648451 26.8046 0.0439453 26.7899V26.436C0.57473 26.4655 1.10551 26.4655 1.6363 26.4655C2.19657 26.4655 2.97801 26.436 3.9806 26.436C7.47494 26.436 9.37691 28.7656 9.37691 31.1689C9.37691 32.5106 8.59548 35.8722 3.81842 35.8722C3.12545 35.8722 2.49145 35.8427 1.85746 35.8427C1.25295 35.8427 0.648451 35.8575 0.0439453 35.8722V35.5184C0.854867 35.4299 1.25295 35.4152 1.28244 34.4863V27.9399Z" fill="#0069AA"/>
<path d="M11.2945 27.6155C10.9407 27.6155 10.631 27.2912 10.631 26.9373C10.631 26.5982 10.9554 26.2886 11.2945 26.2886C11.6484 26.2886 11.958 26.5687 11.958 26.9373C11.958 27.3059 11.6631 27.6155 11.2945 27.6155ZM9.84961 35.5183H10.1003C10.4836 35.5183 10.749 35.5183 10.749 35.076V31.4195C10.749 30.8297 10.5426 30.7413 10.0413 30.4759V30.2547C10.6753 30.063 11.4272 29.8124 11.4862 29.7682C11.5747 29.7092 11.6631 29.6944 11.7368 29.6944C11.8106 29.6944 11.8253 29.7829 11.8253 29.8861V35.076C11.8253 35.5183 12.1202 35.5183 12.5035 35.5183H12.7394V35.8722C12.2824 35.8722 11.8106 35.8427 11.324 35.8427C10.8375 35.8427 10.3509 35.8575 9.84961 35.8722V35.5183Z" fill="#0069AA"/>
<path d="M14.0214 31.4933C14.0214 30.9921 13.8739 30.8594 13.2399 30.6087V30.3433C13.8149 30.1516 14.3752 29.9747 15.024 29.6946C15.0682 29.6946 15.0977 29.7241 15.0977 29.8273V30.7119C15.8644 30.1516 16.5278 29.6946 17.442 29.6946C18.592 29.6946 18.9901 30.535 18.9901 31.5818V35.0614C18.9901 35.5037 19.285 35.5037 19.6683 35.5037H19.919V35.8576C19.4472 35.8576 18.9754 35.8281 18.4888 35.8281C18.0023 35.8281 17.5157 35.8428 17.0291 35.8576V35.5037H17.265C17.6484 35.5037 17.9138 35.5037 17.9138 35.0614V31.5671C17.9138 30.8004 17.442 30.417 16.6753 30.417C16.2477 30.417 15.5547 30.7709 15.1124 31.0658V35.0614C15.1124 35.5037 15.4073 35.5037 15.7906 35.5037H16.0265V35.8576C15.5547 35.8576 15.0829 35.8281 14.5964 35.8281C14.1098 35.8281 13.6233 35.8428 13.1367 35.8576V35.5037H13.3874C13.7707 35.5037 14.0361 35.5037 14.0361 35.0614V31.4933H14.0214Z" fill="#0069AA"/>
<path d="M23.3398 31.7145C23.6789 31.7145 23.7231 31.5376 23.7231 31.3754C23.7231 30.6824 23.3103 30.1369 22.5436 30.1369C21.7179 30.1369 21.1576 30.7414 20.9955 31.7145H23.3398ZM20.9512 32.1421C20.9217 32.26 20.9217 32.4665 20.9512 32.9235C21.0249 34.2063 21.8506 35.2531 22.9417 35.2531C23.6789 35.2531 24.2686 34.8402 24.7699 34.3537L24.9616 34.5454C24.3423 35.371 23.5757 36.0787 22.4699 36.0787C20.3172 36.0787 19.8896 33.9998 19.8896 33.1299C19.8896 30.476 21.6737 29.6946 22.6173 29.6946C23.7084 29.6946 24.8879 30.3875 24.9026 31.8177C24.9026 31.9062 24.9026 31.9799 24.8879 32.0684L24.7699 32.1421H20.9512Z" fill="#0069AA"/>
<path d="M25.1827 35.5184H25.5513C25.9347 35.5184 26.2001 35.5184 26.2001 35.0761V31.2868C26.2001 30.874 25.6988 30.7855 25.4923 30.6823V30.4759C26.4802 30.0631 27.0257 29.7092 27.1437 29.7092C27.2174 29.7092 27.2616 29.7535 27.2616 29.8862V31.0952H27.2911C27.6302 30.5644 28.1905 29.7092 29.0162 29.7092C29.3553 29.7092 29.7828 29.9451 29.7828 30.4317C29.7828 30.8003 29.5322 31.1247 29.1489 31.1247C28.7213 31.1247 28.7213 30.8003 28.2495 30.8003C28.0136 30.8003 27.2616 31.1099 27.2616 31.9208V35.0908C27.2616 35.5331 27.527 35.5331 27.9104 35.5331H28.6623V35.887C27.9251 35.8722 27.3501 35.8575 26.7751 35.8575C26.2148 35.8575 25.6545 35.8722 25.168 35.887V35.5184H25.1827Z" fill="#0069AA"/>
<path d="M30.3875 33.9997C30.5644 34.8844 31.1099 35.6511 32.083 35.6511C32.8792 35.6511 33.1741 35.1645 33.1741 34.6927C33.1741 33.1004 30.2253 33.6164 30.2253 31.4343C30.2253 30.6823 30.8298 29.7092 32.3189 29.7092C32.7465 29.7092 33.3363 29.8272 33.8523 30.1073L33.9408 31.4785H33.6311C33.4985 30.6234 33.0266 30.1368 32.1567 30.1368C31.6112 30.1368 31.1099 30.4464 31.1099 31.0214C31.1099 32.5991 34.2504 32.1125 34.2504 34.2356C34.2504 35.1203 33.5279 36.0786 31.9208 36.0786C31.3753 36.0786 30.7413 35.887 30.2695 35.6216L30.1221 34.0735L30.3875 33.9997Z" fill="#0069AA"/>
<path d="M46.4581 28.8835H46.119C45.8683 27.3059 44.733 26.6719 43.2292 26.6719C41.681 26.6719 39.4252 27.7187 39.4252 30.9477C39.4252 33.6753 41.3714 35.6363 43.4503 35.6363C44.792 35.6363 45.8978 34.7221 46.1632 33.292L46.4728 33.3657L46.1632 35.3414C45.6029 35.6953 44.0696 36.0639 43.1702 36.0639C40.015 36.0639 38.0098 34.0292 38.0098 30.9772C38.0098 28.2053 40.4868 26.2148 43.1259 26.2148C44.217 26.2148 45.2786 26.5687 46.3107 26.9373L46.4581 28.8835Z" fill="#0069AA"/>
<path d="M46.9455 35.5184H47.1962C47.5795 35.5184 47.8449 35.5184 47.8449 35.0761V27.5566C47.8449 26.672 47.6385 26.6572 47.1224 26.5098V26.2886C47.668 26.1117 48.2282 25.8758 48.5084 25.7136C48.6558 25.6399 48.759 25.5662 48.8032 25.5662C48.8917 25.5662 48.9065 25.6546 48.9065 25.7578V35.0908C48.9065 35.5331 49.2013 35.5331 49.5847 35.5331H49.8058V35.887C49.3488 35.887 48.877 35.8575 48.3904 35.8575C47.9039 35.8575 47.4173 35.8722 46.916 35.887V35.5184H46.9455Z" fill="#0069AA"/>
<path d="M55.6293 35.1202C55.6293 35.3709 55.7767 35.3709 56.0126 35.3709C56.1748 35.3709 56.3812 35.3561 56.5581 35.3561V35.6363C55.9831 35.6952 54.8626 35.9754 54.6119 36.0491L54.5382 36.0049V34.9138C53.7273 35.5773 53.108 36.0491 52.1497 36.0491C51.4272 36.0491 50.6605 35.5773 50.6605 34.442V30.9771C50.6605 30.6233 50.6016 30.2842 49.8496 30.2252V29.9745C50.3362 29.9598 51.4125 29.8861 51.5894 29.8861C51.7368 29.8861 51.7368 29.9745 51.7368 30.2842V33.7638C51.7368 34.1766 51.7368 35.3266 52.9164 35.3266C53.3734 35.3266 53.9779 34.9728 54.553 34.501V30.8592C54.553 30.5938 53.9042 30.4464 53.4177 30.3137V30.063C54.6267 29.9745 55.3934 29.8713 55.5261 29.8713C55.6293 29.8713 55.6293 29.9598 55.6293 30.122V35.1202Z" fill="#0069AA"/>
<path d="M58.3123 34.339C58.3123 34.855 58.7989 35.7249 59.6983 35.7249C61.1432 35.7249 61.7477 34.3095 61.7477 33.1005C61.7477 31.6408 60.6419 30.4318 59.5803 30.4318C59.079 30.4318 58.6662 30.7562 58.2976 31.0658V34.339H58.3123ZM58.3123 30.6677C58.8579 30.2106 59.5803 29.6946 60.3323 29.6946C61.8951 29.6946 62.8388 31.0658 62.8388 32.5254C62.8388 34.2947 61.5413 36.064 59.6098 36.064C58.6072 36.064 58.0912 35.7396 57.7373 35.5922L57.3392 35.9018L57.0591 35.7544C57.1771 34.9582 57.2508 34.1768 57.2508 33.3511V27.542C57.2508 26.6573 57.0444 26.6426 56.5283 26.4951V26.274C57.0738 26.097 57.6341 25.8611 57.9143 25.699C58.0617 25.6252 58.1649 25.5515 58.2091 25.5515C58.2976 25.5515 58.3123 25.64 58.3123 25.7432V30.6677Z" fill="#0069AA"/>
<path d="M0.0292969 43.7307H0.132505C0.397897 43.7307 0.678033 43.7012 0.678033 43.3179V39.4697C0.678033 39.0863 0.397897 39.0569 0.132505 39.0569H0.0292969V38.8357C0.309433 38.8357 0.751753 38.8652 1.12035 38.8652C1.48895 38.8652 1.93128 38.8357 2.27039 38.8357V39.0569H2.16718C1.90179 39.0569 1.62165 39.0863 1.62165 39.4697V43.3179C1.62165 43.7012 1.90179 43.7307 2.16718 43.7307H2.27039V43.9519C1.91653 43.9519 1.47421 43.9224 1.10561 43.9224C0.751755 43.9224 0.309433 43.9519 0.0292969 43.9519V43.7307Z" fill="#0069AA"/>
<path d="M2.24109 43.9224V43.7602H2.16737C1.90198 43.7602 1.59236 43.716 1.59236 43.3032V39.455C1.59236 39.0422 1.90198 38.9979 2.16737 38.9979H2.24109V38.8357C1.90198 38.8357 1.4744 38.8652 1.12054 38.8652C0.766688 38.8652 0.353856 38.8357 0.0589752 38.8357V38.9979H0.132695C0.398088 38.9979 0.707714 39.0422 0.707714 39.455V43.3032C0.707714 43.716 0.398088 43.7602 0.132695 43.7602H0.0589752V43.9224C0.339112 43.9224 0.751945 43.8929 1.1058 43.8929C1.4744 43.8929 1.88724 43.9077 2.24109 43.9224ZM2.27058 43.9814C1.91672 43.9814 1.4744 43.9519 1.1058 43.9519C0.751945 43.9519 0.309624 43.9814 0.0294876 43.9814H0V43.9519V43.7308V43.7013H0.0294876H0.132695C0.398088 43.7013 0.648736 43.6718 0.648736 43.3179V39.4697C0.648736 39.1159 0.398088 39.0864 0.132695 39.0864H0V39.0422V38.7915H0.0294876C0.324368 38.7915 0.751944 38.821 1.12054 38.821C1.48915 38.821 1.93147 38.7915 2.27058 38.7915H2.30007V38.821V39.0716H2.27058H2.16737C1.90198 39.0716 1.65133 39.1011 1.65133 39.455V43.3032C1.65133 43.657 1.90198 43.6865 2.16737 43.6865H2.30007V43.716V43.9667H2.27058V43.9814Z" fill="#0069AA"/>
<path d="M7.32775 42.4924L7.3425 42.4777V39.7205C7.3425 39.116 6.92966 39.0276 6.7085 39.0276H6.54632V38.8064C6.88543 38.8064 7.22454 38.8359 7.5784 38.8359C7.87328 38.8359 8.18291 38.8064 8.47779 38.8064V39.0276H8.37458C8.06495 39.0276 7.72584 39.0865 7.72584 39.9564V43.3181C7.72584 43.5687 7.74059 43.8341 7.77007 44.0553H7.48994L3.70072 39.8385V42.861C3.70072 43.495 3.81867 43.7162 4.39369 43.7162H4.51164V43.9373C4.20202 43.9373 3.87765 43.9078 3.56802 43.9078C3.24366 43.9078 2.90454 43.9373 2.56543 43.9373V43.7162H2.66864C3.16993 43.7162 3.33212 43.377 3.33212 42.7873V39.691C3.33212 39.2782 2.99301 39.0276 2.66864 39.0276H2.56543V38.8064C2.84557 38.8064 3.1257 38.8359 3.40584 38.8359C3.627 38.8359 3.83342 38.8064 4.05458 38.8064L7.32775 42.4924Z" fill="#0069AA"/>
<path d="M7.32794 42.4923L7.35743 42.4775L7.32794 42.4923ZM7.46064 44.0256H7.71129C7.6818 43.8045 7.66706 43.5538 7.66706 43.3179V39.971C7.66706 39.0864 8.03566 39.0127 8.36003 39.0127H8.43375V38.8505C8.13886 38.8505 7.85873 38.88 7.56385 38.88C7.22474 38.88 6.90037 38.8505 6.56125 38.8505V39.0127H6.69395C6.91511 39.0127 7.37218 39.1159 7.37218 39.7351L7.35743 42.507L7.34269 42.5217L7.3132 42.5512L4.04002 38.8505C3.81886 38.8505 3.61245 38.88 3.39129 38.88C3.12589 38.88 2.84576 38.8505 2.58037 38.8505V39.0127H2.63934C2.97845 39.0127 3.33231 39.2781 3.33231 39.7056V42.8019C3.33231 43.3916 3.17013 43.7602 2.63934 43.775H2.56562V43.9372C2.88999 43.9372 3.21436 43.9077 3.53873 43.9077C3.84835 43.9077 4.15798 43.9372 4.45286 43.9372V43.7602H4.36439C3.78937 43.7602 3.64194 43.5096 3.64194 42.8609V39.7499L7.46064 44.0256ZM7.74078 44.0846L7.43115 44.0699L3.71566 39.9268V42.8756C3.7304 43.5096 3.81886 43.7013 4.37914 43.7013H4.54132V43.7308V43.9814H4.51183C4.18746 43.9814 3.87784 43.9519 3.56822 43.9519C3.24385 43.9519 2.90473 43.9814 2.56562 43.9814H2.53613V43.9519V43.7013H2.56562H2.66883C3.15538 43.7013 3.28808 43.3916 3.30282 42.8019V39.7056C3.30282 39.3075 2.97845 39.0716 2.66883 39.0716H2.53613V39.0422V38.7915H2.56562C2.84576 38.7915 3.14064 38.821 3.40603 38.821C3.62719 38.821 3.83361 38.7915 4.08426 38.8062L7.3132 42.448V39.7499C7.3132 39.1601 6.91511 39.1011 6.70869 39.0864H6.51702V39.0569V38.8062H6.54651C6.90037 38.8062 7.22473 38.8357 7.57859 38.8357C7.87347 38.8357 8.1831 38.8062 8.47798 38.8062H8.50747V38.8357V39.0864H8.47798H8.37477C8.06515 39.1011 7.75552 39.1159 7.75552 39.9858V43.3179C7.75552 43.5686 7.77026 43.834 7.79975 44.0551V44.0994H7.74078V44.0846Z" fill="#0069AA"/>
<path d="M9.56833 39.1896C9.0228 39.1896 8.99331 39.3223 8.89011 39.8531H8.66895C8.69843 39.6467 8.72792 39.4403 8.75741 39.2338C8.7869 39.0274 8.80164 38.821 8.80164 38.6146H8.97857C9.03754 38.8358 9.21447 38.821 9.42089 38.821H13.2101C13.4165 38.821 13.5935 38.821 13.6082 38.5999L13.7851 38.6293C13.7556 38.821 13.7261 39.0274 13.7114 39.2191C13.6967 39.4108 13.6967 39.6172 13.6967 39.8089L13.4755 39.8973C13.4608 39.6319 13.4165 39.1896 12.93 39.1896H11.721V43.0968C11.721 43.6571 11.9716 43.7308 12.3255 43.7308H12.4729V43.9519C12.1928 43.9519 11.6767 43.9224 11.2786 43.9224C10.8363 43.9224 10.3203 43.9519 10.0401 43.9519V43.7308H10.1876C10.6004 43.7308 10.7921 43.7013 10.7921 43.1115V39.1896H9.56833Z" fill="#0069AA"/>
<path d="M12.4731 43.9814C12.1782 43.9814 11.6769 43.9519 11.2788 43.9519C10.8365 43.9519 10.3205 43.9814 10.0403 43.9814H10.0108V43.9519V43.7013H10.0403H10.173C10.5711 43.6865 10.748 43.6865 10.748 43.1115V39.2191H9.56852V39.1896V39.1601H10.807V43.1115C10.807 43.7013 10.5711 43.7603 10.173 43.7603H10.0551V43.9077C10.35 43.9077 10.8365 43.8782 11.2641 43.8782C11.6474 43.8782 12.134 43.9077 12.4289 43.9077V43.7603H12.3257C11.9718 43.7603 11.6917 43.6718 11.6917 43.0968V39.1601H12.9302C13.4167 39.1601 13.4904 39.5877 13.5052 39.8531L13.6674 39.7941C13.6674 39.6024 13.6674 39.4108 13.6821 39.2191C13.6969 39.0274 13.7263 38.8358 13.7558 38.6588L13.6379 38.6441C13.6084 38.8505 13.402 38.8652 13.2103 38.8652H9.42108H9.37685C9.19992 38.8652 9.00825 38.8505 8.94927 38.6588H8.83132C8.83132 38.8652 8.81658 39.0569 8.78709 39.2486C8.77234 39.455 8.72811 39.6467 8.69863 39.8384H8.86081C8.96402 39.3223 9.02299 39.1601 9.56852 39.1749V39.2044V39.2338C9.02299 39.2486 9.03774 39.3371 8.91979 39.8826V39.9121H8.8903H8.63965V39.8678C8.66914 39.6614 8.71337 39.455 8.72811 39.2486C8.7576 39.0422 8.77235 38.8358 8.77235 38.6293V38.5999H8.80183H9.00825V38.6293C9.05248 38.821 9.19992 38.821 9.37685 38.821H9.42108H13.2103C13.4167 38.821 13.5642 38.821 13.5789 38.6293V38.5999H13.6084L13.8148 38.6293V38.6588C13.7853 38.8505 13.7558 39.0569 13.7411 39.2486C13.7263 39.4403 13.7263 39.6467 13.7263 39.8384V39.8678L13.7116 39.8826L13.4462 39.971V39.9268C13.4315 39.6467 13.402 39.2486 12.9302 39.2486H11.7506V43.1263C11.7506 43.6865 11.9718 43.716 12.3257 43.7308H12.5026V43.7603V44.0109H12.4731V43.9814Z" fill="#0069AA"/>
<path d="M14.0216 43.7307H14.1248C14.3902 43.7307 14.6703 43.7012 14.6703 43.3179V39.4697C14.6703 39.0863 14.3902 39.0569 14.1248 39.0569H14.0216V38.8357C14.4639 38.8357 15.2306 38.8652 15.8498 38.8652C16.4691 38.8652 17.2358 38.8357 17.7371 38.8357C17.7223 39.1453 17.7371 39.6319 17.7518 39.9562L17.5307 40.0152C17.5012 39.5434 17.4127 39.1601 16.6313 39.1601H15.6139V41.0915H16.4838C16.9262 41.0915 17.0146 40.8409 17.0589 40.4428H17.28C17.2653 40.7229 17.2653 41.0178 17.2653 41.2979C17.2653 41.5781 17.2653 41.8582 17.28 42.1384L17.0589 42.1826C17.0146 41.7403 16.9999 41.4601 16.4838 41.4601H15.5992V43.1704C15.5992 43.6422 16.0268 43.6422 16.4986 43.6422C17.3832 43.6422 17.7666 43.5833 17.9877 42.7429L18.1941 42.7871C18.1057 43.1852 18.0172 43.5685 17.9435 43.9519C17.4717 43.9519 16.6313 43.9224 15.9678 43.9224C15.3043 43.9224 14.4344 43.9519 14.0068 43.9519V43.7307H14.0216Z" fill="#0069AA"/>
<path d="M17.9289 43.9077C17.9879 43.5391 18.0764 43.1705 18.1648 42.8019L18.0174 42.7724C17.7962 43.5981 17.3687 43.6718 16.4988 43.657C16.0417 43.657 15.5699 43.657 15.5699 43.141V41.4012H16.484C17.0001 41.4012 17.0443 41.7108 17.0885 42.1237L17.2507 42.0942C17.236 41.8288 17.236 41.5486 17.236 41.2832C17.236 41.0031 17.236 40.7377 17.2507 40.4576H17.0885C17.0443 40.8409 16.9263 41.1063 16.484 41.1063H15.5846V39.1159H16.6315C17.3982 39.1159 17.5161 39.4992 17.5603 39.971L17.7225 39.9268C17.7078 39.7204 17.7078 39.455 17.7078 39.2043C17.7078 39.0716 17.7078 38.9537 17.7078 38.8505C17.2065 38.8505 16.4693 38.88 15.8648 38.88C15.2603 38.88 14.5231 38.8505 14.066 38.8505V39.0127H14.1397C14.4051 39.0127 14.7147 39.0569 14.7147 39.4697V43.3179C14.7147 43.7308 14.4051 43.775 14.1397 43.775H14.066V43.9224C14.4936 43.9224 15.3487 43.8929 15.9827 43.8929C16.6167 43.8929 17.4424 43.9077 17.9289 43.9077ZM17.9437 43.9814C17.4719 43.9814 16.6315 43.9519 15.968 43.9519C15.3045 43.9519 14.4346 43.9814 14.007 43.9814H13.9775V43.9519V43.7308V43.7013H14.007H14.1102C14.3756 43.7013 14.6115 43.6718 14.6263 43.3179V39.4697C14.6263 39.1159 14.3756 39.0864 14.1102 39.0864H13.9775V39.0422V38.7915H14.007C14.4493 38.7915 15.216 38.821 15.8353 38.821C16.4545 38.821 17.2212 38.7915 17.7225 38.7915H17.752V38.821C17.752 38.9389 17.7373 39.0569 17.7373 39.2043C17.7373 39.455 17.752 39.7351 17.7668 39.9415V39.971H17.7373L17.4866 40.0447V40.0005C17.4424 39.5287 17.3834 39.1748 16.6167 39.1748H15.6289V41.0326H16.4693C16.8969 41.0326 16.9706 40.8114 17.0148 40.4133V40.3839H17.0443H17.2949V40.4133C17.2802 40.6935 17.2655 40.9884 17.2655 41.2685C17.2655 41.5486 17.2802 41.8288 17.2949 42.1089V42.1384H17.2655L17.0148 42.1826V42.1531C16.9706 41.7108 16.9558 41.4602 16.4693 41.4454H15.6141V43.1263C15.6141 43.5686 15.9975 43.5686 16.484 43.5686C17.3687 43.5686 17.7225 43.5243 17.9437 42.6987L17.9584 42.6692H17.9879L18.2238 42.7282V42.7577C18.1206 43.141 18.0469 43.5391 17.9732 43.9224V43.9519H17.9437V43.9814Z" fill="#0069AA"/>
<path d="M20.1256 41.2981H20.4794C21.2166 41.2981 21.6147 41.018 21.6147 40.1481C21.6147 39.4994 21.2019 39.0718 20.5384 39.0718C20.3172 39.0718 20.2288 39.1013 20.1256 39.1013V41.2981ZM19.1967 39.5878C19.1967 39.057 18.9018 39.0276 18.6806 39.0276H18.5479V38.8064C18.7839 38.8064 19.2409 38.8359 19.6832 38.8359C20.1256 38.8359 20.4794 38.8064 20.8628 38.8064C21.7916 38.8064 22.6173 39.057 22.6173 40.1039C22.6173 40.7674 22.175 41.1654 21.6 41.4013L22.8532 43.2886C23.0596 43.5982 23.2071 43.6867 23.5609 43.7309V43.9521C23.325 43.9521 23.0891 43.9226 22.8385 43.9226C22.6173 43.9226 22.3814 43.9521 22.1455 43.9521C21.5852 43.2149 21.0987 42.4187 20.6121 41.5635H20.1256V43.1411C20.1256 43.7014 20.391 43.7309 20.7301 43.7309H20.8628V43.9521C20.4499 43.9521 20.0224 43.9226 19.5948 43.9226C19.2409 43.9226 18.9018 43.9521 18.5332 43.9521V43.7309H18.6659C18.9313 43.7309 19.1819 43.613 19.1819 43.3328V39.5878H19.1967Z" fill="#0069AA"/>
<path d="M20.4943 41.2685C21.2167 41.2685 21.5853 41.0031 21.6001 40.148C21.6001 39.4992 21.202 39.1011 20.5532 39.1011C20.3616 39.1011 20.2584 39.1159 20.1699 39.1306V41.2538H20.4943V41.2685ZM20.1257 41.3275H20.0962V39.0716H20.1257C20.2289 39.0569 20.3321 39.0422 20.5532 39.0422C21.2167 39.0422 21.659 39.4697 21.659 40.148C21.659 41.0326 21.2315 41.3275 20.4943 41.3275H20.1257ZM20.1257 41.5339H20.627L20.6417 41.5486C21.1135 42.389 21.6001 43.1852 22.1456 43.9224C22.3667 43.9224 22.6027 43.8929 22.8386 43.8929C23.0745 43.8929 23.2956 43.9224 23.5315 43.9224V43.7602C23.1924 43.716 23.0302 43.6128 22.8238 43.3032L21.5411 41.3865L21.5706 41.3717C22.1456 41.1505 22.5732 40.7525 22.5732 40.1037C22.5732 39.0864 21.777 38.8505 20.8629 38.8357C20.4795 38.8357 20.1257 38.8652 19.6833 38.8652C19.2558 38.8652 18.8134 38.8357 18.5775 38.8357V38.9979H18.6807C18.9019 38.9979 19.241 39.0422 19.241 39.5877V43.3179C19.241 43.6128 18.9609 43.7455 18.6807 43.7455H18.5775V43.8929C18.9314 43.8929 19.2705 43.8635 19.6096 43.8635C20.0224 43.8635 20.4353 43.8929 20.8481 43.8929V43.7455H20.7449C20.4058 43.7455 20.1109 43.7013 20.1109 43.1263V41.5191H20.1257V41.5339ZM23.561 43.9814C23.3104 43.9814 23.0745 43.9519 22.8386 43.9519C22.6174 43.9519 22.3815 43.9814 22.1161 43.9667C21.5558 43.2295 21.0693 42.4333 20.5975 41.5929H20.1699V43.1263C20.1846 43.6865 20.4058 43.6718 20.7449 43.6865H20.9071V43.716V43.9667H20.8776C20.4648 43.9667 20.0372 43.9372 19.6096 43.9372C19.2558 43.9372 18.9166 43.9667 18.548 43.9667H18.5186V43.9372V43.6865H18.548H18.6807C18.9461 43.6865 19.1673 43.5686 19.1673 43.3179V39.5877C19.1673 39.0716 18.9019 39.0716 18.6807 39.0569H18.5186V39.0422V38.7915H18.548C18.7839 38.7915 19.241 38.821 19.6833 38.821C20.1257 38.821 20.4795 38.7915 20.8629 38.7915C21.7917 38.7915 22.6469 39.0422 22.6469 40.1185C22.6469 40.7819 22.2046 41.1948 21.6443 41.4307L22.8828 43.2737C23.0892 43.5833 23.2219 43.657 23.5758 43.7013H23.6052V43.7308V43.9814H23.561Z" fill="#0069AA"/>
<path d="M28.5446 42.4924L28.5594 42.4777V39.7205C28.5594 39.116 28.1466 39.0276 27.9254 39.0276H27.7632V38.8064C28.1023 38.8064 28.4414 38.8359 28.7953 38.8359C29.0902 38.8359 29.3998 38.8064 29.6947 38.8064V39.0276H29.5767C29.2671 39.0276 28.928 39.0865 28.928 39.9564V43.3181C28.928 43.5687 28.928 43.8341 28.9722 44.0553H28.6921L24.9029 39.8385V42.861C24.9029 43.495 25.0208 43.7162 25.5958 43.7162H25.7138V43.9373C25.4042 43.9373 25.0798 43.9078 24.7702 43.9078C24.4458 43.9078 24.1067 43.9373 23.7676 43.9373V43.7162H23.8708C24.3721 43.7162 24.5343 43.377 24.5343 42.7873V39.691C24.5343 39.2782 24.1952 39.0276 23.8708 39.0276H23.7823V38.8064C24.0625 38.8064 24.3426 38.8359 24.6227 38.8359C24.8439 38.8359 25.0503 38.8064 25.2715 38.8064L28.5446 42.4924Z" fill="#0069AA"/>
<path d="M28.5447 42.4923L28.5742 42.4775L28.5447 42.4923ZM28.6922 44.0256H28.9281C28.8986 43.8045 28.8839 43.5538 28.8839 43.3179V39.971C28.8839 39.0864 29.2525 39.0127 29.5768 39.0127H29.6505V38.8505C29.3557 38.8505 29.0755 38.88 28.7806 38.88C28.4415 38.88 28.1172 38.8505 27.7781 38.8505V39.0127H27.9107C28.1319 39.0127 28.589 39.1159 28.589 39.7351L28.5742 42.507L28.5595 42.5217L28.53 42.5512L25.2568 38.8505C25.0357 38.8505 24.8292 38.88 24.6081 38.88C24.3427 38.88 24.0626 38.8505 23.7972 38.8505V39.0127H23.8561C24.1953 39.0127 24.5491 39.2781 24.5491 39.7056V42.8019C24.5491 43.3916 24.3869 43.7602 23.8561 43.775H23.7824V43.9372C24.1068 43.9372 24.4312 43.9077 24.7555 43.9077C25.0652 43.9077 25.3748 43.9372 25.6697 43.9372V43.7897H25.5812C25.0062 43.7897 24.8587 43.5391 24.8587 42.8903V39.7794L28.6922 44.0256ZM28.9723 44.0846L28.6627 44.0699L24.9325 39.9268V42.8756C24.9472 43.5096 25.0357 43.7013 25.5959 43.7013H25.7581V43.7308V43.9814H25.7286C25.4043 43.9814 25.0946 43.9519 24.785 43.9519C24.4606 43.9519 24.1215 43.9814 23.7824 43.9814H23.7529V43.9519V43.7013H23.7824H23.8856C24.3722 43.7013 24.5049 43.3916 24.5196 42.8019V39.7056C24.5196 39.3075 24.1952 39.0716 23.8856 39.0716H23.7529V39.0422V38.7915H23.7824C24.0626 38.7915 24.3427 38.821 24.6228 38.821C24.844 38.821 25.0504 38.7915 25.3011 38.8062L28.53 42.448V39.7499C28.53 39.1601 28.1319 39.0864 27.9255 39.0864H27.7338V39.0422V38.7915H27.7633C28.1172 38.7915 28.4563 38.821 28.7954 38.821C29.0903 38.821 29.3999 38.7915 29.6948 38.7915H29.7243V38.821V39.0716H29.6948H29.5916C29.2819 39.0864 28.9723 39.1011 28.9723 39.971V43.3179C28.9723 43.5686 28.9723 43.834 29.0166 44.0551V44.0846H28.9723Z" fill="#0069AA"/>
<path d="M31.9504 39.632H31.9356L31.2574 41.7109H32.6286L31.9504 39.632ZM30.8741 42.8904C30.8003 43.1411 30.7119 43.3327 30.7119 43.4654C30.7119 43.6866 31.0215 43.7161 31.2574 43.7161H31.3459V43.9372C31.051 43.9225 30.7561 43.9078 30.4612 43.9078C30.1958 43.9078 29.9304 43.9225 29.665 43.9372V43.7161H29.7093C29.9894 43.7161 30.2401 43.5539 30.3433 43.2443L31.5228 39.8679C31.6113 39.6025 31.7439 39.2339 31.7882 38.9538C32.0241 38.88 32.319 38.7326 32.4517 38.6441C32.4811 38.6294 32.4811 38.6294 32.5106 38.6294C32.5254 38.6294 32.5401 38.6294 32.5696 38.6589C32.5844 38.7179 32.6138 38.7768 32.6433 38.8358L33.9998 42.684C34.0882 42.9347 34.1767 43.2148 34.2652 43.4359C34.3536 43.6424 34.5158 43.7308 34.7517 43.7308H34.796V43.952C34.4716 43.9372 34.1325 43.9225 33.7786 43.9225C33.4248 43.9225 33.0562 43.9372 32.6728 43.952V43.7308H32.7465C32.9087 43.7308 33.2036 43.7013 33.2036 43.5244C33.2036 43.4359 33.1446 43.2295 33.0562 42.9936L32.776 42.1385H31.11L30.8741 42.8904Z" fill="#0069AA"/>
<path d="M31.9212 39.6468H31.9359H31.9212ZM31.2872 41.6815H32.5699L31.9359 39.7058L31.2872 41.6815ZM31.2134 41.7552L31.9212 39.6173H31.9506H31.9654V39.6468H31.9506H31.9654V39.6173H31.9949L32.6879 41.7552H31.2134ZM32.7026 43.9079C33.0712 43.8931 33.4251 43.8784 33.7789 43.8784C34.118 43.8784 34.4424 43.8931 34.7668 43.9079V43.7604H34.752C34.5014 43.7604 34.3244 43.6572 34.236 43.4508C34.1475 43.2296 34.0443 42.9495 33.9706 42.6988L32.6141 38.8507C32.5846 38.7917 32.5699 38.7327 32.5552 38.6737C32.5552 38.6737 32.5552 38.6737 32.5404 38.6737H32.5257C32.5109 38.6737 32.4962 38.6737 32.4814 38.6885C32.334 38.7769 32.0391 38.9244 31.8327 38.9833C31.7885 39.2635 31.6558 39.6321 31.5526 39.8975L30.373 43.2739C30.2551 43.5982 30.0044 43.7752 29.7096 43.7752H29.6948V43.9226C29.9455 43.9079 30.1961 43.8931 30.4615 43.8931C30.7416 43.8931 31.0365 43.9079 31.3167 43.9226V43.7752H31.2724C31.0365 43.7752 30.6974 43.7457 30.6827 43.4803C30.6827 43.3328 30.7711 43.1412 30.8448 42.8905L30.8743 42.9053L30.8448 42.8905L31.0808 42.1091H32.7911L33.0859 42.979C33.1744 43.2149 33.2334 43.4066 33.2334 43.5245C33.2186 43.7457 32.909 43.7604 32.7468 43.7752H32.7026V43.9079ZM34.7962 43.9816C34.4719 43.9668 34.1328 43.9521 33.7789 43.9521C33.4251 43.9521 33.0565 43.9668 32.6731 43.9816H32.6436V43.9521V43.7014H32.6731H32.7468C32.9238 43.7014 33.1744 43.6572 33.1744 43.5245C33.1744 43.436 33.1154 43.2444 33.027 43.0085L32.7468 42.1828H31.125L30.8891 42.92C30.8154 43.1706 30.7269 43.3623 30.7269 43.4803C30.7269 43.6572 31.007 43.7014 31.2429 43.7014H31.3609V43.7309V43.9816H31.3314C31.0365 43.9668 30.7416 43.9521 30.4468 43.9521C30.1814 43.9521 29.916 43.9668 29.6506 43.9816H29.6211V43.9521V43.7014H29.6506H29.6948C29.975 43.7014 30.1961 43.5393 30.2993 43.2444L31.4788 39.868C31.582 39.6026 31.7147 39.234 31.7737 38.9391C32.0096 38.8654 32.3045 38.718 32.4372 38.6295C32.4519 38.6295 32.4814 38.6147 32.5109 38.6147C32.5257 38.6147 32.5699 38.6147 32.5994 38.659C32.6141 38.718 32.6436 38.7917 32.6731 38.8507L34.0296 42.6988C34.118 42.9495 34.2065 43.2296 34.2949 43.4508C34.3834 43.6425 34.5161 43.7309 34.752 43.7309H34.8257V43.7604V44.0111L34.7962 43.9816Z" fill="#0069AA"/>
<path d="M35.1201 39.1896C34.5746 39.1896 34.5451 39.3223 34.4419 39.8531H34.2207C34.2502 39.6467 34.2944 39.4403 34.3092 39.2338C34.3387 39.0274 34.3534 38.821 34.3534 38.6146H34.5303C34.5893 38.8358 34.7662 38.821 34.9726 38.821H38.7619C38.9535 38.821 39.1452 38.821 39.16 38.5999L39.3369 38.6293C39.3074 38.821 39.2779 39.0274 39.2632 39.2191C39.2484 39.4108 39.2484 39.6172 39.2484 39.8089L39.0273 39.8973C39.0125 39.6319 38.983 39.1896 38.4817 39.1896H37.2727V43.0968C37.2727 43.6571 37.5234 43.7308 37.8772 43.7308H38.0099V43.9519C37.7298 43.9519 37.2137 43.9224 36.8157 43.9224C36.3733 43.9224 35.8573 43.9519 35.5772 43.9519V43.7308H35.7099C36.1079 43.7308 36.3144 43.7013 36.3144 43.1115V39.1896H35.1201Z" fill="#0069AA"/>
<path d="M38.0102 43.9816C37.7153 43.9816 37.214 43.9521 36.8159 43.9521C36.3736 43.9521 35.8576 43.9816 35.5774 43.9816H35.548V43.9521V43.7014H35.5774H35.7101C36.1082 43.6867 36.2704 43.6867 36.2852 43.1117V39.2193H35.1204V39.1898V39.1603H36.3589V43.1117C36.3589 43.7014 36.123 43.7604 35.7101 43.7604H35.6069V43.9226C35.9018 43.9226 36.3884 43.8931 36.8159 43.8931C37.1993 43.8931 37.6858 43.9226 37.9807 43.9226V43.7604H37.8775C37.5237 43.7604 37.2435 43.6719 37.2435 43.0969V39.1603H38.482C38.9686 39.1603 39.0423 39.5879 39.057 39.8532L39.2192 39.7943C39.2192 39.6026 39.2192 39.4109 39.234 39.2193C39.2487 39.0276 39.2782 38.8359 39.3077 38.659L39.1897 38.6442C39.1602 38.8506 38.9538 38.8654 38.7622 38.8654H34.9729H34.9287C34.7518 38.8654 34.5748 38.8506 34.5011 38.6442H34.3832C34.3832 38.8506 34.3684 39.0423 34.3389 39.2487C34.3242 39.4552 34.28 39.6468 34.2505 39.8385H34.4127C34.5159 39.3225 34.5748 39.1603 35.1204 39.175V39.2045V39.234C34.5748 39.2487 34.5896 39.3372 34.4716 39.8827V39.9122H34.4421H34.1768V39.8827C34.2062 39.6763 34.2505 39.4699 34.2652 39.2635C34.2947 39.0571 34.3095 38.8506 34.3095 38.6442V38.6147H34.3389H34.5454V38.6442C34.5896 38.8359 34.737 38.8359 34.914 38.8359C34.9287 38.8359 34.9434 38.8359 34.9582 38.8359H38.7474C38.9538 38.8359 39.1013 38.8359 39.116 38.6442V38.6147H39.1455L39.3519 38.6442V38.6737C39.3224 38.8654 39.2929 39.0718 39.2782 39.2635C39.2634 39.4552 39.2634 39.6616 39.2634 39.8532V39.8827L39.2487 39.8975L38.9833 39.9859V39.9417C38.9686 39.6616 38.9391 39.2635 38.4673 39.2635H37.2877V43.1412C37.3025 43.7014 37.5089 43.7309 37.8628 43.7457H38.0397V43.7752V44.0258H38.0102V43.9816Z" fill="#0069AA"/>
<path d="M39.6025 43.7307H39.7057C39.9711 43.7307 40.2513 43.7012 40.2513 43.3179V39.4697C40.2513 39.0863 39.9711 39.0569 39.7057 39.0569H39.6025V38.8357C39.8827 38.8357 40.325 38.8652 40.6936 38.8652C41.0622 38.8652 41.5045 38.8357 41.8436 38.8357V39.0569H41.7404C41.475 39.0569 41.1949 39.0863 41.1949 39.4697V43.3179C41.1949 43.7012 41.475 43.7307 41.7404 43.7307H41.8436V43.9519C41.4898 43.9519 41.0475 43.9224 40.6789 43.9224C40.325 43.9224 39.8827 43.9519 39.6025 43.9519V43.7307Z" fill="#0069AA"/>
<path d="M41.8143 43.9077V43.7602H41.7406C41.4752 43.7602 41.1656 43.716 41.1656 43.3032V39.455C41.1656 39.0422 41.4752 38.9979 41.7406 38.9979H41.8143V38.8357C41.4752 38.8357 41.0476 38.8652 40.6938 38.8652C40.3399 38.8652 39.9271 38.8357 39.6322 38.8357V38.9979H39.7059C39.9713 38.9979 40.281 39.0422 40.281 39.455V43.3032C40.281 43.716 39.9713 43.7602 39.7059 43.7602H39.6322V43.9224C39.9124 43.9224 40.3252 43.8929 40.679 43.8929C41.0329 43.8929 41.4605 43.9077 41.8143 43.9077ZM41.8438 43.9814C41.49 43.9814 41.0476 43.9519 40.679 43.9519C40.3252 43.9519 39.8829 43.9814 39.6027 43.9814H39.5732V43.9519V43.7308V43.7013H39.6027H39.7059C39.9713 43.7013 40.222 43.6718 40.222 43.3179V39.4697C40.222 39.1159 39.9713 39.0864 39.7059 39.0864H39.5732V39.0422V38.7915H39.6027C39.8976 38.7915 40.3252 38.821 40.6938 38.821C41.0624 38.821 41.5047 38.7915 41.8438 38.7915H41.8733V38.821V39.0716H41.8438H41.7406C41.4752 39.0716 41.2246 39.1011 41.2246 39.455V43.3032C41.2246 43.657 41.4752 43.6865 41.7406 43.6865H41.8733V43.716V43.9667H41.8438V43.9814Z" fill="#0069AA"/>
<path d="M44.8816 43.7308C46.3118 43.7308 46.5624 42.4776 46.5624 41.4013C46.5624 40.325 45.9874 39.0275 44.7636 39.0275C43.4809 39.0275 43.0976 40.1775 43.0976 41.1654C43.0976 42.4776 43.6873 43.7308 44.8816 43.7308ZM44.7784 38.7031C46.3412 38.7031 47.5945 39.6762 47.5945 41.2391C47.5945 42.9347 46.3855 44.0552 44.8226 44.0552C43.2597 44.0552 42.0802 42.9936 42.0802 41.416C42.0655 39.8826 43.245 38.7031 44.7784 38.7031Z" fill="#0069AA"/>
<path d="M43.0525 41.1653C43.0525 40.1775 43.4358 38.998 44.7481 38.998C46.0013 38.998 46.5763 40.3249 46.5763 41.4012C46.5763 42.4775 46.3257 43.7603 44.866 43.7603V43.7308V43.7013C46.2667 43.7013 46.5026 42.4775 46.5026 41.4012C46.5026 40.3397 45.9276 39.0569 44.7333 39.0569C43.4653 39.0569 43.0967 40.1775 43.0967 41.1506C43.0967 42.4628 43.7012 43.6866 44.866 43.6866V43.716V43.7455C43.657 43.7603 43.0672 42.4775 43.0525 41.1653ZM42.0352 41.416C42.0352 39.8679 43.2294 38.6736 44.7775 38.6736V38.7031V38.7326C43.2589 38.7326 42.0941 39.8973 42.0941 41.416C42.0941 42.9788 43.2737 44.0257 44.807 44.0257C46.3552 44.0257 47.5494 42.9199 47.5494 41.239C47.5494 39.6909 46.3257 38.7326 44.7628 38.7326V38.7031V38.6736C46.3404 38.6736 47.6084 39.6614 47.6084 41.239C47.6084 42.9494 46.3846 44.0846 44.7923 44.0846C43.2442 44.0846 42.0352 43.0231 42.0352 41.416Z" fill="#0069AA"/>
<path d="M52.5476 42.4924L52.5623 42.4777V39.7205C52.5623 39.116 52.1347 39.0276 51.9283 39.0276H51.7661V38.8064C52.1053 38.8064 52.4444 38.8359 52.7982 38.8359C53.1079 38.8359 53.4027 38.8064 53.6976 38.8064V39.0276H53.5797C53.27 39.0276 52.9309 39.0865 52.9309 39.9564V43.3181C52.9309 43.5687 52.9309 43.8341 52.9751 44.0553H52.695L48.9058 39.8385V42.861C48.9058 43.495 49.0238 43.7162 49.5988 43.7162H49.7167V43.9373C49.4071 43.9373 49.0827 43.9078 48.7731 43.9078C48.4487 43.9078 48.1096 43.9373 47.7705 43.9373V43.7162H47.8737C48.375 43.7162 48.5372 43.377 48.5372 42.7873V39.691C48.5372 39.2782 48.1981 39.0276 47.8737 39.0276H47.7705V38.8064C48.0506 38.8064 48.3308 38.8359 48.6109 38.8359C48.8321 38.8359 49.0385 38.8064 49.2597 38.8064L52.5476 42.4924Z" fill="#0069AA"/>
<path d="M52.5478 42.4923L52.5773 42.4775L52.5478 42.4923ZM52.6952 44.0256H52.9311C52.9016 43.8045 52.8869 43.5538 52.8869 43.3179V39.971C52.8869 39.0864 53.2555 39.0127 53.5651 39.0127H53.6388V38.8505C53.3439 38.8505 53.0638 38.88 52.7689 38.88C52.4298 38.88 52.1054 38.8505 51.7663 38.8505V39.0127H51.899C52.1202 39.0127 52.5773 39.1159 52.5773 39.7351L52.5625 42.507L52.5478 42.5217L52.5183 42.5512L49.2746 38.8505C49.0534 38.8505 48.847 38.88 48.6259 38.88C48.3605 38.88 48.0803 38.8505 47.8149 38.8505V39.0127H47.8739C48.213 39.0127 48.5669 39.2781 48.5669 39.7056V42.8019C48.5669 43.3916 48.4047 43.7602 47.8739 43.775H47.8002V43.9372C48.1246 43.9372 48.4489 43.9077 48.7733 43.9077C49.0829 43.9077 49.3778 43.9372 49.6874 43.9372V43.7897H49.599C49.0239 43.7897 48.8765 43.5391 48.8765 42.8903V39.7794L52.6952 44.0256ZM52.9753 44.0846L52.6657 44.0699L48.9355 39.9268V42.8756C48.9502 43.5096 49.0387 43.7013 49.599 43.7013H49.7611V43.7308V43.9814H49.7169C49.3925 43.9814 49.0829 43.9519 48.7733 43.9519C48.4489 43.9519 48.1098 43.9814 47.7707 43.9814H47.7412V43.9519V43.7013H47.7707H47.8739C48.3605 43.7013 48.4932 43.3916 48.5079 42.8019V39.7056C48.5079 39.3075 48.1835 39.0716 47.8739 39.0716H47.7412V39.0422V38.7915H47.7707C48.0508 38.7915 48.3457 38.821 48.6111 38.821C48.8323 38.821 49.0387 38.7915 49.2893 38.8062L52.5183 42.4333V39.7351C52.5183 39.1454 52.1202 39.0864 51.9138 39.0716H51.7221V39.0422V38.7915H51.7516C52.0907 38.7915 52.4298 38.821 52.7837 38.821C53.0785 38.821 53.3882 38.7915 53.6831 38.7915H53.7125V38.821V39.0716H53.6831H53.5651C53.2702 39.0864 52.9459 39.1011 52.9459 39.971V43.3179C52.9459 43.5686 52.9459 43.834 52.9901 44.0551V44.0846H52.9753Z" fill="#0069AA"/>
<path d="M55.9386 39.632H55.9238L55.2456 41.7109H56.6168L55.9386 39.632ZM54.877 42.8904C54.8033 43.1411 54.7148 43.3327 54.7148 43.4654C54.7148 43.6866 55.0244 43.7161 55.2603 43.7161H55.3488V43.9372C55.0539 43.9225 54.759 43.9078 54.4641 43.9078C54.1988 43.9078 53.9334 43.9225 53.668 43.9372V43.7161H53.7122C54.0071 43.7161 54.243 43.5539 54.3462 43.2443L55.5257 39.8679C55.6142 39.6025 55.7469 39.2339 55.7911 38.9538C56.027 38.88 56.3219 38.7326 56.4546 38.6441C56.4693 38.6294 56.4841 38.6294 56.5136 38.6294C56.5283 38.6294 56.5431 38.6294 56.5578 38.6589C56.5873 38.7179 56.602 38.7768 56.6315 38.8358L57.988 42.684C58.0764 42.9347 58.1649 43.2148 58.2534 43.4359C58.3418 43.6424 58.4893 43.7308 58.7399 43.7308H58.7841V43.952C58.4598 43.9372 58.1207 43.9225 57.7668 43.9225C57.413 43.9225 57.0443 43.9372 56.661 43.952V43.7308H56.7347C56.8969 43.7308 57.1918 43.7013 57.1918 43.5244C57.1918 43.4359 57.1181 43.2295 57.0444 42.9936L56.7642 42.1385H55.0981L54.877 42.8904Z" fill="#0069AA"/>
<path d="M55.9093 39.6468H55.9241H55.9093ZM55.2901 41.6815H56.5728L55.9388 39.7058L55.2901 41.6815ZM55.2016 41.7552L55.9093 39.6173H55.9388H55.9536V39.6468H55.9388H55.9536V39.6173H55.9831L56.676 41.7552H55.2016ZM56.7055 43.9079C57.0741 43.8931 57.428 43.8784 57.7818 43.8784C58.121 43.8784 58.4453 43.8931 58.7697 43.9079V43.7604H58.7549C58.5043 43.7604 58.3274 43.6572 58.2389 43.4508C58.1357 43.2296 58.0472 42.9495 57.9735 42.6988L56.6171 38.8507C56.6023 38.7917 56.5728 38.7327 56.5581 38.6737C56.5581 38.659 56.5581 38.659 56.5433 38.659H56.5286C56.5139 38.659 56.4991 38.659 56.4844 38.6737C56.3369 38.7622 56.042 38.9096 55.8356 38.9686C55.7914 39.2487 55.6587 39.6173 55.5555 39.8827L54.376 43.2591C54.258 43.5835 54.0074 43.7604 53.7125 43.7604H53.6977V43.9079C53.9484 43.8931 54.199 43.8784 54.4644 43.8784C54.7446 43.8784 55.0395 43.8931 55.3196 43.9079V43.7604H55.2754C55.0395 43.7604 54.7003 43.7309 54.6856 43.4655C54.6856 43.3181 54.7741 43.1264 54.8478 42.8905L54.8773 42.9053L54.8478 42.8905L55.0837 42.1091H56.794L57.0889 42.979C57.1773 43.2149 57.2363 43.4066 57.2363 43.5245C57.2216 43.7457 56.9119 43.7604 56.7498 43.7752H56.7055V43.9079ZM58.7844 43.9816C58.4601 43.9668 58.1209 43.9521 57.7671 43.9521C57.4132 43.9521 57.0446 43.9668 56.6613 43.9816H56.6318V43.9521V43.7014H56.6613H56.735C56.9119 43.7014 57.1626 43.6572 57.1626 43.5245C57.1626 43.436 57.1036 43.2444 57.0152 43.0085L56.735 42.1828H55.1132L54.892 42.92C54.8183 43.1706 54.7298 43.3623 54.7298 43.4803C54.7298 43.6572 55.01 43.7014 55.2459 43.7014H55.3638V43.7309V43.9816H55.3343C55.0394 43.9668 54.7446 43.9521 54.4497 43.9521C54.1843 43.9521 53.9189 43.9668 53.6535 43.9816H53.624V43.9521V43.7014H53.6535H53.6977C53.9779 43.7014 54.199 43.5393 54.3022 43.2444L55.4818 39.868C55.5702 39.6026 55.7029 39.234 55.7766 38.9391C56.0126 38.8654 56.3074 38.718 56.4401 38.6295C56.4549 38.6295 56.4844 38.6147 56.5138 38.6147C56.5286 38.6147 56.5728 38.6147 56.5876 38.659C56.6023 38.718 56.6318 38.7769 56.6613 38.8359L58.0177 42.6841C58.1062 42.9347 58.1947 43.2149 58.2831 43.436C58.3716 43.6277 58.5043 43.7014 58.7402 43.7162H58.8139V43.7457V43.9963L58.7844 43.9816Z" fill="#0069AA"/>
<path d="M60.6423 43.2294C60.6423 43.5243 60.8487 43.6128 61.0846 43.6422C61.3795 43.6717 61.7186 43.6717 62.0577 43.6275C62.3673 43.598 62.6327 43.4211 62.7654 43.2294C62.8833 43.0672 62.9423 42.8608 62.9866 42.6986H63.193C63.1193 43.1115 63.0013 43.5243 62.9276 43.9519C62.2788 43.9519 61.6301 43.9224 60.9814 43.9224C60.3326 43.9224 59.6839 43.9519 59.0352 43.9519V43.7307H59.1384C59.4038 43.7307 59.6839 43.7012 59.6839 43.2442V39.4697C59.6839 39.0863 59.4038 39.0569 59.1384 39.0569H59.0352V38.8357C59.4185 38.8357 59.8018 38.8652 60.1999 38.8652C60.5685 38.8652 60.9371 38.8357 61.3205 38.8357V39.0569H61.1288C60.8487 39.0569 60.6275 39.0716 60.6275 39.4549V43.2294H60.6423Z" fill="#0069AA"/>
<path d="M62.8983 43.9077C62.9868 43.5096 63.0752 43.1263 63.1637 42.7282H63.0162C62.972 42.8903 62.8983 43.082 62.7951 43.2442C62.6624 43.4359 62.3822 43.6128 62.0726 43.657C61.8809 43.6718 61.6893 43.6865 61.5123 43.6865C61.3649 43.6865 61.2322 43.6865 61.0995 43.6718C60.8636 43.6423 60.6277 43.5391 60.6277 43.2295V39.4402C60.6277 39.0274 60.8931 39.0127 61.1585 39.0127H61.3059V38.8505C60.9373 38.8505 60.5835 38.88 60.2149 38.88C59.8315 38.88 59.4629 38.8505 59.0796 38.8505V39.0127H59.1533C59.4187 39.0127 59.7431 39.0569 59.7431 39.4697V43.2442C59.7431 43.716 59.4187 43.775 59.1533 43.775H59.0796V43.9372C59.7136 43.9372 60.3476 43.9077 60.9963 43.9077C61.6303 43.8929 62.2643 43.9077 62.8983 43.9077ZM62.9278 43.9814C62.279 43.9814 61.6303 43.9519 60.9816 43.9519C60.3328 43.9519 59.6841 43.9814 59.0353 43.9814H59.0059V43.9519V43.7013H59.0353H59.1386C59.404 43.7013 59.6546 43.6718 59.6546 43.2442V39.4697C59.6546 39.1159 59.404 39.0864 59.1386 39.0864H59.0059V39.0422V38.7915H59.0353C59.4334 38.7915 59.8168 38.821 60.2001 38.821C60.5687 38.821 60.9373 38.7915 61.3207 38.7915H61.3502V38.821V39.0716H61.3207H61.129C60.8489 39.0864 60.6719 39.0716 60.6572 39.4402V43.2295C60.6572 43.5096 60.8341 43.5833 61.07 43.6128C61.2027 43.6275 61.3354 43.6275 61.4829 43.6275C61.6598 43.6275 61.8515 43.6128 62.0431 43.5981C62.338 43.5686 62.6034 43.3916 62.7214 43.2147C62.8393 43.0525 62.8983 42.8609 62.9425 42.6987V42.6692H62.972H63.2226V42.7134C63.1342 43.141 63.0457 43.5391 62.9425 43.9667V43.9961H62.9278V43.9814Z" fill="#0069AA"/>
<path d="M62.9867 39.3813H63.0752C63.1784 39.3813 63.2226 39.3076 63.2226 39.1896C63.2226 39.0717 63.1489 39.0274 63.0752 39.0274H62.9867V39.3813ZM62.7213 39.7941V39.7499C62.8098 39.7351 62.8393 39.7351 62.8393 39.6762V39.1011C62.8393 39.0274 62.8245 38.9979 62.7361 38.9979V38.9537H63.1342C63.2669 38.9537 63.3996 39.0127 63.3996 39.1601C63.3996 39.2781 63.3258 39.3665 63.2226 39.396L63.3553 39.573C63.4143 39.6467 63.488 39.7351 63.5323 39.7499V39.7794H63.3848C63.3111 39.7794 63.2521 39.6319 63.1047 39.4255H62.9867V39.6762C62.9867 39.7204 63.0015 39.7204 63.1047 39.7351V39.7794H62.7213V39.7941ZM63.1047 40.0153C63.4585 40.0153 63.7239 39.7204 63.7239 39.3813C63.7239 39.0422 63.4585 38.7473 63.1047 38.7473C62.7508 38.7473 62.4854 39.0422 62.4854 39.3813C62.5002 39.7204 62.7656 40.0153 63.1047 40.0153ZM63.1047 38.5999C63.547 38.5999 63.8714 38.939 63.8714 39.3813C63.8714 39.8089 63.547 40.148 63.1047 40.148C62.6624 40.148 62.3232 39.8089 62.3232 39.3813C62.338 38.9537 62.6624 38.5999 63.1047 38.5999Z" fill="#0069AA"/>
</svg>
