<svg width="50" height="39" fill="none" xmlns="http://www.w3.org/2000/svg"><path d="M8.535 34.782a1.557 1.557 0 00-1.154-.45 2.13 2.13 0 00-.38.035 1.539 1.539 0 00-.392.115 1.73 1.73 0 00-.37.22c-.115.092-.219.219-.3.357a1.437 1.437 0 00-.553-.53 1.672 1.672 0 00-.807-.197c-.104 0-.208.012-.312.024-.103.023-.219.046-.322.092a1.471 1.471 0 00-.312.184c-.092.081-.184.173-.265.3v-.496h-.865v4.071h.865v-2.26c0-.173.023-.323.08-.461a.99.99 0 01.22-.335.864.864 0 01.323-.207c.127-.047.253-.07.392-.07.288 0 .519.093.68.277.162.185.242.45.242.796v2.272h.865v-2.26c0-.173.023-.323.081-.462a.992.992 0 01.22-.334.867.867 0 01.322-.208c.127-.046.254-.07.392-.07.289 0 .52.093.68.278.162.184.243.45.243.795v2.272h.865v-2.56c0-.242-.035-.461-.116-.657a1.29 1.29 0 00-.322-.53zM13.09 34.921a1.64 1.64 0 00-.53-.438 1.673 1.673 0 00-.75-.162c-.289 0-.554.058-.796.162a1.92 1.92 0 00-.646.45 1.975 1.975 0 00-.438.68 2.355 2.355 0 00-.161.865c0 .311.057.6.161.865.104.265.254.484.438.68.185.185.404.335.646.45.242.104.52.162.796.162.288 0 .542-.058.75-.162.207-.104.38-.254.53-.438v.484h.888v-4.07h-.888v.472zm-.035 2.064c-.057.162-.138.3-.253.416a1.206 1.206 0 01-.9.38 1.157 1.157 0 01-1.142-.796 1.462 1.462 0 01-.08-.507c0-.173.023-.346.08-.508a1.157 1.157 0 011.142-.796c.185 0 .346.035.508.105.15.069.276.161.392.276.103.116.196.254.253.416.058.16.093.334.093.518 0 .185-.035.346-.093.496zM18.072 36.466c-.254-.196-.6-.323-1.038-.392l-.427-.07c-.092-.01-.184-.034-.265-.045a2.184 2.184 0 01-.208-.07.462.462 0 01-.138-.115.283.283 0 01-.058-.173c0-.15.07-.265.208-.346.138-.092.323-.138.565-.138.127 0 .254.012.38.035a2.558 2.558 0 01.646.196c.093.046.173.08.23.115l.382-.692a2.33 2.33 0 00-.75-.311 3.341 3.341 0 00-.911-.116c-.265 0-.496.035-.704.093a1.53 1.53 0 00-.53.265 1.16 1.16 0 00-.335.415c-.08.161-.115.346-.115.542 0 .334.115.6.346.796.23.207.577.334 1.026.403l.427.058c.242.035.427.092.53.162.116.08.174.172.174.288 0 .15-.081.277-.231.369-.162.092-.392.138-.692.138-.173 0-.311-.011-.45-.034a2.675 2.675 0 01-.357-.093 1.661 1.661 0 01-.289-.127c-.092-.046-.161-.103-.242-.16l-.415.668c.15.115.3.196.461.265.162.07.323.127.473.162.162.034.3.069.438.08.139.012.266.023.37.023.288 0 .553-.034.784-.092.23-.069.426-.161.588-.277.161-.115.277-.253.357-.426.081-.173.127-.346.127-.542.012-.392-.103-.658-.357-.854zM26.399 34.92a1.8 1.8 0 00-.611-.438 1.94 1.94 0 00-.785-.15c-.3 0-.576.047-.818.15a1.942 1.942 0 00-.646.439 1.775 1.775 0 00-.415.68c-.104.265-.15.554-.15.877 0 .322.046.622.15.876.103.265.242.485.426.68.185.185.404.335.658.439.253.104.53.15.841.15.312 0 .6-.046.889-.127.276-.08.542-.23.795-.45l-.438-.634a1.808 1.808 0 01-.565.311c-.208.08-.415.116-.611.116a1.57 1.57 0 01-.416-.058.96.96 0 01-.357-.185 1.28 1.28 0 01-.277-.323 1.344 1.344 0 01-.161-.473h3.01c0-.046.011-.103.011-.16v-.174c0-.323-.046-.611-.138-.865a1.884 1.884 0 00-.392-.68zm-2.491 1.2c.023-.15.057-.288.115-.404.058-.126.127-.23.22-.322a.867.867 0 01.322-.208c.127-.046.265-.07.427-.07.288 0 .519.093.692.266.184.173.288.427.346.738h-2.122zM38.219 34.921a1.64 1.64 0 00-.53-.438 1.673 1.673 0 00-.75-.162c-.289 0-.554.058-.796.162a1.92 1.92 0 00-.646.45 1.976 1.976 0 00-.438.68 2.354 2.354 0 00-.161.865c0 .311.057.6.16.865.105.265.255.484.44.68.184.185.403.335.645.45.242.104.519.162.796.162.288 0 .542-.058.75-.162.207-.104.38-.254.53-.438v.484h.888v-4.07h-.888v.472zm-.035 2.064c-.057.162-.138.3-.253.416a1.206 1.206 0 01-.9.38 1.158 1.158 0 01-1.142-.796 1.462 1.462 0 01-.08-.507c0-.173.023-.346.08-.508a1.158 1.158 0 011.142-.796 1.21 1.21 0 011.153.797c.058.16.093.334.093.518 0 .185-.035.346-.093.496zM21.89 37.7a1.12 1.12 0 01-.427.081.62.62 0 01-.254-.046.415.415 0 01-.207-.138.647.647 0 01-.139-.231 1.005 1.005 0 01-.046-.346v-1.776h1.43v-.807h-1.43v-1.234h-.9v1.234h-.807v.807h.808v1.788c0 .542.127.945.38 1.199.254.254.612.38 1.084.38.254 0 .485-.034.692-.115.139-.058.265-.115.38-.173l-.299-.75c-.08.047-.173.093-.265.127zM29.916 34.321a1.63 1.63 0 00-.68.139c-.196.092-.37.311-.508.507v-.53h-.807v4.07h.819V36.27c0-.173.023-.323.069-.461.046-.138.115-.254.196-.346a.742.742 0 01.311-.208c.116-.046.254-.069.393-.069.103 0 .219.012.345.035.07.011.127.034.173.046l.266-.854c-.07-.022-.139-.046-.22-.057a1.632 1.632 0 00-.357-.035zM42.278 34.321a1.63 1.63 0 00-.68.139c-.196.092-.37.311-.508.507v-.53h-.807v4.07h.819V36.27c0-.173.023-.323.07-.461.045-.138.114-.254.195-.346a.742.742 0 01.312-.208c.115-.046.253-.069.392-.069.104 0 .219.012.346.035.069.011.127.034.173.046l.265-.854c-.07-.022-.138-.046-.22-.057a1.632 1.632 0 00-.357-.035zM46.43 32.776v2.145a1.637 1.637 0 00-.53-.438 1.672 1.672 0 00-.75-.162c-.288 0-.553.058-.795.162a1.92 1.92 0 00-.646.45 1.976 1.976 0 00-.438.68 2.355 2.355 0 00-.162.865c0 .311.058.6.162.865.104.265.254.484.438.68.185.185.404.335.646.45.242.104.519.162.796.162.288 0 .542-.058.75-.162.207-.104.38-.254.53-.438v.484h.888v-5.732h-.888v-.011zm-.034 4.21a1.207 1.207 0 01-1.153.796c-.196 0-.37-.036-.519-.105a1.157 1.157 0 01-.623-.692 1.462 1.462 0 01-.08-.507c0-.173.023-.346.08-.508a1.156 1.156 0 011.142-.796c.184 0 .346.035.507.105.15.069.277.16.392.276.104.116.197.254.254.415.058.162.093.335.093.52 0 .184-.035.345-.093.495zM32.038 35.532a1.241 1.241 0 01.911-.358c.196 0 .38.035.553.093.162.057.312.15.427.253l.427-.715a2.284 2.284 0 00-.542-.311 2.417 2.417 0 00-.877-.161c-.311 0-.61.057-.876.161a2.172 2.172 0 00-.692.45 2.084 2.084 0 00-.623 1.534c0 .311.058.588.162.853.115.265.265.484.46.68.197.197.428.346.693.45.265.104.565.162.876.162.312 0 .611-.058.877-.162.196-.08.38-.184.542-.311l-.427-.715a1.44 1.44 0 01-.427.253 1.47 1.47 0 01-.553.093c-.185 0-.346-.035-.508-.093a1.228 1.228 0 01-.403-.265 1.115 1.115 0 01-.265-.415 1.317 1.317 0 01-.093-.53c0-.197.035-.37.093-.53.069-.162.161-.3.265-.416zM49.199 37.908c.058 0 .115.011.161.035a.48.48 0 01.139.092c.034.034.069.08.092.127a.368.368 0 01.035.161.368.368 0 01-.035.162c-.023.046-.058.092-.092.138a.413.413 0 01-.139.092.368.368 0 01-.161.035.462.462 0 01-.173-.035.415.415 0 01-.23-.23.408.408 0 01-.035-.162.37.37 0 01.034-.161.512.512 0 01.093-.127.413.413 0 01.138-.092.42.42 0 01.173-.035zm0 .715a.34.34 0 00.115-.023.18.18 0 00.093-.07.25.25 0 00.057-.092.408.408 0 00.023-.115.34.34 0 00-.023-.115.252.252 0 00-.057-.093.65.65 0 00-.093-.069.41.41 0 00-.115-.023.342.342 0 00-.115.023.18.18 0 00-.093.07c-.023.023-.046.057-.069.092a.41.41 0 00-.023.115c0 .046.012.08.023.115.012.035.035.07.07.093a.635.635 0 00.092.069c.034.023.069.023.115.023zm.023-.484c.046 0 .092.011.115.034a.131.131 0 01.035.093c0 .034-.012.057-.023.069a.105.105 0 01-.08.034l.114.127h-.126l-.104-.127h-.012v.127h-.103v-.369h.184v.012zm-.08.092v.07h.08c.012 0 .023 0 .035-.013.011 0 .011-.011.011-.022 0-.012 0-.024-.011-.024-.012 0-.023-.011-.035-.011h-.08z" fill="#000"/><path d="M19.052 15.373c0-4.878 2.284-9.238 5.835-12.052A15.284 15.284 0 0015.361 0C6.873 0 0 6.873 0 15.361c0 8.489 6.873 15.362 15.361 15.362 3.599 0 6.909-1.245 9.526-3.321a15.256 15.256 0 01-5.835-12.029z" fill="#E30D17"/><path d="M24.887 27.425c3.223 0 5.836-5.396 5.836-12.052S28.11 3.322 24.887 3.322c-3.223 0-5.835 5.395-5.835 12.051 0 6.656 2.612 12.052 5.835 12.052z" fill="#EB610A"/><path d="M48.737 23.688v-.45h-.184v-.126h.496v.126h-.185v.45h-.127zm.969 0v-.392l-.127.346h-.138l-.127-.346v.392h-.139v-.576h.197l.138.369.138-.37h.196v.577h-.138zM34.414.011a15.284 15.284 0 00-9.526 3.322c3.552 2.814 5.835 7.162 5.835 12.052s-2.283 9.237-5.835 12.051a15.284 15.284 0 009.526 3.322c8.488 0 15.361-6.874 15.361-15.362S42.902.011 34.414.011z" fill="#F69F00"/></svg>