<svg width="85" height="39" fill="none" xmlns="http://www.w3.org/2000/svg"><path fill-rule="evenodd" clip-rule="evenodd" d="M5.744.645h4.05v37.431h-4.05V.645zM11.046.645h1.252v37.431h-1.252V.645zM13.402.645h2.21v37.431h-2.21V.645zM17.748.645H19v37.431h-1.252V.645zM19.515.645h.957v37.431h-.957V.645zM2.725.645h1.252v37.431H2.725V.645zM0 .645h2.21v37.431H0V.645zM27.1.645h4.05v37.431H27.1V.645zM32.402.645h1.252v37.431h-1.252V.645zM34.685.645h2.209v37.431h-2.21V.645zM39.103.645h1.179v37.431h-1.178V.645zM40.871.645h.957v37.431h-.957V.645zM24.081.645h1.252v37.431h-1.252V.645zM21.355.645h2.21v37.431h-2.21V.645zM43.375.645h2.21v37.431h-2.21V.645zM47.72.645h1.252v37.431H47.72V.645zM49.56.645h.958v37.431h-.958V.645zM54.054.645h1.252v37.431h-1.252V.645zM51.33.645h2.208v37.431H51.33V.645zM56.999.645h1.252v37.431h-1.252V.645zM58.766.645h.957v37.431h-.957V.645zM63.332.645h1.178v37.431h-1.178V.645zM60.534.645h2.283v37.431h-2.283V.645zM65.614.645h4.05v37.431h-4.05V.645zM70.917.645h1.252v37.431h-1.252V.645zM73.2.645h2.283v37.431H73.2V.645zM77.62.645h1.177v37.431H77.62V.645zM79.386.645h.957v37.431h-.957V.645zM81.89.645h2.209v37.431h-2.21V.645z" fill="#000"/><path fill-rule="evenodd" clip-rule="evenodd" d="M4.492 38.15h76.882V17.19H4.492V38.15z" fill="#fff"/><path d="M5.965 37.34V18.369h7.143c1.473 0 2.651.22 3.535.588.884.368 1.546.956 2.062 1.765a4.49 4.49 0 01.736 2.5c0 .81-.22 1.544-.662 2.28-.442.735-1.105 1.324-1.989 1.765 1.178.368 2.062.882 2.651 1.691.59.81.958 1.765.958 2.868 0 .883-.221 1.692-.59 2.5-.368.736-.81 1.324-1.399 1.765-.589.442-1.252.736-2.062.956-.81.221-1.84.295-3.093.295h-7.29zm2.504-10.957h4.124c1.104 0 1.914-.073 2.43-.22.662-.22 1.104-.515 1.473-.956.294-.442.515-1.03.515-1.692a3.22 3.22 0 00-.442-1.691c-.294-.515-.736-.809-1.325-.956-.59-.147-1.547-.294-2.872-.294h-3.83v5.81H8.47zm0 8.751h4.713c.81 0 1.399 0 1.694-.073.589-.074 1.03-.294 1.472-.515.442-.22.737-.588.958-1.03a3.74 3.74 0 00.368-1.617c0-.736-.147-1.324-.516-1.839-.368-.514-.883-.882-1.546-1.103-.663-.22-1.547-.294-2.799-.294H8.395v6.471h.074zM22.608 30.501c0-2.573.737-4.412 2.136-5.662 1.178-1.03 2.651-1.544 4.345-1.544 1.915 0 3.461.588 4.64 1.838 1.178 1.25 1.767 2.942 1.767 5.148 0 1.765-.295 3.162-.81 4.191-.516 1.03-1.326 1.765-2.357 2.354-1.03.588-2.136.809-3.314.809-1.915 0-3.46-.589-4.713-1.839-1.104-1.25-1.694-3.015-1.694-5.295zm2.43 0c0 1.765.369 3.089 1.179 3.971.81.883 1.767 1.324 2.946 1.324 1.178 0 2.135-.441 2.872-1.324.736-.882 1.178-2.206 1.178-4.044 0-1.692-.368-3.015-1.178-3.824-.81-.883-1.768-1.324-2.872-1.324-1.179 0-2.136.441-2.946 1.324-.81.809-1.178 2.133-1.178 3.897zM38.22 37.34V18.369h2.356V37.34H38.22zM53.61 32.928l2.431.294c-.368 1.398-1.105 2.5-2.136 3.236-1.03.809-2.356 1.177-3.903 1.177-1.988 0-3.608-.589-4.786-1.839-1.179-1.25-1.768-2.941-1.768-5.221 0-2.28.59-4.118 1.768-5.368s2.724-1.912 4.64-1.912c1.84 0 3.313.588 4.491 1.912 1.178 1.25 1.768 3.015 1.768 5.294v.589h-10.31c.073 1.544.515 2.647 1.252 3.456.736.809 1.693 1.177 2.872 1.177.883 0 1.62-.221 2.209-.662.663-.441 1.105-1.177 1.473-2.133zm-7.658-3.75h7.659c-.074-1.177-.368-2.06-.884-2.574-.736-.883-1.694-1.324-2.872-1.324-1.105 0-1.988.368-2.725 1.103-.736.589-1.104 1.618-1.178 2.795zM64.068 35.282l.294 2.059c-.662.147-1.251.22-1.767.22-.81 0-1.473-.147-1.988-.367-.442-.294-.81-.589-.957-1.03-.221-.441-.295-1.324-.295-2.794v-7.942H57.66v-1.839h1.694v-3.383l2.356-1.397v4.78h2.357v1.838h-2.357v8.09c0 .662.074 1.103.148 1.323.073.221.22.368.368.442.22.147.442.147.81.147.22-.074.59-.074 1.031-.147zM65.468 30.501c0-2.573.736-4.412 2.135-5.662 1.179-1.03 2.651-1.544 4.345-1.544 1.915 0 3.461.588 4.64 1.838 1.178 1.25 1.767 2.942 1.767 5.148 0 1.765-.294 3.162-.81 4.191-.516 1.03-1.326 1.765-2.356 2.354-1.031.588-2.136.809-3.314.809-1.915 0-3.462-.589-4.713-1.839-1.105-1.25-1.694-3.015-1.694-5.295zm2.43 0c0 1.765.368 3.089 1.178 3.971.81.883 1.768 1.324 2.946 1.324 1.178 0 2.135-.441 2.872-1.324.736-.882 1.178-2.206 1.178-4.044 0-1.692-.368-3.015-1.178-3.824-.81-.883-1.768-1.324-2.872-1.324-1.178 0-2.136.441-2.946 1.324-.81.809-1.178 2.133-1.178 3.897z" fill="#000"/></svg>