<svg version="1.1" id="Camada_1" xmlns="http://www.w3.org/2000/svg" x="0" y="0" viewBox="0 0 55 31.3" xml:space="preserve"><style>.st3{fill:#fff}</style><path d="M0 0h55v31.3H0z"/><path d="M11.5 10.4c.5-.2 1-.2 1.6-.2 2.4 0 4.4 1.7 4.8 3.9l3.4-.7c-.8-3.8-4.1-6.7-8.2-6.7-.9 0-1.8.1-2.6.4l1 3.3z" fill="#fff200"/><path d="M7.5 21.3l2.3-2.6c-1-.9-1.7-2.2-1.7-3.7s.6-2.8 1.6-3.7L7.5 8.8c-1.7 1.5-2.8 3.8-2.8 6.2 0 2.6 1.1 4.8 2.8 6.3z" fill="#00a4e0"/><path d="M17.8 16.1c-.4 2.2-2.4 3.9-4.8 3.9-.5 0-1.1-.1-1.6-.2l-1 3.2c.8.3 1.7.4 2.6.4 4 0 7.4-2.9 8.2-6.7l-3.4-.6z" fill="#ef4123"/><path class="st3" d="M32.4 18.4c-.6.5-1.3.9-2.1.9-.6 0-1.1-.2-1.6-.5l-1.1 1.8c.8.5 1.7.8 2.6.8 1.4 0 2.7-.5 3.6-1.5l-1.4-1.5zM30.4 11.2c-2.8 0-5.1 2.2-5.2 5 0 1.1.3 2 .8 2.9l9.2-3.9c-.5-2.3-2.4-4-4.8-4zm-3.1 5.4v-.4c0-1.7 1.4-3 3-3 .9 0 1.7.4 2.2 1.1l-5.2 2.3zM38.1 8.9v9.8l1.7.7-.8 1.9-1.7-.7c-.4-.2-.6-.4-.8-.7-.2-.3-.3-.7-.3-1.2V8.9h1.9zM44.3 13.4c.3-.1.6-.1 1-.1 1.5 0 2.7 1 2.9 2.4l2.1-.4c-.5-2.3-2.5-4.1-5-4.1-.6 0-1.1.1-1.6.3l.6 1.9zM41.9 20.1l1.4-1.6c-.6-.5-1-1.4-1-2.2s.4-1.7 1-2.2l-1.4-1.6c-1.1.9-1.7 2.3-1.7 3.8s.6 2.8 1.7 3.8zM48.2 16.8c-.3 1.4-1.5 2.4-2.9 2.4-.3 0-.7 0-1-.2l-.7 2c.5.2 1.1.3 1.6.3 2.5 0 4.5-1.7 5-4.1l-2-.4z"/></svg>