<svg width="79" height="34" fill="none" xmlns="http://www.w3.org/2000/svg"><path fill-rule="evenodd" clip-rule="evenodd" d="M21.445 0h-8.093c-3.572.169-6.5 1.61-7.343 4.583-.445 1.549-.69 3.25-1.027 4.86C3.234 17.613 1.686 25.998 0 34h63.003c4.874 0 8.216-1.027 9.12-4.89.414-1.793.828-3.832 1.227-5.81 1.563-7.695 3.127-15.39 4.737-23.3H21.444z" fill="#981B1E"/><path fill-rule="evenodd" clip-rule="evenodd" d="M20.817 12.08c.337-.23.782-1.288.276-1.733-.154-.138-.43-.184-.797-.123-.338.062-.537.17-.675.353-.215.291-.414 1.18-.077 1.502.338.322 1.058.154 1.273 0zm-4.814-1.733c-.245 1.579-.52 3.112-.797 4.66-1.763.016-3.556.092-5.258-.046.322-1.502.552-3.112.874-4.614h-1.9c-.675 3.848-1.304 7.757-2.055 11.528H8.8c.306-1.932.582-3.894.98-5.718 1.656-.046 3.634-.108 5.213.046-.322 1.916-.72 3.755-1.027 5.687h1.931c.628-3.909 1.272-7.772 2.054-11.528h-1.947v-.015zm27.363 3.311c-1.502-.613-2.683.414-3.235 1.38.123-.43.169-.935.276-1.38h-1.502c-.368 2.851-.904 5.519-1.426 8.217h1.702c.245-1.595.337-3.756.874-5.289.429-1.226 1.533-2.269 3.111-1.701.016-.445.154-.798.2-1.227zm.95 6.285c-.153-.399-.199-1.073-.153-1.579.092-1.134.506-2.53 1.15-3.158.889-.873 2.636-.72 4.031-.23.046-.475.138-.889.2-1.349-2.285-.367-4.461-.138-5.611 1.073-1.119 1.18-1.87 3.894-1.349 5.611.613 1.993 3.342 2.115 5.564 1.349.092-.399.154-.843.23-1.257-1.21.598-3.525.92-4.062-.46zm19.054-6.239c-1.502-.751-2.744.506-3.234 1.257.138-.383.153-.904.276-1.303H58.91c-.399 2.82-.89 5.55-1.457 8.217h1.732c.016-1.089.23-1.901.399-2.959.368-2.284.89-4.783 3.556-4.032.092-.383.123-.827.23-1.18zm-44.285-.046c-.047 0-.047.062-.047.123-.367 2.79-.873 5.457-1.425 8.094h1.701c.414-2.821.874-5.58 1.457-8.217h-1.687zM34 13.505c-1.227.092-2.269.444-3.005 1.226-.904.95-1.64 3.05-1.425 4.982.306 2.729 3.71 2.637 6.438 1.978.046-.476.168-.89.23-1.35-1.12.415-3.066 1.012-4.231.277-.874-.552-.874-1.947-.598-3.158a96.21 96.21 0 015.565 0c.122-.859.444-1.794.153-2.652-.353-1.12-1.717-1.41-3.127-1.303zm1.625 3.004h-3.986c.123-.92.95-1.931 2.253-1.977 1.211-.046 2.1.444 1.733 1.977zm-8.048-2.85c-1.441-.537-3.189.106-3.94.72 0 .03-.015.03-.046.03.016-.015.03-.015.046-.03.016-.261.108-.445.123-.705h-1.456c-.613 4.046-1.334 7.986-2.085 11.88h1.67c.246-1.518.415-3.112.752-4.538.383 1.502 2.912 1.211 3.985.629 2.208-1.196 3.894-6.868.95-7.987zm-1.35 6.667c-.904.966-3.142.95-3.31-.674-.077-.705.184-1.441.322-2.177s.23-1.44.352-2.1c.89-1.088 3.526-1.226 3.787.598.23 1.594-.399 3.556-1.15 4.353zm43.474-10.224a34.126 34.126 0 01-.598 3.679c-4.17-1.319-6.714 1.747-6.668 5.534.016.735.138 1.456.598 1.977.782.89 3.05 1.104 4.185.353.215-.138.444-.414.598-.598.107-.138.291-.506.322-.399-.062.399-.154.767-.154 1.227h1.533c.292-4.262 1.211-7.895 1.901-11.758h-1.717v-.015zM65.9 20.97c-1.15.03-1.717-.69-1.733-1.855-.046-2.054.859-4.338 2.683-4.537.859-.092 1.472.107 2.1.322-.582 2.284-.368 6.009-3.05 6.07zm-14.64-7.312c-.076.475-.214.89-.322 1.35.997-.246 4.124-1.028 4.415.321.108.445-.076.92-.2 1.257-2.82-.26-5.119.2-5.717 2.207-.398 1.35.046 2.668.905 3.036 1.655.705 3.679-.108 4.384-1.227a5.301 5.301 0 00-.123 1.257h1.456c.016-1.395.215-2.53.43-3.786.184-1.073.52-2.13.475-3.081-.108-2.162-3.695-1.395-5.703-1.334zm2.76 6.638c-.874.858-3.327 1.103-3.082-.95.215-1.702 2.054-2.055 4.063-1.81-.138.92-.307 2.1-.981 2.76z" fill="#fff"/></svg>