<?xml version="1.0" encoding="utf-8"?>
<!-- Generator: Adobe Illustrator 24.2.3, SVG Export Plug-In . SVG Version: 6.00 Build 0)  -->
<svg version="1.1" id="Layer_1" xmlns="http://www.w3.org/2000/svg" xmlns:xlink="http://www.w3.org/1999/xlink" x="0px" y="0px"
	 viewBox="0 0 38 38" style="enable-background:new 0 0 38 38;" xml:space="preserve">
<style type="text/css">
	.st0{fill:#090909;}
	.st1{fill:#FFFFFF;}
	.st2{fill:#FFFFFF;stroke:#090909;stroke-miterlimit:10;}
</style>
<g>
	<path class="st1" d="M32.1,8.4c-3.3,0-6,2.7-6,6v8.5c0,4.2-3.4,7.7-7.7,7.7h-1.7c-2.5,0-4.6-1.9-5.1-4.3h1.7
		c0.4,1.5,1.7,2.6,3.3,2.6h1.7c3.3,0,6-2.7,6-6v-8.5c0-4.2,3.4-7.7,7.7-7.7c0.5,0,0.9-0.4,0.9-0.9C33,5.4,32.6,5,32.1,5
		c-5.2,0-9.4,4.2-9.4,9.4v8.5c0,2.4-1.9,4.3-4.3,4.3h-1.7c-0.6,0-1.2-0.4-1.5-0.9c0.4-0.1,0.6-0.4,0.6-0.8v-2.6h0.9
		c0.4,0,0.7-0.3,0.8-0.6c1.9-6.5,1.7-6,1.7-6.2v-2.6c0-0.5-0.4-0.9-0.9-0.9v-6c0-0.5-0.4-0.9-0.9-0.9h-2.6c0-0.5-0.4-0.9-0.9-0.9
		h-3.4c-0.5,0-0.9,0.4-0.9,0.9H7.4c-0.5,0-0.9,0.4-0.9,0.9v6c-0.5,0-0.9,0.4-0.9,0.9c0,2.8,0,2.6,0,2.8l1.7,6
		c0.1,0.4,0.4,0.6,0.8,0.6h0.9v2.6c0,0.4,0.3,0.9,0.9,0.9c0.4,3.4,3.3,6,6.8,6h1.7c5.2,0,9.4-4.2,9.4-9.4v-8.5
		c0-2.4,1.9-4.3,4.3-4.3c0.5,0,0.9-0.4,0.9-0.9C33,8.8,32.6,8.4,32.1,8.4z M15.1,10.1V7.6h1.7v5.1h-3.4V11h0.9
		C14.7,11,15.1,10.6,15.1,10.1z M11.6,6.7h1.7v2.6h-1.7V6.7z M8.2,7.6h1.7v2.6c0,0.5,0.4,0.9,0.9,0.9h0.9v1.7H8.2V7.6z M8.9,21.2
		L7.4,16v-1.6h10.3V16l-1.5,5.2C14,21.2,11.3,21.2,8.9,21.2z M10.8,22.9h3.4v1.7h-3.4V22.9z"/>
	<path class="st1" d="M15.2,16.5h-4.7c-0.4,0-0.8,0.4-0.8,0.8c0,0.4,0.4,0.8,0.8,0.8h4.7c0.4,0,0.8-0.4,0.8-0.8
		C16,16.8,15.7,16.5,15.2,16.5z"/>
</g>
</svg>
