<svg version="1.1" id="Layer_1" xmlns="http://www.w3.org/2000/svg" x="0" y="0" viewBox="0 0 38 38" xml:space="preserve"><style>.st1{fill:#fff}</style><path class="st1" d="M32.1 8.4c-3.3 0-6 2.7-6 6v8.5c0 4.2-3.4 7.7-7.7 7.7h-1.7c-2.5 0-4.6-1.9-5.1-4.3h1.7c.4 1.5 1.7 2.6 3.3 2.6h1.7c3.3 0 6-2.7 6-6v-8.5c0-4.2 3.4-7.7 7.7-7.7.5 0 .9-.4.9-.9.1-.4-.3-.8-.8-.8-5.2 0-9.4 4.2-9.4 9.4v8.5c0 2.4-1.9 4.3-4.3 4.3h-1.7c-.6 0-1.2-.4-1.5-.9.4-.1.6-.4.6-.8v-2.6h.9c.4 0 .7-.3.8-.6 1.9-6.5 1.7-6 1.7-6.2v-2.6c0-.5-.4-.9-.9-.9v-6c0-.5-.4-.9-.9-.9h-2.6c0-.5-.4-.9-.9-.9h-3.4c-.5 0-.9.4-.9.9H7.4c-.5 0-.9.4-.9.9v6c-.5 0-.9.4-.9.9v2.8l1.7 6c.1.4.4.6.8.6H9v2.6c0 .4.3.9.9.9.4 3.4 3.3 6 6.8 6h1.7c5.2 0 9.4-4.2 9.4-9.4v-8.5c0-2.4 1.9-4.3 4.3-4.3.5 0 .9-.4.9-.9s-.4-.9-.9-.9zm-17 1.7V7.6h1.7v5.1h-3.4V11h.9c.4 0 .8-.4.8-.9zm-3.5-3.4h1.7v2.6h-1.7V6.7zm-3.4.9h1.7v2.6c0 .5.4.9.9.9h.9v1.7H8.2V7.6zm.7 13.6L7.4 16v-1.6h10.3V16l-1.5 5.2H8.9zm1.9 1.7h3.4v1.7h-3.4v-1.7z"/><path class="st1" d="M15.2 16.5h-4.7c-.4 0-.8.4-.8.8s.4.8.8.8h4.7c.4 0 .8-.4.8-.8 0-.5-.3-.8-.8-.8z"/></svg>