<?xml version="1.0" encoding="utf-8"?>
<!-- Generator: Adobe Illustrator 24.2.3, SVG Export Plug-In . SVG Version: 6.00 Build 0)  -->
<svg version="1.1" id="Layer_1" xmlns="http://www.w3.org/2000/svg" xmlns:xlink="http://www.w3.org/1999/xlink" x="0px" y="0px"
	 viewBox="0 0 38 38" style="enable-background:new 0 0 38 38;" xml:space="preserve">
<style type="text/css">
	.st0{fill:#090909;}
	.st1{fill:#FFFFFF;}
	.st2{fill:#FFFFFF;stroke:#090909;stroke-miterlimit:10;}
</style>
<g>
	<g>
		<path class="st1" d="M17.9,20.6c1.6,0,2.8-1.3,2.8-2.8s-1.3-2.8-2.8-2.8s-2.8,1.3-2.8,2.8S16.3,20.6,17.9,20.6z M17.9,16.8
			c0.5,0,0.9,0.4,0.9,0.9s-0.4,0.9-0.9,0.9S17,18.3,17,17.8S17.4,16.8,17.9,16.8z"/>
	</g>
	<g>
		<path class="st1" d="M34,15.9c-1.6,0-2.8,1.3-2.8,2.8c0,1.2,0.8,2.3,1.9,2.7v4c0,2.6-2.1,4.7-4.7,4.7h-2.8v-3.9
			c2.3-2.1,3.8-5.1,3.8-8.5c0-6.3-5.1-11.4-11.4-11.4c-6.3,0-11.4,5.1-11.4,11.4c0,3.4,1.5,6.4,3.8,8.5v3.9H7.5
			c-0.5,0-0.9,0.4-0.9,0.9v4.7c0,0.5,0.4,0.9,0.9,0.9h20.9c0.5,0,0.9-0.4,0.9-0.9v-3.9c3.2-0.5,5.7-3.2,5.7-6.6v-4
			c1.1-0.4,1.9-1.4,1.9-2.7C36.9,17.2,35.6,15.9,34,15.9z M8.4,17.8c0-5.2,4.3-9.5,9.5-9.5c5.2,0,9.5,4.3,9.5,9.5
			c0,5.2-4.3,9.5-9.5,9.5C12.7,27.3,8.4,23,8.4,17.8z M23.6,27.6v2.5H12.2v-2.5C15.7,29.7,20.1,29.7,23.6,27.6z M27.4,34.8h-19V32
			h19V34.8z M34,19.7c-0.5,0-0.9-0.4-0.9-0.9s0.4-0.9,0.9-0.9c0.5,0,0.9,0.4,0.9,0.9S34.6,19.7,34,19.7z"/>
		<path class="st1" d="M12.2,5.5c0.6,0,1-0.4,1-1s-0.4-1-1-1c-4.7,0-8.6,3.9-8.6,8.6c0,0.6,0.4,1,1,1s1-0.4,1-1
			C5.6,8.5,8.6,5.5,12.2,5.5z"/>
		<path class="st1" d="M11,3.2c0.6,0,1-0.4,1-1s-0.4-1-1-1c-5.4,0-9.8,4.4-9.8,9.8c0,0.6,0.4,1,1,1s1-0.4,1-1
			C3.1,6.8,6.6,3.2,11,3.2z"/>
	</g>
</g>
</svg>
