<svg version="1.1" id="Layer_1" xmlns="http://www.w3.org/2000/svg" x="0" y="0" viewBox="0 0 38 38" xml:space="preserve"><style>.st1{fill:#fff}</style><path class="st1" d="M17.9 20.6c1.6 0 2.8-1.3 2.8-2.8S19.4 15 17.9 15s-2.8 1.3-2.8 2.8 1.2 2.8 2.8 2.8zm0-3.8c.5 0 .9.4.9.9s-.4.9-.9.9-.9-.3-.9-.8.4-1 .9-1z"/><path class="st1" d="M34 15.9c-1.6 0-2.8 1.3-2.8 2.8 0 1.2.8 2.3 1.9 2.7v4c0 2.6-2.1 4.7-4.7 4.7h-2.8v-3.9c2.3-2.1 3.8-5.1 3.8-8.5 0-6.3-5.1-11.4-11.4-11.4-6.3 0-11.4 5.1-11.4 11.4 0 3.4 1.5 6.4 3.8 8.5v3.9H7.5c-.5 0-.9.4-.9.9v4.7c0 .5.4.9.9.9h20.9c.5 0 .9-.4.9-.9v-3.9c3.2-.5 5.7-3.2 5.7-6.6v-4c1.1-.4 1.9-1.4 1.9-2.7 0-1.3-1.3-2.6-2.9-2.6zM8.4 17.8c0-5.2 4.3-9.5 9.5-9.5s9.5 4.3 9.5 9.5-4.3 9.5-9.5 9.5-9.5-4.3-9.5-9.5zm15.2 9.8v2.5H12.2v-2.5c3.5 2.1 7.9 2.1 11.4 0zm3.8 7.2h-19V32h19v2.8zM34 19.7c-.5 0-.9-.4-.9-.9s.4-.9.9-.9.9.4.9.9-.3.9-.9.9z"/><path class="st1" d="M12.2 5.5c.6 0 1-.4 1-1s-.4-1-1-1c-4.7 0-8.6 3.9-8.6 8.6 0 .6.4 1 1 1s1-.4 1-1c0-3.6 3-6.6 6.6-6.6z"/><path class="st1" d="M11 3.2c.6 0 1-.4 1-1s-.4-1-1-1c-5.4 0-9.8 4.4-9.8 9.8 0 .6.4 1 1 1s1-.4 1-1C3.1 6.8 6.6 3.2 11 3.2z"/></svg>