<svg version="1.1" id="Layer_1" xmlns="http://www.w3.org/2000/svg" x="0" y="0" viewBox="0 0 38 38" xml:space="preserve"><style>.st0{fill:#090909}</style><path class="st0" d="M7.7 9.3h-3c-.3 0-.6.3-.6.6v3c0 .3.3.6.6.6s.6-.3.6-.6v-2.4h2.4c.3 0 .6-.3.6-.6s-.2-.6-.6-.6zM33.3 9.3h-3c-.3 0-.6.3-.6.6s.3.6.6.6h2.4v2.4c0 .3.3.6.6.6s.6-.3.6-.6v-3c0-.4-.2-.6-.6-.6zM33.3 24.5c-.3 0-.6.3-.6.6v2.4h-2.4c-.3 0-.6.3-.6.6s.3.6.6.6h3c.3 0 .6-.3.6-.6v-3c0-.3-.2-.6-.6-.6zM7.7 27.5H5.3v-2.4c0-.3-.3-.6-.6-.6s-.6.3-.6.6v3c0 .3.3.6.6.6h3c.3 0 .6-.3.6-.6s-.2-.6-.6-.6z"/><path class="st0" d="M31.5 25.7V12.3c0-.3-.3-.6-.6-.6s-.6.3-.6.6v13.4c0 .3.3.6.6.6s.6-.3.6-.6zM27.9 11.7c-.3 0-.6.3-.6.6v10.5c0 .3.3.6.6.6s.6-.3.6-.6V12.3c0-.3-.3-.6-.6-.6zM27.9 24.9c-.3 0-.6.3-.6.6v.1c0 .3.3.6.6.6s.6-.3.6-.6v-.1c0-.3-.3-.6-.6-.6zM24.9 11.7c-.3 0-.6.3-.6.6v10.5c0 .3.3.6.6.6s.6-.3.6-.6V12.3c0-.3-.2-.6-.6-.6zM24.9 24.9c-.3 0-.6.3-.6.6v.1c0 .3.3.6.6.6s.6-.3.6-.6v-.1c0-.3-.2-.6-.6-.6zM22 11.7c-.3 0-.6.3-.6.6v10.5c0 .3.3.6.6.6s.6-.3.6-.6V12.3c0-.3-.3-.6-.6-.6zM22 24.9c-.3 0-.6.3-.6.6v.1c0 .3.3.6.6.6s.6-.3.6-.6v-.1c0-.3-.3-.6-.6-.6zM19 11.7c-.3 0-.6.3-.6.6v10.5c0 .3.3.6.6.6s.6-.3.6-.6V12.3c0-.3-.3-.6-.6-.6zM19 24.9c-.3 0-.6.3-.6.6v.1c0 .3.3.6.6.6s.6-.3.6-.6v-.1c0-.3-.3-.6-.6-.6zM16 11.7c-.3 0-.6.3-.6.6v10.5c0 .3.3.6.6.6s.6-.3.6-.6V12.3c0-.3-.2-.6-.6-.6zM16 24.9c-.3 0-.6.3-.6.6v.1c0 .3.3.6.6.6s.6-.3.6-.6v-.1c0-.3-.2-.6-.6-.6zM13.1 11.7c-.3 0-.6.3-.6.6v10.5c0 .3.3.6.6.6s.6-.3.6-.6V12.3c0-.3-.3-.6-.6-.6zM13.1 24.9c-.3 0-.6.3-.6.6v.1c0 .3.3.6.6.6s.6-.3.6-.6v-.1c0-.3-.3-.6-.6-.6zM10.1 11.7c-.3 0-.6.3-.6.6v10.5c0 .3.3.6.6.6s.6-.3.6-.6V12.3c0-.3-.3-.6-.6-.6zM10.1 24.9c-.3 0-.6.3-.6.6v.1c0 .3.3.6.6.6s.6-.3.6-.6v-.1c0-.3-.3-.6-.6-.6zM7.7 25.7V12.3c0-.3-.3-.6-.6-.6s-.6.3-.6.6v13.4c0 .3.3.6.6.6.4 0 .6-.3.6-.6z"/></svg>