<?xml version="1.0" encoding="utf-8"?>
<!-- Generator: Adobe Illustrator 24.3.0, SVG Export Plug-In . SVG Version: 6.00 Build 0)  -->
<svg version="1.1" id="Layer_1" xmlns="http://www.w3.org/2000/svg" xmlns:xlink="http://www.w3.org/1999/xlink" x="0px" y="0px"
	 viewBox="0 0 38 38" style="enable-background:new 0 0 38 38;" xml:space="preserve">
<style type="text/css">
	.st0{fill:#090909;}
	.st1{fill:#FFFFFF;}
</style>
<g>
	<g>
		<g>
			<path class="st0" d="M7.7,9.3h-3c-0.3,0-0.6,0.3-0.6,0.6v3c0,0.3,0.3,0.6,0.6,0.6c0.3,0,0.6-0.3,0.6-0.6v-2.4h2.4
				c0.3,0,0.6-0.3,0.6-0.6S8.1,9.3,7.7,9.3z"/>
			<path class="st0" d="M33.3,9.3h-3c-0.3,0-0.6,0.3-0.6,0.6s0.3,0.6,0.6,0.6h2.4v2.4c0,0.3,0.3,0.6,0.6,0.6c0.3,0,0.6-0.3,0.6-0.6
				v-3C33.9,9.5,33.7,9.3,33.3,9.3z"/>
			<path class="st0" d="M33.3,24.5c-0.3,0-0.6,0.3-0.6,0.6v2.4h-2.4c-0.3,0-0.6,0.3-0.6,0.6s0.3,0.6,0.6,0.6h3
				c0.3,0,0.6-0.3,0.6-0.6v-3C33.9,24.8,33.7,24.5,33.3,24.5z"/>
			<path class="st0" d="M7.7,27.5H5.3v-2.4c0-0.3-0.3-0.6-0.6-0.6c-0.3,0-0.6,0.3-0.6,0.6v3c0,0.3,0.3,0.6,0.6,0.6h3
				c0.3,0,0.6-0.3,0.6-0.6S8.1,27.5,7.7,27.5z"/>
			<path class="st0" d="M31.5,25.7V12.3c0-0.3-0.3-0.6-0.6-0.6s-0.6,0.3-0.6,0.6v13.4c0,0.3,0.3,0.6,0.6,0.6
				C31.2,26.3,31.5,26,31.5,25.7z"/>
			<path class="st0" d="M27.9,11.7c-0.3,0-0.6,0.3-0.6,0.6v10.5c0,0.3,0.3,0.6,0.6,0.6s0.6-0.3,0.6-0.6V12.3
				C28.5,12,28.2,11.7,27.9,11.7z"/>
			<path class="st0" d="M27.9,24.9c-0.3,0-0.6,0.3-0.6,0.6v0.1c0,0.3,0.3,0.6,0.6,0.6s0.6-0.3,0.6-0.6v-0.1
				C28.5,25.2,28.2,24.9,27.9,24.9z"/>
			<path class="st0" d="M24.9,11.7c-0.3,0-0.6,0.3-0.6,0.6v10.5c0,0.3,0.3,0.6,0.6,0.6s0.6-0.3,0.6-0.6V12.3
				C25.5,12,25.3,11.7,24.9,11.7z"/>
			<path class="st0" d="M24.9,24.9c-0.3,0-0.6,0.3-0.6,0.6v0.1c0,0.3,0.3,0.6,0.6,0.6s0.6-0.3,0.6-0.6v-0.1
				C25.5,25.2,25.3,24.9,24.9,24.9z"/>
			<path class="st0" d="M22,11.7c-0.3,0-0.6,0.3-0.6,0.6v10.5c0,0.3,0.3,0.6,0.6,0.6s0.6-0.3,0.6-0.6V12.3
				C22.6,12,22.3,11.7,22,11.7z"/>
			<path class="st0" d="M22,24.9c-0.3,0-0.6,0.3-0.6,0.6v0.1c0,0.3,0.3,0.6,0.6,0.6s0.6-0.3,0.6-0.6v-0.1
				C22.6,25.2,22.3,24.9,22,24.9z"/>
			<path class="st0" d="M19,11.7c-0.3,0-0.6,0.3-0.6,0.6v10.5c0,0.3,0.3,0.6,0.6,0.6s0.6-0.3,0.6-0.6V12.3
				C19.6,12,19.3,11.7,19,11.7z"/>
			<path class="st0" d="M19,24.9c-0.3,0-0.6,0.3-0.6,0.6v0.1c0,0.3,0.3,0.6,0.6,0.6s0.6-0.3,0.6-0.6v-0.1
				C19.6,25.2,19.3,24.9,19,24.9z"/>
			<path class="st0" d="M16,11.7c-0.3,0-0.6,0.3-0.6,0.6v10.5c0,0.3,0.3,0.6,0.6,0.6s0.6-0.3,0.6-0.6V12.3
				C16.6,12,16.4,11.7,16,11.7z"/>
			<path class="st0" d="M16,24.9c-0.3,0-0.6,0.3-0.6,0.6v0.1c0,0.3,0.3,0.6,0.6,0.6s0.6-0.3,0.6-0.6v-0.1
				C16.6,25.2,16.4,24.9,16,24.9z"/>
			<path class="st0" d="M13.1,11.7c-0.3,0-0.6,0.3-0.6,0.6v10.5c0,0.3,0.3,0.6,0.6,0.6c0.3,0,0.6-0.3,0.6-0.6V12.3
				C13.7,12,13.4,11.7,13.1,11.7z"/>
			<path class="st0" d="M13.1,24.9c-0.3,0-0.6,0.3-0.6,0.6v0.1c0,0.3,0.3,0.6,0.6,0.6c0.3,0,0.6-0.3,0.6-0.6v-0.1
				C13.7,25.2,13.4,24.9,13.1,24.9z"/>
			<path class="st0" d="M10.1,11.7c-0.3,0-0.6,0.3-0.6,0.6v10.5c0,0.3,0.3,0.6,0.6,0.6s0.6-0.3,0.6-0.6V12.3
				C10.7,12,10.4,11.7,10.1,11.7z"/>
			<path class="st0" d="M10.1,24.9c-0.3,0-0.6,0.3-0.6,0.6v0.1c0,0.3,0.3,0.6,0.6,0.6s0.6-0.3,0.6-0.6v-0.1
				C10.7,25.2,10.4,24.9,10.1,24.9z"/>
			<path class="st0" d="M7.7,25.7V12.3c0-0.3-0.3-0.6-0.6-0.6c-0.3,0-0.6,0.3-0.6,0.6v13.4c0,0.3,0.3,0.6,0.6,0.6
				C7.5,26.3,7.7,26,7.7,25.7z"/>
		</g>
	</g>
</g>
</svg>
