<?xml version="1.0" encoding="utf-8"?>
<!-- Generator: Adobe Illustrator 24.3.0, SVG Export Plug-In . SVG Version: 6.00 Build 0)  -->
<svg version="1.1" id="Layer_1" xmlns="http://www.w3.org/2000/svg" xmlns:xlink="http://www.w3.org/1999/xlink" x="0px" y="0px"
	 viewBox="0 0 38 38" style="enable-background:new 0 0 38 38;" xml:space="preserve">
<style type="text/css">
	.st0{fill:#090909;}
	.st1{fill:#FFFFFF;}
</style>
<g>
	<path class="st0" d="M36.2,12c0.2-0.2,0.2-0.5,0-0.7c-0.1-0.1-0.2-0.1-0.3-0.1l-25-4.3c-0.3,0-0.5,0.1-0.6,0.4l-1.3,7.4
		c0,0.3,0.1,0.5,0.4,0.6l1.6,0.3l-0.4,2.3c0,0.3,0.1,0.5,0.4,0.6l3.2,0.6l-0.2,1.4c0,0.3,0.1,0.5,0.4,0.6c0,0,0,0,0,0l1,0.2
		l-0.9,4.3H7.1v-0.9c0-0.3-0.2-0.5-0.5-0.5H4.4v-1c0-0.3-0.2-0.5-0.5-0.5H2.1c-0.3,0-0.5,0.2-0.5,0.5v7.7c0,0.3,0.2,0.5,0.5,0.5h1.8
		c0.3,0,0.5-0.2,0.5-0.5v-1h2.1c0.3,0,0.5-0.2,0.5-0.5v-0.9h9.5c0.2,0,0.5-0.2,0.5-0.4l1.2-6.2l1.1,0.2c0.3,0,0.5-0.1,0.6-0.4
		c0,0,0,0,0,0l0.2-1.4l10.7,1.8c0,0,0.1,0,0.1,0c0.3,0,0.5-0.2,0.5-0.4l0.1-0.4c0,0,0.1,0,0.1,0c1.4,0,2.5-1.1,2.5-2.5
		c0-1.1-0.7-2.1-1.8-2.4l0.1-0.4L36.2,12z M11.3,7.9l23.5,4l-2.9,2.9L25,13.6c-0.3,0-0.5,0.1-0.6,0.4L24,16.6l-12.2-2.1c0,0,0,0,0,0
		c0,0,0,0,0,0l-1.6-0.3L11.3,7.9z M3.4,30.2H2.7v-6.6h0.7V30.2z M6,28.6H4.4V25H6V28.6z M16.1,27.2H7.1v-0.7h8
		c0.2,0,0.5-0.2,0.5-0.4l0.9-4.8l0.7,0.1L16.1,27.2z M19.1,20.7L18,20.5c0,0,0,0,0,0c0,0,0,0,0,0L15.2,20l0.2-0.9l3.9,0.7L19.1,20.7
		z M19.9,18.9C19.9,18.9,19.9,18.9,19.9,18.9C19.9,18.9,19.9,18.9,19.9,18.9L15,18c0,0,0,0,0,0c0,0,0,0,0,0l-3.2-0.6l0.3-1.8
		l12.2,2.1c0,0,0.1,0,0.1,0c0.3,0,0.5-0.2,0.5-0.4l0.4-2.6l6.1,1l-0.1,0.5l0,0v0l-0.7,3.9l0,0c0,0,0,0,0,0l-0.1,0.4L19.9,18.9z
		 M33.2,18.7c-0.1,0.7-0.7,1.2-1.4,1.2l0.5-2.9C32.9,17.3,33.3,18,33.2,18.7L33.2,18.7z"/>
	<path class="st0" d="M13.8,10.1l2.6,0.4c0.3,0,0.5-0.1,0.6-0.4c0-0.3-0.1-0.5-0.4-0.6L14,9.1c-0.3,0-0.5,0.1-0.6,0.4
		C13.4,9.8,13.5,10.1,13.8,10.1z"/>
</g>
</svg>
