<?xml version="1.0" encoding="utf-8"?>
<!-- Generator: Adobe Illustrator 24.2.3, SVG Export Plug-In . SVG Version: 6.00 Build 0)  -->
<svg version="1.1" id="Layer_1" xmlns="http://www.w3.org/2000/svg" xmlns:xlink="http://www.w3.org/1999/xlink" x="0px" y="0px"
	 viewBox="0 0 38 38" style="enable-background:new 0 0 38 38;" xml:space="preserve">
<style type="text/css">
	.st0{fill:#090909;}
	.st1{fill:#FFFFFF;}
	.st2{fill:#FFFFFF;stroke:#090909;stroke-miterlimit:10;}
</style>
<g>
	<g>
		<g>
			<g>
				<path class="st1" d="M35.8,4.9H2.2c-0.6,0-1,0.5-1,1v6.9c0,0.6,0.5,1,1,1h2.1v4.5c0,3.9,1.5,7.6,4.3,10.4s6.5,4.3,10.4,4.3
					s7.6-1.5,10.4-4.3s4.3-6.5,4.3-10.4v-4.5h2.1c0.6,0,1-0.5,1-1V6C36.8,5.4,36.4,4.9,35.8,4.9z M31.7,18.3C31.7,25.3,26,31,19,31
					S6.3,25.3,6.3,18.3v-4.5h25.4L31.7,18.3L31.7,18.3z M34.8,11.8H3.2V7h31.6L34.8,11.8L34.8,11.8z"/>
			</g>
		</g>
	</g>
	<g>
		<g>
			<g>
				<path class="st1" d="M19,15.9c-3.6,0-6.5,2.9-6.5,6.5s2.9,6.5,6.5,6.5s6.5-2.9,6.5-6.5S22.6,15.9,19,15.9z M19,26.9
					c-2.5,0-4.5-2-4.5-4.5s2-4.5,4.5-4.5s4.5,2,4.5,4.5S21.5,26.9,19,26.9z"/>
			</g>
		</g>
	</g>
	<g>
		<g>
			<g>
				<path class="st1" d="M19,25.7c-1.8,0-3.3-1.5-3.3-3.3c0-1.8,1.5-3.3,3.3-3.3s3.3,1.5,3.3,3.3C22.3,24.2,20.8,25.7,19,25.7z
					 M19,20.9c-0.8,0-1.5,0.7-1.5,1.5c0,0.8,0.7,1.5,1.5,1.5s1.5-0.7,1.5-1.5C20.5,21.6,19.8,20.9,19,20.9z"/>
			</g>
		</g>
	</g>
	<g>
		<g>
			<g>
				<path class="st1" d="M27.2,8.4h-1.4c-0.6,0-1,0.5-1,1c0,0.6,0.5,1,1,1h1.4c0.6,0,1-0.5,1-1C28.3,8.8,27.8,8.4,27.2,8.4z"/>
			</g>
		</g>
	</g>
	<g>
		<g>
			<g>
				<path class="st1" d="M31.3,8.4H30c-0.6,0-1,0.5-1,1c0,0.6,0.5,1,1,1h1.4c0.6,0,1-0.5,1-1C32.4,8.8,31.9,8.4,31.3,8.4z"/>
			</g>
		</g>
	</g>
</g>
</svg>
