<svg version="1.1" id="Layer_1" xmlns="http://www.w3.org/2000/svg" x="0" y="0" viewBox="0 0 38 38" xml:space="preserve"><style>.st0{fill:#090909}</style><path class="st0" d="M36.2 12c.2-.2.2-.5 0-.7-.1-.1-.2-.1-.3-.1l-25-4.3c-.3 0-.5.1-.6.4L9 14.7c0 .3.1.5.4.6l1.6.3-.4 2.3c0 .3.1.5.4.6l3.2.6-.2 1.4c0 .3.1.5.4.6l1 .2-.9 4.3H7.1v-.9c0-.3-.2-.5-.5-.5H4.4v-1c0-.3-.2-.5-.5-.5H2.1c-.3 0-.5.2-.5.5v7.7c0 .3.2.5.5.5h1.8c.3 0 .5-.2.5-.5v-1h2.1c.3 0 .5-.2.5-.5v-.9h9.5c.2 0 .5-.2.5-.4l1.2-6.2 1.1.2c.3 0 .5-.1.6-.4l.2-1.4 10.7 1.8h.1c.3 0 .5-.2.5-.4l.1-.4h.1c1.4 0 2.5-1.1 2.5-2.5 0-1.1-.7-2.1-1.8-2.4l.1-.4 3.8-4zM11.3 7.9l23.5 4-2.9 2.9-6.9-1.2c-.3 0-.5.1-.6.4l-.4 2.6-12.2-2.1-1.6-.3 1.1-6.3zM3.4 30.2h-.7v-6.6h.7v6.6zM6 28.6H4.4V25H6v3.6zm10.1-1.4h-9v-.7h8c.2 0 .5-.2.5-.4l.9-4.8.7.1-1.1 5.8zm3-6.5l-1.1-.2-2.8-.5.2-.9 3.9.7-.2.9zm.8-1.8L15 18l-3.2-.6.3-1.8 12.2 2.1h.1c.3 0 .5-.2.5-.4l.4-2.6 6.1 1-.1.5-.7 3.9-.1.4-10.6-1.6zm13.3-.2c-.1.7-.7 1.2-1.4 1.2l.5-2.9c.6.3 1 1 .9 1.7z"/><path class="st0" d="M13.8 10.1l2.6.4c.3 0 .5-.1.6-.4 0-.3-.1-.5-.4-.6L14 9.1c-.3 0-.5.1-.6.4 0 .3.1.6.4.6z"/></svg>