<svg version="1.1" id="Layer_1" xmlns="http://www.w3.org/2000/svg" x="0" y="0" viewBox="0 0 38 38" xml:space="preserve"><style>.st1{fill:#fff}</style><path class="st1" d="M35.8 4.9H2.2c-.6 0-1 .5-1 1v6.9c0 .6.5 1 1 1h2.1v4.5c0 3.9 1.5 7.6 4.3 10.4S15.1 33 19 33s7.6-1.5 10.4-4.3 4.3-6.5 4.3-10.4v-4.5h2.1c.6 0 1-.5 1-1V6c0-.6-.4-1.1-1-1.1zm-4.1 13.4C31.7 25.3 26 31 19 31S6.3 25.3 6.3 18.3v-4.5h25.4v4.5zm3.1-6.5H3.2V7h31.6v4.8z"/><path class="st1" d="M19 15.9c-3.6 0-6.5 2.9-6.5 6.5s2.9 6.5 6.5 6.5 6.5-2.9 6.5-6.5-2.9-6.5-6.5-6.5zm0 11c-2.5 0-4.5-2-4.5-4.5s2-4.5 4.5-4.5 4.5 2 4.5 4.5-2 4.5-4.5 4.5z"/><path class="st1" d="M19 25.7c-1.8 0-3.3-1.5-3.3-3.3 0-1.8 1.5-3.3 3.3-3.3s3.3 1.5 3.3 3.3c0 1.8-1.5 3.3-3.3 3.3zm0-4.8c-.8 0-1.5.7-1.5 1.5s.7 1.5 1.5 1.5 1.5-.7 1.5-1.5-.7-1.5-1.5-1.5zM27.2 8.4h-1.4c-.6 0-1 .5-1 1 0 .6.5 1 1 1h1.4c.6 0 1-.5 1-1 .1-.6-.4-1-1-1zM31.3 8.4H30c-.6 0-1 .5-1 1 0 .6.5 1 1 1h1.4c.6 0 1-.5 1-1 0-.6-.5-1-1.1-1z"/></svg>