<?xml version="1.0" encoding="utf-8"?>
<!-- Generator: Adobe Illustrator 24.3.0, SVG Export Plug-In . SVG Version: 6.00 Build 0)  -->
<svg version="1.1" id="Layer_1" xmlns="http://www.w3.org/2000/svg" xmlns:xlink="http://www.w3.org/1999/xlink" x="0px" y="0px"
	 viewBox="0 0 38 38" style="enable-background:new 0 0 38 38;" xml:space="preserve">
<style type="text/css">
	.st0{fill:#090909;}
	.st1{fill:#FFFFFF;}
</style>
<g>
	<g>
		<g>
			<path class="st0" d="M24.8,16.8c-0.5,0-1,0.2-1.4,0.5c-0.4-0.3-0.9-0.5-1.4-0.5c-1.3,0-2.3,1-2.3,2.3s1,2.3,2.3,2.3
				c0.5,0,1-0.2,1.4-0.5c0.4,0.3,0.9,0.5,1.4,0.5c1.3,0,2.3-1,2.3-2.3C27.2,17.9,26.1,16.8,24.8,16.8z M22.1,20.6
				c-0.8,0-1.4-0.6-1.4-1.4c0-0.8,0.6-1.4,1.4-1.4c0.8,0,1.4,0.6,1.4,1.4C23.4,19.9,22.8,20.6,22.1,20.6z M24.8,20.6
				c-0.3,0-0.5-0.1-0.8-0.2c0.2-0.4,0.3-0.7,0.3-1.1c0-0.4-0.1-0.8-0.3-1.1c0.2-0.2,0.5-0.2,0.8-0.2c0.8,0,1.4,0.6,1.4,1.4
				C26.2,19.9,25.6,20.6,24.8,20.6z"/>
		</g>
	</g>
	<g>
		<g>
			<rect x="7.7" y="26.1" class="st0" width="2.8" height="0.9"/>
		</g>
	</g>
	<g>
		<g>
			<rect x="12.8" y="26.1" class="st0" width="2.8" height="0.9"/>
		</g>
	</g>
	<g>
		<g>
			<rect x="17.9" y="26.1" class="st0" width="2.8" height="0.9"/>
		</g>
	</g>
	<g>
		<g>
			<rect x="23" y="26.1" class="st0" width="2.8" height="0.9"/>
		</g>
	</g>
	<g>
		<g>
			<rect x="7.7" y="18.7" class="st0" width="5.6" height="0.9"/>
		</g>
	</g>
	<g>
		<g>
			<rect x="7.7" y="22.4" class="st0" width="12.1" height="0.9"/>
		</g>
	</g>
	<g>
		<g>
			<path class="st0" d="M31.3,7.1H10.9c-1.3,0-2.3,1-2.3,2.3v5.1H7.2c-1.3,0-2.3,1-2.3,2.3V28c0,1.3,1,2.3,2.3,2.3h20.4
				c1.3,0,2.3-1,2.3-2.3v-5.1h1.4c1.3,0,2.3-1,2.3-2.3V9.4C33.6,8.1,32.6,7.1,31.3,7.1z M29,28c0,0.8-0.6,1.4-1.4,1.4H7.2
				c-0.8,0-1.4-0.6-1.4-1.4V16.8c0-0.8,0.6-1.4,1.4-1.4h20.4c0.8,0,1.4,0.6,1.4,1.4V28z M32.7,20.6c0,0.8-0.6,1.4-1.4,1.4h-1.4v-5.1
				c0-1.3-1-2.3-2.3-2.3H9.5v-1.9h23.2V20.6z M32.7,11.7H9.5v-0.9h23.2V11.7z M32.7,9.9H9.5V9.4c0-0.8,0.6-1.4,1.4-1.4h20.4
				c0.8,0,1.4,0.6,1.4,1.4V9.9z"/>
		</g>
	</g>
</g>
</svg>
