<svg version="1.1" id="Layer_1" xmlns="http://www.w3.org/2000/svg" x="0" y="0" viewBox="0 0 38 38" xml:space="preserve"><style>.st0{fill:#090909}</style><path class="st0" d="M24.8 16.8c-.5 0-1 .2-1.4.5-.4-.3-.9-.5-1.4-.5-1.3 0-2.3 1-2.3 2.3s1 2.3 2.3 2.3c.5 0 1-.2 1.4-.5.4.3.9.5 1.4.5 1.3 0 2.3-1 2.3-2.3.1-1.2-1-2.3-2.3-2.3zm-2.7 3.8c-.8 0-1.4-.6-1.4-1.4 0-.8.6-1.4 1.4-1.4.8 0 1.4.6 1.4 1.4-.1.7-.7 1.4-1.4 1.4zm2.7 0c-.3 0-.5-.1-.8-.2.2-.4.3-.7.3-1.1 0-.4-.1-.8-.3-1.1.2-.2.5-.2.8-.2.8 0 1.4.6 1.4 1.4 0 .5-.6 1.2-1.4 1.2zM7.7 26.1h2.8v.9H7.7zM12.8 26.1h2.8v.9h-2.8zM17.9 26.1h2.8v.9h-2.8zM23 26.1h2.8v.9H23zM7.7 18.7h5.6v.9H7.7zM7.7 22.4h12.1v.9H7.7z"/><path class="st0" d="M31.3 7.1H10.9c-1.3 0-2.3 1-2.3 2.3v5.1H7.2c-1.3 0-2.3 1-2.3 2.3V28c0 1.3 1 2.3 2.3 2.3h20.4c1.3 0 2.3-1 2.3-2.3v-5.1h1.4c1.3 0 2.3-1 2.3-2.3V9.4c0-1.3-1-2.3-2.3-2.3zM29 28c0 .8-.6 1.4-1.4 1.4H7.2c-.8 0-1.4-.6-1.4-1.4V16.8c0-.8.6-1.4 1.4-1.4h20.4c.8 0 1.4.6 1.4 1.4V28zm3.7-7.4c0 .8-.6 1.4-1.4 1.4h-1.4v-5.1c0-1.3-1-2.3-2.3-2.3H9.5v-1.9h23.2v7.9zm0-8.9H9.5v-.9h23.2v.9zm0-1.8H9.5v-.5c0-.8.6-1.4 1.4-1.4h20.4c.8 0 1.4.6 1.4 1.4v.5z"/></svg>