<svg version="1.1" id="Layer_1" xmlns="http://www.w3.org/2000/svg" x="0" y="0" viewBox="0 0 38 38" xml:space="preserve"><style>.cart-tudoforte-black{fill:#000}</style><path class="cart-tudoforte-black" d="M12.8 29c-2.3 0-4.1 1.9-4.1 4.1s1.9 4.1 4.1 4.1c2.3 0 4.1-1.9 4.1-4.1S15.1 29 12.8 29zm0 5.8c-.9 0-1.6-.7-1.6-1.6 0-.9.7-1.6 1.6-1.6.9 0 1.6.7 1.6 1.6 0 .9-.7 1.6-1.6 1.6zM27.9 29c-2.3 0-4.1 1.9-4.1 4.1 0 2.3 1.9 4.1 4.1 4.1 2.3 0 4.1-1.9 4.1-4.1S30.2 29 27.9 29zm0 5.8c-.9 0-1.6-.7-1.6-1.6 0-.9.7-1.6 1.6-1.6s1.6.7 1.6 1.6c0 .9-.7 1.6-1.6 1.6zM35.1 9.2c-.2-.3-.6-.5-1-.5H9.4l-1-5.8c-.1-.5-.5-1-1-1L2.5 1C1.8.9 1.2 1.3 1 2c-.1.7.3 1.3 1 1.5l4 .7 3.7 22.5c.1.6.6 1.1 1.3 1.1h19.8c.7 0 1.3-.6 1.3-1.3s-.6-1.3-1.3-1.3H12.1l-.5-3.3h19.1c.6 0 1-.4 1.2-.9l3.4-10.7c.1-.3 0-.7-.2-1.1zm-5.4 10.2H11.1l-1.3-8.1h22.5l-2.6 8.1z"/></svg>