<?xml version="1.0" encoding="utf-8"?>
<svg version="1.1" id="Layer_1" xmlns="http://www.w3.org/2000/svg" xmlns:xlink="http://www.w3.org/1999/xlink" x="0px" y="0px"
	 viewBox="0 0 38 38" style="enable-background:new 0 0 38 38;" xml:space="preserve">
<style type="text/css">
	.cart-tudoforte-white{fill:#FFFFFF;}
</style>
<g>
	<path class="cart-tudoforte-white" d="M12.8,29c-2.3,0-4.1,1.9-4.1,4.1s1.9,4.1,4.1,4.1c2.3,0,4.1-1.9,4.1-4.1S15.1,29,12.8,29z M12.8,34.8
		c-0.9,0-1.6-0.7-1.6-1.6c0-0.9,0.7-1.6,1.6-1.6c0.9,0,1.6,0.7,1.6,1.6C14.4,34.1,13.7,34.8,12.8,34.8z"/>
	<path class="cart-tudoforte-white" d="M27.9,29c-2.3,0-4.1,1.9-4.1,4.1c0,2.3,1.9,4.1,4.1,4.1c2.3,0,4.1-1.9,4.1-4.1S30.2,29,27.9,29z M27.9,34.8
		c-0.9,0-1.6-0.7-1.6-1.6c0-0.9,0.7-1.6,1.6-1.6s1.6,0.7,1.6,1.6C29.5,34.1,28.8,34.8,27.9,34.8z"/>
	<path class="cart-tudoforte-white" d="M35.1,9.2c-0.2-0.3-0.6-0.5-1-0.5H9.4l-1-5.8c-0.1-0.5-0.5-1-1-1L2.5,1C1.8,0.9,1.2,1.3,1,2
		C0.9,2.7,1.3,3.3,2,3.5l4,0.7l3.7,22.5c0.1,0.6,0.6,1.1,1.3,1.1h19.8c0.7,0,1.3-0.6,1.3-1.3s-0.6-1.3-1.3-1.3H12.1l-0.5-3.3h19.1
		c0.6,0,1-0.4,1.2-0.9l3.4-10.7C35.4,10,35.3,9.6,35.1,9.2z M29.7,19.4H11.1l-1.3-8.1h22.5L29.7,19.4z"/>
</g>
</svg>

