<svg version="1.1" id="Layer_1" xmlns="http://www.w3.org/2000/svg" x="0" y="0" viewBox="0 0 38 38" xml:space="preserve"><style>.st1{fill:#fff}</style><circle class="st1" cx="29.9" cy="32.2" r=".8"/><path class="st1" d="M37.4 28.8c-.1-.2-.1-.4-.3-.5l-3.3-2.7c-.1-.1-.3-.2-.5-.2H20.1V15.2c.9-.2 1.7-.9 1.8-1.9h4c.3 0 .5-.2.6-.5l.4-1.4.8.3h.5c.1-.1.3-.2.3-.4l.4-1.3 1.7.5c.2.1.5 0 .6-.1l.5-.5 2.3.7h.5c.2-.1.3-.2.3-.4l.9-2.9c.1-.2 0-.3 0-.5-.1-.2-.2-.3-.4-.3l.9-.8c.2-.2.2-.4.2-.6 0-.1-.2-.3-.4-.4L22.8.6c-.2-.1-.3 0-.5 0-.1.2-.3.3-.3.5l-1.8 5.7v.5c.1.2.2.3.4.3l4.1 1.3-.4 1.3c-.1.3.1.7.4.8l.9.3-.3.9h-3.5c-.1-1-.9-1.7-1.8-1.8V3.7c0-.5-.4-.8-.8-.8-.5 0-.8.4-.8.8v12.8c-1 .2-1.8.9-2 1.9h-3.7l-.3-1 1-.3c.3-.1.5-.5.4-.8l-.4-1.3 4.3-1.3c.2-.1.3-.2.4-.3.1-.2.1-.3 0-.5L16.3 7c-.1-.2-.2-.3-.3-.4-.2-.1-.3-.1-.5 0L1.8 10.7c-.2.1-.4.3-.5.5-.1.2 0 .5.2.6l.9.9c-.2.1-.3.2-.4.3v.5l.9 3c.1.2.2.3.3.4.2.1.3.1.5 0l2.4-.8.5.5c.2.2.4.2.7.2l1.8-.6.4 1.3c.1.2.2.3.3.4.2.1.3.1.5 0l.9-.3.4 1.4c.1.3.3.5.6.5h4.2c.1 1 .9 1.8 2 2v3.8H5c-.2 0-.4.1-.5.2l-3.3 2.7c-.1.1-.2.2-.2.4v7.1c0 .5.4.8.8.8h35c.5 0 .8-.4.8-.8V29l-.2-.2zm-9.9-18.4l-1.7-.5.2-.7 1.7.5-.2.7zm6.4-1.1l-1-.3 1.5-1.4h.1l-.6 1.7zM21.6 6.5L23 2l11.5 3.6-3.9 3.7-9-2.8zm-1.5 5.1c.3.2.5.5.5.8v.7c0 .4-.2.7-.5.8v-2.3zM4 15.5l-.5-1.8h.1l1.5 1.4-1.1.4zm3.4 0l-4.1-3.9 12.1-3.8 1.5 4.7-9.5 3zm3.3 1.1l-.2-.7 1.8-.6.2.7-1.8.6zm7.1 2.8v-.7c0-.4.3-.8.6-.9v2.5c-.3-.1-.6-.5-.6-.9zM5.2 27.2H33l1.3 1H4l1.2-1zm30.6 4.1h-3.9c-.5 0-.8.4-.8.8 0 .5.4.8.8.8h3.9v2H2.4v-2h25.4c.5 0 .8-.4.8-.8 0-.5-.4-.8-.8-.8H2.4v-1.5h33.4v1.5z"/></svg>