<?xml version="1.0" encoding="utf-8"?>
<!-- Generator: Adobe Illustrator 24.2.3, SVG Export Plug-In . SVG Version: 6.00 Build 0)  -->
<svg version="1.1" id="Layer_1" xmlns="http://www.w3.org/2000/svg" xmlns:xlink="http://www.w3.org/1999/xlink" x="0px" y="0px"
	 viewBox="0 0 38 38" style="enable-background:new 0 0 38 38;" xml:space="preserve">
<style type="text/css">
	.st0{fill:#090909;}
	.st1{fill:#FFFFFF;}
	.st2{fill:#FFFFFF;stroke:#090909;stroke-miterlimit:10;}
</style>
<circle class="st1" cx="29.9" cy="32.2" r="0.8"/>
<path class="st1" d="M37.4,28.8C37.4,28.8,37.4,28.8,37.4,28.8c-0.1-0.2-0.1-0.4-0.3-0.5c0,0,0,0,0,0l-3.3-2.7
	c-0.1-0.1-0.3-0.2-0.5-0.2H20.1V15.2c0.9-0.2,1.7-0.9,1.8-1.9h4c0.3,0,0.5-0.2,0.6-0.5l0.4-1.4l0.8,0.3c0.2,0,0.3,0,0.5,0
	c0.1-0.1,0.3-0.2,0.3-0.4l0.4-1.3l1.7,0.5c0.2,0.1,0.5,0,0.6-0.1l0.5-0.5l2.3,0.7c0.2,0,0.3,0,0.5,0c0.2-0.1,0.3-0.2,0.3-0.4
	l0.9-2.9c0.1-0.2,0-0.3,0-0.5c-0.1-0.2-0.2-0.3-0.4-0.3l0,0l0.9-0.8c0.2-0.2,0.2-0.4,0.2-0.6C36.4,5,36.2,4.8,36,4.7L22.8,0.6
	c-0.2-0.1-0.3,0-0.5,0C22.2,0.8,22,0.9,22,1.1l-1.8,5.7c0,0.2,0,0.3,0,0.5c0.1,0.2,0.2,0.3,0.4,0.3l4.1,1.3l-0.4,1.3
	c-0.1,0.3,0.1,0.7,0.4,0.8l0.9,0.3l-0.3,0.9h-3.5c-0.1-1-0.9-1.7-1.8-1.8V3.7c0-0.5-0.4-0.8-0.8-0.8c-0.5,0-0.8,0.4-0.8,0.8v12.8
	c-1,0.2-1.8,0.9-2,1.9h-3.7l-0.3-1l1-0.3c0.3-0.1,0.5-0.5,0.4-0.8l-0.4-1.3l4.3-1.3c0.2-0.1,0.3-0.2,0.4-0.3c0.1-0.2,0.1-0.3,0-0.5
	l-1.8-5.9c-0.1-0.2-0.2-0.3-0.3-0.4c-0.2-0.1-0.3-0.1-0.5,0L1.8,10.7c-0.2,0.1-0.4,0.3-0.5,0.5c-0.1,0.2,0,0.5,0.2,0.6l0.9,0.9l0,0
	c-0.2,0.1-0.3,0.2-0.4,0.3C2,13.1,2,13.3,2,13.5l0.9,3c0.1,0.2,0.2,0.3,0.3,0.4c0.2,0.1,0.3,0.1,0.5,0l2.4-0.8l0.5,0.5
	c0.2,0.2,0.4,0.2,0.7,0.2l1.8-0.6l0.4,1.3c0.1,0.2,0.2,0.3,0.3,0.4c0.2,0.1,0.3,0.1,0.5,0l0.9-0.3l0.4,1.4c0.1,0.3,0.3,0.5,0.6,0.5
	h4.2c0.1,1,0.9,1.8,2,2v3.8H5c-0.2,0-0.4,0.1-0.5,0.2l-3.3,2.7c0,0,0,0,0,0c-0.1,0.1-0.2,0.2-0.2,0.4c0,0,0,0.1,0,0.1
	c0,0.1,0,0.1,0,0.2v6.8c0,0.5,0.4,0.8,0.8,0.8h35c0.5,0,0.8-0.4,0.8-0.8V29C37.5,28.9,37.5,28.9,37.4,28.8z M27.5,10.4l-1.7-0.5
	L26,9.2l1.7,0.5L27.5,10.4z M33.9,9.3l-1-0.3l1.5-1.4l0.1,0L33.9,9.3z M21.6,6.5L23,2l11.5,3.6l-3.9,3.7L21.6,6.5z M20.1,11.6
	c0.3,0.2,0.5,0.5,0.5,0.8v0.7c0,0.4-0.2,0.7-0.5,0.8V11.6z M4,15.5l-0.5-1.8l0.1,0l1.5,1.4L4,15.5z M7.4,15.5l-4.1-3.9l12.1-3.8
	l1.5,4.7L7.4,15.5z M10.7,16.6l-0.2-0.7l1.8-0.6l0.2,0.7L10.7,16.6z M17.8,19.4v-0.7c0-0.4,0.3-0.8,0.6-0.9v2.5
	C18.1,20.2,17.8,19.8,17.8,19.4z M5.2,27.2H33l1.3,1H4L5.2,27.2z M35.8,31.3h-3.9c-0.5,0-0.8,0.4-0.8,0.8c0,0.5,0.4,0.8,0.8,0.8h3.9
	v2H2.4v-2h25.4c0.5,0,0.8-0.4,0.8-0.8c0-0.5-0.4-0.8-0.8-0.8H2.4v-1.5h3.1l30.3,0V31.3z"/>
</svg>
