<svg xmlns="http://www.w3.org/2000/svg" viewBox="0 0 507.5 507.5"><path d="M408 178.5c-20.4 0-38.3 7.6-51 20.4L175.9 94.3c2.6-5.1 2.6-12.8 2.6-17.8C178.5 33.2 145.4 0 102 0S25.5 33.2 25.5 76.5 58.7 153 102 153c20.4 0 38.3-7.6 51-20.4l181 104.6c-2.5 5.1-2.5 12.8-2.5 17.9 0 5.1 0 12.7 2.5 17.8L153 380c-12.8-12.8-30.6-20.4-51-20.4-40.8 0-73.9 33.1-73.9 73.9s33.1 74 73.9 74 73.9-33.1 73.9-74c0-5.1 0-10.2-2.6-17.9l181.1-107.1c12.8 12.8 30.6 20.4 51 20.4 43.4 0 76.5-33.1 76.5-76.5s-30.5-73.9-73.9-73.9z" fill="#00f"/></svg>