<svg version="1.1" id="Layer_1" xmlns="http://www.w3.org/2000/svg" x="0" y="0" viewBox="0 0 38 38" xml:space="preserve"><style></style><path d="M36 6.4c-.2-.1-.4-.1-.6.1L26 13.6c-.5.4-.6 1-.3 1.5l-1.5.4-2.2-.9h-.1c-2.1-.4-3.1 0-3.7.4h-5.9c.2-.5.1-1-.4-1.4L2.7 6.5c-.2-.2-.5-.2-.7-.1-.1.1-.3.3-.3.5v13.8c0 .2.1.4.3.5l3.6 2c.2.1.4.2.6.2.3 0 .6-.1.8-.3l.7.5c-.4.5-.5 1.2-.2 1.7.3.6.8 1 1.4 1h.4c0 .4.2.8.5 1.1.3.4.8.7 1.4.7h.2c0 .4.2.7.4 1 .3.4.8.6 1.3.6.2 0 .4 0 .6-.1.2.7.8 1.2 1.5 1.2h.1c.4 0 .8-.1 1.1-.4l.9-.7 2.1 1.4c.3.2.7.3 1.1.3h.4c.9-.2 1.5-.9 1.6-1.8.6.2 1.2.1 1.7-.3.5-.3.8-.9.9-1.5.7.2 1.4.1 1.9-.4s.8-1.2.7-1.9c.6-.1 1.1-.4 1.4-.9.3-.5.4-1.1.3-1.6l1.1-1.1.5.7c.3.5 1 .7 1.5.4l3.6-2c.2-.1.3-.3.3-.5V6.9c-.1-.2-.3-.4-.4-.5zm-33.1 14V8.1L9.3 13 4 21.1l-1.1-.7zm3.3 1.9L5 21.6l5.2-7.9 1.1.8-5.1 7.8zm3.1 2.8c-.1.1-.3.1-.4.1-.2 0-.4-.2-.5-.4-.1-.2 0-.4.1-.6l1.4-1.1c.1-.1.2-.1.4-.1s.4.2.5.4c.1.2 0 .4-.1.6l-1.4 1.1zm1.9 2c-.3 0-.6-.3-.7-.6-.1-.3 0-.7.2-.9l1.8-1.4c.3-.2.6-.3 1-.1.3.2.5.5.5.8 0 .2-.1.4-.3.6l-.5.4-1.3 1c-.3.1-.5.2-.7.2zm2.9.9l-.8.6c-.1.1-.3.1-.4.1-.1 0-.3-.1-.4-.2-.1-.1-.1-.3-.1-.4 0-.1.1-.3.2-.4l1.3-1.1.4-.3.4-.3c.1-.1.2-.1.4-.1s.4.2.5.4c.1.2 0 .4-.2.6L14.1 28zm2.9.6l-1.4 1.1c-.1.1-.3.1-.4.1-.2 0-.4-.2-.5-.4-.1-.2 0-.4.1-.6l1.4-1.1c.2-.2.6-.2.8.1.2.2.2.6 0 .8zm11.1-4.2c-.3.4-.8.5-1.2.2L23.1 22c-.2-.1-.4-.1-.6 0-.2.1-.3.3-.3.5s.1.4.2.5l3.7 2.5c.3.2.4.5.4.9-.1.3-.3.6-.7.7-.2 0-.5 0-.6-.1l-3.8-2.6c-.3-.2-.6-.1-.8.1-.2.3-.1.6.1.8l2.8 1.9c.4.3.5.8.2 1.2-.3.4-.8.5-1.2.3l-1-.7-1-.7c-.2-.1-.4-.1-.6-.1-.2.1-.3.3-.3.5s.1.4.2.5l1.1.8c.1 0 .1.1.1.1.3.3.4.8.1 1.2-.3.4-.8.4-1.2.2L18 29.2c.3-.5.4-1.1.1-1.7s-.8-.9-1.4-1c0-.9-.7-1.6-1.6-1.7h-.2c0-.7-.4-1.4-1-1.7s-1.4-.3-2 0c-.2-.5-.6-1-1.1-1.1-.5-.2-1.1 0-1.6.3l-.8.6-.9-.7 4-6h5.1c-.4.4-.6 1-.5 1.5.1.7.7 1.2 1.4 1.3 1.1.2 2.2 0 3.1-.5l1.5.9h.1l5.6 3.6.3.3c.2.5.1.8 0 1.1zm.6-2l-.2-.2-5.7-3.7h-.1L21 17.4c-.2-.1-.4-.1-.6 0-.8.4-1.8.6-2.7.5-.2 0-.4-.2-.4-.4s.1-.5.3-.6c.4-.2.8-.5 1.2-.8l.1-.1.1-.1c.2-.1.9-.6 2.8-.2l2.3 1c.1.1.3.1.4 0l2-.6 3.4 5.1-1.2 1.2zm3.1-.1l-5.2-7.7 1.1-.8 5.2 7.9-1.1.6zm3.3-1.9l-1.1.7-5.3-8.1 6.4-4.9v12.3z" fill="#090909"/></svg>