<?xml version="1.0" encoding="utf-8"?>
<!-- Generator: Adobe Illustrator 24.2.3, SVG Export Plug-In . SVG Version: 6.00 Build 0)  -->
<svg version="1.1" id="Layer_1" xmlns="http://www.w3.org/2000/svg" xmlns:xlink="http://www.w3.org/1999/xlink" x="0px" y="0px"
	 viewBox="0 0 46.4 20.2" style="enable-background:new 0 0 46.4 20.2;" xml:space="preserve">
<style type="text/css">
	.st0{fill:#FFED00;}
	.st1{fill:#FFFFFF;}
</style>
<path class="st0" d="M22.5,3.5h-3.2h-2h-2.5h-0.7H9.8H9.6h-5c-0.2,0-0.4,0.2-0.4,0.4c0,0.2,0.2,0.4,0.4,0.4h5h0.2h4.3h0.7h2.5h2h3.2
	c0.2,0,0.4-0.2,0.4-0.4C22.9,3.6,22.7,3.5,22.5,3.5z"/>
<path class="st0" d="M20.5,9h-3.2h-2h-2.5h-0.7H7.8H7.6h-5C2.4,9,2.2,9.2,2.2,9.4c0,0.2,0.2,0.4,0.4,0.4h5h0.2h4.3h0.7h2.5h2h3.2
	c0.2,0,0.4-0.2,0.4-0.4C20.9,9.2,20.7,9,20.5,9z"/>
<path class="st0" d="M21.8,13.9h-3.2h-2H16h-2.5h-2.6c-0.2,0-0.4,0.2-0.4,0.4c0,0.2,0.2,0.4,0.4,0.4h2.6H16h0.6h2h3.2
	c0.2,0,0.4-0.2,0.4-0.4C22.2,14.1,22.1,13.9,21.8,13.9z"/>
<g>
	<path class="st1" d="M42.5,9.1l-0.5-2.2c0.1,0,0.3-0.2,0.3-0.3V6.2c0-0.8-0.7-1.4-1.4-1.4h-2.5V4.1c0-0.4-0.3-0.7-0.7-0.7H24.8
		c-0.4,0-0.7,0.3-0.7,0.7v6.1c0,0.2,0.1,0.3,0.3,0.3s0.3-0.1,0.3-0.3V4.1h12.8v6.1v1.4v2.5h-6.9c-0.3-0.9-1.1-1.4-2-1.4
		s-1.7,0.6-2,1.4h-2v-0.7h1.4c0.2,0,0.3-0.1,0.3-0.3c0-0.2-0.1-0.3-0.3-0.3H23c-0.2,0-0.3,0.1-0.3,0.3c0,0.2,0.1,0.3,0.3,0.3h1.1
		v0.7c0,0.4,0.3,0.7,0.7,0.7h1.8c0,1.2,0.9,2.1,2.1,2.1c1.2,0,2.1-0.9,2.1-2.1h7.5c0,1.2,0.9,2.1,2.1,2.1c1.2,0,2.1-0.9,2.1-2.1h1.1
		c0.2,0,0.3-0.1,0.3-0.3v-3.6C44,10,43.3,9.2,42.5,9.1z M28.7,16.2c-0.8,0-1.4-0.7-1.4-1.4s0.7-1.4,1.4-1.4c0.8,0,1.4,0.7,1.4,1.4
		S29.5,16.2,28.7,16.2z M38.3,5.5h2.5c0.4,0,0.7,0.3,0.7,0.7h-3.2V5.5z M38.3,8.7V6.9h3l0.5,2.2h-3.5V8.7z M40.4,16.2
		c-0.8,0-1.4-0.7-1.4-1.4s0.7-1.4,1.4-1.4c0.8,0,1.4,0.7,1.4,1.4S41.2,16.2,40.4,16.2z M43.4,14.1h-0.1h-0.9c-0.3-0.9-1.1-1.4-2-1.4
		s-1.7,0.6-2,1.4h-0.1V13V9.8h3.9c0.5,0,0.9,0.3,1.1,0.7h-1.1c-0.2,0-0.3,0.1-0.3,0.3v0.7c0,0.6,0.5,1.1,1.1,1.1h0.4V14.1z
		 M43.3,11.1v0.8h-0.4c-0.2,0-0.4-0.2-0.4-0.4v-0.4H43.3z"/>
	<path class="st1" d="M33.7,7l-3,3l-1.5-1.5c-0.1-0.1-0.3-0.1-0.5,0c-0.1,0.1-0.1,0.3,0,0.5l1.8,1.8c0.1,0.1,0.1,0.1,0.3,0.1
		c0.1,0,0.2,0,0.3-0.1l3.2-3.2c0-0.1,0-0.3-0.1-0.5C34,6.8,33.8,6.8,33.7,7z"/>
	<path class="st1" d="M27.9,12c0.2,0,0.4-0.2,0.4-0.4c0-0.2-0.2-0.4-0.4-0.4h-5.2c-0.2,0-0.4,0.2-0.4,0.4c0,0.2,0.2,0.4,0.4,0.4
		H27.9z"/>
	<path class="st1" d="M30.8,12.9c0,0.2,0.2,0.4,0.4,0.4h5.2c0.2,0,0.4-0.2,0.4-0.4c0-0.2-0.2-0.4-0.4-0.4h-5.2
		C30.9,12.5,30.8,12.7,30.8,12.9z"/>
	<circle class="st1" cx="28.8" cy="14.7" r="0.7"/>
	<circle class="st1" cx="40.4" cy="14.7" r="0.7"/>
</g>
</svg>
