    <svg class="icon-user" xmlns="http://www.w3.org/2000/svg" viewBox="0 0 26 26">
      <g transform="translate(-1534 -30)">
        <g transform="translate(1531.4 27.4)">
          <path
            d="M24.1 21.466l-4.5-2.043a6.5 6.5 0 1 0-8 0l-4.494 2.041A3.238 3.238 0 0 0 6 22.29a11.7 11.7 0 1 1 19.2 0 3.247 3.247 0 0 0-1.105-.824M10.4 14.3a5.2 5.2 0 1 1 5.2 5.2 5.2 5.2 0 0 1-5.2-5.2m5.2 13a11.674 11.674 0 0 1-8.772-3.957 1.935 1.935 0 0 1 .816-.693l5.307-2.413a6.519 6.519 0 0 0 5.3 0l5.307 2.413a1.939 1.939 0 0 1 .815.693A11.671 11.671 0 0 1 15.6 27.3m0-24.7a13 13 0 1 0 13 13 13 13 0 0 0-13-13">
          </path>
        </g>
      </g>
    </svg>