<svg version="1.1" id="Layer_1" xmlns="http://www.w3.org/2000/svg" x="0" y="0" viewBox="0 0 38 38" xml:space="preserve"><style>.st0{fill:#090909}</style><path class="st0" d="M27.3 14.7c-.2-1.8-1.1-3.4-2.5-4.6-1.4-1.2-3.1-1.9-4.9-1.9-1.8 0-3.6.7-4.9 1.9a8.06 8.06 0 00-2.5 4.6c0 .2.1.4.3.4.2 0 .4-.1.4-.3.4-3.3 3.3-5.8 6.6-5.8s6.2 2.5 6.6 5.8c0 .2.2.3.4.3h.1c.3 0 .4-.2.4-.4zM27 16.2c-.2 0-.4.1-.4.3-.4 3.3-3.3 5.8-6.6 5.8-3.4 0-6.2-2.5-6.6-5.8 0-.2-.2-.4-.4-.3-.2 0-.4.2-.3.4.5 3.7 3.6 6.5 7.4 6.5 3.7 0 6.9-2.8 7.4-6.5-.2-.2-.3-.4-.5-.4z"/><path class="st0" d="M22.2 18.2h-.9v-6.7c0-.3-.2-.5-.5-.5h-1.3c-.1 0-.2 0-.3.1l-2.4 2c-.2.2-.2.5-.1.7l.8 1c.1.1.2.2.3.2.1 0 .3 0 .4-.1l.5-.5v3.7h-1.1c-.3 0-.5.2-.5.5v1.2c0 .3.2.5.5.5h4.5c.3 0 .5-.2.5-.5v-1.2c.1-.2-.1-.4-.4-.4zm-.3 1.4h-4V19H19c.3 0 .5-.2.5-.5v-4.6c0-.2-.1-.4-.3-.5-.2-.1-.4-.1-.5.1l-.8.6-.4-.6 2.1-1.8h.9v6.7c0 .3.2.5.5.5h.9v.7z"/><path class="st0" d="M30.5 28L27 22.5c.4-.1.8-.3 1-.6.3-.4.4-.9.3-1.3-.1-.4.1-.8.5-1 .4-.2.7-.6.9-1 .1-.5.1-.9-.2-1.3-.2-.3-.2-.8.1-1.1.3-.3.5-.8.4-1.3 0-.5-.3-.9-.7-1.2-.3-.2-.4-.7-.3-1 .2-.4.1-.9-.1-1.4-.2-.4-.6-.7-1-.9-.4-.1-.7-.5-.7-.9 0-.5-.2-.9-.5-1.2-.3-.3-.8-.5-1.3-.4-.4 0-.8-.2-.9-.6-.2-.4-.5-.8-1-1-.4-.2-.9-.1-1.4.1-.4.2-.8.1-1.1-.2-.3-.3-.8-.5-1.2-.5-.5 0-.9.2-1.2.5-.3.3-.7.4-1.1.2-.4-.2-.9-.2-1.4-.1-.4.2-.8.5-1 1-.1.4-.5.6-.9.6-.5 0-.9.1-1.3.4-.3.3-.5.8-.5 1.2 0 .4-.3.8-.7.9-.5.1-.8.4-1 .9-.2.4-.2.9-.1 1.4.1.4 0 .8-.3 1-.4.3-.6.7-.7 1.2 0 .5.1.9.4 1.3.3.3.3.7.1 1.1-.2.4-.3.9-.2 1.3.1.5.4.8.9 1 .4.2.6.6.5 1-.1.5 0 .9.3 1.3.2.3.6.5 1 .6L9.3 28c-.1.2-.1.5 0 .7.2.2.4.3.6.3l3.4-.3 1.2 3.2c.1.2.3.4.5.4h.1c.2 0 .4-.1.5-.3l4.3-6.7 4.3 6.7c.1.2.3.3.5.3h.1c.2 0 .4-.2.5-.4l1.2-3.2 3.4.3c.2 0 .5-.1.6-.3.1-.3.1-.5 0-.7zm-20.3.1l3.4-5.4c.1.1.2.3.2.5.1.3.2.6.5.9L11.9 28l-1.7.1zm4 .6l-.1-.4c-.1-.3-.4-.4-.6-.4h-.6l2.1-3.4c.3.1.7.1 1 0 .3-.1.6 0 .8.1l-2.6 4.1zm1 2.6l-.6-1.7 2.7-4.3c.2.2.5.3.8.4h.7l-3.6 5.6zm5-6.8c-.1-.1-.1-.1 0 0h-.4-.1c-.3 0-.5.1-.8.3-.2.2-.5.2-.7.2-.3 0-.5-.2-.6-.4l-.1-.1c-.4-.5-1.1-.8-1.8-.6-.2.1-.5 0-.7-.1-.2-.1-.4-.3-.4-.6-.1-.5-.5-1-.9-1.2h-.1c-.2-.1-.3-.1-.5-.1-.3 0-.5-.1-.6-.4-.2-.2-.2-.5-.2-.7.1-.7-.2-1.5-.9-1.8-.2-.1-.4-.3-.5-.6-.1-.2 0-.5.1-.7.4-.6.3-1.5-.2-2-.2-.2-.3-.4-.2-.7 0-.3.1-.5.4-.6.6-.4.8-1.2.6-1.9-.1-.2-.1-.5 0-.7.1-.2.3-.4.6-.5.7-.2 1.2-.9 1.2-1.6 0-.3.1-.5.3-.7.2-.2.4-.3.7-.2.7.1 1.4-.4 1.7-1.1.1-.2.3-.4.5-.5.2-.1.5-.1.7 0 .7.3 1.5.2 2-.4.2-.2.4-.3.7-.3.3 0 .5.1.7.3.5.6 1.3.7 2 .4.2-.1.5-.1.7 0 .2.1.4.3.5.5.3.7 1 1.1 1.7 1.1.3 0 .5.1.7.2.2.2.3.4.3.7 0 .7.5 1.4 1.2 1.6.2.1.4.2.6.5.1.2.1.5 0 .7-.3.7 0 1.5.6 1.9.2.2.3.4.4.6s-.1.5-.2.7c-.5.6-.6 1.4-.2 2 .1.2.2.5.1.7-.1.2-.2.4-.5.6-.7.3-1 1.1-.9 1.8 0 .3 0 .5-.2.7-.2.2-.4.3-.6.4-.2 0-.3.1-.5.1h-.1c-.5.2-.8.7-.9 1.2 0 .3-.2.5-.4.6-.2.1-.5.2-.7.1-.7-.2-1.4.1-1.8.6l-.1.1c-.1.2-.3.4-.6.4s-.5 0-.7-.2c-.4-.2-.7-.3-.9-.3zm4.5 6.8l-3.6-5.6h.7c.3-.1.6-.2.8-.4l2.7 4.3-.6 1.7zm1.7-3.4c-.3 0-.5.1-.6.4l-.1.4-2.5-4c.2-.2.5-.2.8-.1.3.1.7.1 1 0l2.1 3.4-.7-.1zm1.6.1l-2.4-3.9c.2-.2.4-.5.5-.9 0-.2.1-.3.2-.5l3.4 5.4L28 28z"/><circle cx="27.5" cy="26.5" r="4.9" fill="#2e9f4b"/><g><path d="M30.1 24.5c-.1-.1-.3-.1-.4 0l-3.2 3.2-1.2-1.2c-.1-.1-.3-.1-.4 0-.1.1-.1.3 0 .4l1.4 1.4c.1.1.3.1.4 0l3.4-3.4c.1-.1.1-.3 0-.4z" fill="#fff"/></g></svg>