<svg xmlns="http://www.w3.org/2000/svg" xmlns:xlink="http://www.w3.org/1999/xlink" width="33" height="25" viewBox="0 0 36.96 28"><defs><path id="a" d="M0 .154h36.96V28H0z"/></defs><clipPath id="b"><use xlink:href="#a" overflow="visible"/></clipPath><path d="M32.488 0H4.043A4.048 4.048 0 000 4.039v19.938c0 2.223 1.809 4.016 4.043 4.016h28.445c2.235 0 4.051-1.793 4.051-4.016V4.039C36.539 1.821 34.723 0 32.488 0zm1.563 23.977c0 .859-.688 1.574-1.563 1.574H4.043c-.875 0-1.602-.715-1.602-1.574V4.039c0-.859.727-1.55 1.602-1.55h28.445c.875 0 1.563.691 1.563 1.55v19.938zm0 0" clip-path="url(#b)"/><path d="M5.121 5.672c-.683 0-1.223.555-1.223 1.235V21.11a1.221 1.221 0 102.442 0V6.907c0-.68-.539-1.235-1.219-1.235zm0 0M9.652 5.672a2.046 2.046 0 00-2.043 2.059v7.562c0 1.137.907 2.059 2.043 2.059a2.046 2.046 0 002.043-2.059V7.731a2.046 2.046 0 00-2.043-2.059zm0 0M14.16 5.672c-.683 0-1.246.555-1.246 1.235v9.211c0 .683.563 1.234 1.246 1.234.684 0 1.246-.551 1.246-1.234V6.907c0-.68-.562-1.235-1.246-1.235zm0 0M18.691 5.672a2.068 2.068 0 00-2.066 2.059v7.562a2.066 2.066 0 004.133 0V7.731c0-1.137-.93-2.059-2.067-2.059zm0 0M23.203 5.672c-.683 0-1.223.555-1.223 1.235v9.211a1.221 1.221 0 102.442 0V6.907c0-.68-.539-1.235-1.219-1.235zm0 0M27.711 5.672a2.065 2.065 0 00-2.066 2.059v7.562c0 1.137.929 2.059 2.066 2.059a2.065 2.065 0 002.066-2.059V7.731a2.065 2.065 0 00-2.066-2.059zm0 0M31.82 5.672a.82.82 0 00-.82.824v15.028a.82.82 0 101.641 0V6.496a.822.822 0 00-.821-.824zm0 0M29.777 21.176a1.22 1.22 0 01-1.218 1.219H8.926a1.22 1.22 0 01-1.219-1.219v-1.558c0-.676.547-1.219 1.219-1.219h19.633c.671 0 1.218.543 1.218 1.219v1.558zm0 0"/></svg>