<svg version="1.1" id="Camada_1" xmlns="http://www.w3.org/2000/svg" xmlns:xlink="http://www.w3.org/1999/xlink"
      x="0px" y="0px" width="33px" height="25px" viewBox="0 0 36.96 28" style="enable-background:new 0 0 36.96 28;"
      xml:space="preserve">
      <g>
        <g>
          <defs>
            <rect id="SVGID_1_" y="0.154" width="36.96" height="27.846" />
          </defs>
          <clipPath id="SVGID_2_">
            <use xlink:href="#SVGID_1_" style="overflow:visible;" />
          </clipPath>
          <path style="clip-path:url(#SVGID_2_);" d="M32.488,0H4.043C1.809,0,0,1.821,0,4.039v19.938c0,2.223,1.809,4.016,4.043,4.016
                            h28.445c2.235,0,4.051-1.793,4.051-4.016V4.039C36.539,1.821,34.723,0,32.488,0L32.488,0z M34.051,23.977
                            c0,0.859-0.688,1.574-1.563,1.574H4.043c-0.875,0-1.602-0.715-1.602-1.574V4.039c0-0.859,0.727-1.55,1.602-1.55h28.445
                            c0.875,0,1.563,0.691,1.563,1.55V23.977z M34.051,23.977" />
        </g>
        <path d="M5.121,5.672c-0.683,0-1.223,0.555-1.223,1.235V21.11c0,0.683,0.54,1.234,1.223,1.234c0.68,0,1.219-0.551,1.219-1.234
                          V6.907C6.34,6.227,5.801,5.672,5.121,5.672L5.121,5.672z M5.121,5.672" />
        <path d="M9.652,5.672c-1.136,0-2.043,0.922-2.043,2.059v7.562c0,1.137,0.907,2.059,2.043,2.059c1.137,0,2.043-0.922,2.043-2.059
                          V7.731C11.695,6.594,10.789,5.672,9.652,5.672L9.652,5.672z M9.652,5.672" />
        <path d="M14.16,5.672c-0.683,0-1.246,0.555-1.246,1.235v9.211c0,0.683,0.563,1.234,1.246,1.234c0.684,0,1.246-0.551,1.246-1.234
                          V6.907C15.406,6.227,14.844,5.672,14.16,5.672L14.16,5.672z M14.16,5.672" />
        <path d="M18.691,5.672c-1.132,0-2.066,0.922-2.066,2.059v7.562c0,1.137,0.934,2.059,2.066,2.059c1.137,0,2.067-0.922,2.067-2.059
                          V7.731C20.758,6.594,19.828,5.672,18.691,5.672L18.691,5.672z M18.691,5.672" />
        <path d="M23.203,5.672c-0.683,0-1.223,0.555-1.223,1.235v9.211c0,0.683,0.54,1.234,1.223,1.234c0.68,0,1.219-0.551,1.219-1.234
                          V6.907C24.422,6.227,23.883,5.672,23.203,5.672L23.203,5.672z M23.203,5.672" />
        <path d="M27.711,5.672c-1.137,0-2.066,0.922-2.066,2.059v7.562c0,1.137,0.929,2.059,2.066,2.059c1.137,0,2.066-0.922,2.066-2.059
                          V7.731C29.777,6.594,28.848,5.672,27.711,5.672L27.711,5.672z M27.711,5.672" />
        <path d="M31.82,5.672c-0.453,0-0.82,0.367-0.82,0.824v15.028c0,0.453,0.367,0.82,0.82,0.82c0.453,0,0.821-0.367,0.821-0.82V6.496
                          C32.641,6.039,32.273,5.672,31.82,5.672L31.82,5.672z M31.82,5.672" />
        <path
          d="M29.777,21.176c0,0.672-0.547,1.219-1.218,1.219H8.926c-0.672,0-1.219-0.547-1.219-1.219v-1.558
                          c0-0.676,0.547-1.219,1.219-1.219h19.633c0.671,0,1.218,0.543,1.218,1.219V21.176z M29.777,21.176" />
      </g>
</svg>