<svg xmlns="http://www.w3.org/2000/svg" width="33" height="28" viewBox="0 0 125.145 100.114"><path d="M122.078 3.063C120.039 1.02 117.582 0 114.715 0H10.43C7.562 0 5.105 1.02 3.062 3.063 1.02 5.106 0 7.559 0 10.43v79.254c0 2.871 1.02 5.324 3.062 7.367 2.043 2.043 4.5 3.063 7.368 3.063h104.285c2.867 0 5.324-1.02 7.363-3.063 2.043-2.043 3.067-4.496 3.067-7.367V10.43c0-2.871-1.024-5.324-3.067-7.367zm-5.277 86.625c0 .562-.207 1.051-.621 1.465-.41.414-.899.617-1.465.617H10.43c-.567 0-1.055-.207-1.469-.617a2.019 2.019 0 01-.617-1.469V50.059h108.457v39.629zm0-64.66H8.344V10.426c0-.562.203-1.051.617-1.465s.902-.617 1.469-.617h104.285c.566 0 1.055.203 1.465.617.414.414.621.903.621 1.465v14.602zm0 0"/><path d="M16.688 75.086h16.684v8.344H16.688zM41.715 75.086h25.027v8.344H41.715z"/></svg>