<svg version="1.1" id="Layer_1" xmlns="http://www.w3.org/2000/svg" x="0" y="0" viewBox="0 0 46.4 20.2" xml:space="preserve"><style>.st0{fill:#ffed00}.st1{fill:#fff}</style><path class="st0" d="M22.5 3.5H4.6c-.2 0-.4.2-.4.4s.2.4.4.4h17.9c.2 0 .4-.2.4-.4 0-.3-.2-.4-.4-.4zM20.5 9H2.6c-.2 0-.4.2-.4.4s.2.4.4.4h17.9c.2 0 .4-.2.4-.4s-.2-.4-.4-.4zM21.8 13.9H10.9c-.2 0-.4.2-.4.4s.2.4.4.4H21.8c.2 0 .4-.2.4-.4s-.1-.4-.4-.4z"/><path class="st1" d="M42.5 9.1L42 6.9c.1 0 .3-.2.3-.3v-.4c0-.8-.7-1.4-1.4-1.4h-2.5v-.7c0-.4-.3-.7-.7-.7H24.8c-.4 0-.7.3-.7.7v6.1c0 .2.1.3.3.3s.3-.1.3-.3V4.1h12.8v10h-6.9c-.3-.9-1.1-1.4-2-1.4s-1.7.6-2 1.4h-2v-.7H26c.2 0 .3-.1.3-.3 0-.2-.1-.3-.3-.3h-3c-.2 0-.3.1-.3.3 0 .2.1.3.3.3h1.1v.7c0 .4.3.7.7.7h1.8c0 1.2.9 2.1 2.1 2.1 1.2 0 2.1-.9 2.1-2.1h7.5c0 1.2.9 2.1 2.1 2.1 1.2 0 2.1-.9 2.1-2.1h1.1c.2 0 .3-.1.3-.3v-3.6c.1-.9-.6-1.7-1.4-1.8zm-13.8 7.1c-.8 0-1.4-.7-1.4-1.4s.7-1.4 1.4-1.4c.8 0 1.4.7 1.4 1.4s-.6 1.4-1.4 1.4zm9.6-10.7h2.5c.4 0 .7.3.7.7h-3.2v-.7zm0 3.2V6.9h3l.5 2.2h-3.5v-.4zm2.1 7.5c-.8 0-1.4-.7-1.4-1.4s.7-1.4 1.4-1.4c.8 0 1.4.7 1.4 1.4s-.6 1.4-1.4 1.4zm3-2.1h-1c-.3-.9-1.1-1.4-2-1.4s-1.7.6-2 1.4h-.1V9.8h3.9c.5 0 .9.3 1.1.7h-1.1c-.2 0-.3.1-.3.3v.7c0 .6.5 1.1 1.1 1.1h.4v1.5zm-.1-3v.8h-.4c-.2 0-.4-.2-.4-.4v-.4h.8z"/><path class="st1" d="M33.7 7l-3 3-1.5-1.5c-.1-.1-.3-.1-.5 0-.1.1-.1.3 0 .5l1.8 1.8c.1.1.1.1.3.1.1 0 .2 0 .3-.1l3.2-3.2c0-.1 0-.3-.1-.5-.2-.3-.4-.3-.5-.1zM27.9 12c.2 0 .4-.2.4-.4s-.2-.4-.4-.4h-5.2c-.2 0-.4.2-.4.4s.2.4.4.4h5.2zM30.8 12.9c0 .2.2.4.4.4h5.2c.2 0 .4-.2.4-.4s-.2-.4-.4-.4h-5.2c-.3 0-.4.2-.4.4z"/><circle class="st1" cx="28.8" cy="14.7" r=".7"/><circle class="st1" cx="40.4" cy="14.7" r=".7"/></svg>