<?xml version="1.0" encoding="utf-8"?>
<!-- Generator: Adobe Illustrator 24.3.0, SVG Export Plug-In . SVG Version: 6.00 Build 0)  -->
<svg version="1.1" id="Layer_1" xmlns="http://www.w3.org/2000/svg" xmlns:xlink="http://www.w3.org/1999/xlink" x="0px" y="0px"
	 viewBox="0 0 38 38" style="enable-background:new 0 0 38 38;" xml:space="preserve">
<style type="text/css">
	.st0{fill:#090909;}
	.st1{fill:#FFFFFF;}
</style>
<g>
	<path class="st0" d="M19,5c4.4,0,4.9,0,6.7,0.1c1.6,0.1,2.5,0.3,3.1,0.6c0.8,0.3,1.3,0.7,1.9,1.2c0.6,0.6,0.9,1.1,1.2,1.9
		c0.2,0.6,0.5,1.5,0.6,3.1c0.1,1.7,0.1,2.3,0.1,6.7c0,4.4,0,4.9-0.1,6.7c-0.1,1.6-0.3,2.5-0.6,3.1c-0.3,0.8-0.7,1.3-1.2,1.9
		c-0.6,0.6-1.1,0.9-1.9,1.2c-0.6,0.2-1.5,0.5-3.1,0.6c-1.7,0.1-2.3,0.1-6.7,0.1s-4.9,0-6.7-0.1c-1.6-0.1-2.5-0.3-3.1-0.6
		c-0.8-0.3-1.3-0.7-1.9-1.2c-0.6-0.6-0.9-1.1-1.2-1.9c-0.2-0.6-0.5-1.5-0.6-3.1c-0.1-1.7-0.1-2.3-0.1-6.7c0-4.4,0-4.9,0.1-6.7
		c0.1-1.6,0.3-2.5,0.6-3.1C6.4,8,6.8,7.5,7.3,6.9C7.9,6.3,8.5,6,9.3,5.7c0.6-0.2,1.5-0.5,3.1-0.6C14.1,5,14.6,5,19,5 M19,2
		c-4.5,0-5.1,0-6.8,0.1c-1.8,0.1-3,0.4-4,0.8c-1.1,0.4-2,1-2.9,1.9C4.3,5.7,3.8,6.6,3.3,7.7c-0.4,1.1-0.7,2.3-0.8,4
		c-0.1,1.8-0.1,2.3-0.1,6.8s0,5.1,0.1,6.8c0.1,1.8,0.4,3,0.8,4c0.4,1.1,1,2,1.9,2.9c0.9,0.9,1.8,1.5,2.9,1.9c1.1,0.4,2.3,0.7,4,0.8
		c1.8,0.1,2.3,0.1,6.8,0.1s5.1,0,6.8-0.1c1.8-0.1,3-0.4,4-0.8c1.1-0.4,2-1,2.9-1.9c0.9-0.9,1.5-1.8,1.9-2.9c0.4-1.1,0.7-2.3,0.8-4
		c0.1-1.8,0.1-2.3,0.1-6.8s0-5.1-0.1-6.8c-0.1-1.8-0.4-3-0.8-4c-0.4-1.1-1-2-1.9-2.9c-0.9-0.9-1.8-1.5-2.9-1.9
		c-1.1-0.4-2.3-0.7-4-0.8C24.1,2,23.5,2,19,2L19,2z"/>
	<path class="st0" d="M19,10.1c-4.7,0-8.5,3.8-8.5,8.5S14.3,27,19,27s8.5-3.8,8.5-8.5S23.7,10.1,19,10.1z M19,24
		c-3,0-5.5-2.5-5.5-5.5S16,13,19,13s5.5,2.5,5.5,5.5S22,24,19,24z"/>
	<circle class="st0" cx="27.8" cy="9.7" r="2"/>
</g>
</svg>
