<svg xmlns="http://www.w3.org/2000/svg" width="33" height="26" viewBox="-31.93 209.27 477.859 375.463"><path d="M321.466 214.267c-6.666-6.664-17.472-6.662-24.136.004a17.066 17.066 0 00-4.997 12.063v51.2H172.867c-9.426 0-17.067 7.641-17.067 17.067s7.641 17.067 17.067 17.067H309.4c9.426 0 17.067-7.641 17.067-17.067v-27.068l78.268 78.268-78.268 78.268V397c0-9.426-7.641-17.067-17.067-17.067H121.667v-51.2c-.002-9.426-7.645-17.065-17.07-17.063a17.064 17.064 0 00-12.062 4.997L-26.933 436.134c-6.663 6.665-6.663 17.468 0 24.132L92.534 579.733c3.2 3.201 7.54 5 12.066 5.001a16.86 16.86 0 006.537-1.297 17.066 17.066 0 0010.53-15.77v-51.2h119.467c9.426 0 17.067-7.641 17.067-17.067s-7.641-17.067-17.067-17.067H104.6c-9.426 0-17.067 7.641-17.067 17.067v27.068L9.266 448.2l78.268-78.268V397c0 9.426 7.641 17.067 17.067 17.067h187.733v51.2c.002 9.426 7.645 17.065 17.07 17.063a17.068 17.068 0 0012.063-4.997l119.467-119.467c6.663-6.665 6.663-17.468 0-24.132L321.466 214.267z"/></svg>