<?xml version="1.0" encoding="utf-8"?>
<!-- Generator: Adobe Illustrator 24.3.0, SVG Export Plug-In . SVG Version: 6.00 Build 0)  -->
<svg version="1.1" id="Layer_1" xmlns="http://www.w3.org/2000/svg" xmlns:xlink="http://www.w3.org/1999/xlink" x="0px" y="0px"
	 viewBox="0 0 38 38" style="enable-background:new 0 0 38 38;" xml:space="preserve">
<style type="text/css">
	.st0{fill:#090909;}
	.st1{fill:#FFFFFF;}
</style>
<path class="st0" d="M35.7,10.1c-0.4-1.5-1.6-2.7-3.1-3.1c-2.7-0.7-13.6-0.7-13.6-0.7S8.2,6.3,5.4,7C4,7.4,2.8,8.6,2.4,10.1
	c-0.7,2.7-0.7,8.4-0.7,8.4s0,5.7,0.7,8.4c0.4,1.5,1.6,2.7,3.1,3.1c2.8,0.7,13.6,0.7,13.6,0.7s10.9,0,13.6-0.7
	c1.5-0.4,2.7-1.6,3.1-3.1c0.7-2.7,0.7-8.4,0.7-8.4S36.5,12.9,35.7,10.1z"/>
<path class="st1" d="M15.6,23.7l9.1-5.2l-9.1-5.2V23.7z"/>
</svg>
