<svg xmlns="http://www.w3.org/2000/svg" viewBox="0 0 38 38"><path d="M9.6 21.5c0 1.3 1 2.4 2.4 2.4h4.4v3.5c0 .3.1.5.4.6.2.1.5.1.7-.1l5-4h4.8c1.3 0 2.4-1.1 2.4-2.4v-8.7c0-.6-.2-1.2-.7-1.7-.4-.4-1-.7-1.7-.7H11.9c-.6 0-1.2.3-1.7.7s-.7 1.1-.7 1.7v8.7zm1.3-8.7c0-.3.1-.5.3-.7s.5-.3.7-.3h15.2c.3 0 .5.1.7.3.2.2.3.5.3.7v8.8c0 .6-.4 1.1-1 1.1h-5c-.1 0-.3 0-.4.1L17.6 26v-2.8c0-.4-.3-.6-.7-.6h-5c-.6 0-1-.5-1-1.1v-8.7z" fill="#090909"/><circle cx="29.1" cy="26.5" r="4.9" fill="#2e9f4b"/><path d="M31.7 24.5c-.1-.1-.3-.1-.4 0l-3.2 3.2-1.1-1.2c-.1-.1-.3-.1-.4 0-.1.1-.1.3 0 .4l1.4 1.4c.1.1.3.1.4 0l3.4-3.4c0-.1 0-.3-.1-.4z" fill="#fff"/></svg>