<?xml version="1.0" encoding="utf-8"?>
<!-- Generator: Adobe Illustrator 24.3.0, SVG Export Plug-In . SVG Version: 6.00 Build 0)  -->
<svg version="1.1" id="Layer_1" xmlns="http://www.w3.org/2000/svg" xmlns:xlink="http://www.w3.org/1999/xlink" x="0px" y="0px"
	 viewBox="0 0 38 38" style="enable-background:new 0 0 38 38;" xml:space="preserve">
<style type="text/css">
	.st0{fill:#090909;}
	.st1{fill:#FFFFFF;}
	.st2{fill:#2E9F4B;}
</style>
<g>
	<g>
		<path class="st0" d="M19.1,28.7c-5.2,0-9.4-4.2-9.4-9.4s4.2-9.4,9.4-9.4s9.4,4.2,9.4,9.4S24.3,28.7,19.1,28.7z M19.1,10.9
			c-4.6,0-8.4,3.8-8.4,8.4s3.8,8.4,8.4,8.4c4.6,0,8.4-3.8,8.4-8.4S23.8,10.9,19.1,10.9z"/>
	</g>
	<g>
		<rect x="18.9" y="8.3" class="st0" width="1" height="4.2"/>
	</g>
	<g>
		<rect x="18.9" y="13.2" class="st0" width="1" height="6.3"/>
	</g>
	<g>
		<rect x="13.5" y="18.6" class="st0" width="6.1" height="1"/>
	</g>
	<g>
		<rect x="10.3" y="18.8" class="st0" width="2" height="1"/>
	</g>
	<g>
		<rect x="17.4" y="7.8" class="st0" width="3.9" height="1"/>
	</g>
	<g>
		<rect x="18.9" y="25.9" class="st0" width="1" height="2"/>
	</g>
</g>
<circle class="st2" cx="27.5" cy="26.5" r="4.9"/>
<g>
	<g>
		<path class="st1" d="M30.1,24.5c-0.1-0.1-0.3-0.1-0.4,0l-3.2,3.2l-1.2-1.2c-0.1-0.1-0.3-0.1-0.4,0c-0.1,0.1-0.1,0.3,0,0.4l1.4,1.4
			c0.1,0.1,0.3,0.1,0.4,0l3.4-3.4C30.2,24.8,30.2,24.6,30.1,24.5z"/>
	</g>
</g>
</svg>
