<svg version="1.1" id="Layer_1" xmlns="http://www.w3.org/2000/svg" x="0" y="0" viewBox="0 0 38 38" xml:space="preserve"><style>.st0{fill:#090909}</style><path class="st0" d="M19 5c4.4 0 4.9 0 6.7.1 1.6.1 2.5.3 3.1.6.8.3 1.3.7 1.9 1.2.6.6.9 1.1 1.2 1.9.2.6.5 1.5.6 3.1.1 1.7.1 2.3.1 6.7s0 4.9-.1 6.7c-.1 1.6-.3 2.5-.6 3.1-.3.8-.7 1.3-1.2 1.9-.6.6-1.1.9-1.9 1.2-.6.2-1.5.5-3.1.6-1.7.1-2.3.1-6.7.1s-4.9 0-6.7-.1c-1.6-.1-2.5-.3-3.1-.6-.8-.3-1.3-.7-1.9-1.2-.6-.6-.9-1.1-1.2-1.9-.2-.6-.5-1.5-.6-3.1-.1-1.7-.1-2.3-.1-6.7s0-4.9.1-6.7c.1-1.6.3-2.5.6-3.1.3-.8.7-1.3 1.2-1.9.6-.6 1.2-.9 2-1.2.6-.2 1.5-.5 3.1-.6C14.1 5 14.6 5 19 5m0-3c-4.5 0-5.1 0-6.8.1-1.8.1-3 .4-4 .8-1.1.4-2 1-2.9 1.9-1 .9-1.5 1.8-2 2.9-.4 1.1-.7 2.3-.8 4-.1 1.8-.1 2.3-.1 6.8s0 5.1.1 6.8c.1 1.8.4 3 .8 4 .4 1.1 1 2 1.9 2.9.9.9 1.8 1.5 2.9 1.9 1.1.4 2.3.7 4 .8 1.8.1 2.3.1 6.8.1s5.1 0 6.8-.1c1.8-.1 3-.4 4-.8 1.1-.4 2-1 2.9-1.9.9-.9 1.5-1.8 1.9-2.9.4-1.1.7-2.3.8-4 .1-1.8.1-2.3.1-6.8s0-5.1-.1-6.8c-.1-1.8-.4-3-.8-4-.4-1.1-1-2-1.9-2.9-.9-.9-1.8-1.5-2.9-1.9-1.1-.4-2.3-.7-4-.8C24.1 2 23.5 2 19 2z"/><path class="st0" d="M19 10.1c-4.7 0-8.5 3.8-8.5 8.5S14.3 27 19 27s8.5-3.8 8.5-8.5-3.8-8.4-8.5-8.4zM19 24c-3 0-5.5-2.5-5.5-5.5S16 13 19 13s5.5 2.5 5.5 5.5S22 24 19 24z"/><circle class="st0" cx="27.8" cy="9.7" r="2"/></svg>