<?xml version="1.0" encoding="utf-8"?>
<!-- Generator: Adobe Illustrator 24.3.0, SVG Export Plug-In . SVG Version: 6.00 Build 0)  -->
<svg version="1.1" id="Layer_1" xmlns="http://www.w3.org/2000/svg" xmlns:xlink="http://www.w3.org/1999/xlink" x="0px" y="0px"
	 viewBox="0 0 38 38" style="enable-background:new 0 0 38 38;" xml:space="preserve">
<style type="text/css">
	.st0{fill:#090909;}
	.st1{fill:#FFFFFF;}
	.st2{fill:#2E9F4B;}
</style>
<path class="st0" d="M9.6,21.5c0,1.3,1,2.4,2.4,2.4h4.4v3.5c0,0.3,0.1,0.5,0.4,0.6c0.2,0.1,0.5,0.1,0.7-0.1l5-4h4.8
	c1.3,0,2.4-1.1,2.4-2.4v-2.2v-3V15v-0.7v-1.5c0-0.6-0.2-1.2-0.7-1.7c-0.4-0.4-1-0.7-1.7-0.7H11.9c-0.6,0-1.2,0.3-1.7,0.7
	s-0.7,1.1-0.7,1.7v3.6V21.5z M10.9,12.8c0-0.3,0.1-0.5,0.3-0.7s0.5-0.3,0.7-0.3h15.2c0.3,0,0.5,0.1,0.7,0.3c0.2,0.2,0.3,0.5,0.3,0.7
	v8.8c0,0.6-0.4,1.1-1,1.1h-5c-0.1,0-0.3,0-0.4,0.1L17.6,26v-2.8c0-0.4-0.3-0.6-0.7-0.6h-5c-0.6,0-1-0.5-1-1.1V12.8z"/>
<circle class="st2" cx="29.1" cy="26.5" r="4.9"/>
<g>
	<g>
		<path class="st1" d="M31.7,24.5c-0.1-0.1-0.3-0.1-0.4,0l-3.2,3.2L27,26.5c-0.1-0.1-0.3-0.1-0.4,0c-0.1,0.1-0.1,0.3,0,0.4l1.4,1.4
			c0.1,0.1,0.3,0.1,0.4,0l3.4-3.4C31.8,24.8,31.8,24.6,31.7,24.5z"/>
	</g>
</g>
</svg>
