<svg version="1.1" id="Layer_1" xmlns="http://www.w3.org/2000/svg" x="0" y="0" viewBox="0 0 38 38" xml:space="preserve"><style>.st0{fill:#090909}</style><path class="st0" d="M19.1 28.7c-5.2 0-9.4-4.2-9.4-9.4s4.2-9.4 9.4-9.4 9.4 4.2 9.4 9.4-4.2 9.4-9.4 9.4zm0-17.8c-4.6 0-8.4 3.8-8.4 8.4s3.8 8.4 8.4 8.4c4.6 0 8.4-3.8 8.4-8.4s-3.7-8.4-8.4-8.4z"/><path class="st0" d="M18.9 8.3h1v4.2h-1zM18.9 13.2h1v6.3h-1z"/><path class="st0" d="M13.5 18.6h6.1v1h-6.1zM10.3 18.8h2v1h-2zM17.4 7.8h3.9v1h-3.9zM18.9 25.9h1v2h-1z"/><circle cx="27.5" cy="26.5" r="4.9" fill="#2e9f4b"/><g><path d="M30.1 24.5c-.1-.1-.3-.1-.4 0l-3.2 3.2-1.2-1.2c-.1-.1-.3-.1-.4 0-.1.1-.1.3 0 .4l1.4 1.4c.1.1.3.1.4 0l3.4-3.4c.1-.1.1-.3 0-.4z" fill="#fff"/></g></svg>