<?xml version="1.0" encoding="utf-8"?>
<!-- Generator: Adobe Illustrator 24.3.0, SVG Export Plug-In . SVG Version: 6.00 Build 0)  -->
<svg version="1.1" id="Layer_1" xmlns="http://www.w3.org/2000/svg" xmlns:xlink="http://www.w3.org/1999/xlink" x="0px" y="0px"
	 viewBox="0 0 38 38" style="enable-background:new 0 0 38 38;" xml:space="preserve">
<style type="text/css">
	.st0{fill:#090909;}
	.st1{fill:#FFFFFF;}
	.st2{fill:#2E9F4B;}
</style>
<g>
	<g>
		<g>
			<path class="st0" d="M27.3,14.7c-0.2-1.8-1.1-3.4-2.5-4.6c-1.4-1.2-3.1-1.9-4.9-1.9c-1.8,0-3.6,0.7-4.9,1.9
				c-1.3,1.2-2.2,2.8-2.5,4.6c0,0.2,0.1,0.4,0.3,0.4c0.2,0,0.4-0.1,0.4-0.3c0.4-3.3,3.3-5.8,6.6-5.8c3.3,0,6.2,2.5,6.6,5.8
				c0,0.2,0.2,0.3,0.4,0.3c0,0,0,0,0.1,0C27.2,15.1,27.3,14.9,27.3,14.7z"/>
		</g>
	</g>
	<g>
		<g>
			<path class="st0" d="M27,16.2c-0.2,0-0.4,0.1-0.4,0.3c-0.4,3.3-3.3,5.8-6.6,5.8c-3.4,0-6.2-2.5-6.6-5.8c0-0.2-0.2-0.4-0.4-0.3
				c-0.2,0-0.4,0.2-0.3,0.4c0.5,3.7,3.6,6.5,7.4,6.5c3.7,0,6.9-2.8,7.4-6.5C27.3,16.4,27.2,16.2,27,16.2z"/>
		</g>
	</g>
	<g>
		<g>
			<path class="st0" d="M22.2,18.2h-0.9v-6.7c0-0.3-0.2-0.5-0.5-0.5h-1.3c-0.1,0-0.2,0-0.3,0.1l-2.4,2c-0.2,0.2-0.2,0.5-0.1,0.7
				l0.8,1c0.1,0.1,0.2,0.2,0.3,0.2c0.1,0,0.3,0,0.4-0.1l0.5-0.5v3.7h-1.1v0c-0.3,0-0.5,0.2-0.5,0.5v1.2c0,0.3,0.2,0.5,0.5,0.5h4.5
				c0.3,0,0.5-0.2,0.5-0.5v-1.2C22.7,18.4,22.5,18.2,22.2,18.2z M21.9,19.6h-4v-0.6H19c0.3,0,0.5-0.2,0.5-0.5v-4.6
				c0-0.2-0.1-0.4-0.3-0.5c-0.2-0.1-0.4-0.1-0.5,0.1l-0.8,0.6l-0.4-0.6l2.1-1.8h0.9v6.7c0,0.3,0.2,0.5,0.5,0.5h0.9V19.6z"/>
		</g>
	</g>
	<g>
		<g>
			<path class="st0" d="M30.5,28L27,22.5c0.4-0.1,0.8-0.3,1-0.6c0.3-0.4,0.4-0.9,0.3-1.3c-0.1-0.4,0.1-0.8,0.5-1
				c0.4-0.2,0.7-0.6,0.9-1c0.1-0.5,0.1-0.9-0.2-1.3c-0.2-0.3-0.2-0.8,0.1-1.1c0.3-0.3,0.5-0.8,0.4-1.3c0-0.5-0.3-0.9-0.7-1.2
				c-0.3-0.2-0.4-0.7-0.3-1c0.2-0.4,0.1-0.9-0.1-1.4c-0.2-0.4-0.6-0.7-1-0.9c-0.4-0.1-0.7-0.5-0.7-0.9c0-0.5-0.2-0.9-0.5-1.2
				c-0.3-0.3-0.8-0.5-1.3-0.4c-0.4,0-0.8-0.2-0.9-0.6c-0.2-0.4-0.5-0.8-1-1c-0.4-0.2-0.9-0.1-1.4,0.1c-0.4,0.2-0.8,0.1-1.1-0.2
				c-0.3-0.3-0.8-0.5-1.2-0.5c-0.5,0-0.9,0.2-1.2,0.5c-0.3,0.3-0.7,0.4-1.1,0.2c-0.4-0.2-0.9-0.2-1.4-0.1c-0.4,0.2-0.8,0.5-1,1
				c-0.1,0.4-0.5,0.6-0.9,0.6c-0.5,0-0.9,0.1-1.3,0.4c-0.3,0.3-0.5,0.8-0.5,1.2c0,0.4-0.3,0.8-0.7,0.9c-0.5,0.1-0.8,0.4-1,0.9
				c-0.2,0.4-0.2,0.9-0.1,1.4c0.1,0.4,0,0.8-0.3,1c-0.4,0.3-0.6,0.7-0.7,1.2c0,0.5,0.1,0.9,0.4,1.3c0.3,0.3,0.3,0.7,0.1,1.1
				c-0.2,0.4-0.3,0.9-0.2,1.3c0.1,0.5,0.4,0.8,0.9,1c0.4,0.2,0.6,0.6,0.5,1c-0.1,0.5,0,0.9,0.3,1.3c0.2,0.3,0.6,0.5,1,0.6L9.3,28
				c-0.1,0.2-0.1,0.5,0,0.7C9.5,28.9,9.7,29,9.9,29l3.4-0.3l1.2,3.2c0.1,0.2,0.3,0.4,0.5,0.4c0,0,0,0,0.1,0c0.2,0,0.4-0.1,0.5-0.3
				l4.3-6.7l4.3,6.7c0.1,0.2,0.3,0.3,0.5,0.3c0,0,0,0,0.1,0c0.2,0,0.4-0.2,0.5-0.4l1.2-3.2l3.4,0.3c0.2,0,0.5-0.1,0.6-0.3
				C30.6,28.4,30.6,28.2,30.5,28z M10.2,28.1l3.4-5.4c0.1,0.1,0.2,0.3,0.2,0.5c0.1,0.3,0.2,0.6,0.5,0.9L11.9,28L10.2,28.1z
				 M14.2,28.7l-0.1-0.4c-0.1-0.3-0.4-0.4-0.6-0.4l-0.6,0l2.1-3.4c0.3,0.1,0.7,0.1,1,0c0.3-0.1,0.6,0,0.8,0.1L14.2,28.7z M15.2,31.3
				l-0.6-1.7l2.7-4.3c0.2,0.2,0.5,0.3,0.8,0.4c0.2,0,0.5,0,0.7,0L15.2,31.3z M20.2,24.5C20.1,24.4,20.1,24.4,20.2,24.5
				c-0.1,0-0.2,0-0.2,0c-0.1,0-0.1,0-0.2,0c0,0-0.1,0-0.1,0c-0.3,0-0.5,0.1-0.8,0.3c-0.2,0.2-0.5,0.2-0.7,0.2
				c-0.3,0-0.5-0.2-0.6-0.4c0,0-0.1-0.1-0.1-0.1c0,0,0,0,0,0c-0.4-0.5-1.1-0.8-1.8-0.6c-0.2,0.1-0.5,0-0.7-0.1
				c-0.2-0.1-0.4-0.3-0.4-0.6c-0.1-0.5-0.5-1-0.9-1.2c0,0,0,0-0.1,0c-0.2-0.1-0.3-0.1-0.5-0.1c-0.3,0-0.5-0.1-0.6-0.4
				c-0.2-0.2-0.2-0.5-0.2-0.7c0.1-0.7-0.2-1.5-0.9-1.8c-0.2-0.1-0.4-0.3-0.5-0.6c-0.1-0.2,0-0.5,0.1-0.7c0.4-0.6,0.3-1.5-0.2-2
				c-0.2-0.2-0.3-0.4-0.2-0.7c0-0.3,0.1-0.5,0.4-0.6c0.6-0.4,0.8-1.2,0.6-1.9c-0.1-0.2-0.1-0.5,0-0.7c0.1-0.2,0.3-0.4,0.6-0.5
				c0.7-0.2,1.2-0.9,1.2-1.6c0-0.3,0.1-0.5,0.3-0.7c0.2-0.2,0.4-0.3,0.7-0.2c0.7,0.1,1.4-0.4,1.7-1.1c0.1-0.2,0.3-0.4,0.5-0.5
				c0.2-0.1,0.5-0.1,0.7,0c0.7,0.3,1.5,0.2,2-0.4c0.2-0.2,0.4-0.3,0.7-0.3c0.3,0,0.5,0.1,0.7,0.3c0.5,0.6,1.3,0.7,2,0.4
				c0.2-0.1,0.5-0.1,0.7,0c0.2,0.1,0.4,0.3,0.5,0.5c0.3,0.7,1,1.1,1.7,1.1c0.3,0,0.5,0.1,0.7,0.2c0.2,0.2,0.3,0.4,0.3,0.7
				c0,0.7,0.5,1.4,1.2,1.6c0.2,0.1,0.4,0.2,0.6,0.5c0.1,0.2,0.1,0.5,0,0.7c-0.3,0.7,0,1.5,0.6,1.9c0.2,0.2,0.3,0.4,0.4,0.6
				s-0.1,0.5-0.2,0.7c-0.5,0.6-0.6,1.4-0.2,2c0.1,0.2,0.2,0.5,0.1,0.7c-0.1,0.2-0.2,0.4-0.5,0.6c-0.7,0.3-1,1.1-0.9,1.8
				c0,0.3,0,0.5-0.2,0.7c-0.2,0.2-0.4,0.3-0.6,0.4c-0.2,0-0.3,0.1-0.5,0.1c0,0-0.1,0-0.1,0c-0.5,0.2-0.8,0.7-0.9,1.2
				c0,0.3-0.2,0.5-0.4,0.6c-0.2,0.1-0.5,0.2-0.7,0.1c-0.7-0.2-1.4,0.1-1.8,0.6c0,0,0,0,0,0c0,0-0.1,0.1-0.1,0.1
				c-0.1,0.2-0.3,0.4-0.6,0.4c-0.3,0-0.5,0-0.7-0.2C20.7,24.6,20.4,24.5,20.2,24.5z M24.7,31.3l-3.6-5.6c0.1,0,0.3,0,0.4,0
				c0.1,0,0.2,0,0.3,0c0.3-0.1,0.6-0.2,0.8-0.4l2.7,4.3L24.7,31.3z M26.4,27.9c-0.3,0-0.5,0.1-0.6,0.4l-0.1,0.4l-2.5-4
				c0.2-0.2,0.5-0.2,0.8-0.1c0.3,0.1,0.7,0.1,1,0l2.1,3.4L26.4,27.9z M28,28l-2.4-3.9c0.2-0.2,0.4-0.5,0.5-0.9
				c0-0.2,0.1-0.3,0.2-0.5l3.4,5.4L28,28z"/>
		</g>
	</g>
</g>
<circle class="st2" cx="27.5" cy="26.5" r="4.9"/>
<g>
	<g>
		<path class="st1" d="M30.1,24.5c-0.1-0.1-0.3-0.1-0.4,0l-3.2,3.2l-1.2-1.2c-0.1-0.1-0.3-0.1-0.4,0c-0.1,0.1-0.1,0.3,0,0.4l1.4,1.4
			c0.1,0.1,0.3,0.1,0.4,0l3.4-3.4C30.2,24.8,30.2,24.6,30.1,24.5z"/>
	</g>
</g>
</svg>
