<svg version="1.1" xmlns="http://www.w3.org/2000/svg" xmlns:xlink="http://www.w3.org/1999/xlink" x="0px" y="0px"
      width="33px" height="28px" viewBox="0 0 125.145 100.114" style="enable-background:new 0 0 125.145 100.114;"
      xml:space="preserve">
      <g>
        <path
          d="M122.078,3.063C120.039,1.02,117.582,0,114.715,0H10.43C7.562,0,5.105,1.02,3.062,3.063C1.02,5.106,0,7.559,0,10.43v79.254
                            c0,2.871,1.02,5.324,3.062,7.367c2.043,2.043,4.5,3.063,7.368,3.063h104.285c2.867,0,5.324-1.02,7.363-3.063
                            c2.043-2.043,3.067-4.496,3.067-7.367V10.43C125.145,7.559,124.121,5.106,122.078,3.063L122.078,3.063z M116.801,89.688
                            c0,0.562-0.207,1.051-0.621,1.465c-0.41,0.414-0.899,0.617-1.465,0.617H10.43c-0.567,0-1.055-0.207-1.469-0.617
                            c-0.41-0.414-0.617-0.903-0.617-1.469V50.059h108.457V89.688z M116.801,25.028H8.344V10.426c0-0.562,0.203-1.051,0.617-1.465
                            s0.902-0.617,1.469-0.617h104.285c0.566,0,1.055,0.203,1.465,0.617c0.414,0.414,0.621,0.903,0.621,1.465V25.028z M116.801,25.028" />
        <rect x="16.688" y="75.086" width="16.684" height="8.344" />
        <rect x="41.715" y="75.086" width="25.027" height="8.344" />
      </g>
</svg>