<svg xmlns="http://www.w3.org/2000/svg" width="44" height="44" viewBox="0 0 44 44"><g fill="none" fill-rule="evenodd"><path fill-rule="nonzero" stroke="#333" stroke-width="3" d="M41.348 16.36a.48.48 0 0 0 .032-.4.603.603 0 0 0-.317-.346l-4.848-2.35a2.017 2.017 0 0 1-1.128-1.501l-.86-5.147c-.048-.287-.32-.51-.67-.51a.876.876 0 0 0-.123.008l-5.39.824a2.083 2.083 0 0 1-1.733-.555L22.46 2.701a.721.721 0 0 0-.504-.201c-.2 0-.368.067-.505.2l-3.852 3.683a2.09 2.09 0 0 1-1.747.553l-5.367-.821a.899.899 0 0 0-.131-.01c-.357 0-.624.22-.67.509l-.85 5.134a2.054 2.054 0 0 1-1.122 1.511l-4.846 2.35a.612.612 0 0 0-.327.351.485.485 0 0 0 .035.405l2.489 4.646a2.03 2.03 0 0 1-.008 1.893L2.561 27.55a.48.48 0 0 0-.032.399.603.603 0 0 0 .317.346l4.848 2.351a2.02 2.02 0 0 1 1.13 1.505l.84 5.142c.048.287.32.51.671.51a.876.876 0 0 0 .123-.008l5.389-.824a2.083 2.083 0 0 1 1.733.555l3.852 3.682c.136.13.313.201.505.201a.696.696 0 0 0 .504-.2l3.852-3.683a2.09 2.09 0 0 1 1.747-.553l5.367.821c.044.007.088.01.131.01.357 0 .625-.22.67-.509l.85-5.134a2.054 2.054 0 0 1 1.122-1.511l4.846-2.35a.612.612 0 0 0 .327-.351.485.485 0 0 0-.035-.405l-2.488-4.646a2.032 2.032 0 0 1 .01-1.896l2.508-4.642zM6.383 33.344a.891.891 0 0 0 .01.005l-.01-.005zm-.508-22.089l-.003.016.003-.016zm38.112 6.532z"/><path fill="#333" d="M21.82 31.391V29.45c-2.225-.131-3.904-1.048-4.995-2.291l1.069-1.375a6.17 6.17 0 0 0 3.927 2.051v-5.323c-2.226-.61-4.538-1.353-4.538-4.036 0-2.269 1.898-3.862 4.538-4.014v-2.007h1.33v2.028c1.811.175 3.23.873 4.298 1.986l-1.09 1.33c-.873-.938-1.986-1.483-3.207-1.657v4.734c2.247.632 4.625 1.483 4.625 4.32 0 1.985-1.266 3.992-4.625 4.254v1.941H21.82zm4.08-6.043c0-1.418-1.221-2.007-2.748-2.465v4.952c2.072-.218 2.748-1.462 2.748-2.487zm-6.74-6.981c0 1.222 1.177 1.723 2.66 2.16v-4.45c-1.57.108-2.66 1.003-2.66 2.29z"/></g></svg>