<svg version="1.1" id="Layer_1" xmlns="http://www.w3.org/2000/svg" x="0" y="0" viewBox="0 0 38 38" xml:space="preserve"><style>.st1{fill:#fff}</style><path class="st1" d="M19 4.2c.5 0 .8-.4.8-.8V2.1c0-.5-.4-.8-.8-.8-.5 0-.8.4-.8.8v1.3c0 .4.3.8.8.8zM24.9 5.8c.1.1.3.1.4.1.3 0 .6-.2.7-.4l.7-1.2c.1-.2.1-.4.1-.6-.1-.2-.2-.4-.4-.5-.4-.2-.9-.1-1.2.3l-.7 1.2c-.1.2-.1.4-.1.6.2.2.3.4.5.5zM29.6 10.4c.1 0 .3 0 .4-.1l1.3-.7c.2-.1.3-.3.4-.5s0-.4-.1-.6c-.1-.2-.3-.3-.5-.4-.2-.1-.4 0-.6.1l-1.3.7c-.4.2-.5.7-.3 1.1.1.2.4.4.7.4zM32.7 15h-1.3c-.5 0-.8.4-.8.8 0 .5.4.8.8.8h1.3c.5 0 .8-.4.8-.8 0-.5-.4-.8-.8-.8zM12 5.5c.1.3.4.4.7.4.1 0 .3 0 .4-.1.2-.1.3-.3.4-.5.1-.2 0-.4-.1-.6l-.7-1.2c-.1-.2-.3-.3-.5-.4-.2-.1-.4 0-.6.1-.2.1-.3.3-.4.5-.1.2 0 .4.1.6l.7 1.2zM6.8 9.6l1.2.7c.1.1.3.1.4.1.3 0 .6-.2.7-.4.1-.2.1-.4.1-.6s-.2-.5-.4-.6l-1.2-.7c-.2-.1-.5-.1-.7 0-.2 0-.4.2-.5.4-.2.4 0 .9.4 1.1zM6.7 16.6c.5 0 .8-.4.8-.8 0-.5-.4-.8-.8-.8H5.3c-.5 0-.8.4-.8.8 0 .5.4.8.8.8h1.4zM32.2 32h-1.5v-4.1c0-.5-.4-.8-.8-.8h-1.3V15.4c0-5.3-4.3-9.5-9.5-9.5-5.3 0-9.5 4.3-9.5 9.5V27H8.2c-.5 0-.8.4-.8.8V32H5.8c-.5 0-.8.4-.8.8v3.1c0 .5.4.8.8.8h26.4c.5 0 .8-.4.8-.8v-3.1c0-.4-.3-.8-.8-.8zm-11-11.2c1-.7 1.6-1.9 1.6-3.1 0-2.1-1.7-3.8-3.8-3.8s-3.8 1.7-3.8 3.8c0 1.2.6 2.4 1.6 3.1v6.3h-5.7V15.4c0-4.4 3.5-7.9 7.9-7.9 4.3 0 7.9 3.5 7.9 7.9V27h-5.7v-6.2zM18 19.6c-.7-.4-1.2-1.1-1.2-1.9 0-1.2 1-2.2 2.2-2.2s2.2 1 2.2 2.2c0 .8-.4 1.5-1.2 1.9-.3.1-.4.4-.4.7V27h-1.1v-6.7c-.1-.3-.2-.6-.5-.7zm-1.3 13.2c0-.5-.4-.8-.8-.8H9v-3.3h20V32h-6.9c-.5 0-.8.4-.8.8 0 .5.4.8.8.8h9.3v1.5H6.6v-1.5h9.3c.4 0 .8-.3.8-.8z"/><path class="st1" d="M19 33.6c.2 0 .3 0 .4-.1.3-.2.5-.6.3-1-.1-.3-.4-.5-.7-.5-.3 0-.6.3-.7.6-.1.3 0 .7.3.9.1.1.2.1.4.1z"/></svg>