<?xml version="1.0" encoding="utf-8"?>
<!-- Generator: Adobe Illustrator 24.2.3, SVG Export Plug-In . SVG Version: 6.00 Build 0)  -->
<svg version="1.1" id="Layer_1" xmlns="http://www.w3.org/2000/svg" xmlns:xlink="http://www.w3.org/1999/xlink" x="0px" y="0px"
	 viewBox="0 0 38 38" style="enable-background:new 0 0 38 38;" xml:space="preserve">
<style type="text/css">
	.st0{fill:#090909;}
	.st1{fill:#FFFFFF;}
	.st2{fill:#FFFFFF;stroke:#090909;stroke-miterlimit:10;}
</style>
<g>
	<path class="st1" d="M19,4.2c0.5,0,0.8-0.4,0.8-0.8V2.1c0-0.5-0.4-0.8-0.8-0.8c-0.5,0-0.8,0.4-0.8,0.8v1.3
		C18.2,3.8,18.5,4.2,19,4.2z"/>
	<path class="st1" d="M24.9,5.8c0.1,0.1,0.3,0.1,0.4,0.1c0.3,0,0.6-0.2,0.7-0.4l0.7-1.2c0.1-0.2,0.1-0.4,0.1-0.6
		c-0.1-0.2-0.2-0.4-0.4-0.5C26,3,25.5,3.1,25.2,3.5l-0.7,1.2c-0.1,0.2-0.1,0.4-0.1,0.6C24.6,5.5,24.7,5.7,24.9,5.8z"/>
	<path class="st1" d="M29.6,10.4c0.1,0,0.3,0,0.4-0.1l1.3-0.7c0.2-0.1,0.3-0.3,0.4-0.5s0-0.4-0.1-0.6c-0.1-0.2-0.3-0.3-0.5-0.4
		c-0.2-0.1-0.4,0-0.6,0.1l-1.3,0.7c-0.4,0.2-0.5,0.7-0.3,1.1C29,10.2,29.3,10.4,29.6,10.4z"/>
	<path class="st1" d="M32.7,15h-1.3c-0.5,0-0.8,0.4-0.8,0.8c0,0.5,0.4,0.8,0.8,0.8h1.3c0.5,0,0.8-0.4,0.8-0.8
		C33.5,15.3,33.1,15,32.7,15z"/>
	<path class="st1" d="M12,5.5c0.1,0.3,0.4,0.4,0.7,0.4c0.1,0,0.3,0,0.4-0.1c0.2-0.1,0.3-0.3,0.4-0.5c0.1-0.2,0-0.4-0.1-0.6l-0.7-1.2
		c-0.1-0.2-0.3-0.3-0.5-0.4c-0.2-0.1-0.4,0-0.6,0.1c-0.2,0.1-0.3,0.3-0.4,0.5c-0.1,0.2,0,0.4,0.1,0.6L12,5.5z"/>
	<path class="st1" d="M6.8,9.6L8,10.3c0.1,0.1,0.3,0.1,0.4,0.1c0.3,0,0.6-0.2,0.7-0.4c0.1-0.2,0.1-0.4,0.1-0.6S9,8.9,8.8,8.8
		L7.6,8.1C7.4,8,7.1,8,6.9,8.1C6.7,8.1,6.5,8.3,6.4,8.5C6.2,8.9,6.4,9.4,6.8,9.6z"/>
	<path class="st1" d="M6.7,16.6c0.5,0,0.8-0.4,0.8-0.8c0-0.5-0.4-0.8-0.8-0.8H5.3c-0.5,0-0.8,0.4-0.8,0.8c0,0.5,0.4,0.8,0.8,0.8H6.7
		z"/>
	<path class="st1" d="M32.2,32h-1.5v-4.1c0-0.5-0.4-0.8-0.8-0.8h-1.3V15.4c0-5.3-4.3-9.5-9.5-9.5c-5.3,0-9.5,4.3-9.5,9.5v11.6H8.2
		c-0.5,0-0.8,0.4-0.8,0.8V32H5.8C5.3,32,5,32.4,5,32.8v3.1c0,0.5,0.4,0.8,0.8,0.8h26.4c0.5,0,0.8-0.4,0.8-0.8v-3.1
		C33,32.4,32.7,32,32.2,32z M21.2,20.8c1-0.7,1.6-1.9,1.6-3.1c0-2.1-1.7-3.8-3.8-3.8s-3.8,1.7-3.8,3.8c0,1.2,0.6,2.4,1.6,3.1v6.3
		h-5.7V15.4c0-4.4,3.5-7.9,7.9-7.9c4.3,0,7.9,3.5,7.9,7.9v11.6h-5.7V20.8z M18,19.6c-0.7-0.4-1.2-1.1-1.2-1.9c0-1.2,1-2.2,2.2-2.2
		s2.2,1,2.2,2.2c0,0.8-0.4,1.5-1.2,1.9c-0.3,0.1-0.4,0.4-0.4,0.7v6.7h-1.1v-6.7C18.4,20,18.3,19.7,18,19.6z M16.7,32.8
		c0-0.5-0.4-0.8-0.8-0.8H9v-3.3h20V32h-6.9c-0.5,0-0.8,0.4-0.8,0.8c0,0.5,0.4,0.8,0.8,0.8h9.3v1.5H6.6v-1.5h9.3
		C16.3,33.6,16.7,33.3,16.7,32.8z"/>
	<path class="st1" d="M19,33.6c0.2,0,0.3,0,0.4-0.1c0.3-0.2,0.5-0.6,0.3-1C19.6,32.2,19.3,32,19,32c-0.3,0-0.6,0.3-0.7,0.6
		c-0.1,0.3,0,0.7,0.3,0.9C18.7,33.6,18.8,33.6,19,33.6z"/>
</g>
</svg>
