<?xml version="1.0" encoding="utf-8"?>
<!-- Generator: Adobe Illustrator 24.2.3, SVG Export Plug-In . SVG Version: 6.00 Build 0)  -->
<svg version="1.1" id="Camada_1" xmlns="http://www.w3.org/2000/svg" xmlns:xlink="http://www.w3.org/1999/xlink" x="0px" y="0px"
	 viewBox="0 0 885 566.9" style="enable-background:new 0 0 885 566.9;" xml:space="preserve">
<style type="text/css">
	.st0{fill:#FEEB18;}
	.st1{fill:#B81818;}
	.st2{fill:#DC1717;}
	.st3{fill:#FFFFFF;}
</style>
<g>
	<path class="st0" d="M814.5,302.8h-734c-12.7,0-23-10.3-23-23v-192c0-12.7,10.3-23,23-23h734c12.7,0,23,10.3,23,23v192
		C837.5,292.5,827.2,302.8,814.5,302.8z"/>
	<g>
		<g>
			<path class="st1" d="M96.3,111.9h22.4v122.4h36.9v20.4H96.3V111.9z"/>
			<path class="st1" d="M165.4,111.9h22.4v142.8h-22.4V111.9z"/>
			<path class="st1" d="M202.4,146.1c0-22.9,12-35.9,34.1-35.9s34.1,13.1,34.1,35.9v74.3c0,8-1.4,14.7-4.3,20c1,2.7,2.7,3.1,6.3,3.1
				h2v20h-3.1c-10,0-16.3-3.7-19.4-9.8c-4.5,1.6-9.8,2.7-15.7,2.7c-22,0-34.1-13.1-34.1-35.9V146.1z M224.8,221.8
				c0,10.2,4.5,14.1,11.6,14.1c7.1,0,11.6-3.9,11.6-14.1v-77.1c0-10.2-4.5-14.1-11.6-14.1c-7.1,0-11.6,3.9-11.6,14.1V221.8z"/>
			<path class="st1" d="M306.4,111.9V222c0,10.2,4.5,13.9,11.6,13.9c7.1,0,11.6-3.7,11.6-13.9V111.9h21.2v108.7
				c0,22.9-11.4,35.9-33.5,35.9S284,243.5,284,220.6V111.9H306.4z"/>
			<path class="st1" d="M366.2,111.9h22.4v142.8h-22.4V111.9z"/>
			<path class="st1" d="M404.9,111.9h35.5c22.4,0,33.5,12.4,33.5,35.3v72.2c0,22.9-11,35.3-33.5,35.3h-35.5V111.9z M427.4,132.3v102
				H440c7.1,0,11.4-3.7,11.4-13.9v-74.3c0-10.2-4.3-13.9-11.4-13.9H427.4z"/>
			<path class="st1" d="M560.6,254.7H538l-3.9-25.9h-27.5l-3.9,25.9h-20.6l22.9-142.8h32.8L560.6,254.7z M509.4,209.4H531
				l-10.6-72.2H520L509.4,209.4z"/>
			<path class="st1" d="M635.9,201.4v19c0,21.2-10,34.1-29,35.7v6.5c10,0,15.1,2.4,15.1,9.6c0,11-8.6,12.4-20.6,12.4
				c-11.2,0-19.6-2.4-19.6-11.8v-2h15.1v1.6c0,3.1,2.2,4.1,4.5,4.1c3.5,0,5.1-1.4,5.1-4.9c0-3.9-2.4-5.3-7.3-5.3h-2v-10.4
				c-18.6-1.8-28.2-14.5-28.2-35.5v-74.3c0-22.9,11.4-35.9,33.5-35.9c22,0,33.5,13.1,33.5,35.9V160h-21.2v-15.3
				c0-10.2-4.5-14.1-11.6-14.1c-7.1,0-11.6,3.9-11.6,14.1v77.1c0,10.2,4.5,13.9,11.6,13.9c7.1,0,11.6-3.7,11.6-13.9v-20.4H635.9z"/>
			<path class="st1" d="M722.2,254.7h-22.6l-3.9-25.9h-27.5l-3.9,25.9h-20.6l22.9-142.8h32.8L722.2,254.7z M699.8,82.9l10.8,7.5
				c-3.5,9.2-9.2,13.9-17.3,13.9c-3.3,0-6.1-0.6-10.8-2.9c-3.3-1.6-5.3-2.2-7.5-2.2c-4.5,0-6.7,1.6-8.8,5.9l-10.8-7.5
				c3.5-9.2,9.2-13.9,17.3-13.9c3.7,0,6.7,0.8,10.8,2.9c3.3,1.6,5.3,2.2,7.5,2.2C695.5,88.8,697.7,87.2,699.8,82.9z M671,209.4h21.6
				L682,137.2h-0.4L671,209.4z"/>
			<path class="st1" d="M730.6,146.1c0-22.9,12-35.9,34.1-35.9c22,0,34.1,13.1,34.1,35.9v74.3c0,22.9-12,35.9-34.1,35.9
				c-22,0-34.1-13.1-34.1-35.9V146.1z M753,221.8c0,10.2,4.5,14.1,11.6,14.1c7.1,0,11.6-3.9,11.6-14.1v-77.1
				c0-10.2-4.5-14.1-11.6-14.1c-7.1,0-11.6,3.9-11.6,14.1V221.8z"/>
		</g>
	</g>
</g>
<g>
	<path class="st2" d="M165.8,430.4h-79c-12.7,0-23-10.3-23-23v-61.6c0-12.7,10.3-23,23-23h79c12.7,0,23,10.3,23,23v61.6
		C188.8,420.1,178.5,430.4,165.8,430.4z"/>
	<g>
		<path class="st3" d="M88.9,337.3h17.7c11.2,0,16.7,6.2,16.7,17.6V391c0,11.4-5.5,17.6-16.7,17.6H88.9V337.3z M100.1,347.5v51h6.3
			c3.6,0,5.7-1.8,5.7-6.9v-37.1c0-5.1-2.1-6.9-5.7-6.9H100.1z"/>
		<path class="st3" d="M166.7,408.7h-11.3l-1.9-12.9h-13.8l-1.9,12.9h-10.3l11.4-71.4h16.4L166.7,408.7z M141.1,386h10.8l-5.3-36.1
			h-0.2L141.1,386z"/>
	</g>
</g>
<g>
	<path class="st2" d="M814.8,488.4h-581c-12.7,0-23-10.3-23-23V345.8c0-12.7,10.3-23,23-23h581c12.7,0,23,10.3,23,23v119.6
		C837.8,478.1,827.5,488.4,814.8,488.4z"/>
	<g>
		<path class="st3" d="M276,343.1c16.6,0,25.2,9.9,25.2,27.4v3.4H285v-4.5c0-7.8-3.1-10.7-8.5-10.7s-8.5,3-8.5,10.7
			c0,7.9,3.4,13.8,14.6,23.6c14.3,12.6,18.8,21.6,18.8,34c0,17.4-8.7,27.4-25.5,27.4c-16.8,0-25.5-9.9-25.5-27.4v-6.7h16.2v7.8
			c0,7.8,3.4,10.6,8.9,10.6s8.9-2.8,8.9-10.6c0-7.9-3.4-13.8-14.6-23.6c-14.3-12.6-18.8-21.6-18.8-34
			C250.8,353,259.4,343.1,276,343.1z"/>
		<path class="st3" d="M328.2,390.2h23.5v15.5h-23.5v31.9h29.5v15.5h-46.6V344.3h46.6v15.5h-29.5V390.2z"/>
		<path class="st3" d="M394,392.5h23.9V427c0,17.4-8.7,27.4-25.5,27.4c-16.8,0-25.5-9.9-25.5-27.4v-56.6c0-17.4,8.7-27.4,25.5-27.4
			c16.8,0,25.5,9.9,25.5,27.4V381h-16.2v-11.7c0-7.8-3.4-10.7-8.9-10.7s-8.9,3-8.9,10.7v58.7c0,7.8,3.4,10.6,8.9,10.6
			s8.9-2.8,8.9-10.6v-20H394V392.5z"/>
		<path class="st3" d="M445.3,344.3v83.9c0,7.8,3.4,10.6,8.9,10.6s8.9-2.8,8.9-10.6v-83.9h16.2v82.8c0,17.4-8.7,27.4-25.5,27.4
			c-16.8,0-25.5-9.9-25.5-27.4v-82.8H445.3z"/>
		<path class="st3" d="M526.6,453.1c-0.9-2.8-1.6-4.5-1.6-13.4v-17.1c0-10.1-3.4-13.8-11.2-13.8h-5.9v44.3h-17.1V344.3h25.8
			c17.7,0,25.3,8.2,25.3,25v8.5c0,11.2-3.6,18.3-11.2,21.9v0.3c8.5,3.6,11.3,11.7,11.3,23v16.8c0,5.3,0.2,9.2,1.9,13.2H526.6z
			 M507.9,359.9v33.4h6.7c6.4,0,10.3-2.8,10.3-11.5v-10.7c0-7.8-2.6-11.2-8.7-11.2H507.9z"/>
		<path class="st3" d="M608.6,453.1h-17.3l-3-19.7h-21l-3,19.7h-15.7l17.4-108.8h25L608.6,453.1z M569.6,418.6h16.5l-8.1-55h-0.3
			L569.6,418.6z"/>
		<path class="st3" d="M632.1,374.3h-0.3v78.8h-15.4V344.3h21.4l17.3,65.1h0.3v-65.1h15.2v108.8h-17.6L632.1,374.3z"/>
		<path class="st3" d="M732.5,412.5V427c0,16.2-7.6,26-22.1,27.2v5c7.6,0,11.5,1.9,11.5,7.3c0,8.4-6.5,9.5-15.7,9.5
			c-8.5,0-14.9-1.9-14.9-9v-1.6h11.5v1.2c0,2.3,1.7,3.1,3.4,3.1c2.6,0,3.9-1.1,3.9-3.7c0-3-1.9-4-5.6-4h-1.6V454
			c-14.1-1.4-21.4-11-21.4-27v-56.6c0-17.4,8.7-27.4,25.5-27.4c16.8,0,25.5,9.9,25.5,27.4V381h-16.2v-11.7c0-7.8-3.4-10.7-8.9-10.7
			s-8.9,3-8.9,10.7v58.7c0,7.8,3.4,10.6,8.9,10.6s8.9-2.8,8.9-10.6v-15.5H732.5z"/>
		<path class="st3" d="M798.2,453.1H781l-3-19.7h-21l-3,19.7h-15.7l17.4-108.8h25L798.2,453.1z M759.2,418.6h16.5l-8.1-55h-0.3
			L759.2,418.6z"/>
	</g>
</g>
</svg>
