<?xml version="1.0" encoding="utf-8"?>
<svg version="1.1" id="Layer_1" xmlns="http://www.w3.org/2000/svg" xmlns:xlink="http://www.w3.org/1999/xlink" x="0px" y="0px"
	 viewBox="0 0 200 30" style="enable-background:new 0 0 200 30;" xml:space="preserve">
<style type="text/css">
	.tudoforte-st0{fill:#3453C4;}
	.tudoforte-st1{fill:#ef3742;}
	.tudoforte-st2{fill:none;stroke:#3453C6;stroke-width:6;stroke-miterlimit:10;}
	.tudoforte-st3{fill:#3453C6;}
	.tudoforte-st4{fill-rule:evenodd;clip-rule:evenodd;fill:#ef3742;}
</style>
<g>
	<polygon class="tudoforte-st0" points="30,6.8 37.3,6.8 37.3,28.9 43.5,28.9 43.5,6.8 51,6.8 51,1.6 30,1.6 	"/>
	<path class="tudoforte-st0" d="M70.1,10.2h-5.9v11.2c0,0.5,0,0.9-0.2,1.3c-0.4,0.9-1.3,2-2.9,2c-2,0-2.9-1.7-2.9-4.4V10.2h-5.9v11
		c0,5.8,2.8,8.2,6.6,8.2c3.4,0,5.2-1.9,5.9-3.1h0.1l0.3,2.7h5.1c-0.1-1.6-0.2-3.6-0.2-6V10.2z"/>
	<path class="tudoforte-st0" d="M103.3,9.7c-6,0-10.1,3.9-10.1,10c0,6.1,4.2,9.7,9.7,9.7c5,0,9.9-3.2,9.9-10.1C113,13.7,109.1,9.7,103.3,9.7z
		 M103.2,25.2c-2.5,0-3.9-2.4-3.9-5.7c0-2.8,1-5.7,3.9-5.7c2.7,0,3.7,2.8,3.7,5.7C106.9,22.9,105.5,25.2,103.2,25.2z"/>
	<path class="tudoforte-st0" d="M91.5,23.4V1.6h-5.8v10.2h-0.1c-0.9-1.3-2.7-2.1-5-2.1c-4.5,0-8.5,3.7-8.4,10c0,5.9,3.6,9.7,8.1,9.7
		c2.4,0,4.7-1.1,5.9-3.2h0.1l0.3,2.8h5.2C91.6,27.7,91.5,25.5,91.5,23.4z M85.3,20.6c0,0.5,0,0.9-0.2,1.3c-0.3,1.7-1.7,2.8-3.4,2.8
		c-2.4,0-4-2-4-5.2c0-3,1.4-5.4,4-5.4c1.8,0,3.1,1.3,3.4,2.9c0,0.3,0.1,0.7,0.1,1V20.6z"/>
</g>
<g>
	<polygon class="tudoforte-st1" points="115.1,29 121.3,29 121.3,18 131.1,18 131.1,13 121.3,13 121.3,6.7 131.8,6.7 131.8,1.6 115.1,1.6 	"/>
	<path class="tudoforte-st1" d="M142.7,9.7c-6,0-10.1,3.9-10.1,10c0,6.1,4.2,9.7,9.7,9.7c5,0,9.9-3.2,9.9-10.1C152.4,13.7,148.5,9.7,142.7,9.7
		z M143,25.2c-2.5,0-3.9-2.4-3.9-5.7c0-2.8,1-5.7,3.9-5.7c2.7,0,3.7,2.8,3.7,5.7C146.7,22.9,145.2,25.2,143,25.2z"/>
	<path class="tudoforte-st1" d="M159.8,13.6h-0.2l-0.2-3.5h-5c0.1,1.6,0.2,3.4,0.2,6.2V29h5.8v-9.5c0-0.5,0-0.9,0.1-1.3c0.4-1.8,1.8-3,4-3
		c0.7,0,1.2,0.1,1.6,0.2V9.8c-0.4-0.1-0.7-0.1-1.2-0.1C163.1,9.7,160.7,10.9,159.8,13.6z"/>
	<path class="tudoforte-st1" d="M199.1,19.1c0-4.7-2.3-9.4-8.4-9.4c-6.5,0-9.5,5.3-9.5,10.1c0,5.9,3.7,9.6,10.1,9.6c2.5,0,4.9-0.4,6.8-1.2
		l-0.8-4c-1.6,0.5-3.2,0.8-5.2,0.8c-2.7,0-5.1-1.2-5.3-3.6h12.1C199,21,199.1,20.1,199.1,19.1z M186.7,17.4c0.2-1.6,1.2-3.8,3.6-3.8
		c2.7,0,3.3,2.4,3.3,3.8H186.7z"/>
	<path class="tudoforte-st1" d="M175.8,4.8l-5.7,1.3v4.1h-2.5v4.3h2.5v7.7c0,2.7,0.5,4.5,1.6,5.6c0.9,1,2.5,1.6,4.4,1.6c1.6,0,3-0.2,3.8-0.5
		l0-4.4c-0.4,0.1-1,0.2-1.7,0.2c-1.8,0-2.3-1-2.3-3.3v-6.8h4.2v-4.3h-4.2V4.8z"/>
</g>
<g>
	<path class="tudoforte-st3" d="M5.5,16.5c-0.5,0-1-0.4-1-1C4.5,10,9,5.5,14.6,5.5c3.3,0,6.4,1.6,8.3,4.3c0.3,0.4,0.2,1-0.2,1.3
		c-0.4,0.3-1,0.2-1.3-0.2c-1.5-2.2-4-3.5-6.7-3.5c-4.5,0-8.2,3.7-8.2,8.2C6.4,16.1,6,16.5,5.5,16.5z"/>
</g>
<g>
	<path class="tudoforte-st3" d="M14.7,25.5c-3.6,0-6.8-1.8-8.6-4.9c-0.3-0.5-0.1-1.1,0.3-1.3c0.5-0.3,1.1-0.1,1.3,0.3c1.5,2.5,4.1,3.9,7,3.9
		c2.6,0,4.9-1.2,6.5-3.2c0.3-0.4,0.9-0.5,1.4-0.2c0.4,0.3,0.5,0.9,0.2,1.4C20.8,24.1,17.9,25.5,14.7,25.5z"/>
</g>
<g>
	<path class="tudoforte-st3" d="M14.6,28.9c-5.2,0-9.9-2.9-12.2-7.6c-0.2-0.5,0-1.1,0.4-1.3c0.5-0.2,1.1,0,1.3,0.4c2,4,6,6.5,10.5,6.5
		c3.7,0,7.3-1.8,9.5-4.8c0.3-0.4,0.9-0.5,1.4-0.2c0.4,0.3,0.5,0.9,0.2,1.4C23.1,26.9,19,28.9,14.6,28.9z"/>
</g>
<g>
	<path class="tudoforte-st3" d="M2,17.4c-0.5,0-0.9-0.4-1-0.9C1,16.1,1,15.7,1,15.3C1,7.7,7.1,1.6,14.6,1.6c4.8,0,9.1,2.4,11.6,6.5l0,0.1
		c0.3,0.5,0.1,1.1-0.3,1.3c-0.5,0.3-1.1,0.1-1.3-0.3l0,0c-2.2-3.5-5.9-5.6-10-5.6C8.2,3.6,2.9,8.8,2.9,15.3c0,0.3,0,0.7,0,1
		C3,16.9,2.6,17.3,2,17.4C2.1,17.4,2,17.4,2,17.4z"/>
</g>
<g>
	<circle class="tudoforte-st4" cx="14.6" cy="15.5" r="5.8"/>
</g>
</svg>
