<svg version="1.1" id="Layer_1" xmlns="http://www.w3.org/2000/svg" x="0" y="0" viewBox="0 0 200 30" xml:space="preserve"><style>.tudoforte-st0{fill:#3453c4}.tudoforte-st1{fill:#ef3742}.tudoforte-st3{fill:#3453c6}</style><path class="tudoforte-st0" d="M30 6.8h7.3v22.1h6.2V6.8H51V1.6H30zM70.1 10.2h-5.9v11.2c0 .5 0 .9-.2 1.3-.4.9-1.3 2-2.9 2-2 0-2.9-1.7-2.9-4.4V10.2h-5.9v11c0 5.8 2.8 8.2 6.6 8.2 3.4 0 5.2-1.9 5.9-3.1h.1l.3 2.7h5.1c-.1-1.6-.2-3.6-.2-6V10.2zM103.3 9.7c-6 0-10.1 3.9-10.1 10s4.2 9.7 9.7 9.7c5 0 9.9-3.2 9.9-10.1.2-5.6-3.7-9.6-9.5-9.6zm-.1 15.5c-2.5 0-3.9-2.4-3.9-5.7 0-2.8 1-5.7 3.9-5.7 2.7 0 3.7 2.8 3.7 5.7 0 3.4-1.4 5.7-3.7 5.7zM91.5 23.4V1.6h-5.8v10.2h-.1c-.9-1.3-2.7-2.1-5-2.1-4.5 0-8.5 3.7-8.4 10 0 5.9 3.6 9.7 8.1 9.7 2.4 0 4.7-1.1 5.9-3.2h.1l.3 2.8h5.2c-.2-1.3-.3-3.5-.3-5.6zm-6.2-2.8c0 .5 0 .9-.2 1.3-.3 1.7-1.7 2.8-3.4 2.8-2.4 0-4-2-4-5.2 0-3 1.4-5.4 4-5.4 1.8 0 3.1 1.3 3.4 2.9 0 .3.1.7.1 1v2.6z"/><path class="tudoforte-st1" d="M115.1 29h6.2V18h9.8v-5h-9.8V6.7h10.5V1.6h-16.7zM142.7 9.7c-6 0-10.1 3.9-10.1 10s4.2 9.7 9.7 9.7c5 0 9.9-3.2 9.9-10.1.2-5.6-3.7-9.6-9.5-9.6zm.3 15.5c-2.5 0-3.9-2.4-3.9-5.7 0-2.8 1-5.7 3.9-5.7 2.7 0 3.7 2.8 3.7 5.7 0 3.4-1.5 5.7-3.7 5.7zM159.8 13.6h-.2l-.2-3.5h-5c.1 1.6.2 3.4.2 6.2V29h5.8v-9.5c0-.5 0-.9.1-1.3.4-1.8 1.8-3 4-3 .7 0 1.2.1 1.6.2V9.8c-.4-.1-.7-.1-1.2-.1-1.8 0-4.2 1.2-5.1 3.9zM199.1 19.1c0-4.7-2.3-9.4-8.4-9.4-6.5 0-9.5 5.3-9.5 10.1 0 5.9 3.7 9.6 10.1 9.6 2.5 0 4.9-.4 6.8-1.2l-.8-4c-1.6.5-3.2.8-5.2.8-2.7 0-5.1-1.2-5.3-3.6h12.1c.1-.4.2-1.3.2-2.3zm-12.4-1.7c.2-1.6 1.2-3.8 3.6-3.8 2.7 0 3.3 2.4 3.3 3.8h-6.9zM175.8 4.8l-5.7 1.3v4.1h-2.5v4.3h2.5v7.7c0 2.7.5 4.5 1.6 5.6.9 1 2.5 1.6 4.4 1.6 1.6 0 3-.2 3.8-.5v-4.4c-.4.1-1 .2-1.7.2-1.8 0-2.3-1-2.3-3.3v-6.8h4.2v-4.3h-4.2V4.8z"/><g><path class="tudoforte-st3" d="M5.5 16.5c-.5 0-1-.4-1-1 0-5.5 4.5-10 10.1-10 3.3 0 6.4 1.6 8.3 4.3.3.4.2 1-.2 1.3-.4.3-1 .2-1.3-.2-1.5-2.2-4-3.5-6.7-3.5-4.5 0-8.2 3.7-8.2 8.2-.1.5-.5.9-1 .9z"/></g><g><path class="tudoforte-st3" d="M14.7 25.5c-3.6 0-6.8-1.8-8.6-4.9-.3-.5-.1-1.1.3-1.3.5-.3 1.1-.1 1.3.3 1.5 2.5 4.1 3.9 7 3.9 2.6 0 4.9-1.2 6.5-3.2.3-.4.9-.5 1.4-.2.4.3.5.9.2 1.4-2 2.6-4.9 4-8.1 4z"/></g><g><path class="tudoforte-st3" d="M14.6 28.9c-5.2 0-9.9-2.9-12.2-7.6-.2-.5 0-1.1.4-1.3.5-.2 1.1 0 1.3.4 2 4 6 6.5 10.5 6.5 3.7 0 7.3-1.8 9.5-4.8.3-.4.9-.5 1.4-.2.4.3.5.9.2 1.4-2.6 3.6-6.7 5.6-11.1 5.6z"/></g><g><path class="tudoforte-st3" d="M2 17.4c-.5 0-.9-.4-1-.9v-1.2C1 7.7 7.1 1.6 14.6 1.6c4.8 0 9.1 2.4 11.6 6.5v.1c.3.5.1 1.1-.3 1.3-.5.3-1.1.1-1.3-.3-2.2-3.5-5.9-5.6-10-5.6-6.4 0-11.7 5.2-11.7 11.7v1c.1.6-.3 1-.9 1.1.1 0 0 0 0 0z"/></g><g><circle cx="14.6" cy="15.5" r="5.8" fill-rule="evenodd" clip-rule="evenodd" fill="#ef3742"/></g></svg>