<?xml version="1.0" encoding="utf-8"?>
<!-- Generator: Adobe Illustrator 24.2.3, SVG Export Plug-In . SVG Version: 6.00 Build 0)  -->
<svg version="1.1" id="Camada_1" xmlns="http://www.w3.org/2000/svg" xmlns:xlink="http://www.w3.org/1999/xlink" x="0px" y="0px"
	 viewBox="0 0 1043.2 342.5" style="enable-background:new 0 0 1043.2 342.5;" xml:space="preserve">
<style type="text/css">
	.st0{fill:#FFFFFF;}
	.st1{fill:#FBB900;stroke:#FBB900;stroke-width:2;stroke-miterlimit:10;}
	.st2{fill:#FFFFFF;stroke:#FFFFFF;stroke-width:2;stroke-miterlimit:10;}
	.st3{fill:#FFFFFF;stroke:#FFFFFF;stroke-miterlimit:10;}
	.st4{fill:none;stroke:#FFFFFF;stroke-miterlimit:10;}
	.st5{fill:none;stroke:#FBB900;stroke-width:4;stroke-miterlimit:10;}
</style>
<g>
	<g>
		<path class="st0" d="M40,74.8h34l-0.9,4.9H44.6l-2.7,13.7h26.7l-1,4.8H41L37.8,115h29.5l-0.9,4.9H31.3L40,74.8z"/>
		<path class="st0" d="M82.6,74.8h4.7l12.7,25.7l24.1-25.7h4.9l-8.7,45h-5.6l6.9-35.3l-23.1,24.4L86.3,84.6l-6.8,35.1h-5.6
			L82.6,74.8z"/>
		<path class="st0" d="M148.3,98.8c0-13.8,10.3-24.8,24.1-24.8c7.3,0,13.3,2.6,17,6.5l-4,3.7c-3.4-3.3-7.6-5.1-13.1-5.1
			c-10.4,0-18.4,8.4-18.4,19.8c0,9.4,7.1,16.5,17.2,16.5c5.1,0,9-1.7,12.1-4.5l3.3,4c-4.2,3.5-9.3,5.6-16,5.6
			C157.4,120.4,148.3,111.1,148.3,98.8z"/>
		<path class="st0" d="M199.3,74.8h5.6l-8.7,45h-5.6L199.3,74.8z"/>
		<path class="st0" d="M215.4,74.8h4.7l12.7,25.7L257,74.8h4.9l-8.7,45h-5.6l6.9-35.3l-23.1,24.4l-12.2-24.2l-6.8,35.1h-5.6
			L215.4,74.8z"/>
		<path class="st0" d="M289,74.6h4.9l12.5,45.1h-5.6l-2.5-8.7h-27.6l-5.8,8.7h-5.8L289,74.6z M297.1,106.5L290.3,81l-16.7,25.5
			H297.1z"/>
		<path class="st0" d="M336.4,74.8h16.7c12.7,0,19.6,7.6,19.6,18.5c0,13.8-9.8,26.5-27.5,26.5h-17.6L336.4,74.8z M345.3,114.9
			c12.8,0,21.7-9.4,21.7-21.3c0-8.3-5.1-14-15.1-14h-10.8l-6.9,35.3C334.2,114.9,345.3,114.9,345.3,114.9z"/>
		<path class="st0" d="M402.4,74.6h4.9l12.5,45.1h-5.6l-2.5-8.7h-27.6l-5.8,8.7h-5.8L402.4,74.6z M410.6,106.5L403.7,81L387,106.5
			H410.6z"/>
	</g>
</g>
<g>
	<path class="st1" d="M153,270.1l-6.2,24.9H63.6c-27.7,0-38.1-13.8-31.2-41.6l10.3-41.6c6.9-27.7,24.2-41.6,51.9-41.6h83.1
		l-6.2,24.9H91.9c-13.4,0-21.7,6.6-25,19.9l-8.7,35c-3.3,13.4,1.7,20,15.1,20H153V270.1z"/>
	<path class="st1" d="M270.5,295l-17.3-93.3L189.5,295h-27.2l85.2-124.7h27.1l23,124.7H270.5z"/>
	<path class="st1" d="M337.9,295H313l31-124.7h25L337.9,295z"/>
	<path class="st1" d="M431.7,252.1L385.2,295h-32.6l67.6-62.3l-36.6-62.3h32.6l25.1,42.9l46.5-42.9h32.6l-67.6,62.3l36.6,62.3h-32.6
		L431.7,252.1z"/>
	<path class="st1" d="M602.9,295l-17.3-93.3L521.9,295h-27.2l85.2-124.7H607L630,295H602.9z"/>
</g>
<g>
	<g>
		<path class="st2" d="M942.8,240.3c0.2,0,0.3,0,0.5-0.1l87.1-44c0.5-0.3,0.7-0.9,0.5-1.4c-0.3-0.5-0.9-0.7-1.4-0.5L942.8,238
			l-86.7-43.7c-0.5-0.3-1.1-0.1-1.4,0.5c-0.3,0.5-0.1,1.1,0.5,1.4l87.2,44C942.5,240.3,942.7,240.3,942.8,240.3z"/>
	</g>
	<g>
		<path class="st2" d="M1030,196.3c0.4,0,0.7-0.2,0.9-0.6c0.3-0.5,0.1-1.1-0.5-1.4l-87.1-44c-0.3-0.2-0.6-0.2-0.9,0l-87.2,44
			c-0.5,0.3-0.7,0.9-0.5,1.4c0.3,0.5,0.9,0.7,1.4,0.5l86.7-43.7l86.7,43.7C1029.7,196.3,1029.8,196.3,1030,196.3z"/>
	</g>
	<g>
		<path class="st2" d="M942.8,337.2c0.2,0,0.3,0,0.5-0.1l87.1-44c0.5-0.3,0.7-0.9,0.5-1.4c-0.3-0.5-0.9-0.7-1.4-0.5L942.8,335
			l-86.7-43.7c-0.5-0.3-1.1-0.1-1.4,0.5c-0.3,0.5-0.1,1.1,0.5,1.4l87.2,44C942.5,337.2,942.7,337.2,942.8,337.2z"/>
	</g>
	<g>
		<path class="st3" d="M942.8,337.2c0.6,0,1-0.5,1-1v-96.9c0-0.6-0.5-1-1-1c-0.6,0-1,0.5-1,1v96.9
			C941.8,336.7,942.3,337.2,942.8,337.2z"/>
	</g>
	<g>
		<path class="st0" d="M855.7,293.2c0.6,0,1-0.5,1-1v-96.9c0-0.6-0.5-1-1-1s-1,0.5-1,1v96.9C854.6,292.8,855.1,293.2,855.7,293.2z"
			/>
	</g>
	<g>
		<path class="st2" d="M1030,293.2c0.6,0,1-0.5,1-1v-96.9c0-0.6-0.5-1-1-1c-0.6,0-1,0.5-1,1v96.9
			C1028.9,292.8,1029.4,293.2,1030,293.2z"/>
	</g>
	<path class="st2" d="M976.2,241c0.2,0,0.3,0,0.5-0.1l19.7-9.8c0.4-0.2,0.6-0.5,0.6-0.9v-17.5c0-0.4-0.2-0.8-0.6-0.9l-86.9-44.1
		c-0.5-0.3-1.1-0.1-1.4,0.5c-0.3,0.5-0.1,1.1,0.5,1.4l86.3,43.8v16.2l-17.6,8.8v-16c0-0.4-0.2-0.8-0.6-0.9L890,177.6
		c-0.5-0.3-1.1-0.1-1.4,0.5c-0.3,0.5-0.1,1.1,0.5,1.4l86.1,43.4V240c0,0.4,0.2,0.7,0.5,0.9C975.8,241,976,241,976.2,241z"/>
	<path class="st4" d="M1037.3,294.7"/>
	<g>
		<g>
			<path class="st2" d="M768.5,240.2c0.2,0,0.3,0,0.5-0.1l87.1-44c0.5-0.3,0.7-0.9,0.5-1.4c-0.3-0.5-0.9-0.7-1.4-0.5L768.5,238
				l-86.7-43.7c-0.5-0.3-1.1-0.1-1.4,0.5c-0.3,0.5-0.1,1.1,0.5,1.4l87.2,44C768.2,240.2,768.4,240.2,768.5,240.2z"/>
		</g>
		<g>
			<path class="st2" d="M855.7,196.3c0.4,0,0.7-0.2,0.9-0.6c0.3-0.5,0.1-1.1-0.5-1.4l-87.1-44c-0.3-0.2-0.6-0.2-0.9,0l-87.2,44
				c-0.5,0.3-0.7,0.9-0.5,1.4c0.3,0.5,0.9,0.7,1.4,0.5l86.7-43.7l86.7,43.7C855.4,196.2,855.5,196.3,855.7,196.3z"/>
		</g>
		<g>
			<path class="st2" d="M768.5,337.1c0.2,0,0.3,0,0.5-0.1l87.1-44c0.5-0.3,0.7-0.9,0.5-1.4c-0.3-0.5-0.9-0.7-1.4-0.5l-86.7,43.7
				l-86.7-43.7c-0.5-0.3-1.1-0.1-1.4,0.5c-0.3,0.5-0.1,1.1,0.5,1.4l87.2,44C768.2,337.1,768.4,337.1,768.5,337.1z"/>
		</g>
		<g>
			<path class="st2" d="M768.5,337.1c0.6,0,1-0.5,1-1v-96.9c0-0.6-0.5-1-1-1c-0.6,0-1,0.5-1,1v96.9
				C767.5,336.7,768,337.1,768.5,337.1z"/>
		</g>
		<g>
			<path class="st2" d="M681.4,293.2c0.6,0,1-0.5,1-1v-96.9c0-0.6-0.5-1-1-1c-0.6,0-1,0.5-1,1v96.9
				C680.3,292.7,680.8,293.2,681.4,293.2z"/>
		</g>
		<g>
			<path class="st2" d="M855.7,293.2c0.6,0,1-0.5,1-1v-96.9c0-0.6-0.5-1-1-1c-0.6,0-1,0.5-1,1v96.9
				C854.6,292.7,855.1,293.2,855.7,293.2z"/>
		</g>
		<g>
			<path class="st2" d="M801.7,240.9c0.2,0,0.3,0,0.5-0.1l19.7-9.8c0.4-0.2,0.6-0.5,0.6-0.9v-17.5c0-0.4-0.2-0.8-0.6-0.9L735,167.6
				c-0.5-0.3-1.1-0.1-1.4,0.5c-0.3,0.5-0.1,1.1,0.5,1.4l86.3,43.8v16.2l-17.6,8.8v-16c0-0.4-0.2-0.8-0.6-0.9l-86.7-43.7
				c-0.5-0.3-1.1-0.1-1.4,0.5c-0.3,0.5-0.1,1.1,0.5,1.4l86.1,43.4v17.1c0,0.4,0.2,0.7,0.5,0.9C801.3,240.8,801.5,240.9,801.7,240.9z
				"/>
		</g>
	</g>
	<path class="st2" d="M987,313.7L987,313.7v-16.3l17.6-8.8v16c0,0.1,0,0.2,0.1,0.3l2-1v-17c0-0.4-0.2-0.7-0.5-0.9
		c-0.2-0.1-0.4-0.2-0.6-0.2c-0.2,0-0.3,0-0.5,0.1l-19.7,9.8c-0.4,0.2-0.6,0.5-0.6,0.9v17.5c0,0.1,0,0.3,0.1,0.4L987,313.7z"/>
	<path class="st2" d="M808.2,315.5L808.2,315.5v-16.3l17.6-8.8v16c0,0.1,0,0.2,0.1,0.3l2-1v-17c0-0.4-0.2-0.7-0.5-0.9
		c-0.2-0.1-0.4-0.2-0.6-0.2c-0.2,0-0.3,0-0.5,0.1l-19.7,9.8c-0.4,0.2-0.6,0.5-0.6,0.9v17.5c0,0.1,0,0.3,0.1,0.4L808.2,315.5z"/>
	<g>
		<g>
			<g>
				<path class="st1" d="M855.7,99.4c-0.2,0-0.3,0-0.5-0.1l-87.1-44c-0.5-0.3-0.7-0.9-0.5-1.4c0.3-0.5,0.9-0.7,1.4-0.5l86.7,43.7
					l86.7-43.7c0.5-0.3,1.1-0.1,1.4,0.5c0.3,0.5,0.1,1.1-0.5,1.4l-87.2,44C856,99.4,855.8,99.4,855.7,99.4z"/>
			</g>
			<g>
				<path class="st1" d="M768.5,55.4c-0.4,0-0.7-0.2-0.9-0.6c-0.3-0.5-0.1-1.1,0.5-1.4l87.1-44c0.3-0.2,0.6-0.2,0.9,0l87.2,44
					c0.5,0.3,0.7,0.9,0.5,1.4c-0.3,0.5-0.9,0.7-1.4,0.5l-86.7-43.7L769,55.3C768.8,55.4,768.7,55.4,768.5,55.4z"/>
			</g>
			<g>
				<path class="st1" d="M855.7,196.3c-0.2,0-0.3,0-0.5-0.1l-87.1-44c-0.5-0.3-0.7-0.9-0.5-1.4c0.3-0.5,0.9-0.7,1.4-0.5l86.7,43.7
					l86.7-43.7c0.5-0.3,1.1-0.1,1.4,0.5c0.3,0.5,0.1,1.1-0.5,1.4l-87.2,44C856,196.3,855.8,196.3,855.7,196.3z"/>
			</g>
			<g>
				<path class="st1" d="M855.7,196.3c-0.6,0-1-0.5-1-1V98.4c0-0.6,0.5-1,1-1c0.6,0,1,0.5,1,1v96.9
					C856.7,195.9,856.2,196.3,855.7,196.3z"/>
			</g>
			<g>
				<path class="st1" d="M942.8,152.3c-0.6,0-1-0.5-1-1V54.4c0-0.6,0.5-1,1-1s1,0.5,1,1v96.9C943.9,151.9,943.4,152.3,942.8,152.3z"
					/>
			</g>
			<g>
				<path class="st1" d="M768.5,152.3c-0.6,0-1-0.5-1-1V54.4c0-0.6,0.5-1,1-1c0.6,0,1,0.5,1,1v96.9
					C769.6,151.9,769.1,152.3,768.5,152.3z"/>
			</g>
			<g>
				<path class="st1" d="M822.5,100.1c-0.2,0-0.3,0-0.5-0.1l-19.7-9.8c-0.4-0.2-0.6-0.5-0.6-0.9V71.7c0-0.4,0.2-0.8,0.6-0.9
					l86.9-44.1c0.5-0.3,1.1-0.1,1.4,0.5c0.3,0.5,0.1,1.1-0.5,1.4l-86.3,43.8v16.2l17.6,8.8v-16c0-0.4,0.2-0.8,0.6-0.9l86.7-43.7
					c0.5-0.3,1.1-0.1,1.4,0.5c0.3,0.5,0.1,1.1-0.5,1.4l-86,43.3v17c0,0.4-0.2,0.7-0.5,0.9C822.9,100,822.7,100.1,822.5,100.1z"/>
			</g>
		</g>
		<path class="st1" d="M818.4,175.7L818.4,175.7v-16.3l-17.6-8.8v16c0,0.1,0,0.2-0.1,0.3l-2-1v-17c0-0.4,0.2-0.7,0.5-0.9
			c0.2-0.1,0.4-0.2,0.6-0.2c0.2,0,0.3,0,0.5,0.1l19.7,9.8c0.4,0.2,0.6,0.5,0.6,0.9v17.5c0,0.1,0,0.3-0.1,0.4L818.4,175.7z"/>
	</g>
</g>
<line class="st5" x1="30.3" y1="144.4" x2="734.1" y2="144.4"/>
</svg>
