<svg version="1.1" id="Layer_1" xmlns="http://www.w3.org/2000/svg" x="0" y="0" viewBox="0 0 38 21.8" xml:space="preserve"><style>.st0{fill:#3453c4}.st1{fill:#db3838}</style><path class="st0" d="M4 15.4h1.4v4h1.1v-4h1.3v-.9H4zM11.3 16h-1.1v2.2c-.1.2-.2.4-.5.4-.4 0-.5-.3-.5-.8V16H8.1v2c0 1 .5 1.5 1.2 1.5.6 0 .9-.3 1.1-.6v.5h.9V16zM17.3 16c-1.1 0-1.8.7-1.8 1.8s.8 1.7 1.8 1.7c.9 0 1.8-.6 1.8-1.8-.1-1-.8-1.7-1.8-1.7zm-.1 2.7c-.5 0-.7-.4-.7-1 0-.5.2-1 .7-1s.7.5.7 1c0 .6-.3 1-.7 1zM15.1 18.4v-3.9H14v1.8c-.2-.2-.5-.4-.9-.4-.8 0-1.5.7-1.5 1.8s.6 1.7 1.5 1.7c.4 0 .8-.2 1.1-.6v.5h.9v-.9zm-1.1-.5v.2c-.1.3-.3.5-.6.5-.4 0-.7-.4-.7-.9s.2-1 .7-1c.3 0 .6.2.6.5v.7z"/><path class="st1" d="M19.4 19.4h1.1v-2h1.8v-.9h-1.8v-1.1h1.9v-.9h-3zM24.4 16c-1.1 0-1.8.7-1.8 1.8s.8 1.7 1.8 1.7c.9 0 1.8-.6 1.8-1.8-.1-1-.8-1.7-1.8-1.7zm0 2.7c-.5 0-.7-.4-.7-1 0-.5.2-1 .7-1s.7.5.7 1c0 .6-.3 1-.7 1zM27.4 16.7l-.1-.6h-.9v3.4h1.1v-1.7-.2c.1-.3.3-.5.7-.5h.3v-1h-.2c-.3-.1-.7.1-.9.6zM34.5 17.6c0-.8-.4-1.7-1.5-1.7-1.2 0-1.7.9-1.7 1.8 0 1.1.7 1.7 1.8 1.7.5 0 .9-.1 1.2-.2l-.1-.7c-.3.1-.6.1-.9.1-.5 0-.9-.2-1-.6h2.2v-.4zm-2.2-.3c0-.3.2-.7.7-.7s.6.4.6.7h-1.3zM30.3 15.1l-1 .2v.7h-.5v.8h.5v1.4c0 .5.1.8.3 1 .2.2.5.3.8.3s.5 0 .7-.1v-.8h-.3c-.3 0-.4-.2-.4-.6v-1.2h.8V16h-.8v-.9h-.1z"/><g><path class="st0" d="M16.9 7.6c-.2 0-.4-.2-.4-.4 0-2.1 1.7-3.8 3.8-3.8 1.2 0 2.4.6 3.1 1.6.1.2.1.4-.1.5s-.4.1-.5-.1c-.6-.8-1.5-1.3-2.5-1.3-1.7 0-3.1 1.4-3.1 3.1.1.3-.1.4-.3.4z"/></g><g><path class="st0" d="M20.4 11c-1.3 0-2.5-.7-3.2-1.8-.1-.2 0-.4.1-.5.2-.1.4 0 .5.1.6.9 1.5 1.5 2.6 1.5 1 0 1.8-.4 2.4-1.2.1-.2.3-.2.5-.1s.2.3.1.5c-.7 1-1.8 1.5-3 1.5z"/></g><g><path class="st0" d="M20.4 12.3c-2 0-3.7-1.1-4.6-2.8-.1-.2 0-.4.2-.5s.4 0 .5.2c.7 1.5 2.3 2.4 3.9 2.4 1.4 0 2.7-.7 3.5-1.8.1-.2.3-.2.5-.1s.2.3.1.5c-1 1.3-2.5 2.1-4.1 2.1z"/></g><g><path class="st0" d="M15.6 8c-.2 0-.3-.1-.4-.3v-.5c0-2.8 2.3-5.1 5.1-5.1 1.8 0 3.4.9 4.4 2.4.1.2 0 .4-.1.5-.2.1-.4 0-.5-.1-.8-1.3-2.2-2.1-3.7-2.1-2.4 0-4.4 2-4.4 4.4v.4c0 .2-.1.3-.4.4z"/></g><g><circle cx="20.4" cy="7.3" r="2.2" fill-rule="evenodd" clip-rule="evenodd" fill="#db3838"/></g></svg>