<?xml version="1.0" encoding="utf-8"?>
<!-- Generator: Adobe Illustrator 24.3.0, SVG Export Plug-In . SVG Version: 6.00 Build 0)  -->
<svg version="1.1" id="Layer_1" xmlns="http://www.w3.org/2000/svg" xmlns:xlink="http://www.w3.org/1999/xlink" x="0px" y="0px"
	 viewBox="0 0 38 21.8" style="enable-background:new 0 0 38 21.8;" xml:space="preserve">
<style type="text/css">
	.st0{fill:#3453C4;}
	.st1{fill:#DB3838;}
	.st2{fill-rule:evenodd;clip-rule:evenodd;fill:#DB3838;}
</style>
<g>
	<polygon class="st0" points="4,15.4 5.4,15.4 5.4,19.4 6.5,19.4 6.5,15.4 7.8,15.4 7.8,14.5 4,14.5 	"/>
	<path class="st0" d="M11.3,16h-1.1v2c0,0.1,0,0.2,0,0.2c-0.1,0.2-0.2,0.4-0.5,0.4c-0.4,0-0.5-0.3-0.5-0.8V16H8.1v2
		c0,1,0.5,1.5,1.2,1.5c0.6,0,0.9-0.3,1.1-0.6l0,0v0.5h0.9c0-0.3,0-0.6,0-1.1V16z"/>
	<path class="st0" d="M17.3,16c-1.1,0-1.8,0.7-1.8,1.8c0,1.1,0.8,1.7,1.8,1.7c0.9,0,1.8-0.6,1.8-1.8C19,16.7,18.3,16,17.3,16z
		 M17.2,18.7c-0.5,0-0.7-0.4-0.7-1c0-0.5,0.2-1,0.7-1s0.7,0.5,0.7,1C17.9,18.3,17.6,18.7,17.2,18.7z"/>
	<path class="st0" d="M15.1,18.4v-3.9H14v1.8l0,0c-0.2-0.2-0.5-0.4-0.9-0.4c-0.8,0-1.5,0.7-1.5,1.8c0,1.1,0.6,1.7,1.5,1.7
		c0.4,0,0.8-0.2,1.1-0.6l0,0v0.5h0.9C15.1,19.2,15.1,18.8,15.1,18.4z M14,17.9c0,0.1,0,0.2,0,0.2c-0.1,0.3-0.3,0.5-0.6,0.5
		c-0.4,0-0.7-0.4-0.7-0.9s0.2-1,0.7-1c0.3,0,0.6,0.2,0.6,0.5c0,0.1,0,0.1,0,0.2V17.9z"/>
</g>
<g>
	<polygon class="st1" points="19.4,19.4 20.5,19.4 20.5,17.4 22.3,17.4 22.3,16.5 20.5,16.5 20.5,15.4 22.4,15.4 22.4,14.5 
		19.4,14.5 	"/>
	<path class="st1" d="M24.4,16c-1.1,0-1.8,0.7-1.8,1.8c0,1.1,0.8,1.7,1.8,1.7c0.9,0,1.8-0.6,1.8-1.8C26.1,16.7,25.4,16,24.4,16z
		 M24.4,18.7c-0.5,0-0.7-0.4-0.7-1c0-0.5,0.2-1,0.7-1s0.7,0.5,0.7,1C25.1,18.3,24.8,18.7,24.4,18.7z"/>
	<path class="st1" d="M27.4,16.7L27.4,16.7l-0.1-0.6h-0.9c0,0.3,0,0.6,0,1.1v2.3h1.1v-1.7c0-0.1,0-0.2,0-0.2
		c0.1-0.3,0.3-0.5,0.7-0.5c0.1,0,0.2,0,0.3,0v-1c-0.1,0-0.1,0-0.2,0C28,16,27.6,16.2,27.4,16.7z"/>
	<path class="st1" d="M34.5,17.6c0-0.8-0.4-1.7-1.5-1.7c-1.2,0-1.7,0.9-1.7,1.8c0,1.1,0.7,1.7,1.8,1.7c0.5,0,0.9-0.1,1.2-0.2
		l-0.1-0.7c-0.3,0.1-0.6,0.1-0.9,0.1c-0.5,0-0.9-0.2-1-0.6h2.2C34.5,18,34.5,17.8,34.5,17.6z M32.3,17.3c0-0.3,0.2-0.7,0.7-0.7
		s0.6,0.4,0.6,0.7H32.3z"/>
	<path class="st1" d="M30.3,15.1l-1,0.2V16h-0.5v0.8h0.5v1.4c0,0.5,0.1,0.8,0.3,1c0.2,0.2,0.5,0.3,0.8,0.3s0.5,0,0.7-0.1v-0.8
		c-0.1,0-0.2,0-0.3,0c-0.3,0-0.4-0.2-0.4-0.6v-1.2h0.8V16h-0.8v-0.9H30.3z"/>
</g>
<g>
	<path class="st0" d="M16.9,7.6c-0.2,0-0.4-0.2-0.4-0.4c0-2.1,1.7-3.8,3.8-3.8c1.2,0,2.4,0.6,3.1,1.6c0.1,0.2,0.1,0.4-0.1,0.5
		s-0.4,0.1-0.5-0.1c-0.6-0.8-1.5-1.3-2.5-1.3c-1.7,0-3.1,1.4-3.1,3.1C17.3,7.5,17.1,7.6,16.9,7.6z"/>
</g>
<g>
	<path class="st0" d="M20.4,11c-1.3,0-2.5-0.7-3.2-1.8c-0.1-0.2,0-0.4,0.1-0.5c0.2-0.1,0.4,0,0.5,0.1c0.6,0.9,1.5,1.5,2.6,1.5
		c1,0,1.8-0.4,2.4-1.2c0.1-0.2,0.3-0.2,0.5-0.1s0.2,0.3,0.1,0.5C22.7,10.5,21.6,11,20.4,11z"/>
</g>
<g>
	<path class="st0" d="M20.4,12.3c-2,0-3.7-1.1-4.6-2.8c-0.1-0.2,0-0.4,0.2-0.5s0.4,0,0.5,0.2c0.7,1.5,2.3,2.4,3.9,2.4
		c1.4,0,2.7-0.7,3.5-1.8c0.1-0.2,0.3-0.2,0.5-0.1s0.2,0.3,0.1,0.5C23.5,11.5,22,12.3,20.4,12.3z"/>
</g>
<g>
	<path class="st0" d="M15.6,8c-0.2,0-0.3-0.1-0.4-0.3c0-0.1,0-0.3,0-0.5c0-2.8,2.3-5.1,5.1-5.1c1.8,0,3.4,0.9,4.4,2.4l0,0
		c0.1,0.2,0,0.4-0.1,0.5c-0.2,0.1-0.4,0-0.5-0.1l0,0c-0.8-1.3-2.2-2.1-3.7-2.1c-2.4,0-4.4,2-4.4,4.4c0,0.1,0,0.3,0,0.4
		C16,7.8,15.9,7.9,15.6,8L15.6,8z"/>
</g>
<g>
	<circle class="st2" cx="20.4" cy="7.3" r="2.2"/>
</g>
</svg>
