<svg version="1.1" id="Layer_1" xmlns="http://www.w3.org/2000/svg" x="0" y="0" viewBox="0 0 38 38" xml:space="preserve"><style>.st1{fill:#fff}</style><path class="st1" d="M36.3 10.5L20.7 3.7c-1.1-.5-2.3-.5-3.4 0L1.7 10.5c-.3.1-.4.4-.4.6v3.2c0 .4.3.7.7.7h2.4v18.2h-2c-.4 0-.7.3-.7.7 0 .4.3.7.7.7h33.2c.4 0 .7-.3.7-.7 0-.4-.3-.7-.7-.7h-2V15H36c.4 0 .7-.3.7-.7v-3.2c.1-.2-.1-.5-.4-.6zM15.6 33.2h-1.3v-1h1.3v1zm6.2 0H17v-1h4.8v1zm2.7 0h-1.3v-1h1.3v1zm.8-2.3H12.6v-.6H14c.9 0 1.6-.7 1.6-1.6v-.4h6.7v.4c0 .9.7 1.6 1.6 1.6h1.4v.6zm-12.6-2v-.6h1.6v.4c0 .1-.1.2-.2.2h-1.4zm1.8-2l.4-1.6c.1-.4.5-.7.9-.7h6.4c.4 0 .8.3.9.7l.4 1.6h-9zm9.2 1.7v-.4h1.6v.6h-1.4c-.1.1-.2 0-.2-.2zm6.3 4.6h-4.1v-1c.5-.1.8-.5.8-1V28c0-.6-.5-1.1-1.1-1.1H25l-.5-1.9c-.2-1.1-1.2-1.8-2.3-1.8h-6.4c-1.1 0-2 .7-2.3 1.8l-.4 1.9h-.6c-.6 0-1.1.5-1.1 1.1v3.2c0 .6.5 1 1 1h.6v1H8V22.7h22v10.5zm0-14.3h-4.2c-.4 0-.7.3-.7.7s.3.7.7.7H30v1H8v-1h12.2c.4 0 .7-.3.7-.7s-.3-.7-.7-.7H8v-1.1h22v1.1zm0-2.4H8v-1h22v1zm2.2-2.9V33.2h-.9V14.7c0-.4-.3-.7-.7-.7H7.3c-.4 0-.7.3-.7.7v18.5h-.8V13.4L18.3 8c.5-.2 1-.2 1.5 0l12.5 5.4v.2zm3.2 0h-1.8V13c0-.3-.2-.5-.4-.6L20.3 6.8c-.8-.4-1.7-.4-2.6 0L4.8 12.3c-.3.1-.4.4-.4.6v.7H2.6v-2.1L17.8 5c.7-.3 1.6-.3 2.3 0l15.2 6.6v2z"/><path class="st1" d="M20.7 28.9h-3.3c-.4 0-.7.3-.7.7s.3.7.7.7h3.3c.4 0 .7-.3.7-.7 0-.4-.3-.7-.7-.7zM23.7 19.5v-.1s0-.1-.1-.1l-.1-.1-.1-.1s-.1 0-.1-.1h-.4-.1s-.1 0-.1.1l-.1.1-.1.1s0 .1-.1.1v.2c0 .2.1.4.2.5l.1.1s.1 0 .1.1h.4s.1 0 .1-.1l.1-.1.1-.1s0-.1.1-.1v-.1-.1l.1-.2z"/></svg>