<?xml version="1.0" encoding="utf-8"?>
<!-- Generator: Adobe Illustrator 24.2.3, SVG Export Plug-In . SVG Version: 6.00 Build 0)  -->
<svg version="1.1" id="Layer_1" xmlns="http://www.w3.org/2000/svg" xmlns:xlink="http://www.w3.org/1999/xlink" x="0px" y="0px"
	 viewBox="0 0 38 38" style="enable-background:new 0 0 38 38;" xml:space="preserve">
<style type="text/css">
	.st0{fill:#090909;}
	.st1{fill:#FFFFFF;}
	.st2{fill:#FFFFFF;stroke:#090909;stroke-miterlimit:10;}
</style>
<g>
	<path class="st1" d="M36.3,10.5L20.7,3.7c-1.1-0.5-2.3-0.5-3.4,0L1.7,10.5c-0.3,0.1-0.4,0.4-0.4,0.6v3.2c0,0.4,0.3,0.7,0.7,0.7h2.4
		v18.2h-2c-0.4,0-0.7,0.3-0.7,0.7c0,0.4,0.3,0.7,0.7,0.7h2.7h2.2h6.2c0,0,0.1,0,0.1,0h2.7c0,0,0.1,0,0.1,0h6c0,0,0.1,0,0.1,0h2.7
		c0,0,0.1,0,0.1,0h5.4h2.2h2.7c0.4,0,0.7-0.3,0.7-0.7c0-0.4-0.3-0.7-0.7-0.7h-2V15h2.4c0.4,0,0.7-0.3,0.7-0.7v-3.2
		C36.8,10.9,36.6,10.6,36.3,10.5z M15.6,33.2h-1.3v-1h1.3V33.2z M21.8,33.2H17v-1h4.8V33.2z M24.5,33.2h-1.3v-1h1.3V33.2z
		 M25.3,30.9h-0.1h-2.7h-6.2h-2.7h-1v-0.6h1.4c0.9,0,1.6-0.7,1.6-1.6v-0.4h6.7v0.4c0,0.9,0.7,1.6,1.6,1.6h1.4V30.9z M12.7,28.9v-0.6
		h1h0.6v0.4c0,0.1-0.1,0.2-0.2,0.2H12.7z M14.5,26.9l0.4-1.6c0.1-0.4,0.5-0.7,0.9-0.7h6.4c0.4,0,0.8,0.3,0.9,0.7l0.4,1.6H23h-8H14.5
		z M23.7,28.6v-0.4h0.6h1v0.6h-1.4C23.8,28.9,23.7,28.8,23.7,28.6z M30,33.2h-4.1v0v-1c0.5-0.1,0.8-0.5,0.8-1v-1.7V28
		c0-0.6-0.5-1.1-1.1-1.1h-0.6L24.5,25c-0.2-1.1-1.2-1.8-2.3-1.8h-6.4c-1.1,0-2,0.7-2.3,1.8l-0.4,1.9h-0.6c-0.6,0-1.1,0.5-1.1,1.1
		v1.5v1.7c0,0.6,0.5,1,1,1H13v1H8V22.7h22V33.2z M30,18.9h-4.2c-0.4,0-0.7,0.3-0.7,0.7s0.3,0.7,0.7,0.7H30v1H8v-1h12.2
		c0.4,0,0.7-0.3,0.7-0.7s-0.3-0.7-0.7-0.7H8v-1.1h22V18.9z M30,16.5H8v-1h22V16.5z M32.2,13.6V15v18.2h-0.9V22v-2.4v-2.4V15v-0.3
		c0-0.4-0.3-0.7-0.7-0.7H7.3c-0.4,0-0.7,0.3-0.7,0.7V15v2.1v2.4V22v11.2H5.8V15v-1.4v-0.2L18.3,8c0.5-0.2,1-0.2,1.5,0l12.5,5.4V13.6
		z M35.4,13.6h-1.8V13c0-0.3-0.2-0.5-0.4-0.6L20.3,6.8c-0.8-0.4-1.7-0.4-2.6,0L4.8,12.3c-0.3,0.1-0.4,0.4-0.4,0.6v0.7H2.6v-2.1
		L17.8,5c0.7-0.3,1.6-0.3,2.3,0l15.2,6.6V13.6z"/>
	<g>
		<g>
			<path class="st1" d="M20.7,28.9h-3.3c-0.4,0-0.7,0.3-0.7,0.7s0.3,0.7,0.7,0.7h3.3c0.4,0,0.7-0.3,0.7-0.7
				C21.4,29.2,21.1,28.9,20.7,28.9z"/>
		</g>
	</g>
	<g>
		<g>
			<path class="st1" d="M23.7,19.5c0,0,0-0.1,0-0.1c0,0,0-0.1-0.1-0.1c0,0-0.1-0.1-0.1-0.1c0,0-0.1-0.1-0.1-0.1c0,0-0.1,0-0.1-0.1
				c0,0-0.1,0-0.1,0c-0.1,0-0.2,0-0.3,0c0,0-0.1,0-0.1,0c0,0-0.1,0-0.1,0.1c0,0-0.1,0.1-0.1,0.1c0,0-0.1,0.1-0.1,0.1
				c0,0,0,0.1-0.1,0.1c0,0,0,0.1,0,0.1c0,0,0,0.1,0,0.1c0,0.2,0.1,0.4,0.2,0.5c0,0,0.1,0.1,0.1,0.1c0,0,0.1,0,0.1,0.1
				c0,0,0.1,0,0.1,0c0,0,0.1,0,0.1,0c0,0,0.1,0,0.1,0c0,0,0.1,0,0.1,0c0,0,0.1,0,0.1-0.1c0,0,0.1-0.1,0.1-0.1c0,0,0.1-0.1,0.1-0.1
				c0,0,0-0.1,0.1-0.1c0,0,0-0.1,0-0.1c0,0,0-0.1,0-0.1S23.7,19.5,23.7,19.5z"/>
		</g>
	</g>
</g>
</svg>
