<svg xmlns="http://www.w3.org/2000/svg" width="91" height="40" viewBox="0 0 91 40">
    <defs>
        <linearGradient id="prefix__linear-gradient" x1=".286" x2=".024" y1=".5" y2="1" gradientUnits="objectBoundingBox">
            <stop offset="0" stop-color="#fff"/>
            <stop offset="1" stop-color="#f3f3f3"/>
        </linearGradient>
        <clipPath id="prefix__clip-path">
            <rect id="prefix__intermediadores" width="91" height="40" class="prefix__cls-1" rx="4" transform="translate(525 10759)"/>
        </clipPath>
        <style>
            .prefix__cls-1{stroke:#f6f6f6;fill:url(#prefix__linear-gradient)}.prefix__cls-3{fill:#28316b}.prefix__cls-4{fill:#50b4e9}.prefix__cls-5{fill:#fff}
        </style>
    </defs>
    <g transform="translate(-525 -10759)"><g class="prefix__cls-1" transform="translate(525 10759)"><rect width="91" height="41" rx="4" style="stroke:none;fill:#fff"/><rect width="90" height="40" x=".5" y=".5" rx="3.5" style="fill:#fff"/></g><g transform="translate(522.574 10760.898)"><g transform="translate(9.426 8.116)"><path d="M-14.05-4.595c0-5.056-6.283-9.178-14.032-9.178s-14.031 4.122-14.031 9.178v.538c0 5.363 5.49 9.707 14.03 9.707 8.594 0 14.034-4.343 14.034-9.707z" class="prefix__cls-3" transform="translate(42.114 13.772)"/></g><g transform="translate(9.97 8.658)"><path d="M-13.508-4.321C-13.508.445-19.547 4.31-27 4.31S-40.49.445-40.49-4.321s6.04-8.633 13.49-8.633 13.492 3.865 13.492 8.632" class="prefix__cls-4" transform="translate(40.49 12.954)"/></g><g transform="translate(18.897 11.443)"><path d="M-.042-1.563C-.05-1.55-.184-1.41-.1-1.3a1.689 1.689 0 0 0 1.54.28 4.458 4.458 0 0 0 1.393-.88 5.571 5.571 0 0 1 1.594-1.018 1.827 1.827 0 0 1 1.161-.032 3.6 3.6 0 0 1 1.058.619c.924.694 4.636 3.934 5.276 4.494A31.927 31.927 0 0 1 17.855.255a7.354 7.354 0 0 0-2.817-4.432 8.656 8.656 0 0 1-7.306.118 7.107 7.107 0 0 0-2.762-.626 4.948 4.948 0 0 0-3.836 1.853z" class="prefix__cls-5" transform="translate(.127 4.687)"/></g><g transform="translate(10.072 11.668)"><path d="M-10.375-3.493c-.044-.038-4.364-3.82-5.344-4.556a2.4 2.4 0 0 0-1.212-.575 1.66 1.66 0 0 0-.577.056 5.218 5.218 0 0 0-1.578.939 4.513 4.513 0 0 1-1.542.955 2.5 2.5 0 0 1-1.7-.256.753.753 0 0 1-.281-.309.526.526 0 0 1 .143-.566l1.193-1.289c.138-.138.278-.277.421-.414a8.018 8.018 0 0 0-1.087.245 4.722 4.722 0 0 1-1.268.237 11.979 11.979 0 0 1-1.294-.2 19.424 19.424 0 0 1-3.44-1.244A7.624 7.624 0 0 0-31.1-5.892c.243.065.635.18.8.217 3.837.853 5.032 1.732 5.249 1.916a1.273 1.273 0 0 1 .95-.427 1.282 1.282 0 0 1 1.04.543 1.446 1.446 0 0 1 .914-.321 1.7 1.7 0 0 1 .549.1 1.253 1.253 0 0 1 .772.7 1.252 1.252 0 0 1 .534-.115 1.606 1.606 0 0 1 .638.14A1.365 1.365 0 0 1-18.9-1.62a1.207 1.207 0 0 1 .153-.008 1.522 1.522 0 0 1 1.52 1.521 1.523 1.523 0 0 1-.182.719 2.421 2.421 0 0 0 1.319.353.846.846 0 0 0 .619-.27c.038-.053.079-.117.04-.162L-16.51-.67s-.179-.168-.121-.234.172.03.251.094c.549.461 1.223 1.154 1.223 1.154s.056.1.3.14A1.128 1.128 0 0 0-14 .286a1.342 1.342 0 0 0 .19-.192.1.1 0 0 1-.013.01.576.576 0 0 0-.031-.713l-1.263-1.418s-.182-.168-.12-.236.172.031.251.1c.4.333.966.9 1.507 1.433a1.034 1.034 0 0 0 1.213-.042.875.875 0 0 0 .449-.793.911.911 0 0 0-.267-.528l-1.726-1.739s-.183-.156-.119-.235.171.029.249.094c.55.46 2.039 1.825 2.039 1.825a1.045 1.045 0 0 0 1.17-.024.778.778 0 0 0 .385-.618.91.91 0 0 0-.29-.7" class="prefix__cls-5" transform="translate(31.099 10.47)"/></g><g transform="translate(16.128 18.289)"><path d="M-3.151-1.28a3.9 3.9 0 0 0-.6.133c-.021-.014.017-.121.042-.184s.377-1.121-.482-1.49a1.01 1.01 0 0 0-1.2.179c-.037.037-.053.034-.057-.014a.946.946 0 0 0-.666-.881 1.3 1.3 0 0 0-1.466.522.938.938 0 0 0-.92-.821.942.942 0 0 0-.943.942.941.941 0 0 0 .942.94.931.931 0 0 0 .651-.262c.005.005.007.014 0 .032a1.24 1.24 0 0 0 .775 1.423.921.921 0 0 0 .908-.139c.074-.052.086-.03.075.04a.883.883 0 0 0 .662.948.836.836 0 0 0 .984-.188c.084-.076.107-.063.113.054a1.179 1.179 0 0 0 1.181 1.135A1.183 1.183 0 0 0-1.968-.094 1.189 1.189 0 0 0-3.151-1.28" class="prefix__cls-5" transform="translate(9.446 3.836)"/></g><g transform="translate(9.99 10.994)"><path d="M-6.224-6.075a1.09 1.09 0 0 1-1.1-1.048c0-.051-.007-.185-.12-.185a.208.208 0 0 0-.134.069.772.772 0 0 1-.539.244.955.955 0 0 1-.356-.076c-.626-.254-.635-.685-.609-.858a.161.161 0 0 0-.018-.13l-.039-.034h-.038a.184.184 0 0 0-.109.044.915.915 0 0 1-.532.188.811.811 0 0 1-.3-.057 1.15 1.15 0 0 1-.719-1.333.117.117 0 0 0-.036-.109l-.058-.049-.054.053a.847.847 0 0 1-.592.24.858.858 0 0 1-.857-.857.858.858 0 0 1 .858-.856.855.855 0 0 1 .845.748l.03.229.125-.194a1.259 1.259 0 0 1 1-.547 1.278 1.278 0 0 1 .37.059.864.864 0 0 1 .607.807c.01.111.088.117.1.117a.139.139 0 0 0 .1-.052.859.859 0 0 1 .631-.266 1.2 1.2 0 0 1 .471.106c.807.346.441 1.371.436 1.381-.069.17-.071.245-.006.288l.032.016h.023a.574.574 0 0 0 .156-.041 1.374 1.374 0 0 1 .43-.094 1.111 1.111 0 0 1 1.1 1.1 1.1 1.1 0 0 1-1.1 1.1m8.54-4.935c-1.33-1.162-4.406-3.837-5.241-4.463a3.643 3.643 0 0 0-1.083-.63 1.814 1.814 0 0 0-.534-.083 2.262 2.262 0 0 0-.677.114 5.553 5.553 0 0 0-1.594 1.008l-.025.021a4.394 4.394 0 0 1-1.361.866 2.309 2.309 0 0 1-.5.056 1.285 1.285 0 0 1-.946-.3c-.024-.03-.008-.077.046-.149l.007-.01 1.171-1.262a4.875 4.875 0 0 1 3.773-1.836h.1a7.1 7.1 0 0 1 2.621.621 8.107 8.107 0 0 0 3.573.859 9.339 9.339 0 0 0 3.922-.94c-.153-.128-.312-.253-.474-.376a8.638 8.638 0 0 1-3.445.783 7.614 7.614 0 0 1-3.347-.808 7.538 7.538 0 0 0-2.85-.674h-.111a4.962 4.962 0 0 0-3.254 1.155 6.45 6.45 0 0 0-1.623.3 4.436 4.436 0 0 1-1.143.219c-.148 0-.411-.013-.434-.014a22.245 22.245 0 0 1-4.113-1.14q-.252.178-.485.366a20.314 20.314 0 0 0 4.458 1.288c.183.014.378.034.573.034a4.918 4.918 0 0 0 1.291-.239c.248-.071.522-.146.81-.2l-.23.23L-10-14.929a.6.6 0 0 0-.162.658.824.824 0 0 0 .313.347 2.471 2.471 0 0 0 1.262.32 2.181 2.181 0 0 0 .5-.053 4.528 4.528 0 0 0 1.575-.968 5.253 5.253 0 0 1 1.549-.928 1.8 1.8 0 0 1 .433-.058c.039 0 .076 0 .11.005a2.338 2.338 0 0 1 1.173.56c.977.733 5.3 4.515 5.34 4.552a.828.828 0 0 1 .259.636.693.693 0 0 1-.345.551 1.056 1.056 0 0 1-.567.176.921.921 0 0 1-.5-.145C.925-9.289-.554-10.647-1.1-11.1a.45.45 0 0 0-.255-.137.144.144 0 0 0-.115.053c-.086.106.011.253.124.349L.385-9.1a.822.822 0 0 1 .238.47.789.789 0 0 1-.411.717 1.108 1.108 0 0 1-.612.2.883.883 0 0 1-.494-.151l-.247-.236c-.459-.452-.923-.913-1.265-1.2a.458.458 0 0 0-.258-.134.15.15 0 0 0-.109.047c-.039.044-.067.121.031.251a.823.823 0 0 0 .087.1l1.263 1.417a.485.485 0 0 1 .028.605l-.045.057c-.038.041-.079.079-.117.113a1.006 1.006 0 0 1-.617.2.932.932 0 0 1-.171-.015.415.415 0 0 1-.248-.1l-.015-.017c-.07-.07-.706-.721-1.232-1.159a.441.441 0 0 0-.245-.132.15.15 0 0 0-.114.051c-.105.115.051.286.118.347l1.077 1.187a.248.248 0 0 1-.042.073c-.038.054-.169.185-.558.234a1.283 1.283 0 0 1-.143.007 2.457 2.457 0 0 1-1.054-.313 1.576 1.576 0 0 0 .154-.681A1.608 1.608 0 0 0-6.223-8.78h-.058a1.42 1.42 0 0 0-.813-1.507 1.676 1.676 0 0 0-.672-.148 1.355 1.355 0 0 0-.493.089 1.34 1.34 0 0 0-.786-.668 1.752 1.752 0 0 0-.576-.1 1.515 1.515 0 0 0-.9.287 1.364 1.364 0 0 0-1.057-.51 1.364 1.364 0 0 0-.959.4c-.334-.257-1.664-1.1-5.222-1.909-.172-.038-.567-.152-.81-.223-.04.192-.07.386-.091.583l.786.187c3.634.808 4.835 1.646 5.038 1.8a1.383 1.383 0 0 0-.105.523 1.364 1.364 0 0 0 1.362 1.363 1.406 1.406 0 0 0 .249-.022 1.587 1.587 0 0 0 1.03 1.187 1.336 1.336 0 0 0 .485.094 1.284 1.284 0 0 0 .31-.038 1.428 1.428 0 0 0 .845.79 1.439 1.439 0 0 0 .535.109 1.2 1.2 0 0 0 .416-.073 1.606 1.606 0 0 0 1.484 1 1.6 1.6 0 0 0 1.151-.487 3.04 3.04 0 0 0 1.359.4 1.645 1.645 0 0 0 .207-.012 1.248 1.248 0 0 0 .921-.451.767.767 0 0 0 .056-.092 1.555 1.555 0 0 0 .436.067 1.468 1.468 0 0 0 .879-.313A1.215 1.215 0 0 0-.7-7.207a.038.038 0 0 0 0-.012 1.444 1.444 0 0 0 .293.03 1.631 1.631 0 0 0 .9-.286 1.306 1.306 0 0 0 .649-1.16 1.552 1.552 0 0 0 .3.031 1.555 1.555 0 0 0 .845-.26 1.234 1.234 0 0 0 .593-.956 1.284 1.284 0 0 0-.187-.773A34.919 34.919 0 0 1 8.3-12.348a5.593 5.593 0 0 0-.08-.582 32.023 32.023 0 0 0-5.9 1.919" class="prefix__cls-3" transform="translate(18.656 18.21)"/></g><g transform="translate(79.929 10.495)"><path d="M-2.062-2.3a1.244 1.244 0 0 1-1.057.489 1.252 1.252 0 0 1-1.06-.489 2.257 2.257 0 0 1-.371-1.391 2.242 2.242 0 0 1 .372-1.387 1.253 1.253 0 0 1 1.059-.487 1.245 1.245 0 0 1 1.057.487 2.27 2.27 0 0 1 .368 1.387A2.286 2.286 0 0 1-2.062-2.3m1.255-3.64a2.777 2.777 0 0 0-2.307-.951 2.776 2.776 0 0 0-2.306.951 3.492 3.492 0 0 0-.76 2.249 3.47 3.47 0 0 0 .76 2.259 2.8 2.8 0 0 0 2.307.937 2.8 2.8 0 0 0 2.306-.937 3.475 3.475 0 0 0 .759-2.259A3.5 3.5 0 0 0-.807-5.94" class="prefix__cls-3" transform="translate(6.181 6.891)"/></g><g transform="translate(67.806 10.524)"><path d="M-1.879-1.913A1.261 1.261 0 0 1-2.33-.825a1.636 1.636 0 0 1-.949.3.87.87 0 0 1-.553-.18.7.7 0 0 1-.227-.584.721.721 0 0 1 .372-.668 2.351 2.351 0 0 1 .724-.213l.359-.068a2.755 2.755 0 0 0 .421-.108 1.483 1.483 0 0 0 .3-.152zm.8-3.43a3.831 3.831 0 0 0-1.762-.392A2.591 2.591 0 0 0-5-4.941a2.311 2.311 0 0 0-.444 1.3h1.519a1.129 1.129 0 0 1 .225-.552 1 1 0 0 1 .8-.277 1.631 1.631 0 0 1 .765.142.528.528 0 0 1 .259.51.474.474 0 0 1-.339.447 2.473 2.473 0 0 1-.629.139l-.539.065a3.865 3.865 0 0 0-1.391.389 1.711 1.711 0 0 0-.862 1.606A1.657 1.657 0 0 0-5.1.149a2.125 2.125 0 0 0 1.361.467C-.3.77-.342-1.193-.31-1.6v-2.263a1.505 1.505 0 0 0-.771-1.48" class="prefix__cls-3" transform="translate(5.633 5.735)"/></g><g transform="translate(61.486 10.543)"><path d="M-1.521-.664A1.021 1.021 0 0 1-.654-.3a1.343 1.343 0 0 1 .239.6h1.7a2.311 2.311 0 0 0-.9-1.789 3.45 3.45 0 0 0-1.949-.507 2.848 2.848 0 0 0-2.2.86 3.4 3.4 0 0 0-.8 2.4A3.355 3.355 0 0 0-3.839 3.5a2.774 2.774 0 0 0 2.248.858 2.709 2.709 0 0 0 2.307-1.03 2.538 2.538 0 0 0 .546-1.356h-1.69a1.422 1.422 0 0 1-.3.772 1.018 1.018 0 0 1-.826.3 1.1 1.1 0 0 1-1.117-.749 2.841 2.841 0 0 1-.159-1.062A3.112 3.112 0 0 1-2.666.122a1.138 1.138 0 0 1 1.145-.786" class="prefix__cls-3" transform="translate(4.559 1.991)"/></g><g transform="translate(57.754 10.543)"><path d="M-1.641 0a2.928 2.928 0 0 0-3.276 3.083v3.131h1.58V3.277a2.444 2.444 0 0 1 .182-1.07 1.3 1.3 0 0 1 1.272-.617c.047 0 .11 0 .187.007s.166.011.265.021V.013L-1.567 0h-.074" class="prefix__cls-3" transform="translate(4.919)"/></g><g transform="translate(51.069 10.543)"><path d="M-1.02-.819a1.246 1.246 0 0 1 .937-.342 1.375 1.375 0 0 1 .931.323 1.313 1.313 0 0 1 .417.948h-2.7a1.635 1.635 0 0 1 .415-.929M1.1 2.123a1.154 1.154 0 0 1-.215.239A1.351 1.351 0 0 1 0 2.6a1.492 1.492 0 0 1-.841-.2 1.426 1.426 0 0 1-.641-1.254H2.9a7.911 7.911 0 0 0-.058-1.191 2.95 2.95 0 0 0-.478-1.241 2.454 2.454 0 0 0-1.037-.888 3.425 3.425 0 0 0-1.41-.28 2.9 2.9 0 0 0-2.147.831A3.256 3.256 0 0 0-3.057.768a2.908 2.908 0 0 0 .916 2.4 3.272 3.272 0 0 0 2.115.739 2.914 2.914 0 0 0 2.257-.876 2.12 2.12 0 0 0 .549-.911z" class="prefix__cls-3" transform="translate(3.057 2.455)"/></g><g transform="translate(41.803 10.523)"><path d="M-4.321-3.12h-1.443v-3.634a1.014 1.014 0 0 0-1.061-1.121 1.063 1.063 0 0 0-1.094 1.121v3.634h-1.444v-3.634a1 1 0 0 0-1.05-1.121 1.058 1.058 0 0 0-1.1 1.121v3.634h-1.444v-3.6a2.477 2.477 0 0 1 2.539-2.635 2.224 2.224 0 0 1 1.794.836 2.3 2.3 0 0 1 1.794-.836 2.408 2.408 0 0 1 2.5 2.635z" class="prefix__cls-3" transform="translate(12.952 9.354)"/></g><g transform="translate(73.611 8.639)"><path d="M-1.979-3.234a1.157 1.157 0 0 1-1.013.5 1.111 1.111 0 0 1-.995-.5 2.545 2.545 0 0 1-.326-1.37A2.414 2.414 0 0 1-3.992-5.9a1.1 1.1 0 0 1 1.011-.52 1.2 1.2 0 0 1 .793.287 2.068 2.068 0 0 1 .556 1.616 2.195 2.195 0 0 1-.347 1.282m1.894-6.452s-1.59-.17-1.59 1.108v1.693a1.885 1.885 0 0 0-.687-.663 1.928 1.928 0 0 0-.969-.241 2.3 2.3 0 0 0-1.891.88 3.884 3.884 0 0 0-.708 2.46 3.27 3.27 0 0 0 .719 2.184 3.048 3.048 0 0 0 2.253.815A2.552 2.552 0 0 0-.086-3.946z" class="prefix__cls-3" transform="translate(5.932 9.695)"/></g><g transform="translate(41.802 19.301)"><path d="M-2.116-1.605a2.309 2.309 0 0 0-.349-1.375 1.159 1.159 0 0 0-1-.482 1.138 1.138 0 0 0-.976.482 2.32 2.32 0 0 0-.324 1.375A2.048 2.048 0 0 0-4.415-.3a1.153 1.153 0 0 0 1 .483 1.11 1.11 0 0 0 .95-.483 2.168 2.168 0 0 0 .349-1.306m-2.647 4.274a.746.746 0 0 1-.254.569.823.823 0 0 1-.562.211h-.764v-5.49a2.531 2.531 0 0 1 .952-2.188A3.4 3.4 0 0 1-3-4.8a2.4 2.4 0 0 1 1.744.841 3.38 3.38 0 0 1 .742 2.286 3.7 3.7 0 0 1-.7 2.337A2.188 2.188 0 0 1-3 1.534a2.389 2.389 0 0 1-1.02-.205 1.742 1.742 0 0 1-.743-.712z" class="prefix__cls-4" transform="translate(6.343 4.812)"/></g><g transform="translate(53.947 19.278)"><path d="M-.776-1.618q0 1.578.913 1.752a1.244 1.244 0 0 0 1.346-.425 1.7 1.7 0 0 0 .3-.789 3.351 3.351 0 0 0 .012-1.065 2.115 2.115 0 0 0-.377-.939 1 1 0 0 0-.87-.416A1.051 1.051 0 0 0-.5-2.923a2.957 2.957 0 0 0-.276 1.305m2.6 2.631V.627a1.741 1.741 0 0 1-1.106.8 2.254 2.254 0 0 1-1.38-.116A2.563 2.563 0 0 1-1.836.3a3.517 3.517 0 0 1-.489-1.96 3.788 3.788 0 0 1 .649-2.3 2.5 2.5 0 0 1 2.087-.887 2.9 2.9 0 0 1 2.03.6 2.545 2.545 0 0 1 .935 2.2v3.23A2.7 2.7 0 0 1 .411 3.947a2.6 2.6 0 0 1-2.6-1.969h1.665a1.192 1.192 0 0 0 .559.491 1.18 1.18 0 0 0 .752.092 1.256 1.256 0 0 0 .686-.447 1.875 1.875 0 0 0 .352-1.1" class="prefix__cls-4" transform="translate(2.326 4.848)"/></g><g transform="translate(48.043 19.324)"><path d="M-1.879-1.913a1.257 1.257 0 0 1-.45 1.088 1.636 1.636 0 0 1-.949.3.873.873 0 0 1-.554-.18.7.7 0 0 1-.227-.584.72.72 0 0 1 .373-.668 2.353 2.353 0 0 1 .723-.213l.359-.068a2.576 2.576 0 0 0 .421-.108 1.483 1.483 0 0 0 .3-.152zm.8-3.43a3.849 3.849 0 0 0-1.763-.392A2.587 2.587 0 0 0-5-4.939a2.32 2.32 0 0 0-.443 1.3h1.523a1.129 1.129 0 0 1 .22-.554 1 1 0 0 1 .8-.277 1.622 1.622 0 0 1 .765.142.528.528 0 0 1 .26.51.476.476 0 0 1-.339.448 2.529 2.529 0 0 1-.631.138l-.538.065a3.859 3.859 0 0 0-1.391.389 1.71 1.71 0 0 0-.863 1.606A1.657 1.657 0 0 0-5.1.148a2.122 2.122 0 0 0 1.362.468C-.3.77-.342-1.194-.31-1.6v-2.263a1.5 1.5 0 0 0-.771-1.48" class="prefix__cls-4" transform="translate(5.633 5.735)"/></g><g transform="translate(60.25 19.262)"><path d="M-2.061-2.3a1.24 1.24 0 0 1-1.056.49 1.25 1.25 0 0 1-1.06-.49 2.247 2.247 0 0 1-.373-1.389 2.231 2.231 0 0 1 .373-1.386 1.25 1.25 0 0 1 1.059-.487 1.24 1.24 0 0 1 1.056.487 2.259 2.259 0 0 1 .369 1.386A2.275 2.275 0 0 1-2.061-2.3m1.255-3.637a2.775 2.775 0 0 0-2.308-.952 2.772 2.772 0 0 0-2.306.952 3.491 3.491 0 0 0-.76 2.248 3.47 3.47 0 0 0 .76 2.259 2.8 2.8 0 0 0 2.306.937A2.8 2.8 0 0 0-.806-1.43a3.48 3.48 0 0 0 .758-2.259 3.5 3.5 0 0 0-.758-2.248" class="prefix__cls-4" transform="translate(6.179 6.889)"/></g></g></g>
</svg>
