<svg xmlns="http://www.w3.org/2000/svg" width="91" height="40"><defs><linearGradient id="prefix__linear-gradient" x1=".286" x2=".024" y1=".5" y2="1" gradientUnits="objectBoundingBox"><stop offset="0" stop-color="#fff"/><stop offset="1" stop-color="#f3f3f3"/></linearGradient><clipPath id="prefix__clip-path"><rect id="prefix__intermediadores" width="91" height="40" class="prefix__cls-1" rx="4" transform="translate(525 10759)"/></clipPath><style>.prefix__cls-1{stroke:#f6f6f6;fill:url(#prefix__linear-gradient)}.prefix__cls-3{fill:#28316b}.prefix__cls-4{fill:#50b4e9}.prefix__cls-5{fill:#fff}</style></defs><g class="prefix__cls-1" fill="#fff"><rect width="91" height="41" rx="4"/><rect width="90" height="40" x=".5" y=".5" rx="3.5"/></g><path d="M35.064 19.191c0-5.056-6.283-9.178-14.032-9.178S7.001 14.135 7.001 19.191v.538c0 5.363 5.49 9.707 14.03 9.707 8.594 0 14.034-4.343 14.034-9.707z" class="prefix__cls-3"/><path d="M34.526 19.189c0 4.766-6.039 8.631-13.492 8.631s-13.49-3.865-13.49-8.631 6.04-8.633 13.49-8.633 13.492 3.865 13.492 8.632" class="prefix__cls-4"/><path d="M16.556 16.465c-.008.013-.142.153-.058.263a1.689 1.689 0 001.54.28 4.458 4.458 0 001.393-.88 5.571 5.571 0 011.594-1.018 1.827 1.827 0 011.161-.032 3.6 3.6 0 011.058.619c.924.694 4.636 3.934 5.276 4.494a31.927 31.927 0 015.933-1.908 7.354 7.354 0 00-2.817-4.432 8.656 8.656 0 01-7.306.118 7.107 7.107 0 00-2.762-.626 4.948 4.948 0 00-3.836 1.853z" class="prefix__cls-5"/><path d="M28.37 20.543c-.044-.038-4.364-3.82-5.344-4.556a2.4 2.4 0 00-1.212-.575 1.66 1.66 0 00-.577.056 5.218 5.218 0 00-1.578.939 4.513 4.513 0 01-1.542.955 2.5 2.5 0 01-1.7-.256.753.753 0 01-.281-.309.526.526 0 01.143-.566l1.193-1.289c.138-.138.278-.277.421-.414a8.018 8.018 0 00-1.087.245 4.722 4.722 0 01-1.268.237 11.979 11.979 0 01-1.294-.2 19.424 19.424 0 01-3.44-1.244 7.624 7.624 0 00-3.159 4.578c.243.065.635.18.8.217 3.837.853 5.032 1.732 5.249 1.916a1.273 1.273 0 01.95-.427 1.282 1.282 0 011.04.543 1.446 1.446 0 01.914-.321 1.7 1.7 0 01.549.1 1.253 1.253 0 01.772.7 1.252 1.252 0 01.534-.115 1.606 1.606 0 01.638.14 1.365 1.365 0 01.754 1.519 1.207 1.207 0 01.153-.008 1.522 1.522 0 011.52 1.521 1.523 1.523 0 01-.182.719 2.421 2.421 0 001.319.353.846.846 0 00.619-.27c.038-.053.079-.117.04-.162l-1.079-1.203s-.179-.168-.121-.234.172.03.251.094c.549.461 1.223 1.154 1.223 1.154s.056.1.3.14a1.128 1.128 0 00.857-.198 1.342 1.342 0 00.19-.192.1.1 0 01-.013.01.576.576 0 00-.031-.713l-1.263-1.418s-.182-.168-.12-.236.172.031.251.1c.4.333.966.9 1.507 1.433a1.034 1.034 0 001.213-.042.875.875 0 00.449-.793.911.911 0 00-.267-.528l-1.726-1.739s-.183-.156-.119-.235.171.029.249.094c.55.46 2.039 1.825 2.039 1.825a1.045 1.045 0 001.17-.024.778.778 0 00.385-.618.91.91 0 00-.29-.7" class="prefix__cls-5"/><path d="M19.997 22.743a3.9 3.9 0 00-.6.133c-.021-.014.017-.121.042-.184s.377-1.121-.482-1.49a1.01 1.01 0 00-1.2.179c-.037.037-.053.034-.057-.014a.946.946 0 00-.666-.881 1.3 1.3 0 00-1.466.522.938.938 0 00-.92-.821.942.942 0 00-.943.942.941.941 0 00.942.94.931.931 0 00.651-.262c.005.005.007.014 0 .032a1.24 1.24 0 00.775 1.423.921.921 0 00.908-.139c.074-.052.086-.03.075.04a.883.883 0 00.662.948.836.836 0 00.984-.188c.084-.076.107-.063.113.054a1.179 1.179 0 001.181 1.135 1.183 1.183 0 001.184-1.183 1.189 1.189 0 00-1.183-1.186" class="prefix__cls-5"/><path d="M19.996 25.027a1.09 1.09 0 01-1.1-1.048c0-.051-.007-.185-.12-.185a.208.208 0 00-.134.069.772.772 0 01-.539.244.955.955 0 01-.356-.076c-.626-.254-.635-.685-.609-.858a.161.161 0 00-.018-.13l-.039-.034h-.038a.184.184 0 00-.109.044.915.915 0 01-.532.188.811.811 0 01-.3-.057 1.15 1.15 0 01-.719-1.333.117.117 0 00-.036-.109l-.058-.049-.054.053a.847.847 0 01-.592.24.858.858 0 01-.857-.857.858.858 0 01.858-.856.855.855 0 01.845.748l.03.229.125-.194a1.259 1.259 0 011-.547 1.278 1.278 0 01.37.059.864.864 0 01.607.807c.01.111.088.117.1.117a.139.139 0 00.1-.052.859.859 0 01.631-.266 1.2 1.2 0 01.471.106c.807.346.441 1.371.436 1.381-.069.17-.071.245-.006.288l.032.016h.023a.574.574 0 00.156-.041 1.374 1.374 0 01.43-.094 1.111 1.111 0 011.1 1.1 1.1 1.1 0 01-1.1 1.1m8.54-4.935c-1.33-1.162-4.406-3.837-5.241-4.463a3.643 3.643 0 00-1.083-.63 1.814 1.814 0 00-.534-.083 2.262 2.262 0 00-.677.114 5.553 5.553 0 00-1.594 1.008l-.025.021a4.394 4.394 0 01-1.361.866 2.309 2.309 0 01-.5.056 1.285 1.285 0 01-.946-.3c-.024-.03-.008-.077.046-.149l.007-.01 1.171-1.262a4.875 4.875 0 013.773-1.836h.1a7.1 7.1 0 012.621.621 8.107 8.107 0 003.573.859 9.339 9.339 0 003.922-.94 12.831 12.831 0 00-.474-.376 8.638 8.638 0 01-3.445.783 7.614 7.614 0 01-3.347-.808 7.538 7.538 0 00-2.85-.674h-.111a4.962 4.962 0 00-3.254 1.155 6.45 6.45 0 00-1.623.3 4.436 4.436 0 01-1.143.219c-.148 0-.411-.013-.434-.014a22.245 22.245 0 01-4.113-1.14q-.252.178-.485.366a20.314 20.314 0 004.458 1.288c.183.014.378.034.573.034a4.918 4.918 0 001.291-.239c.248-.071.522-.146.81-.2l-.23.23-1.189 1.282a.6.6 0 00-.162.658.824.824 0 00.313.347 2.471 2.471 0 001.262.32 2.181 2.181 0 00.5-.053 4.528 4.528 0 001.575-.968 5.253 5.253 0 011.549-.928 1.8 1.8 0 01.433-.058c.039 0 .076 0 .11.005a2.338 2.338 0 011.173.56c.977.733 5.3 4.515 5.34 4.552a.828.828 0 01.259.636.693.693 0 01-.345.551 1.056 1.056 0 01-.567.176.921.921 0 01-.5-.145c-.015-.013-1.494-1.371-2.04-1.824a.45.45 0 00-.255-.137.144.144 0 00-.115.053c-.086.106.011.253.124.349l1.731 1.735a.822.822 0 01.238.47.789.789 0 01-.411.717 1.108 1.108 0 01-.612.2.883.883 0 01-.494-.151l-.247-.236c-.459-.452-.923-.913-1.265-1.2a.458.458 0 00-.258-.134.15.15 0 00-.109.047c-.039.044-.067.121.031.251a.823.823 0 00.087.1l1.263 1.417a.485.485 0 01.028.605l-.045.057a1.752 1.752 0 01-.117.113 1.006 1.006 0 01-.617.2.932.932 0 01-.171-.015.415.415 0 01-.248-.1l-.015-.017c-.07-.07-.706-.721-1.232-1.159a.441.441 0 00-.245-.132.15.15 0 00-.114.051c-.105.115.051.286.118.347l1.077 1.187a.248.248 0 01-.042.073c-.038.054-.169.185-.558.234a1.283 1.283 0 01-.143.007 2.457 2.457 0 01-1.054-.313 1.576 1.576 0 00.154-.681 1.608 1.608 0 00-1.607-1.618h-.058a1.42 1.42 0 00-.813-1.507 1.676 1.676 0 00-.672-.148 1.355 1.355 0 00-.493.089 1.34 1.34 0 00-.786-.668 1.752 1.752 0 00-.576-.1 1.515 1.515 0 00-.9.287 1.364 1.364 0 00-1.057-.51 1.364 1.364 0 00-.959.4c-.334-.257-1.664-1.1-5.222-1.909a18.056 18.056 0 01-.81-.223c-.04.192-.07.386-.091.583l.786.187c3.634.808 4.835 1.646 5.038 1.8a1.383 1.383 0 00-.105.523 1.364 1.364 0 001.362 1.363 1.406 1.406 0 00.249-.022 1.587 1.587 0 001.03 1.187 1.336 1.336 0 00.485.094 1.284 1.284 0 00.31-.038 1.428 1.428 0 00.845.79 1.439 1.439 0 00.535.109 1.2 1.2 0 00.416-.073 1.606 1.606 0 001.484 1 1.6 1.6 0 001.151-.487 3.04 3.04 0 001.359.4 1.645 1.645 0 00.207-.012 1.248 1.248 0 00.921-.451.767.767 0 00.056-.092 1.555 1.555 0 00.436.067 1.468 1.468 0 00.879-.313 1.215 1.215 0 00.516-.753.038.038 0 000-.012 1.444 1.444 0 00.293.03 1.631 1.631 0 00.9-.286 1.306 1.306 0 00.649-1.16 1.552 1.552 0 00.3.031 1.555 1.555 0 00.845-.26 1.234 1.234 0 00.593-.956 1.284 1.284 0 00-.187-.773 34.919 34.919 0 015.607-1.755 5.593 5.593 0 00-.08-.582 32.023 32.023 0 00-5.9 1.919M81.622 16.984a1.244 1.244 0 01-1.057.489 1.252 1.252 0 01-1.06-.489 2.257 2.257 0 01-.371-1.391 2.242 2.242 0 01.372-1.387 1.253 1.253 0 011.059-.487 1.245 1.245 0 011.057.487 2.27 2.27 0 01.368 1.387 2.286 2.286 0 01-.368 1.391m1.255-3.64a2.777 2.777 0 00-2.307-.951 2.776 2.776 0 00-2.306.951 3.492 3.492 0 00-.76 2.249 3.47 3.47 0 00.76 2.259 2.8 2.8 0 002.307.937 2.8 2.8 0 002.306-.937 3.475 3.475 0 00.759-2.259 3.5 3.5 0 00-.759-2.249M69.134 16.244a1.261 1.261 0 01-.451 1.088 1.636 1.636 0 01-.949.3.87.87 0 01-.553-.18.7.7 0 01-.227-.584.721.721 0 01.372-.668 2.351 2.351 0 01.724-.213l.359-.068a2.755 2.755 0 00.421-.108 1.483 1.483 0 00.3-.152zm.8-3.43a3.831 3.831 0 00-1.762-.392 2.591 2.591 0 00-2.159.794 2.311 2.311 0 00-.444 1.3h1.519a1.129 1.129 0 01.225-.552 1 1 0 01.8-.277 1.631 1.631 0 01.765.142.528.528 0 01.259.51.474.474 0 01-.339.447 2.473 2.473 0 01-.629.139l-.539.065a3.865 3.865 0 00-1.391.389 1.711 1.711 0 00-.862 1.606 1.657 1.657 0 00.536 1.321 2.125 2.125 0 001.361.467c3.439.154 3.397-1.809 3.429-2.216v-2.263a1.505 1.505 0 00-.771-1.48M62.098 13.768a1.021 1.021 0 01.867.364 1.343 1.343 0 01.239.6h1.7a2.311 2.311 0 00-.9-1.789 3.45 3.45 0 00-1.949-.507 2.848 2.848 0 00-2.2.86 3.4 3.4 0 00-.8 2.4 3.355 3.355 0 00.725 2.236 2.774 2.774 0 002.248.858 2.709 2.709 0 002.307-1.03 2.538 2.538 0 00.546-1.356h-1.69a1.422 1.422 0 01-.3.772 1.018 1.018 0 01-.826.3 1.1 1.1 0 01-1.117-.749 2.841 2.841 0 01-.159-1.062 3.112 3.112 0 01.164-1.111 1.138 1.138 0 011.145-.786M58.606 12.441a2.928 2.928 0 00-3.276 3.083v3.131h1.58v-2.937a2.444 2.444 0 01.182-1.07 1.3 1.3 0 011.272-.617c.047 0 .11 0 .187.007s.166.011.265.021v-1.605l-.136-.013h-.074M50.68 14.077a1.246 1.246 0 01.937-.342 1.375 1.375 0 01.931.323 1.313 1.313 0 01.417.948h-2.7a1.635 1.635 0 01.415-.929m2.12 2.942a1.154 1.154 0 01-.215.239 1.351 1.351 0 01-.885.238 1.492 1.492 0 01-.841-.2 1.426 1.426 0 01-.641-1.254H54.6a7.911 7.911 0 00-.058-1.191 2.95 2.95 0 00-.478-1.241 2.454 2.454 0 00-1.037-.888 3.425 3.425 0 00-1.41-.28 2.9 2.9 0 00-2.147.831 3.256 3.256 0 00-.827 2.391 2.908 2.908 0 00.916 2.4 3.272 3.272 0 002.115.739 2.914 2.914 0 002.257-.876 2.12 2.12 0 00.549-.911zM48.008 18.655h-1.443v-3.634a1.014 1.014 0 00-1.061-1.121 1.063 1.063 0 00-1.094 1.121v3.634h-1.444v-3.634a1 1 0 00-1.05-1.121 1.058 1.058 0 00-1.1 1.121v3.634h-1.444v-3.6a2.477 2.477 0 012.539-2.635 2.224 2.224 0 011.794.836 2.3 2.3 0 011.794-.836 2.408 2.408 0 012.5 2.635zM75.138 16.998a1.157 1.157 0 01-1.013.5 1.111 1.111 0 01-.995-.5 2.545 2.545 0 01-.326-1.37 2.414 2.414 0 01.321-1.296 1.1 1.1 0 011.011-.52 1.2 1.2 0 01.793.287 2.068 2.068 0 01.556 1.616 2.195 2.195 0 01-.347 1.282m1.894-6.452s-1.59-.17-1.59 1.108v1.693a1.885 1.885 0 00-.687-.663 1.928 1.928 0 00-.969-.241 2.3 2.3 0 00-1.891.88 3.884 3.884 0 00-.708 2.46 3.27 3.27 0 00.719 2.184 3.048 3.048 0 002.253.815 2.552 2.552 0 002.872-2.495z" class="prefix__cls-3"/><path d="M43.603 24.406a2.309 2.309 0 00-.349-1.375 1.159 1.159 0 00-1-.482 1.138 1.138 0 00-.976.482 2.32 2.32 0 00-.324 1.375 2.048 2.048 0 00.35 1.305 1.153 1.153 0 001 .483 1.11 1.11 0 00.95-.483 2.168 2.168 0 00.349-1.306m-2.647 4.274a.746.746 0 01-.254.569.823.823 0 01-.562.211h-.764v-5.49a2.531 2.531 0 01.952-2.188 3.4 3.4 0 012.391-.57 2.4 2.4 0 011.744.841 3.38 3.38 0 01.742 2.286 3.7 3.7 0 01-.7 2.337 2.188 2.188 0 01-1.786.87 2.389 2.389 0 01-1.02-.205 1.742 1.742 0 01-.743-.712zM53.071 24.406q0 1.578.913 1.752a1.244 1.244 0 001.346-.425 1.7 1.7 0 00.3-.789 3.351 3.351 0 00.012-1.065 2.115 2.115 0 00-.377-.939 1 1 0 00-.87-.416 1.051 1.051 0 00-1.048.577 2.957 2.957 0 00-.276 1.305m2.6 2.631v-.386a1.741 1.741 0 01-1.106.8 2.254 2.254 0 01-1.38-.116 2.563 2.563 0 01-1.174-1.011 3.517 3.517 0 01-.489-1.96 3.788 3.788 0 01.649-2.3 2.5 2.5 0 012.087-.887 2.9 2.9 0 012.03.6 2.545 2.545 0 01.935 2.2v3.23a2.7 2.7 0 01-2.965 2.764 2.6 2.6 0 01-2.6-1.969h1.665a1.192 1.192 0 00.559.491 1.18 1.18 0 00.752.092 1.256 1.256 0 00.686-.447 1.875 1.875 0 00.352-1.1M49.371 25.044a1.257 1.257 0 01-.45 1.088 1.636 1.636 0 01-.949.3.873.873 0 01-.554-.18.7.7 0 01-.227-.584.72.72 0 01.373-.668 2.353 2.353 0 01.723-.213l.359-.068a2.576 2.576 0 00.421-.108 1.483 1.483 0 00.3-.152zm.8-3.43a3.849 3.849 0 00-1.763-.392 2.587 2.587 0 00-2.158.796 2.32 2.32 0 00-.443 1.3h1.523a1.129 1.129 0 01.22-.554 1 1 0 01.8-.277 1.622 1.622 0 01.765.142.528.528 0 01.26.51.476.476 0 01-.339.448 2.529 2.529 0 01-.631.138l-.538.065a3.859 3.859 0 00-1.391.389 1.71 1.71 0 00-.863 1.606 1.657 1.657 0 00.537 1.32 2.122 2.122 0 001.362.468c3.438.154 3.396-1.81 3.428-2.216v-2.263a1.5 1.5 0 00-.771-1.48M61.942 25.749a1.24 1.24 0 01-1.056.49 1.25 1.25 0 01-1.06-.49 2.247 2.247 0 01-.373-1.389 2.231 2.231 0 01.373-1.386 1.25 1.25 0 011.059-.487 1.24 1.24 0 011.056.487 2.259 2.259 0 01.369 1.386 2.275 2.275 0 01-.368 1.389m1.255-3.637a2.775 2.775 0 00-2.308-.952 2.772 2.772 0 00-2.306.952 3.491 3.491 0 00-.76 2.248 3.47 3.47 0 00.76 2.259 2.8 2.8 0 002.306.937 2.8 2.8 0 002.308-.937 3.48 3.48 0 00.758-2.259 3.5 3.5 0 00-.758-2.248" class="prefix__cls-4"/></svg>