<svg xmlns="http://www.w3.org/2000/svg" width="91" height="41" viewBox="0 0 91 41">
    <defs>
        <linearGradient id="prefix__linear-gradient" x1=".286" x2=".024" y1=".5" y2="1" gradientUnits="objectBoundingBox">
            <stop offset="0" stop-color="#fff"/>
            <stop offset="1" stop-color="#f3f3f3"/>
        </linearGradient>
        <clipPath id="prefix__clip-path">
            <path id="prefix__intermediadores" d="M0 0H91V41H0z" transform="translate(400 10759)" style="fill:#fff"/>
        </clipPath>
        <style>
            .prefix__cls-4{fill:#254886}
        </style>
    </defs>
    <g transform="translate(-400 -10759)">
        <g transform="translate(401 10760)">
            <rect width="90" height="40" rx="4" style="stroke:none;fill:#fff"/>
            <rect width="89" height="39" x=".5" y=".5" rx="3.5" style="fill:none"/>
        </g>
        <g id="prefix__Yapay" transform="translate(413 10770.806)">
            <path d="M47.362 17.973h-1.578S45.772 3.205 45.772.952c0-.518.148-.687.67-.665a2.145 2.145 0 0 1 2 1.059 6.64 6.64 0 0 1 8.979.935 6.731 6.731 0 0 1 .216 8.663 6.661 6.661 0 0 1-8.91 1.431v4.258a1.351 1.351 0 0 1-1.365 1.34zm4.926-7.378a3.859 3.859 0 1 0-3.871-3.864 3.873 3.873 0 0 0 3.871 3.864z" class="prefix__cls-4" transform="translate(-19.745 -.003)"/>
            <path d="M79.25 1.355A2.151 2.151 0 0 1 81.4.3c.386 0 .511.113.5.484-.011 1.228-.011 2.456-.011 3.684 0 2.692.011 7.637.011 8.077s-.091.665-.624.653a2.173 2.173 0 0 1-2.043-1.081 6.168 6.168 0 0 1-5.573 1.16 6.608 6.608 0 0 1-3.825-2.625 6.751 6.751 0 0 1 .636-8.606 6.634 6.634 0 0 1 8.779-.691zm-3.9 9.237a3.859 3.859 0 1 0 .114-7.716 3.859 3.859 0 1 0-.114 7.716z" class="prefix__cls-4" transform="translate(-29.579)"/>
            <path d="M31.351 1.356a2.2 2.2 0 0 1 2.156-1.07c.386 0 .511.124.5.5-.007 1.223-.007 9.064 0 11.767 0 .473-.091.665-.624.653a2.174 2.174 0 0 1-2.043-1.081 6.168 6.168 0 0 1-5.573 1.16 6.608 6.608 0 0 1-3.825-2.625 6.751 6.751 0 0 1 .636-8.606 6.607 6.607 0 0 1 8.773-.698zm-3.9 9.237a3.859 3.859 0 1 0 .114-7.716 3.859 3.859 0 1 0-.114 7.716z" class="prefix__cls-4" transform="translate(-8.921 -.001)"/>
            <path d="M93.72 17.948c.568-1.3 1.34-3.019 1.737-3.875a2.447 2.447 0 0 0-.011-2.309c-1.6-3.526-3.144-7.085-4.711-10.645-.068-.146.114-.6.114-.6h.658c2.3 0 2.077-.068 2.985 1.949 1.01 2.253 2 4.506 3.031 6.849C98.1 8 98.658 6.773 99.2 5.534c.454-1.036 1.271-2.951 1.759-4.089a1.524 1.524 0 0 1 1.407-.924h2.157S99.611 11.786 97.3 17.013c-.686 1.577-2.048 1.948-3.58.935z" class="prefix__cls-4" transform="translate(-39.133 -.225)"/>
            <path d="M3.28 17.922c.568-1.3 1.351-2.974 1.737-3.875a2.478 2.478 0 0 0-.011-2.309C3.405 8.212 0 .462 0 .462h1c2.3 0 2.157-.034 3.065 1.994 1.01 2.253 2 4.506 3.031 6.849.579-1.318 1.135-2.546 1.68-3.785.454-1.036 1.271-2.951 1.759-4.089a1.524 1.524 0 0 1 1.406-.924H14.1S9.183 11.772 6.867 17c-.692 1.564-2.054 1.936-3.587.922z" class="prefix__cls-4" transform="translate(0 -.199)"/>
        </g>
    </g>
</svg>
