<?xml version="1.0" encoding="utf-8"?>
<!-- Generator: Adobe Illustrator 24.3.0, SVG Export Plug-In . SVG Version: 6.00 Build 0)  -->
<svg version="1.1" id="Layer_1" xmlns="http://www.w3.org/2000/svg" xmlns:xlink="http://www.w3.org/1999/xlink" x="0px" y="0px"
	 viewBox="0 0 38 38" style="enable-background:new 0 0 38 38;" xml:space="preserve">
<style type="text/css">
	.st0{fill:#090909;}
	.st1{fill:#FFFFFF;}
</style>
<g>
	<g>
		<path class="st0" d="M8.7,25.1l-2.1-1c-0.2-0.1-0.5,0-0.6,0.2c-0.1,0.2,0,0.5,0.2,0.6l2.1,1c0.1,0,0.1,0,0.2,0
			c0.2,0,0.3-0.1,0.4-0.3C9.1,25.5,9,25.2,8.7,25.1z"/>
	</g>
</g>
<path class="st0" d="M33.8,9.6L19.2,2.6c-0.1-0.1-0.3-0.1-0.4,0L4.2,9.6C4,9.7,3.9,9.9,3.9,10.1v17.1c0,0.2,0.1,0.3,0.3,0.4
	l14.6,7.1c0.1,0,0.1,0,0.2,0c0.1,0,0.1,0,0.2,0l14.6-7.1c0.2-0.1,0.3-0.2,0.3-0.4V10.1C34.1,9.9,34,9.7,33.8,9.6z M19,3.5l13.5,6.5
	L28.6,12c0,0-0.1,0-0.1-0.1L15.1,5.4L19,3.5z M14,6l13.5,6.5l-2.8,1.3L11.3,7.3L14,6z M27.9,13.4v4.9l-2.6,1.2v-4.9L27.9,13.4z
	 M18.5,17.4v16.1L4.8,26.9V10.8 M5.5,10.1l4.7-2.3l14.2,6.8c0,0,0,0,0,0v5.7c0,0.2,0.1,0.3,0.2,0.4c0.1,0,0.2,0.1,0.3,0.1
	c0.1,0,0.1,0,0.2,0l3.5-1.7c0.2-0.1,0.3-0.2,0.3-0.4v-5.7l4.4-2.1v16.1l-13.7,6.6V17.4l3.3-1.6c0.2-0.1,0.3-0.4,0.2-0.6
	c-0.1-0.2-0.4-0.3-0.6-0.2L19,16.6"/>
<g>
	<g>
		<path class="st0" d="M10.7,23.8l-4.1-2c-0.2-0.1-0.5,0-0.6,0.2c-0.1,0.2,0,0.5,0.2,0.6l4.1,2c0.1,0,0.1,0,0.2,0
			c0.2,0,0.3-0.1,0.4-0.3C11,24.2,10.9,23.9,10.7,23.8z"/>
	</g>
</g>
</svg>
