<?xml version="1.0" encoding="utf-8"?>
<!-- Generator: Adobe Illustrator 22.0.1, SVG Export Plug-In . SVG Version: 6.00 Build 0)  -->
<svg version="1.1" id="Camada_1" xmlns="http://www.w3.org/2000/svg" xmlns:xlink="http://www.w3.org/1999/xlink" x="0px" y="0px"
	 viewBox="0 0 14.1 14" style="enable-background:new 0 0 14.1 14;" xml:space="preserve">
<style type="text/css">
	.st0{fill:#0000FF;}
</style>
<title>package</title>
<path class="st0" d="M13.3,3.4c0,0,0-0.1,0-0.2c0-0.1-0.1-0.2-0.2-0.2L7.2,0.2c-0.1,0-0.2,0-0.3,0L1,3.1C0.9,3.1,0.8,3.2,0.8,3.4
	v7.2c0,0.1,0.1,0.3,0.2,0.3l5.9,2.9l0,0l0,0h0.2l0,0l0,0l6-2.9c0.1-0.1,0.2-0.2,0.2-0.3L13.3,3.4L13.3,3.4z M7,0.9l5.1,2.5l-1.9,0.9
	L5.1,1.8L7,0.9z M7,5.9L1.9,3.4l2.5-1.2l5.1,2.5L7,5.9z M1.5,4l5.2,2.5v6.4l-5.2-2.5V4z M7.4,13V6.5l2.5-1.2V7
	c0,0.2,0.2,0.3,0.4,0.3l0,0c0.2,0,0.3-0.2,0.3-0.3V5l2.1-1v6.4L7.4,13z"/>
</svg>
