<svg version="1.1" id="Layer_1" xmlns="http://www.w3.org/2000/svg" x="0" y="0" viewBox="0 0 38 38" xml:space="preserve"><style>.st0{fill:#090909}</style><path class="st0" d="M8.7 25.1l-2.1-1c-.2-.1-.5 0-.6.2-.1.2 0 .5.2.6l2.1 1h.2c.2 0 .3-.1.4-.3.2-.1.1-.4-.2-.5z"/><path class="st0" d="M33.8 9.6l-14.6-7c-.1-.1-.3-.1-.4 0l-14.6 7c-.2.1-.3.3-.3.5v17.1c0 .2.1.3.3.4l14.6 7.1h.4l14.6-7.1c.2-.1.3-.2.3-.4V10.1c0-.2-.1-.4-.3-.5zM19 3.5L32.5 10l-3.9 2s-.1 0-.1-.1L15.1 5.4 19 3.5zM14 6l13.5 6.5-2.8 1.3-13.4-6.5L14 6zm13.9 7.4v4.9l-2.6 1.2v-4.9l2.6-1.2zm-9.4 4v16.1L4.8 26.9V10.8m.7-.7l4.7-2.3 14.2 6.8v5.7c0 .2.1.3.2.4.1 0 .2.1.3.1h.2l3.5-1.7c.2-.1.3-.2.3-.4V13l4.4-2.1V27l-13.7 6.6V17.4l3.3-1.6c.2-.1.3-.4.2-.6-.1-.2-.4-.3-.6-.2L19 16.6"/><path class="st0" d="M10.7 23.8l-4.1-2c-.2-.1-.5 0-.6.2-.1.2 0 .5.2.6l4.1 2h.2c.2 0 .3-.1.4-.3.1-.1 0-.4-.2-.5z"/></svg>