<svg version="1.1" id="Layer_1" xmlns="http://www.w3.org/2000/svg" x="0" y="0" viewBox="0 0 239 79.6" xml:space="preserve"><style>.st0{fill:#3453c4}.st1{fill:#db3838}.st3{fill:#3453c6}</style><path class="st0" d="M41.1 47h8.2v24.8h6.9V47h8.4v-5.8H41.1zM86 50.8h-6.6v12.5c0 .5 0 1-.2 1.4-.4 1-1.5 2.3-3.3 2.3-2.3 0-3.3-1.9-3.3-4.9V50.8H66v12.4c0 6.5 3.2 9.2 7.4 9.2 3.8 0 5.8-2.2 6.6-3.4h.1l.3 3h5.7c-.1-1.8-.2-4-.2-6.8l.1-14.4zM123.2 50.3c-6.8 0-11.3 4.3-11.3 11.2 0 6.8 4.7 10.9 10.9 10.9 5.6 0 11.1-3.5 11.1-11.3.1-6.4-4.3-10.8-10.7-10.8zm-.2 17.3c-2.8 0-4.3-2.7-4.3-6.3 0-3.1 1.2-6.3 4.3-6.3 3 0 4.2 3.2 4.2 6.3 0 3.8-1.6 6.3-4.2 6.3zM110 65.5V41.2h-6.5v11.4h-.1c-1-1.5-3-2.4-5.6-2.4-5 0-9.5 4.1-9.4 11.2 0 6.6 4 10.8 9 10.8 2.7 0 5.3-1.2 6.6-3.6h.1l.3 3.1h5.8c-.1-1.3-.2-3.8-.2-6.2zm-7-3.1c0 .6 0 1-.2 1.5-.4 1.9-1.9 3.2-3.8 3.2-2.7 0-4.5-2.2-4.5-5.8 0-3.3 1.6-6 4.5-6 2 0 3.4 1.5 3.8 3.2 0 .3.1.8.1 1.2l.1 2.7z"/><path class="st1" d="M136.3 71.8h7V59.5h11v-5.6h-11v-7H155v-5.7h-18.7zM167.3 50.3c-6.8 0-11.3 4.3-11.3 11.2 0 6.8 4.7 10.9 10.9 10.9 5.6 0 11.1-3.5 11.1-11.3.1-6.4-4.3-10.8-10.7-10.8zm.2 17.3c-2.8 0-4.3-2.7-4.3-6.3 0-3.1 1.2-6.3 4.3-6.3 3 0 4.2 3.2 4.2 6.3 0 3.8-1.6 6.3-4.2 6.3zM186.4 54.6h-.2l-.2-3.9h-5.6c.1 1.8.2 3.8.2 6.9v14.1h6.5V61.2c0-.5 0-1 .1-1.5.4-2 2.1-3.3 4.5-3.3.7 0 1.3.1 1.8.2v-6.2c-.5-.1-.8-.1-1.4-.1-2.1 0-4.7 1.3-5.7 4.3zM230.4 60.8c0-5.2-2.6-10.5-9.4-10.5-7.3 0-10.7 5.9-10.7 11.3 0 6.6 4.1 10.7 11.3 10.7 2.8 0 5.5-.4 7.6-1.3l-.9-4.4c-1.8.6-3.6.9-5.8.9-3.1 0-5.7-1.3-5.9-4h13.6c0-.6.2-1.6.2-2.7zm-13.9-1.9c.2-1.8 1.3-4.3 4.1-4.3 3 0 3.7 2.7 3.7 4.3h-7.8zM204.3 44.7l-6.4 1.5v4.6h-2.8v4.8h2.8v8.6c0 3 .6 5 1.8 6.2 1 1.1 2.8 1.8 4.9 1.8 1.8 0 3.4-.2 4.3-.6v-4.9c-.5.1-1.1.2-1.9.2-2 0-2.6-1.2-2.6-3.7v-7.6h4.7v-4.8h-4.7v-6.1h-.1z"/><g><path class="st3" d="M13.7 57.9c-.6 0-1.1-.5-1.1-1.1 0-6.2 5.1-11.3 11.3-11.3 3.7 0 7.2 1.8 9.3 4.9.3.5.2 1.2-.3 1.5s-1.2.2-1.5-.3c-1.7-2.5-4.5-3.9-7.5-3.9-5 0-9.1 4.1-9.1 9.1-.1.6-.6 1.1-1.1 1.1z"/></g><g><path class="st3" d="M24 68c-4 0-7.6-2-9.7-5.4-.3-.6-.1-1.3.4-1.6s1.2-.1 1.5.4c1.7 2.8 4.6 4.4 7.8 4.4 2.9 0 5.5-1.3 7.3-3.6.4-.5 1-.6 1.5-.2.5.4.6 1 .2 1.5-2.2 2.8-5.5 4.5-9 4.5z"/></g><g><path class="st3" d="M23.9 71.8c-5.8 0-11.1-3.3-13.7-8.5-.3-.5 0-1.2.5-1.5s1.2 0 1.5.5c2.2 4.5 6.7 7.3 11.8 7.3 4.2 0 8.1-2 10.6-5.4.4-.5 1-.6 1.5-.2s.6 1 .2 1.5c-2.9 4-7.5 6.3-12.4 6.3z"/></g><g><path class="st3" d="M9.8 58.8c-.6 0-1-.4-1.1-1 0-.4-.1-.9-.1-1.3 0-8.4 6.9-15.3 15.3-15.3 5.3 0 10.2 2.7 13 7.3v.1c.3.5.1 1.2-.4 1.5s-1.2.1-1.5-.4c-2.4-3.9-6.6-6.3-11.2-6.3-7.2 0-13.1 5.9-13.1 13.1 0 .4 0 .8.1 1.2.1.6-.4 1.1-1 1.1z"/></g><g><circle cx="23.9" cy="56.8" r="6.5" fill-rule="evenodd" clip-rule="evenodd" fill="#db3838"/></g><g><path class="st0" d="M65.7 17.1c0 4.1-3.1 6.6-8 6.6h-3.1v4.7h-5.1v-18h8.2c4.9.1 8 2.6 8 6.7zm-5.1 0c0-1.7-1.1-2.6-3.2-2.6h-2.8v5.3h2.8c2.1-.1 3.2-1.1 3.2-2.7zM79.3 24.9h-7.6l-1.4 3.5h-5.2l7.9-18h5l8 18h-5.3l-1.4-3.5zm-1.5-3.7l-2.3-5.8-2.3 5.8h4.6zM95.3 23.7h-2.8v4.8h-5.1v-18h8.2c4.9 0 8 2.5 8 6.7 0 2.6-1.3 4.6-3.5 5.7l3.9 5.6h-5.4l-3.3-4.8zm.1-9.2h-2.8v5.3h2.8c2.1 0 3.2-1 3.2-2.6 0-1.8-1.1-2.7-3.2-2.7zM105.6 19.4c0-5.5 4.2-9.3 9.9-9.3 3.3 0 6 1.2 7.7 3.4l-3.2 2.9c-1.1-1.4-2.5-2.1-4.2-2.1-3 0-5 2.1-5 5.1s2.1 5.1 5 5.1c1.7 0 3.1-.7 4.2-2.1l3.2 2.9c-1.7 2.2-4.4 3.4-7.7 3.4-5.7.1-9.9-3.8-9.9-9.3zM139.9 24.5v3.9h-14.4v-18h14.1v3.9h-9.1v3h8v3.8h-8v3.3h9.4v.1zM142.7 10.5h5.1v18h-5.1v-18zM159.3 23.7h-2.8v4.8h-5.1v-18h8.2c4.9 0 8 2.5 8 6.7 0 2.6-1.3 4.6-3.5 5.7l3.9 5.6h-5.4l-3.3-4.8zm0-9.2h-2.8v5.3h2.8c2.1 0 3.2-1 3.2-2.6 0-1.8-1.1-2.7-3.2-2.7zM169.5 19.4c0-5.4 4.2-9.3 10-9.3s10 4 10 9.3c0 5.4-4.2 9.3-10 9.3-5.8.1-10-3.9-10-9.3zm14.8 0c0-3.1-2.1-5.1-4.9-5.1-2.7 0-4.9 2-4.9 5.1s2.1 5.1 4.9 5.1c2.8.1 4.9-2 4.9-5.1z"/></g></svg>