<svg version="1.1" id="Camada_1" xmlns="http://www.w3.org/2000/svg" x="0" y="0" viewBox="0 0 512 512" xml:space="preserve"><style>.st1{fill:#a3a3d1}.st2{fill:#575f64}.st3{fill:#d8d8fc}.st4{fill:#ffda2d}.st6{fill:#fdbf00}.st7{fill:#32393f}</style><path fill="#fff" d="M45 16h422v480H45z"/><path class="st1" d="M308.9 221.2l-47.2-23.6c-4.2-2.1-9.2-2.1-13.4 0L195 224.2l-53.3-26.6c-4.2-2.1-9.2-2.1-13.4 0l-60 30c-7.4 3.7-10.4 12.7-6.7 20.1 3.7 7.4 12.7 10.4 20.1 6.7l53.3-26.6 53.3 26.6c4.2 2.1 9.2 2.1 13.4 0l53.3-26.6 53.3 26.6c.2.1.4.1.6.1v-33.3zM308.9 377.4c-.2.1-.4.1-.6.2L255 404.2l-53.3-26.6c-4.2-2.1-9.2-2.1-13.4 0L135 404.2l-53.3-26.6c-7.4-3.7-16.4-.7-20.1 6.7-3.7 7.4-.7 16.4 6.7 20.1l60 30c4.2 2.1 9.2 2.1 13.4 0l53.3-26.6 53.3 26.6c2.1 1.1 4.4 1.6 6.7 1.6s4.6-.5 6.7-1.6l47.2-23.6v-33.4z"/><path class="st2" d="M75 496H15c-8.3 0-15-6.7-15-15V121c0-8.3 6.7-15 15-15h60c8.3 0 15 6.7 15 15v360c0 8.3-6.7 15-15 15z"/><path class="st3" d="M255 466c-8.3 0-15-6.7-15-15V181c0-8.3 6.7-15 15-15s15 6.7 15 15v270c0 8.3-6.7 15-15 15zM315 466c-8.3 0-15-6.7-15-15V181c0-8.3 6.7-15 15-15s15 6.7 15 15v270c0 8.3-6.7 15-15 15zM195 466c-8.3 0-15-6.7-15-15V181c0-8.3 6.7-15 15-15s15 6.7 15 15v270c0 8.3-6.7 15-15 15zM135 466c-8.3 0-15-6.7-15-15V181c0-8.3 6.7-15 15-15s15 6.7 15 15v270c0 8.3-6.7 15-15 15z"/><path class="st4" d="M45 106C20.2 106 0 85.8 0 61s20.2-45 45-45 45 20.2 45 45-20.2 45-45 45z"/><path class="st2" d="M497 496h-60c-8.3 0-15-6.7-15-15V121c0-8.3 6.7-15 15-15h60c8.3 0 15 6.7 15 15v360c0 8.3-6.7 15-15 15z"/><path class="st4" d="M467 106c-24.8 0-45-20.2-45-45s20.2-45 45-45 45 20.2 45 45-20.2 45-45 45z"/><path d="M375 76h-83.8l4.4-4.4c5.9-5.9 5.9-15.4 0-21.2s-15.4-5.9-21.2 0l-30 30c-5.9 5.9-5.8 15.4 0 21.3l30 30c5.9 5.9 15.4 5.9 21.2 0 5.9-5.9 5.9-15.4 0-21.2l-4.4-4.4H375c8.3 0 15-6.7 15-15S383.3 76 375 76z" fill="#64e1dc"/><path class="st6" d="M467 16v90c24.8 0 45-20.2 45-45s-20.2-45-45-45z"/><path class="st7" d="M497 106h-30v390h30c8.3 0 15-6.7 15-15V121c0-8.3-6.7-15-15-15z"/><path class="st6" d="M45 16v90c24.8 0 45-20.2 45-45S69.8 16 45 16z"/><path class="st7" d="M75 106H45v390h30c8.3 0 15-6.7 15-15V121c0-8.3-6.7-15-15-15z"/></svg>