<?xml version="1.0" encoding="utf-8"?>
<svg version="1.1" xmlns="http://www.w3.org/2000/svg" xmlns:xlink="http://www.w3.org/1999/xlink" x="0px" y="0px"
	 viewBox="0 0 38 38" xml:space="preserve">
<style type="text/css">
	.search-tudoforte-white{fill:#fff}
</style>
<path class="search-tudoforte-white" d="M36.1,34.4l-11-11c1.8-2.3,2.9-5.2,2.9-8.3c0-7.4-6-13.4-13.4-13.4c-7.4,0-13.4,6-13.4,13.4
	s6,13.4,13.4,13.4c3.1,0,6-1.1,8.3-2.9l11,11c0.3,0.3,0.7,0.5,1.1,0.5c0.4,0,0.8-0.2,1.1-0.5C36.7,36.1,36.7,35,36.1,34.4z
	 M4.4,15.2C4.4,9.6,8.9,5,14.6,5s10.2,4.6,10.2,10.2s-4.6,10.2-10.2,10.2S4.4,20.8,4.4,15.2z"/>
</svg>
