<?xml version="1.0" encoding="utf-8"?>
<!-- Generator: Adobe Illustrator 24.3.0, SVG Export Plug-In . SVG Version: 6.00 Build 0)  -->
<svg version="1.1" id="Layer_1" xmlns="http://www.w3.org/2000/svg" xmlns:xlink="http://www.w3.org/1999/xlink" x="0px" y="0px"
	 viewBox="0 0 38 38" style="enable-background:new 0 0 38 38;" xml:space="preserve">
<style type="text/css">
	.st0{fill:#090909;}
	.st1{fill:#FFFFFF;}
</style>
<g>
	<path class="st0" d="M33.3,9.2c0-0.2-0.2-0.4-0.4-0.4C28.6,7.5,24.4,6,20.2,4.2c-0.1-0.1-0.3-0.1-0.4,0C15.6,6,11.4,7.5,7,8.8
		C6.8,8.9,6.7,9,6.7,9.2c-0.3,3.5,0,7,0.8,10.4c1.8,7.3,6.1,12.2,12.3,14.3c0.1,0,0.2,0,0.3,0c6.3-2.1,10.5-7,12.3-14.3
		C33.3,16.2,33.6,12.7,33.3,9.2z M31.5,19.4c-1.7,6.9-5.6,11.5-11.5,13.5c-5.9-2-9.8-6.5-11.5-13.5c-0.8-3.2-1.1-6.5-0.9-9.7
		C11.8,8.4,16,6.9,20,5.2c4,1.7,8.2,3.2,12.4,4.5C32.6,12.9,32.3,16.2,31.5,19.4L31.5,19.4z"/>
	<path class="st0" d="M23.6,15.3V14c0-2-1.6-3.6-3.6-3.6c-2,0-3.6,1.6-3.6,3.6c0,0,0,0,0,0v1.3c-1.1,0.3-1.8,1.2-1.8,2.3v5.1
		c0,1.3,1.1,2.4,2.4,2.4H23c1.3,0,2.4-1.1,2.4-2.4v-5.1C25.4,16.5,24.7,15.6,23.6,15.3z M20,11.4c1.4,0,2.6,1.2,2.6,2.6v1.2h-5.2V14
		C17.4,12.5,18.6,11.4,20,11.4z M24.4,22.7c0,0.8-0.6,1.4-1.4,1.4H17c-0.8,0-1.4-0.6-1.4-1.4v-5.1c0-0.8,0.6-1.4,1.4-1.4H23
		c0.8,0,1.4,0.6,1.4,1.4V22.7z"/>
	<path class="st0" d="M21.2,18.1c-0.7-0.7-1.9-0.6-2.5,0.1c-0.3,0.3-0.4,0.6-0.4,1c-0.1,0.6,0.2,1.1,0.6,1.5c0,0,0,0.1,0.1,0.1v0.9
		c0,0.6,0.5,1.1,1.1,1.1c0.6,0,1.1-0.5,1.1-1.1c0,0,0,0,0,0v-0.9c0,0,0-0.1,0.1-0.1c0.7-0.7,0.8-1.8,0.2-2.5
		C21.3,18.2,21.2,18.1,21.2,18.1L21.2,18.1z M20.5,20c-0.2,0.2-0.4,0.5-0.4,0.9v0.9c0,0.1-0.1,0.1-0.1,0.1s-0.1-0.1-0.1-0.1
		c0,0,0,0,0,0v-0.9c0-0.3-0.1-0.6-0.4-0.8c-0.2-0.2-0.3-0.4-0.3-0.7c0-0.4,0.3-0.7,0.7-0.7c0,0,0.1,0,0.1,0c0.2,0,0.4,0.1,0.5,0.2
		C20.8,19.1,20.9,19.6,20.5,20C20.6,20,20.5,20,20.5,20L20.5,20z"/>
</g>
</svg>
