<svg version="1.1" id="Layer_1" xmlns="http://www.w3.org/2000/svg" x="0" y="0" viewBox="0 0 38 38" xml:space="preserve"><style>.st0{fill:#090909}</style><path class="st0" d="M33.3 9.2c0-.2-.2-.4-.4-.4-4.3-1.3-8.5-2.8-12.7-4.6-.1-.1-.3-.1-.4 0C15.6 6 11.4 7.5 7 8.8c-.2.1-.3.2-.3.4-.3 3.5 0 7 .8 10.4 1.8 7.3 6.1 12.2 12.3 14.3h.3c6.3-2.1 10.5-7 12.3-14.3.9-3.4 1.2-6.9.9-10.4zm-1.8 10.2c-1.7 6.9-5.6 11.5-11.5 13.5-5.9-2-9.8-6.5-11.5-13.5-.8-3.2-1.1-6.5-.9-9.7C11.8 8.4 16 6.9 20 5.2c4 1.7 8.2 3.2 12.4 4.5.2 3.2-.1 6.5-.9 9.7z"/><path class="st0" d="M23.6 15.3V14c0-2-1.6-3.6-3.6-3.6S16.4 12 16.4 14v1.3c-1.1.3-1.8 1.2-1.8 2.3v5.1c0 1.3 1.1 2.4 2.4 2.4h6c1.3 0 2.4-1.1 2.4-2.4v-5.1c0-1.1-.7-2-1.8-2.3zM20 11.4c1.4 0 2.6 1.2 2.6 2.6v1.2h-5.2V14c0-1.5 1.2-2.6 2.6-2.6zm4.4 11.3c0 .8-.6 1.4-1.4 1.4h-6c-.8 0-1.4-.6-1.4-1.4v-5.1c0-.8.6-1.4 1.4-1.4h6c.8 0 1.4.6 1.4 1.4v5.1z"/><path class="st0" d="M21.2 18.1c-.7-.7-1.9-.6-2.5.1-.3.3-.4.6-.4 1-.1.6.2 1.1.6 1.5 0 0 0 .1.1.1v.9c0 .6.5 1.1 1.1 1.1.6 0 1.1-.5 1.1-1.1v-.9s0-.1.1-.1c.7-.7.8-1.8.2-2.5-.2 0-.3-.1-.3-.1zm-.7 1.9c-.2.2-.4.5-.4.9v.9c0 .1-.1.1-.1.1l-.1-.1v-.9c0-.3-.1-.6-.4-.8-.2-.2-.3-.4-.3-.7 0-.4.3-.7.7-.7h.1c.2 0 .4.1.5.2.3.2.4.7 0 1.1.1 0 0 0 0 0z"/></svg>