<?xml version="1.0" encoding="utf-8"?>
<!-- Generator: Adobe Illustrator 24.3.0, SVG Export Plug-In . SVG Version: 6.00 Build 0)  -->
<svg version="1.1" id="Layer_1" xmlns="http://www.w3.org/2000/svg" xmlns:xlink="http://www.w3.org/1999/xlink" x="0px" y="0px"
	 viewBox="0 0 38 38" style="enable-background:new 0 0 38 38;" xml:space="preserve">
<style type="text/css">
	.st0{fill:#090909;}
	.st1{fill:#FFFFFF;}
</style>
<g>
	<g>
		<g>
			<path class="st0" d="M10.9,20.7H4.4c-0.3,0-0.5,0.2-0.5,0.5c0,0.3,0.2,0.5,0.5,0.5h6.5c0.3,0,0.5-0.2,0.5-0.5
				C11.4,20.9,11.2,20.7,10.9,20.7z"/>
		</g>
	</g>
	<path class="st0" d="M32.9,17.4l-0.8-3.4c0.2,0,0.4-0.3,0.4-0.5V13c0-1.2-1-2.1-2.1-2.1h-3.8V9.8c0-0.6-0.5-1-1-1H6
		c-0.6,0-1,0.5-1,1V19c0,0.3,0.2,0.5,0.5,0.5C5.8,19.5,6,19.3,6,19V9.8c0,0,0,0,0,0h19.5c0,0,0,0,0,0V19c0,0,0,0,0,0v2.2
		c0,0,0,0,0,0V25H15c-0.4-1.3-1.6-2.2-3-2.2c-1.4,0-2.6,0.9-3,2.2H6c0,0,0,0,0,0v-1.1h2.2c0.3,0,0.5-0.2,0.5-0.5
		c0-0.3-0.2-0.5-0.5-0.5H3.3c-0.3,0-0.5,0.2-0.5,0.5c0,0.3,0.2,0.5,0.5,0.5H5V25c0,0.6,0.5,1,1,1h2.7c0,0,0,0,0,0
		c0,1.8,1.4,3.2,3.2,3.2c1.8,0,3.2-1.4,3.2-3.2c0,0,0,0,0,0h11.4c0,0,0,0,0,0c0,1.8,1.4,3.2,3.2,3.2c1.8,0,3.2-1.4,3.2-3.2
		c0,0,0,0,0,0h1.7c0.3,0,0.5-0.2,0.5-0.5v-5.4C35.2,18.7,34.2,17.6,32.9,17.4z M12,28.2c-1.2,0-2.2-1-2.2-2.2c0-1.2,1-2.2,2.2-2.2
		c1.2,0,2.2,1,2.2,2.2C14.2,27.2,13.2,28.2,12,28.2z M26.5,11.9h3.8c0.6,0,1.1,0.5,1.1,1.1v0h-4.9V11.9z M26.5,14.1h4.5l0.8,3.3
		h-5.3v-0.6V14.1z M29.8,28.2c-1.2,0-2.2-1-2.2-2.2c0-1.2,1-2.2,2.2-2.2c1.2,0,2.2,1,2.2,2.2C32,27.2,31,28.2,29.8,28.2z M34.2,25
		h-1.3c-0.4-1.3-1.6-2.2-3-2.2s-2.6,0.9-3,2.2h-0.2v-1.7c0,0,0,0,0,0v-4.9h6c0,0,0,0,0,0c0,0,0,0,0,0c0.7,0,1.4,0.5,1.6,1.1h-1.6
		c-0.3,0-0.5,0.2-0.5,0.5v1.1c0,0.9,0.7,1.6,1.6,1.6h0.6V25z M33.6,21.7c-0.3,0-0.6-0.3-0.6-0.6v-0.6h1.2v1.2H33.6z"/>
	<g>
		<g>
			<path class="st0" d="M20.4,13.8c-0.2-0.2-0.5-0.2-0.7,0l-4.5,4.5l-2.3-2.3c-0.2-0.2-0.5-0.2-0.7,0c-0.2,0.2-0.2,0.5,0,0.7
				l2.7,2.7c0.1,0.1,0.2,0.1,0.4,0.1s0.3,0,0.4-0.1l4.9-4.9C20.6,14.3,20.6,14,20.4,13.8z"/>
		</g>
	</g>
</g>
</svg>
