<svg version="1.1" id="Layer_1" xmlns="http://www.w3.org/2000/svg" x="0" y="0" viewBox="0 0 38 38" xml:space="preserve"><style>.st0{fill:#090909}</style><path class="st0" d="M10.9 20.7H4.4c-.3 0-.5.2-.5.5s.2.5.5.5h6.5c.3 0 .5-.2.5-.5s-.2-.5-.5-.5z"/><path class="st0" d="M32.9 17.4l-.8-3.4c.2 0 .4-.3.4-.5V13c0-1.2-1-2.1-2.1-2.1h-3.8V9.8c0-.6-.5-1-1-1H6c-.6 0-1 .5-1 1V19c0 .3.2.5.5.5s.5-.2.5-.5V9.8h19.5V25H15c-.4-1.3-1.6-2.2-3-2.2s-2.6.9-3 2.2H6v-1.1h2.2c.3 0 .5-.2.5-.5s-.2-.5-.5-.5H3.3c-.3 0-.5.2-.5.5s.2.5.5.5H5V25c0 .6.5 1 1 1h2.7c0 1.8 1.4 3.2 3.2 3.2 1.8 0 3.2-1.4 3.2-3.2h11.4c0 1.8 1.4 3.2 3.2 3.2 1.8 0 3.2-1.4 3.2-3.2h1.7c.3 0 .5-.2.5-.5v-5.4c.1-1.4-.9-2.5-2.2-2.7zM12 28.2c-1.2 0-2.2-1-2.2-2.2 0-1.2 1-2.2 2.2-2.2 1.2 0 2.2 1 2.2 2.2 0 1.2-1 2.2-2.2 2.2zm14.5-16.3h3.8c.6 0 1.1.5 1.1 1.1h-4.9v-1.1zm0 2.2H31l.8 3.3h-5.3V14.1zm3.3 14.1c-1.2 0-2.2-1-2.2-2.2 0-1.2 1-2.2 2.2-2.2 1.2 0 2.2 1 2.2 2.2 0 1.2-1 2.2-2.2 2.2zm4.4-3.2h-1.3c-.4-1.3-1.6-2.2-3-2.2s-2.6.9-3 2.2h-.2V18.4h6c.7 0 1.4.5 1.6 1.1h-1.6c-.3 0-.5.2-.5.5v1.1c0 .9.7 1.6 1.6 1.6h.6V25zm-.6-3.3c-.3 0-.6-.3-.6-.6v-.6h1.2v1.2h-.6z"/><path class="st0" d="M20.4 13.8c-.2-.2-.5-.2-.7 0l-4.5 4.5-2.3-2.3c-.2-.2-.5-.2-.7 0-.2.2-.2.5 0 .7l2.7 2.7c.1.1.2.1.4.1s.3 0 .4-.1l4.9-4.9c0-.2 0-.5-.2-.7z"/></svg>