<?xml version="1.0" encoding="utf-8"?>
<svg version="1.1" id="Layer_1" xmlns="http://www.w3.org/2000/svg" xmlns:xlink="http://www.w3.org/1999/xlink" x="0px" y="0px"
	 viewBox="0 0 38 38" style="enable-background:new 0 0 38 38;" xml:space="preserve">
<style type="text/css">
	.user-tudoforte{fill:black;}
</style>
<g>
	<path class="user-tudoforte" d="M14.4,16.6c-4.2,0-7.7-3.5-7.7-7.7s3.5-7.7,7.7-7.7s7.7,3.5,7.7,7.7S18.6,16.6,14.4,16.6z M14.4,3.5
		c-3,0-5.4,2.4-5.4,5.4s2.4,5.4,5.4,5.4s5.4-2.4,5.4-5.4S17.4,3.5,14.4,3.5z"/>
	<path class="user-tudoforte" d="M34.8,36.8h-8.5c-1.4,0-2.7-1.3-2.7-2.7v-5.4c0-1.4,1.3-2.7,2.7-2.7h8.5c1.4,0,2.7,1.3,2.7,2.7v5.4
		C37.5,35.5,36.4,36.8,34.8,36.8z M26.3,28.2c-0.2,0-0.4,0.2-0.4,0.4V34c0,0.2,0.2,0.4,0.4,0.4h8.5c0.2,0,0.4-0.2,0.4-0.4v-5.4
		c0-0.2-0.2-0.4-0.4-0.4H26.3z"/>
	<path class="user-tudoforte" d="M33.3,28.2h-5.4c-0.7,0-1.2-0.5-1.2-1.2v-3.5c0-2.1,1.7-3.9,3.9-3.9s3.9,1.7,3.9,3.9v3.5
		C34.4,27.7,34,28.2,33.3,28.2z M29,25.9h3.1v-2.3c0-0.9-0.7-1.5-1.5-1.5c-0.9,0-1.5,0.7-1.5,1.5C29,23.6,29,25.9,29,25.9z"/>
	<path class="user-tudoforte" d="M19.8,33.7H1.6c-0.7,0-1.2-0.5-1.2-1.2v-5.4c0-4.1,3.3-7.3,7.3-7.3h13.5c1.3,0,2.6,0.4,3.7,1
		c0.6,0.3,0.8,1.1,0.4,1.5c-0.3,0.6-1.1,0.8-1.5,0.4c-0.8-0.5-1.6-0.7-2.5-0.7H7.8c-2.8,0-5,2.2-5,5v4.2h17c0.7,0,1.2,0.5,1.2,1.2
		C20.9,33.1,20.4,33.7,19.8,33.7z"/>
</g>
</svg>
