<svg version="1.1" id="Layer_1" xmlns="http://www.w3.org/2000/svg" x="0" y="0" viewBox="0 0 38 38" xml:space="preserve"><style>.user-tudoforte{fill:#000}</style><path class="user-tudoforte" d="M14.4 16.6c-4.2 0-7.7-3.5-7.7-7.7s3.5-7.7 7.7-7.7 7.7 3.5 7.7 7.7-3.5 7.7-7.7 7.7zm0-13.1c-3 0-5.4 2.4-5.4 5.4s2.4 5.4 5.4 5.4 5.4-2.4 5.4-5.4-2.4-5.4-5.4-5.4zM34.8 36.8h-8.5c-1.4 0-2.7-1.3-2.7-2.7v-5.4c0-1.4 1.3-2.7 2.7-2.7h8.5c1.4 0 2.7 1.3 2.7 2.7v5.4c0 1.4-1.1 2.7-2.7 2.7zm-8.5-8.6c-.2 0-.4.2-.4.4V34c0 .2.2.4.4.4h8.5c.2 0 .4-.2.4-.4v-5.4c0-.2-.2-.4-.4-.4h-8.5z"/><path class="user-tudoforte" d="M33.3 28.2h-5.4c-.7 0-1.2-.5-1.2-1.2v-3.5c0-2.1 1.7-3.9 3.9-3.9s3.9 1.7 3.9 3.9V27c-.1.7-.5 1.2-1.2 1.2zM29 25.9h3.1v-2.3c0-.9-.7-1.5-1.5-1.5-.9 0-1.5.7-1.5 1.5-.1 0-.1 2.3-.1 2.3zM19.8 33.7H1.6c-.7 0-1.2-.5-1.2-1.2v-5.4c0-4.1 3.3-7.3 7.3-7.3h13.5c1.3 0 2.6.4 3.7 1 .6.3.8 1.1.4 1.5-.3.6-1.1.8-1.5.4-.8-.5-1.6-.7-2.5-.7H7.8c-2.8 0-5 2.2-5 5v4.2h17c.7 0 1.2.5 1.2 1.2-.1.7-.6 1.3-1.2 1.3z"/></svg>
